ISO-10303-21;
HEADER;

/* File generated by HOOPS Exchange Version 23.2.20 */

FILE_DESCRIPTION(('HOOPS Exchange Step'),'2;1');

FILE_NAME('C:\\Users\\nguye\\Projects\\3D-Model-Collection\\075-lens-cap-128mm\\dist\\075-v1.stp',
'2024-09-19T14:39:26+07:00',
('nguye'),
('Unknown organisation'),
'HOOPS Exchange 2023.2',
'HOOPS Exchange',
'Unknown authorisation');

FILE_SCHEMA( ('AP203_CONFIGURATION_CONTROLLED_3D_DESIGN_OF_MECHANICAL_PARTS_AND_ASSEMBLIES_MIM_LF') );

ENDSEC;

DATA;
#3=(NAMED_UNIT(*)PLANE_ANGLE_UNIT()SI_UNIT($,.RADIAN.));
#4=PLANE_ANGLE_MEASURE_WITH_UNIT(PLANE_ANGLE_MEASURE(0.0174532925),#3);
#5=(CONVERSION_BASED_UNIT('DEGREE',#4)NAMED_UNIT(#6)PLANE_ANGLE_UNIT());
#6=DIMENSIONAL_EXPONENTS(0.,0.,0.,0.,0.,0.,0.);
#7=(NAMED_UNIT(*)SI_UNIT($,.STERADIAN.)SOLID_ANGLE_UNIT());
#8=(LENGTH_UNIT()NAMED_UNIT(*)SI_UNIT(.MILLI.,.METRE.));
#9=UNCERTAINTY_MEASURE_WITH_UNIT(LENGTH_MEASURE(1.000000E-05),#8,'DISTANCE_ACCURACY_VALUE','Maximum Tolerance applied to model');
#10=(GEOMETRIC_REPRESENTATION_CONTEXT(3)GLOBAL_UNCERTAINTY_ASSIGNED_CONTEXT((#9))GLOBAL_UNIT_ASSIGNED_CONTEXT((#8,#5,#7))REPRESENTATION_CONTEXT('','Extruded.001'));
#12=CARTESIAN_POINT('',(0.,0.,0.));
#13=DIRECTION('',(0.,0.,1.));
#14=DIRECTION('',(1.,0.,0.));
#15=AXIS2_PLACEMENT_3D('',#12,#13,#14);
#27=CARTESIAN_POINT('',(0.,0.,-1.));
#28=DIRECTION('',(0.,0.,1.));
#29=DIRECTION('',(1.,0.,0.));
#30=AXIS2_PLACEMENT_3D('',#27,#28,#29);
#31=PLANE('',#30);
#32=CARTESIAN_POINT('',(-0.,-65.,-1.));
#33=VERTEX_POINT('',#32);
#34=CARTESIAN_POINT('',(65.,-0.,-1.));
#35=VERTEX_POINT('',#34);
#36=CARTESIAN_POINT('',(0.,-0.,-1.));
#37=DIRECTION('',(0.,0.,1.));
#38=DIRECTION('',(1.,0.,-0.));
#39=AXIS2_PLACEMENT_3D('',#36,#37,#38);
#40=CIRCLE('',#39,65.);
#41=EDGE_CURVE('',#33,#35,#40,.T.);
#42=ORIENTED_EDGE('',*,*,#41,.F.);
#43=CARTESIAN_POINT('',(0.,-0.,-1.));
#44=DIRECTION('',(0.,0.,1.));
#45=DIRECTION('',(1.,0.,-0.));
#46=AXIS2_PLACEMENT_3D('',#43,#44,#45);
#47=CIRCLE('',#46,65.);
#48=EDGE_CURVE('',#35,#33,#47,.T.);
#49=ORIENTED_EDGE('',*,*,#48,.F.);
#50=EDGE_LOOP('',(#42,#49));
#51=FACE_BOUND('',#50,.T.);
#52=ADVANCED_FACE('',(#51),#31,.F.);
#53=CARTESIAN_POINT('',(0.,0.,0.));
#54=DIRECTION('',(0.,0.,1.));
#55=DIRECTION('',(0.,-1.,0.));
#56=AXIS2_PLACEMENT_3D('',#53,#54,#55);
#57=CYLINDRICAL_SURFACE('',#56,65.);
#58=CARTESIAN_POINT('',(-0.,-65.,1.));
#59=VERTEX_POINT('',#58);
#60=CARTESIAN_POINT('',(0.,-65.,1.));
#61=DIRECTION('',(-0.,-0.,-1.));
#62=VECTOR('',#61,2.);
#63=LINE('',#60,#62);
#64=EDGE_CURVE('',#59,#33,#63,.T.);
#65=ORIENTED_EDGE('',*,*,#64,.T.);
#66=ORIENTED_EDGE('',*,*,#41,.T.);
#67=ORIENTED_EDGE('',*,*,#48,.T.);
#68=ORIENTED_EDGE('',*,*,#64,.F.);
#69=CARTESIAN_POINT('',(65.,-0.,1.));
#70=VERTEX_POINT('',#69);
#71=CARTESIAN_POINT('',(0.,0.,1.));
#72=DIRECTION('',(0.,0.,1.));
#73=DIRECTION('',(1.,0.,-0.));
#74=AXIS2_PLACEMENT_3D('',#71,#72,#73);
#75=CIRCLE('',#74,65.);
#76=EDGE_CURVE('',#70,#59,#75,.T.);
#77=ORIENTED_EDGE('',*,*,#76,.F.);
#78=CARTESIAN_POINT('',(0.,0.,1.));
#79=DIRECTION('',(0.,0.,1.));
#80=DIRECTION('',(1.,0.,-0.));
#81=AXIS2_PLACEMENT_3D('',#78,#79,#80);
#82=CIRCLE('',#81,65.);
#83=EDGE_CURVE('',#59,#70,#82,.T.);
#84=ORIENTED_EDGE('',*,*,#83,.F.);
#85=EDGE_LOOP('',(#65,#66,#67,#68,#77,#84));
#86=FACE_BOUND('',#85,.T.);
#87=ADVANCED_FACE('',(#86),#57,.T.);
#88=CARTESIAN_POINT('',(0.,0.,1.));
#89=DIRECTION('',(0.,0.,1.));
#90=DIRECTION('',(1.,0.,0.));
#91=AXIS2_PLACEMENT_3D('',#88,#89,#90);
#92=PLANE('',#91);
#93=ORIENTED_EDGE('',*,*,#76,.T.);
#94=ORIENTED_EDGE('',*,*,#83,.T.);
#95=EDGE_LOOP('',(#93,#94));
#96=FACE_BOUND('',#95,.T.);
#97=CARTESIAN_POINT('',(-0.,-66.,1.));
#98=VERTEX_POINT('',#97);
#99=CARTESIAN_POINT('',(66.,-0.,1.));
#100=VERTEX_POINT('',#99);
#101=CARTESIAN_POINT('',(0.,-0.,1.));
#102=DIRECTION('',(0.,0.,1.));
#103=DIRECTION('',(1.,0.,-0.));
#104=AXIS2_PLACEMENT_3D('',#101,#102,#103);
#105=CIRCLE('',#104,66.);
#106=EDGE_CURVE('',#98,#100,#105,.T.);
#107=ORIENTED_EDGE('',*,*,#106,.F.);
#108=CARTESIAN_POINT('',(0.,-0.,1.));
#109=DIRECTION('',(0.,0.,1.));
#110=DIRECTION('',(1.,0.,-0.));
#111=AXIS2_PLACEMENT_3D('',#108,#109,#110);
#112=CIRCLE('',#111,66.);
#113=EDGE_CURVE('',#100,#98,#112,.T.);
#114=ORIENTED_EDGE('',*,*,#113,.F.);
#115=EDGE_LOOP('',(#107,#114));
#116=FACE_BOUND('',#115,.T.);
#117=ADVANCED_FACE('',(#96,#116),#92,.F.);
#118=CARTESIAN_POINT('',(0.,0.,19.));
#119=DIRECTION('',(0.,0.,1.));
#120=DIRECTION('',(1.,0.,0.));
#121=AXIS2_PLACEMENT_3D('',#118,#119,#120);
#122=PLANE('',#121);
#123=CARTESIAN_POINT('',(-0.,-65.,19.));
#124=VERTEX_POINT('',#123);
#125=CARTESIAN_POINT('',(65.,-0.,19.));
#126=VERTEX_POINT('',#125);
#127=CARTESIAN_POINT('',(0.,0.,19.));
#128=DIRECTION('',(0.,0.,1.));
#129=DIRECTION('',(1.,0.,-0.));
#130=AXIS2_PLACEMENT_3D('',#127,#128,#129);
#131=CIRCLE('',#130,65.);
#132=EDGE_CURVE('',#124,#126,#131,.T.);
#133=ORIENTED_EDGE('',*,*,#132,.F.);
#134=CARTESIAN_POINT('',(0.,0.,19.));
#135=DIRECTION('',(0.,0.,1.));
#136=DIRECTION('',(1.,0.,-0.));
#137=AXIS2_PLACEMENT_3D('',#134,#135,#136);
#138=CIRCLE('',#137,65.);
#139=EDGE_CURVE('',#126,#124,#138,.T.);
#140=ORIENTED_EDGE('',*,*,#139,.F.);
#141=EDGE_LOOP('',(#133,#140));
#142=FACE_BOUND('',#141,.T.);
#143=CARTESIAN_POINT('',(66.,-0.,19.));
#144=VERTEX_POINT('',#143);
#145=CARTESIAN_POINT('',(-0.,-66.,19.));
#146=VERTEX_POINT('',#145);
#147=CARTESIAN_POINT('',(0.,0.,19.));
#148=DIRECTION('',(0.,0.,1.));
#149=DIRECTION('',(1.,0.,-0.));
#150=AXIS2_PLACEMENT_3D('',#147,#148,#149);
#151=CIRCLE('',#150,66.);
#152=EDGE_CURVE('',#144,#146,#151,.T.);
#153=ORIENTED_EDGE('',*,*,#152,.T.);
#154=CARTESIAN_POINT('',(0.,0.,19.));
#155=DIRECTION('',(0.,0.,1.));
#156=DIRECTION('',(1.,0.,-0.));
#157=AXIS2_PLACEMENT_3D('',#154,#155,#156);
#158=CIRCLE('',#157,66.);
#159=EDGE_CURVE('',#146,#144,#158,.T.);
#160=ORIENTED_EDGE('',*,*,#159,.T.);
#161=EDGE_LOOP('',(#153,#160));
#162=FACE_BOUND('',#161,.T.);
#163=ADVANCED_FACE('',(#142,#162),#122,.T.);
#164=CARTESIAN_POINT('',(0.,0.,2.));
#165=DIRECTION('',(0.,0.,1.));
#166=DIRECTION('',(0.,-1.,0.));
#167=AXIS2_PLACEMENT_3D('',#164,#165,#166);
#168=CYLINDRICAL_SURFACE('',#167,66.);
#169=CARTESIAN_POINT('',(0.,-66.,19.));
#170=DIRECTION('',(-0.,-0.,-1.));
#171=VECTOR('',#170,18.);
#172=LINE('',#169,#171);
#173=EDGE_CURVE('',#146,#98,#172,.T.);
#174=ORIENTED_EDGE('',*,*,#173,.T.);
#175=ORIENTED_EDGE('',*,*,#106,.T.);
#176=ORIENTED_EDGE('',*,*,#113,.T.);
#177=ORIENTED_EDGE('',*,*,#173,.F.);
#178=ORIENTED_EDGE('',*,*,#152,.F.);
#179=ORIENTED_EDGE('',*,*,#159,.F.);
#180=EDGE_LOOP('',(#174,#175,#176,#177,#178,#179));
#181=FACE_BOUND('',#180,.T.);
#182=ADVANCED_FACE('',(#181),#168,.T.);
#183=CARTESIAN_POINT('',(0.,0.,0.));
#184=DIRECTION('',(0.,0.,1.));
#185=DIRECTION('',(1.,0.,0.));
#186=AXIS2_PLACEMENT_3D('',#183,#184,#185);
#187=PLANE('',#186);
#188=CARTESIAN_POINT('',(62.910112287,-11.760857625,0.));
#189=VERTEX_POINT('',#188);
#190=CARTESIAN_POINT('',(-0.,-64.,0.));
#191=VERTEX_POINT('',#190);
#192=CARTESIAN_POINT('',(0.,0.,0.));
#193=DIRECTION('',(0.,0.,1.));
#194=DIRECTION('',(0.982970504,-0.1837634,0.));
#195=AXIS2_PLACEMENT_3D('',#192,#193,#194);
#196=CIRCLE('',#195,64.);
#197=EDGE_CURVE('',#189,#191,#196,.T.);
#198=ORIENTED_EDGE('',*,*,#197,.T.);
#199=CARTESIAN_POINT('',(0.,0.,0.));
#200=DIRECTION('',(0.,0.,1.));
#201=DIRECTION('',(0.982970504,-0.1837634,0.));
#202=AXIS2_PLACEMENT_3D('',#199,#200,#201);
#203=CIRCLE('',#202,64.);
#204=EDGE_CURVE('',#191,#189,#203,.T.);
#205=ORIENTED_EDGE('',*,*,#204,.T.);
#206=EDGE_LOOP('',(#198,#205));
#207=FACE_BOUND('',#206,.T.);
#208=ADVANCED_FACE('',(#207),#187,.T.);
#209=CARTESIAN_POINT('',(0.,0.,0.));
#210=DIRECTION('',(0.,0.,1.));
#211=DIRECTION('',(0.,-1.,0.));
#212=AXIS2_PLACEMENT_3D('',#209,#210,#211);
#213=CYLINDRICAL_SURFACE('',#212,64.);
#214=CARTESIAN_POINT('',(-0.,-64.,2.));
#215=VERTEX_POINT('',#214);
#216=CARTESIAN_POINT('',(0.,-64.,2.));
#217=DIRECTION('',(-0.,-0.,-1.));
#218=VECTOR('',#217,2.);
#219=LINE('',#216,#218);
#220=EDGE_CURVE('',#215,#191,#219,.T.);
#221=ORIENTED_EDGE('',*,*,#220,.F.);
#222=CARTESIAN_POINT('',(62.910112287,-11.760857625,2.));
#223=VERTEX_POINT('',#222);
#224=CARTESIAN_POINT('',(0.,0.,2.));
#225=DIRECTION('',(0.,0.,1.));
#226=DIRECTION('',(0.982970504,-0.1837634,0.));
#227=AXIS2_PLACEMENT_3D('',#224,#225,#226);
#228=CIRCLE('',#227,64.);
#229=EDGE_CURVE('',#215,#223,#228,.T.);
#230=ORIENTED_EDGE('',*,*,#229,.T.);
#231=CARTESIAN_POINT('',(0.,0.,2.));
#232=DIRECTION('',(0.,0.,1.));
#233=DIRECTION('',(0.982970504,-0.1837634,0.));
#234=AXIS2_PLACEMENT_3D('',#231,#232,#233);
#235=CIRCLE('',#234,64.);
#236=EDGE_CURVE('',#223,#215,#235,.T.);
#237=ORIENTED_EDGE('',*,*,#236,.T.);
#238=ORIENTED_EDGE('',*,*,#220,.T.);
#239=ORIENTED_EDGE('',*,*,#197,.F.);
#240=ORIENTED_EDGE('',*,*,#204,.F.);
#241=EDGE_LOOP('',(#221,#230,#237,#238,#239,#240));
#242=FACE_BOUND('',#241,.T.);
#243=ADVANCED_FACE('',(#242),#213,.F.);
#244=CARTESIAN_POINT('',(0.,0.,2.));
#245=DIRECTION('',(0.,0.,1.));
#246=DIRECTION('',(1.,0.,0.));
#247=AXIS2_PLACEMENT_3D('',#244,#245,#246);
#248=PLANE('',#247);
#249=ORIENTED_EDGE('',*,*,#229,.F.);
#250=ORIENTED_EDGE('',*,*,#236,.F.);
#251=EDGE_LOOP('',(#249,#250));
#252=FACE_BOUND('',#251,.T.);
#253=CARTESIAN_POINT('',(65.,-0.,2.));
#254=VERTEX_POINT('',#253);
#255=CARTESIAN_POINT('',(-0.,-65.,2.));
#256=VERTEX_POINT('',#255);
#257=CARTESIAN_POINT('',(0.,0.,2.));
#258=DIRECTION('',(0.,0.,1.));
#259=DIRECTION('',(1.,0.,-0.));
#260=AXIS2_PLACEMENT_3D('',#257,#258,#259);
#261=CIRCLE('',#260,65.);
#262=EDGE_CURVE('',#254,#256,#261,.T.);
#263=ORIENTED_EDGE('',*,*,#262,.T.);
#264=CARTESIAN_POINT('',(0.,0.,2.));
#265=DIRECTION('',(0.,0.,1.));
#266=DIRECTION('',(1.,0.,-0.));
#267=AXIS2_PLACEMENT_3D('',#264,#265,#266);
#268=CIRCLE('',#267,65.);
#269=EDGE_CURVE('',#256,#254,#268,.T.);
#270=ORIENTED_EDGE('',*,*,#269,.T.);
#271=EDGE_LOOP('',(#263,#270));
#272=FACE_BOUND('',#271,.T.);
#273=ADVANCED_FACE('',(#252,#272),#248,.T.);
#274=CARTESIAN_POINT('',(0.,0.,2.));
#275=DIRECTION('',(0.,0.,1.));
#276=DIRECTION('',(0.,-1.,0.));
#277=AXIS2_PLACEMENT_3D('',#274,#275,#276);
#278=CYLINDRICAL_SURFACE('',#277,65.);
#279=CARTESIAN_POINT('',(0.,-65.,19.));
#280=DIRECTION('',(-0.,-0.,-1.));
#281=VECTOR('',#280,17.);
#282=LINE('',#279,#281);
#283=EDGE_CURVE('',#124,#256,#282,.T.);
#284=ORIENTED_EDGE('',*,*,#283,.F.);
#285=ORIENTED_EDGE('',*,*,#132,.T.);
#286=ORIENTED_EDGE('',*,*,#139,.T.);
#287=ORIENTED_EDGE('',*,*,#283,.T.);
#288=ORIENTED_EDGE('',*,*,#262,.F.);
#289=ORIENTED_EDGE('',*,*,#269,.F.);
#290=EDGE_LOOP('',(#284,#285,#286,#287,#288,#289));
#291=FACE_BOUND('',#290,.T.);
#292=ADVANCED_FACE('',(#291),#278,.F.);
#293=CLOSED_SHELL('',(#52,#87,#117,#163,#182,#208,#243,#273,#292));
#294=MANIFOLD_SOLID_BREP('Extruded.001',#293);
#26=STYLED_ITEM('',(),#294);
#16=SHAPE_REPRESENTATION('Extruded.001',(#15),#10);
#17=ADVANCED_BREP_SHAPE_REPRESENTATION('Extruded.001',(#294),#10);
#302=SHAPE_REPRESENTATION_RELATIONSHIP('','',#16,#17);
#303=APPLICATION_CONTEXT('configuration controlled 3D design of mechanical parts and assemblies');
#304=APPLICATION_PROTOCOL_DEFINITION('international standard','configuration_control_3d_design_ed2_mim',2004,#303);
#305=PRODUCT_CONTEXT('',#303,'mechanical');
#306=PRODUCT_DEFINITION_CONTEXT('part definition',#303,'design');
#24=PRODUCT('Extruded.001','Extruded.001','',(#305));
#307=PRODUCT_RELATED_PRODUCT_CATEGORY('part','',(#24));
#308=PRODUCT_DEFINITION_FORMATION_WITH_SPECIFIED_SOURCE('','',#24,.NOT_KNOWN.);
#25=PRODUCT_DEFINITION('design','',#308,#306);
#23=PRODUCT_DEFINITION_SHAPE('','',#25);
#309=SHAPE_DEFINITION_REPRESENTATION(#23,#16);
#11=DRAUGHTING_MODEL('',(),#10);
#1=MECHANICAL_DESIGN_GEOMETRIC_PRESENTATION_REPRESENTATION('',(#26),#10);
ENDSEC;
END-ISO-10303-21;
