<svg version="1.1" id="Layer_1" xmlns="http://www.w3.org/2000/svg" xmlns:xlink="http://www.w3.org/1999/xlink" x="0px" y="0px"
	 width="100%" viewBox="0 0 1000 1000" enable-background="new 0 0 1000 1000" xml:space="preserve">
<path fill="#000000" opacity="1.000000" stroke="none" 
	d="
M1001.000000,368.000000 
	C1001.000000,579.333313 1001.000000,790.166687 1001.000000,1001.000000 
	C667.666687,1001.000000 334.333344,1001.000000 1.000000,1001.000000 
	C1.000000,667.666687 1.000000,334.333344 1.000000,1.000000 
	C334.333344,1.000000 667.666687,1.000000 1001.000000,1.000000 
	C1001.000000,123.166664 1001.000000,245.333328 1001.000000,368.000000 
M191.498672,887.998779 
	C200.431213,894.692688 209.174210,901.659058 218.331955,908.029236 
	C245.532623,926.950134 274.360718,942.953186 304.845673,956.021851 
	C327.485596,965.727356 350.617493,973.906982 374.474182,980.007996 
	C393.870026,984.968140 413.311462,989.560852 433.388641,991.152466 
	C446.977570,992.229797 460.460602,995.474731 474.032715,995.759094 
	C502.039154,996.345886 530.138062,997.210632 558.008301,992.997864 
	C575.036926,990.423889 592.229309,988.498291 608.997314,984.723389 
	C647.179138,976.127625 684.154175,963.672485 719.281738,946.241760 
	C744.184875,933.884460 767.985046,919.662781 790.530701,903.291077 
	C812.038940,887.672791 832.650757,871.043518 850.807983,851.619995 
	C865.057129,836.377136 879.523315,821.201477 892.308289,804.763306 
	C905.376282,787.961426 917.476318,770.221191 928.224548,751.852722 
	C938.992859,733.449829 948.570007,714.184326 956.826172,694.522949 
	C965.370667,674.174988 972.449402,653.121643 978.792053,631.963989 
	C985.382507,609.979675 989.903381,587.427307 992.085327,564.481506 
	C993.221985,552.528320 995.583313,540.622375 995.800659,528.666199 
	C996.181213,507.736328 995.855957,486.758514 994.824829,465.850189 
	C994.113770,451.429993 991.943420,437.062469 990.020630,422.725647 
	C986.568726,396.987061 980.047180,371.940948 972.092651,347.263641 
	C961.019470,312.911072 946.388489,280.174683 928.087830,249.013199 
	C907.366882,213.730637 882.374939,181.806931 853.937256,152.508911 
	C848.513550,146.921143 842.757751,141.633423 836.914429,136.480225 
	C827.263855,127.969482 817.758301,119.238457 807.580078,111.393730 
	C788.200073,96.456909 767.922607,82.842468 746.600708,70.709625 
	C721.664673,56.520172 695.747375,44.619659 668.796875,34.929234 
	C637.712036,23.752222 605.999084,14.891088 573.110474,10.981839 
	C555.947083,8.941740 538.722961,6.717144 521.478699,6.218543 
	C496.473969,5.495553 471.392914,5.096059 446.493744,8.945875 
	C431.567841,11.253673 416.280518,11.924815 401.681183,15.486071 
	C377.367767,21.416895 353.213745,28.289263 329.469818,36.197937 
	C295.032013,47.668549 263.036591,64.492729 232.479202,84.030060 
	C206.048187,100.929123 181.577698,120.400864 158.823090,141.913376 
	C146.908401,153.177689 135.287262,164.983795 125.104187,177.793762 
	C110.104248,196.663162 96.098289,216.366165 82.419449,236.230911 
	C66.510574,259.334167 54.307716,284.553192 43.433556,310.332550 
	C31.819637,337.865631 22.972538,366.316162 16.615400,395.571686 
	C11.120770,420.857910 7.486653,446.421539 6.264858,472.172791 
	C5.297829,492.554474 5.993434,513.085754 7.188559,533.478027 
	C8.235741,551.345947 9.854139,569.339050 13.296692,586.869080 
	C17.896851,610.293701 23.388386,633.672852 30.506075,656.443604 
	C41.407795,691.320129 56.837124,724.315002 75.792366,755.692566 
	C97.116234,790.990967 122.302551,823.175293 151.128738,852.574463 
	C154.831619,856.350952 158.842819,859.838074 162.841400,863.309265 
	C172.182220,871.418091 181.602280,879.435669 191.498672,887.998779 
z"/>
<path fill="#5D7486" opacity="1.000000" stroke="none" 
	d="
M191.244446,887.744507 
	C181.602280,879.435669 172.182220,871.418091 162.841400,863.309265 
	C158.842819,859.838074 154.831619,856.350952 151.128738,852.574463 
	C122.302551,823.175293 97.116234,790.990967 75.792366,755.692566 
	C56.837124,724.315002 41.407795,691.320129 30.506075,656.443604 
	C23.388386,633.672852 17.896851,610.293701 13.296692,586.869080 
	C9.854139,569.339050 8.235741,551.345947 7.188559,533.478027 
	C5.993434,513.085754 5.297829,492.554474 6.264858,472.172791 
	C7.486653,446.421539 11.120770,420.857910 16.615400,395.571686 
	C22.972538,366.316162 31.819637,337.865631 43.433556,310.332550 
	C54.307716,284.553192 66.510574,259.334167 82.419449,236.230911 
	C96.098289,216.366165 110.104248,196.663162 125.104187,177.793762 
	C135.287262,164.983795 146.908401,153.177689 158.823090,141.913376 
	C181.577698,120.400864 206.048187,100.929123 232.479202,84.030060 
	C263.036591,64.492729 295.032013,47.668549 329.469818,36.197937 
	C353.213745,28.289263 377.367767,21.416895 401.681183,15.486071 
	C416.280518,11.924815 431.567841,11.253673 446.493744,8.945875 
	C471.392914,5.096059 496.473969,5.495553 521.478699,6.218543 
	C538.722961,6.717144 555.947083,8.941740 573.110474,10.981839 
	C605.999084,14.891088 637.712036,23.752222 668.796875,34.929234 
	C695.747375,44.619659 721.664673,56.520172 746.600708,70.709625 
	C767.922607,82.842468 788.200073,96.456909 807.580078,111.393730 
	C817.758301,119.238457 827.263855,127.969482 836.914429,136.480225 
	C842.757751,141.633423 848.513550,146.921143 853.937256,152.508911 
	C882.374939,181.806931 907.366882,213.730637 928.087830,249.013199 
	C946.388489,280.174683 961.019470,312.911072 972.092651,347.263641 
	C980.047180,371.940948 986.568726,396.987061 990.020630,422.725647 
	C991.943420,437.062469 994.113770,451.429993 994.824829,465.850189 
	C995.855957,486.758514 996.181213,507.736328 995.800659,528.666199 
	C995.583313,540.622375 993.221985,552.528320 992.085327,564.481506 
	C989.903381,587.427307 985.382507,609.979675 978.792053,631.963989 
	C972.449402,653.121643 965.370667,674.174988 956.826172,694.522949 
	C948.570007,714.184326 938.992859,733.449829 928.224548,751.852722 
	C917.476318,770.221191 905.376282,787.961426 892.308289,804.763306 
	C879.523315,821.201477 865.057129,836.377136 850.807983,851.619995 
	C832.650757,871.043518 812.038940,887.672791 790.530701,903.291077 
	C767.985046,919.662781 744.184875,933.884460 719.281738,946.241760 
	C684.154175,963.672485 647.179138,976.127625 608.997314,984.723389 
	C592.229309,988.498291 575.036926,990.423889 558.008301,992.997864 
	C530.138062,997.210632 502.039154,996.345886 474.032715,995.759094 
	C460.460602,995.474731 446.977570,992.229797 433.388641,991.152466 
	C413.311462,989.560852 393.870026,984.968140 374.474182,980.007996 
	C350.617493,973.906982 327.485596,965.727356 304.845673,956.021851 
	C274.360718,942.953186 245.532623,926.950134 218.331955,908.029236 
	C209.174210,901.659058 200.431213,894.692688 191.244446,887.744507 
M957.973572,423.705231 
	C957.658630,422.599579 957.310852,421.502075 957.033630,420.386993 
	C952.058594,400.373077 947.717041,380.176025 941.983765,360.382019 
	C932.341125,327.091095 917.964844,295.821411 900.117371,266.056488 
	C881.725464,235.383682 859.716980,207.560959 835.098206,181.792007 
	C824.573792,170.775955 813.351440,160.341415 801.745300,150.466446 
	C788.360229,139.077850 774.517639,128.163986 760.305054,117.825600 
	C738.305115,101.822533 714.528625,88.827820 689.629578,77.800072 
	C667.674683,68.076294 645.090515,60.246414 621.939819,54.035755 
	C596.870789,47.310459 571.478638,42.200245 545.572083,39.958626 
	C530.135681,38.622963 514.712463,36.571903 499.253601,36.244530 
	C487.617462,35.998100 475.927277,37.906559 464.273865,38.992039 
	C454.109283,39.938831 443.830902,40.383041 433.836609,42.280689 
	C415.828644,45.699924 397.897064,49.645752 380.112823,54.089176 
	C354.439972,60.503571 329.675873,69.657700 305.647675,80.744980 
	C281.394196,91.936226 258.190399,105.082306 236.918594,121.196480 
	C218.952606,134.806366 201.312637,148.988220 184.675751,164.173950 
	C165.363815,181.801361 148.093567,201.461655 132.052856,222.226929 
	C116.637177,242.183121 102.897850,263.129272 90.922417,285.281067 
	C75.697563,313.443573 64.023003,343.081238 55.735294,373.925842 
	C50.600483,393.036224 46.826870,412.539459 43.116222,431.994904 
	C41.027088,442.948517 39.957359,454.134857 39.056698,465.267212 
	C37.891376,479.670776 35.224030,493.965088 36.883385,508.589996 
	C38.685486,524.473022 39.133640,540.516541 41.140202,556.367554 
	C43.010983,571.146118 45.249924,585.995422 48.946045,600.398071 
	C54.559376,622.271606 60.920387,644.006226 68.149994,665.398987 
	C78.030884,694.637268 92.033035,722.067017 109.329857,747.594177 
	C120.556885,764.163269 132.501678,780.370972 145.453140,795.611938 
	C158.709045,811.211182 173.029922,826.021179 187.915222,840.085938 
	C201.542892,852.962463 215.940399,865.218140 231.105392,876.222229 
	C248.072327,888.533936 265.835938,899.918213 284.061890,910.283508 
	C309.980896,925.024048 337.733124,935.819092 366.442444,943.923767 
	C380.776855,947.970337 395.161316,952.103333 409.779572,954.814880 
	C428.483063,958.284241 447.394318,960.827576 466.312531,962.881592 
	C480.495697,964.421570 494.661957,966.913635 509.126953,965.113892 
	C521.389648,963.588196 533.833435,963.496582 546.084290,961.903198 
	C562.824829,959.725952 579.550476,957.200562 596.118652,953.980957 
	C630.378723,947.323425 663.369812,936.408752 695.061096,921.867004 
	C717.351562,911.638794 738.539551,899.402039 758.669922,885.231689 
	C788.482239,864.245911 816.387146,841.172119 840.600708,813.839600 
	C850.770020,802.360352 860.956604,790.862976 870.491211,778.862061 
	C886.976440,758.112610 901.164124,735.830444 913.378052,712.273743 
	C926.427795,687.105164 936.572021,660.817993 944.676025,633.694763 
	C954.670410,600.244568 961.061829,566.086975 963.850159,531.327454 
	C965.034302,516.566101 964.802124,501.681183 964.931763,486.849945 
	C964.985168,480.744202 964.618835,474.592682 963.880920,468.530487 
	C962.095154,453.859863 959.978638,439.229492 957.973572,423.705231 
z"/>
<path fill="#000000" opacity="1.000000" stroke="none" 
	d="
M957.984497,424.144073 
	C959.978638,439.229492 962.095154,453.859863 963.880920,468.530487 
	C964.618835,474.592682 964.985168,480.744202 964.931763,486.849945 
	C964.802124,501.681183 965.034302,516.566101 963.850159,531.327454 
	C961.061829,566.086975 954.670410,600.244568 944.676025,633.694763 
	C936.572021,660.817993 926.427795,687.105164 913.378052,712.273743 
	C901.164124,735.830444 886.976440,758.112610 870.491211,778.862061 
	C860.956604,790.862976 850.770020,802.360352 840.600708,813.839600 
	C816.387146,841.172119 788.482239,864.245911 758.669922,885.231689 
	C738.539551,899.402039 717.351562,911.638794 695.061096,921.867004 
	C663.369812,936.408752 630.378723,947.323425 596.118652,953.980957 
	C579.550476,957.200562 562.824829,959.725952 546.084290,961.903198 
	C533.833435,963.496582 521.389648,963.588196 509.126953,965.113892 
	C494.661957,966.913635 480.495697,964.421570 466.312531,962.881592 
	C447.394318,960.827576 428.483063,958.284241 409.779572,954.814880 
	C395.161316,952.103333 380.776855,947.970337 366.442444,943.923767 
	C337.733124,935.819092 309.980896,925.024048 284.061890,910.283508 
	C265.835938,899.918213 248.072327,888.533936 231.105392,876.222229 
	C215.940399,865.218140 201.542892,852.962463 187.915222,840.085938 
	C173.029922,826.021179 158.709045,811.211182 145.453140,795.611938 
	C132.501678,780.370972 120.556885,764.163269 109.329857,747.594177 
	C92.033035,722.067017 78.030884,694.637268 68.149994,665.398987 
	C60.920387,644.006226 54.559376,622.271606 48.946045,600.398071 
	C45.249924,585.995422 43.010983,571.146118 41.140202,556.367554 
	C39.133640,540.516541 38.685486,524.473022 36.883385,508.589996 
	C35.224030,493.965088 37.891376,479.670776 39.056698,465.267212 
	C39.957359,454.134857 41.027088,442.948517 43.116222,431.994904 
	C46.826870,412.539459 50.600483,393.036224 55.735294,373.925842 
	C64.023003,343.081238 75.697563,313.443573 90.922417,285.281067 
	C102.897850,263.129272 116.637177,242.183121 132.052856,222.226929 
	C148.093567,201.461655 165.363815,181.801361 184.675751,164.173950 
	C201.312637,148.988220 218.952606,134.806366 236.918594,121.196480 
	C258.190399,105.082306 281.394196,91.936226 305.647675,80.744980 
	C329.675873,69.657700 354.439972,60.503571 380.112823,54.089176 
	C397.897064,49.645752 415.828644,45.699924 433.836609,42.280689 
	C443.830902,40.383041 454.109283,39.938831 464.273865,38.992039 
	C475.927277,37.906559 487.617462,35.998100 499.253601,36.244530 
	C514.712463,36.571903 530.135681,38.622963 545.572083,39.958626 
	C571.478638,42.200245 596.870789,47.310459 621.939819,54.035755 
	C645.090515,60.246414 667.674683,68.076294 689.629578,77.800072 
	C714.528625,88.827820 738.305115,101.822533 760.305054,117.825600 
	C774.517639,128.163986 788.360229,139.077850 801.745300,150.466446 
	C813.351440,160.341415 824.573792,170.775955 835.098206,181.792007 
	C859.716980,207.560959 881.725464,235.383682 900.117371,266.056488 
	C917.964844,295.821411 932.341125,327.091095 941.983765,360.382019 
	C947.717041,380.176025 952.058594,400.373077 957.033630,420.386993 
	C957.310852,421.502075 957.658630,422.599579 957.984497,424.144073 
M506.051575,523.833496 
	C505.392365,550.950439 506.006805,577.996338 511.439484,604.692383 
	C517.306763,633.523987 526.554810,661.169556 541.389282,686.726501 
	C553.690674,707.919434 568.339172,727.084961 589.676636,740.089294 
	C605.310486,749.617371 621.091125,752.333679 637.125549,740.645447 
	C640.721313,738.024292 644.929810,736.243652 649.200867,734.694275 
	C658.007385,749.622437 662.777100,765.995056 664.811096,782.977722 
	C666.905029,800.461365 667.228149,818.154175 669.205750,835.656067 
	C670.050720,843.133850 672.011353,850.932678 675.428772,857.575378 
	C681.710327,869.785522 693.494263,871.746155 706.822510,870.974121 
	C717.128845,869.425537 719.617798,866.276794 721.813232,857.653625 
	C723.010864,852.949158 722.928955,847.850708 722.954712,842.927490 
	C723.098083,815.528442 723.664062,788.103882 719.019348,760.928772 
	C716.991333,749.062744 715.212646,737.152710 713.061890,725.309631 
	C711.583801,717.170715 709.660034,709.112854 708.587219,700.732605 
	C715.210388,696.296021 722.986389,696.105286 730.452881,694.585449 
	C762.403748,688.081421 791.819946,675.942810 816.775024,654.417358 
	C821.266357,650.543274 825.118530,645.928223 829.955627,640.944702 
	C823.298401,638.540710 818.278687,636.808289 813.321655,634.912109 
	C809.520020,633.457947 809.222412,631.741821 812.463806,629.394348 
	C815.827759,626.958008 819.394226,624.798218 822.900146,622.561462 
	C830.180176,617.917114 837.681213,613.585571 844.700623,608.577698 
	C849.622681,605.066223 849.211487,601.119934 844.001099,598.611023 
	C839.984314,596.676941 835.705811,595.174255 831.406616,593.968445 
	C826.391785,592.561829 821.227844,591.686829 815.446777,590.433289 
	C816.587585,589.494934 817.067200,589.096863 817.550476,588.703308 
	C828.751831,579.582092 840.302368,570.848816 851.026001,561.196899 
	C857.588013,555.290649 862.299866,547.634521 863.820068,538.556763 
	C864.725220,533.151733 863.753784,532.066895 858.259949,532.008911 
	C855.260620,531.977234 852.249451,532.167297 849.263855,531.961975 
	C844.931274,531.664062 840.617004,531.098938 835.327881,530.546814 
	C836.800537,527.951355 837.386292,526.373169 838.422913,525.189941 
	C842.145935,520.940430 845.991394,516.796448 849.845337,512.663696 
	C857.341187,504.625488 863.131042,495.630219 865.544739,484.752563 
	C865.802185,483.592346 865.579468,482.325562 865.579468,480.637207 
	C863.818237,481.327667 862.571167,481.721588 861.407959,482.287750 
	C852.825439,486.465240 843.775330,486.893860 834.600647,485.314270 
	C827.087463,484.020691 826.072021,482.125458 829.982361,475.271210 
	C836.570740,463.722992 843.873535,452.582855 850.481995,441.045502 
	C854.262207,434.445892 857.703979,427.572540 860.470520,420.498840 
	C862.488586,415.338898 859.461060,412.265259 854.086304,413.258179 
	C847.563110,414.463318 841.077332,415.885559 834.605774,417.348236 
	C832.293396,417.870850 830.069702,418.785553 826.828491,419.838837 
	C827.932373,417.659302 828.496399,416.502869 829.097290,415.365936 
	C835.708496,402.857880 842.826416,390.492981 845.235962,376.334595 
	C846.218201,370.562866 845.967773,364.525085 845.749268,358.627960 
	C845.631592,355.453064 843.601562,353.079865 839.970886,354.581238 
	C833.890076,357.095886 827.831482,359.721313 821.986023,362.731964 
	C816.397400,365.610321 811.303345,369.510010 805.592407,372.069336 
	C801.413208,373.942169 796.645325,374.053131 793.684509,371.062042 
	C796.769409,364.781708 800.025696,359.375458 802.170593,353.559357 
	C808.945068,335.189453 808.312500,315.970093 807.831848,296.824097 
	C807.778442,294.695282 807.096924,292.570374 806.606689,290.466949 
	C805.758850,286.828918 803.572388,286.421997 800.702759,288.258911 
	C799.594971,288.967987 798.634766,289.927734 797.674194,290.843414 
	C789.966797,298.190033 782.458679,305.760712 774.488464,312.809357 
	C771.327820,315.604553 767.152527,317.252441 763.439209,319.422729 
	C762.968872,319.022980 762.498535,318.623260 762.028198,318.223511 
	C765.307922,304.501953 766.146606,290.700012 764.001282,276.831970 
	C761.861938,263.002808 759.133484,249.360214 750.587097,236.776337 
	C743.631653,247.080811 737.338257,256.404358 730.618530,266.359558 
	C728.600220,251.341827 727.231201,237.443161 724.714844,223.755432 
	C723.077332,214.847992 719.973267,206.180420 717.120850,197.539185 
	C715.785339,193.493332 712.569763,193.292831 709.663635,196.044403 
	C707.027222,198.540588 704.546204,201.310211 702.513306,204.309402 
	C699.205688,209.189117 696.319275,214.354248 692.664612,220.371094 
	C691.547791,217.311005 690.453186,215.273300 690.074341,213.110245 
	C688.270508,202.810501 686.929382,192.423065 684.880127,182.175491 
	C683.686646,176.207062 681.918518,170.244232 679.459167,164.700195 
	C678.647034,162.869370 674.862976,162.356934 672.437805,161.241714 
	C671.626648,163.202835 670.262634,165.123398 670.115234,167.133179 
	C669.769043,171.854660 670.004395,176.618790 670.004395,181.365677 
	C669.538391,181.494217 669.072388,181.622772 668.606445,181.751328 
	C667.304626,179.002396 665.734375,176.345978 664.749695,173.487793 
	C661.340515,163.592163 658.391907,153.530563 654.736511,143.730392 
	C653.082214,139.295227 649.649109,136.019150 644.609314,134.910599 
	C639.114441,133.701920 637.937561,134.415619 638.044800,140.138382 
	C638.231628,150.108627 638.665771,160.074234 638.377197,169.733795 
	C628.553833,155.582932 618.027405,142.183182 599.955811,134.061447 
	C600.484558,138.050171 600.345398,140.920486 601.272400,143.390656 
	C611.233948,169.934601 621.493958,196.366776 631.416565,222.925064 
	C645.754211,261.299988 660.191406,299.642487 674.009033,338.205536 
	C687.608398,376.159271 699.239197,414.756714 707.778259,454.180786 
	C711.036011,469.221741 713.230347,484.558716 714.841919,499.873108 
	C716.663940,517.187561 713.589905,534.011230 707.081970,550.230896 
	C702.028015,562.826965 696.606995,575.243774 686.612488,584.752991 
	C675.675415,595.159058 665.774841,594.979614 657.329895,581.669250 
	C654.566040,577.313110 652.504883,572.303345 651.125061,567.315186 
	C646.693665,551.294983 645.568298,534.866089 645.964172,518.286377 
	C646.169739,509.674896 643.818359,507.546143 635.005859,506.980774 
	C616.893066,505.818665 599.803040,515.438843 593.312561,532.777466 
	C584.793884,520.647705 575.878052,508.772736 567.879333,496.309296 
	C561.217041,485.928284 555.454895,474.948639 549.730591,464.005798 
	C548.700623,462.036804 549.125244,458.697876 550.013672,456.437775 
	C554.294922,445.546692 558.883850,434.773438 563.531189,424.030823 
	C565.837036,418.700775 567.578552,413.423828 567.021729,407.431396 
	C565.530823,391.386749 563.556335,375.333313 563.192688,359.251251 
	C562.731262,338.840210 563.721375,318.398193 563.979309,297.968201 
	C564.107910,287.781403 564.668640,277.534241 563.800171,267.420319 
	C563.021179,258.349915 557.152283,251.979538 549.443115,247.207993 
	C547.294800,254.232376 545.536621,260.830292 543.263489,267.245728 
	C537.621887,283.168427 531.207458,298.837677 526.115479,314.928955 
	C521.125793,330.697021 516.420898,346.682892 513.433044,362.912323 
	C511.404053,373.933746 511.902435,385.713776 519.184387,395.583221 
	C521.491821,398.710541 520.274902,400.799072 517.874207,402.531128 
	C505.157959,411.705597 496.271454,411.349640 483.990204,402.408081 
	C481.524261,400.612640 481.208282,398.658722 482.797150,395.391815 
	C485.518005,389.797546 488.125061,383.719360 488.770691,377.631348 
	C490.223633,363.930054 487.398499,350.502258 483.124603,337.495148 
	C477.802795,321.298676 472.102783,305.226410 466.559052,289.102905 
	C461.795227,275.247772 457.021454,261.395996 452.175690,247.320847 
	C442.285431,253.642624 436.968292,262.770874 437.114990,274.356018 
	C437.358124,293.557343 438.475525,312.745941 438.946198,331.946686 
	C439.227844,343.436920 439.479431,354.967804 438.843628,366.430481 
	C438.043610,380.853516 436.250153,395.219482 435.068420,409.625092 
	C434.859467,412.171936 434.979340,415.020569 435.914307,417.340088 
	C440.597412,428.958008 445.272858,440.601959 450.621277,451.919983 
	C453.689331,458.412384 453.705139,464.216248 449.963165,470.116821 
	C439.237091,487.030365 428.546661,503.967957 417.631989,520.759460 
	C414.826569,525.075378 411.245453,528.887085 407.738953,532.267578 
	C401.562134,514.586670 383.899109,504.984070 365.805939,507.256165 
	C357.624634,508.283539 356.025543,509.802185 355.894531,514.504089 
	C355.535522,527.390747 355.174438,540.316345 353.836639,553.124451 
	C352.730347,563.715820 350.152039,574.197571 343.893036,583.163696 
	C338.051819,591.531372 329.146759,595.909668 319.531219,587.896545 
	C315.396576,584.450928 311.154633,580.727356 308.241241,576.289856 
	C290.670227,549.526855 283.211487,520.195557 288.180786,488.343231 
	C290.930939,470.715302 293.965454,453.049805 298.361969,435.780640 
	C304.336639,412.312469 311.048065,388.978058 318.691376,366.001373 
	C329.501068,333.506348 341.231659,301.310577 352.984436,269.138763 
	C361.810760,244.977753 371.347412,221.076981 380.463013,197.020630 
	C387.430237,178.633835 394.285828,160.204025 401.032928,141.735565 
	C401.749756,139.773499 401.403839,137.423157 401.550934,135.252945 
	C401.046173,135.067841 400.541412,134.882736 400.036652,134.697647 
	C396.539246,136.784836 392.839325,138.598373 389.581573,141.009399 
	C378.857025,148.946533 370.821228,159.407608 363.001221,169.123108 
	C363.332703,159.490799 363.771149,149.860550 363.955688,140.225433 
	C364.067352,134.394638 362.709930,133.479645 356.994232,135.016800 
	C350.009949,136.895187 347.096313,142.556671 345.032532,148.644669 
	C342.150787,157.145767 339.791077,165.823013 336.965027,174.344330 
	C336.106201,176.933914 334.444977,179.257385 333.151276,181.702728 
	C331.965332,175.861603 331.991638,170.543961 331.956818,165.226700 
	C331.930115,161.148346 329.096130,159.879288 326.353973,161.685165 
	C323.689697,163.439789 320.907410,166.538589 320.229523,169.514648 
	C317.692383,180.653625 316.095367,192.003174 313.942352,203.234756 
	C312.890076,208.724167 311.389893,214.127716 310.092438,219.570129 
	C309.524963,219.499634 308.957489,219.429138 308.390015,219.358643 
	C307.298920,217.329636 306.395233,215.169220 305.081787,213.296143 
	C301.089996,207.603745 297.280762,201.726135 292.736450,196.497757 
	C289.492767,192.765747 286.657471,193.357773 284.702637,197.884277 
	C282.411011,203.190750 280.155914,208.698395 279.158813,214.343765 
	C276.167572,231.279129 273.796783,248.324081 271.085205,265.968414 
	C264.594574,256.336945 258.253632,246.927551 250.989914,236.148880 
	C237.043076,263.102509 233.780670,290.114594 239.077972,319.039703 
	C234.442139,317.124451 230.217392,315.183838 226.899780,312.225800 
	C218.834152,305.034332 211.258545,297.295929 203.313660,289.964081 
	C201.852737,288.615875 199.535370,287.432068 197.704926,287.553467 
	C196.712830,287.619293 195.239471,290.559631 195.139511,292.270844 
	C194.568039,302.052673 193.592255,311.899200 194.167389,321.640289 
	C195.186996,338.909454 197.098267,356.156281 208.973099,370.219421 
	C204.124771,374.146515 197.631851,374.041382 190.577072,369.691162 
	C186.189331,366.985535 182.170853,363.625702 177.629303,361.239685 
	C172.546692,358.569397 167.153748,356.371796 161.682449,354.644440 
	C160.356033,354.225708 156.989120,356.157837 156.644150,357.532043 
	C155.698349,361.299530 155.352814,365.387085 155.672607,369.273621 
	C157.076126,386.330139 165.217453,400.935059 173.074493,415.616486 
	C173.652206,416.696014 174.076431,417.857697 174.836166,419.579987 
	C173.478455,419.319733 172.870590,419.227936 172.274887,419.085297 
	C164.057251,417.117889 155.876236,414.977570 147.611115,413.236389 
	C143.030426,412.271393 140.693207,414.509521 141.126099,418.882019 
	C141.271545,420.351074 141.554962,421.935028 142.255936,423.200165 
	C147.883850,433.357300 153.591278,443.470978 159.346039,453.557068 
	C163.875427,461.495514 168.726486,469.259186 173.007294,477.327271 
	C175.441742,481.915497 174.079086,484.101776 169.088272,485.037231 
	C158.879929,486.950562 148.904968,486.617371 139.426270,481.759216 
	C138.598282,481.334869 137.614304,481.214874 136.229080,480.817688 
	C136.229080,482.166687 135.914886,483.262817 136.277908,484.044434 
	C139.750198,491.520752 142.595474,499.434540 147.100922,506.243317 
	C151.546463,512.961609 157.763885,518.495789 163.069016,524.665466 
	C164.336426,526.139404 165.067795,528.074280 166.293839,530.234375 
	C162.984299,530.915466 160.741882,531.618164 158.459442,531.790588 
	C154.978485,532.053406 151.469894,531.987549 147.972900,531.994202 
	C137.155457,532.014893 135.871658,533.865906 139.631836,544.112854 
	C139.746414,544.425110 139.893265,544.725464 140.022766,545.032349 
	C145.260254,557.445007 154.901550,566.063416 165.192886,574.078369 
	C172.073669,579.437195 179.093094,584.617981 186.611938,590.302917 
	C185.170990,590.710449 184.576202,590.885315 183.977798,591.046814 
	C175.975876,593.205444 167.743866,594.757507 160.034164,597.685303 
	C151.916199,600.768127 151.706329,605.000610 159.066849,609.948059 
	C168.715958,616.433777 178.693176,622.429871 188.454956,628.751343 
	C189.742310,629.584961 190.591110,631.095886 191.643021,632.293152 
	C190.263901,633.294495 189.013123,634.606628 187.481689,635.239319 
	C182.806503,637.170654 178.023270,638.840515 171.580002,641.248169 
	C177.713272,646.956726 182.598862,651.833313 187.825668,656.311646 
	C210.077042,675.376526 236.278458,686.209167 264.442505,693.063477 
	C274.369415,695.479370 285.094086,695.031982 294.010040,701.835876 
	C293.351227,704.338806 292.511414,706.809814 292.062805,709.349854 
	C288.980072,726.805603 285.517609,744.212036 283.094757,761.760986 
	C281.079590,776.357178 279.608490,791.106079 279.187195,805.824219 
	C278.709015,822.527893 279.278961,839.292969 280.153076,855.991577 
	C280.640564,865.304443 285.704987,870.459656 296.880371,870.963989 
	C299.040527,870.975525 301.208771,871.114563 303.359467,870.977539 
	C315.116638,870.228638 324.581726,865.429016 328.415192,853.797058 
	C331.150391,845.497559 332.852386,836.716064 333.844086,828.016052 
	C335.408325,814.293396 335.874664,800.449097 337.013733,786.673523 
	C338.558777,767.987061 343.766266,750.381714 353.753387,734.361572 
	C358.809448,737.240601 364.018585,739.883850 368.890930,743.045959 
	C380.440125,750.541321 392.308563,749.514587 404.123047,744.356628 
	C423.033936,736.100525 436.766144,721.557800 448.649475,705.357971 
	C468.014008,678.959473 479.949768,649.039673 487.806061,617.477051 
	C495.537323,586.416870 496.957397,554.736389 496.208527,522.301086 
	C497.155029,521.148376 498.101562,519.995605 499.636383,519.134766 
	C500.742218,519.037354 501.848083,518.939941 503.555542,519.122314 
	C504.404419,520.375793 505.253296,521.629272 506.051575,523.833496 
z"/>
<path fill="#8C9DA7" opacity="1.000000" stroke="none" 
	d="
M408.020691,532.930420 
	C411.245453,528.887085 414.826569,525.075378 417.631989,520.759460 
	C428.546661,503.967957 439.237091,487.030365 449.963165,470.116821 
	C453.705139,464.216248 453.689331,458.412384 450.621277,451.919983 
	C445.272858,440.601959 440.597412,428.958008 435.914307,417.340088 
	C434.979340,415.020569 434.859467,412.171936 435.068420,409.625092 
	C436.250153,395.219482 438.043610,380.853516 438.843628,366.430481 
	C439.479431,354.967804 439.227844,343.436920 438.946198,331.946686 
	C438.475525,312.745941 437.358124,293.557343 437.114990,274.356018 
	C436.968292,262.770874 442.285431,253.642624 452.175690,247.320847 
	C457.021454,261.395996 461.795227,275.247772 466.559052,289.102905 
	C472.102783,305.226410 477.802795,321.298676 483.124603,337.495148 
	C487.398499,350.502258 490.223633,363.930054 488.770691,377.631348 
	C488.125061,383.719360 485.518005,389.797546 482.797150,395.391815 
	C481.208282,398.658722 481.524261,400.612640 483.990204,402.408081 
	C496.271454,411.349640 505.157959,411.705597 517.874207,402.531128 
	C520.274902,400.799072 521.491821,398.710541 519.184387,395.583221 
	C511.902435,385.713776 511.404053,373.933746 513.433044,362.912323 
	C516.420898,346.682892 521.125793,330.697021 526.115479,314.928955 
	C531.207458,298.837677 537.621887,283.168427 543.263489,267.245728 
	C545.536621,260.830292 547.294800,254.232376 549.443115,247.207993 
	C557.152283,251.979538 563.021179,258.349915 563.800171,267.420319 
	C564.668640,277.534241 564.107910,287.781403 563.979309,297.968201 
	C563.721375,318.398193 562.731262,338.840210 563.192688,359.251251 
	C563.556335,375.333313 565.530823,391.386749 567.021729,407.431396 
	C567.578552,413.423828 565.837036,418.700775 563.531189,424.030823 
	C558.883850,434.773438 554.294922,445.546692 550.013672,456.437775 
	C549.125244,458.697876 548.700623,462.036804 549.730591,464.005798 
	C555.454895,474.948639 561.217041,485.928284 567.879333,496.309296 
	C575.878052,508.772736 584.793884,520.647705 593.675049,533.221680 
	C595.222351,535.813293 596.155945,538.153137 597.630737,540.078491 
	C612.879395,559.985657 628.072449,579.938293 643.568848,599.651978 
	C657.930298,617.921997 672.642090,635.916626 687.278931,654.351318 
	C689.192749,657.193604 691.027161,659.717041 692.915222,662.597229 
	C695.335327,668.324219 697.701782,673.694458 700.095520,679.436035 
	C701.068665,682.460876 701.988892,685.123962 702.966370,687.765808 
	C704.603516,692.190552 706.277161,696.601807 707.935486,701.018738 
	C709.660034,709.112854 711.583801,717.170715 713.061890,725.309631 
	C715.212646,737.152710 716.991333,749.062744 719.019348,760.928772 
	C723.664062,788.103882 723.098083,815.528442 722.954712,842.927490 
	C722.928955,847.850708 723.010864,852.949158 721.813232,857.653625 
	C719.617798,866.276794 717.128845,869.425537 706.271729,870.570862 
	C702.470581,857.253418 699.062744,844.376465 696.002441,831.417419 
	C689.507812,803.915039 688.924744,775.688660 686.056580,747.744690 
	C683.604553,723.855042 676.138306,701.462646 664.861206,680.487915 
	C643.100647,640.014587 613.645142,605.110718 583.981262,570.360718 
	C566.910583,550.363159 550.425781,529.860779 533.908142,509.399170 
	C529.895325,504.428192 526.793457,498.721832 522.883606,492.760376 
	C514.361572,500.674591 508.134552,509.346252 502.953918,518.842529 
	C501.848083,518.939941 500.742218,519.037354 499.268494,518.651367 
	C493.323120,509.190033 487.596619,500.333008 479.070007,492.722443 
	C475.312286,498.542023 472.442688,504.018768 468.623749,508.725189 
	C450.183868,531.450317 431.785492,554.221313 412.807526,576.494690 
	C389.795990,603.502014 367.488800,630.993164 348.378326,660.959167 
	C333.551178,684.208740 321.914520,708.938110 317.719421,736.284302 
	C314.374481,758.088318 314.220276,780.390198 310.710358,802.158325 
	C306.987823,825.245117 300.976440,847.962769 295.964630,870.841675 
	C285.704987,870.459656 280.640564,865.304443 280.153076,855.991577 
	C279.278961,839.292969 278.709015,822.527893 279.187195,805.824219 
	C279.608490,791.106079 281.079590,776.357178 283.094757,761.760986 
	C285.517609,744.212036 288.980072,726.805603 292.062805,709.349854 
	C292.511414,706.809814 293.351227,704.338806 294.364502,701.271057 
	C297.123230,693.492554 299.527527,686.278809 302.101257,678.746582 
	C304.560272,673.032104 306.849854,667.636230 309.408142,662.034119 
	C311.384766,659.229675 313.092712,656.631409 315.069031,653.821045 
	C345.283173,615.453247 375.245483,577.310547 405.121338,539.100220 
	C406.485962,537.354919 407.072021,535.000916 408.020691,532.930420 
z"/>
<path fill="#5D7486" opacity="1.000000" stroke="none" 
	d="
M407.879822,532.598999 
	C407.072021,535.000916 406.485962,537.354919 405.121338,539.100220 
	C375.245483,577.310547 345.283173,615.453247 314.650543,653.828979 
	C301.864502,653.366394 289.771667,652.513306 277.663940,652.058960 
	C269.176544,651.740540 260.568268,652.769043 252.198395,651.721924 
	C243.905914,650.684448 235.626831,648.396484 227.754471,645.525574 
	C221.996231,643.425659 217.751480,638.718933 215.376526,633.212524 
	C230.391434,629.681885 245.012039,626.244019 259.632660,622.806152 
	C240.868317,616.886719 221.602219,613.063416 203.485565,603.419373 
	C205.517807,602.449829 206.905563,601.618286 208.402176,601.102661 
	C215.480362,598.664307 222.647049,596.468872 229.652939,593.842102 
	C232.023422,592.953369 234.013809,591.050781 236.617645,589.318970 
	C226.067642,582.352661 216.181061,576.703857 207.344772,569.725098 
	C199.586212,563.597595 192.733948,556.226196 186.051971,548.884888 
	C183.750214,546.355957 183.169235,542.260864 181.219177,537.439880 
	C192.430008,538.293762 201.903885,539.015320 212.214005,539.800598 
	C211.081009,537.363708 210.468506,535.480164 209.418198,533.884888 
	C204.750214,526.794739 199.901276,519.823853 195.228973,512.736450 
	C192.305511,508.301880 189.385864,503.843445 186.832092,499.193848 
	C185.068451,495.982788 185.851852,494.148712 190.161438,493.903717 
	C198.915909,493.406067 206.954697,495.736908 214.889694,498.925201 
	C216.297180,499.490723 217.747452,499.949768 219.756699,500.663574 
	C216.590073,487.230103 209.422287,477.113922 201.802628,467.111389 
	C197.819229,461.882294 194.355682,456.085693 191.683136,450.088287 
	C189.823135,445.914276 188.794571,440.970276 191.214325,435.846375 
	C193.828674,436.819031 196.319031,437.366486 198.416473,438.588379 
	C210.612442,445.693420 222.716095,452.956970 234.969482,460.306824 
	C235.221802,460.157715 235.355591,459.868713 235.443909,459.201874 
	C234.406067,455.821289 233.331604,452.842896 232.435135,449.811829 
	C227.765060,434.021729 223.077087,418.236206 218.583328,402.395721 
	C218.048889,400.511780 218.129990,396.779388 218.841476,396.531464 
	C220.929169,395.803864 223.793457,395.718475 225.777603,396.632263 
	C229.205139,398.210724 232.477661,400.414612 235.322311,402.916534 
	C244.317871,410.828217 253.085190,418.999359 262.022583,427.194824 
	C262.222076,427.331604 262.339722,427.343689 262.457397,427.355774 
	C262.421051,427.126251 262.384705,426.896698 262.333069,426.273438 
	C258.720032,414.981323 255.430832,403.968872 251.454025,393.210602 
	C245.054810,375.899231 246.816559,358.309448 248.515060,338.857819 
	C257.923035,347.024933 266.298553,354.295776 275.639221,362.404480 
	C272.582031,335.723541 271.695160,310.058044 277.565674,283.469635 
	C285.531433,292.897675 289.786285,303.763489 299.390839,311.353912 
	C300.094360,308.812073 300.805756,307.124939 301.005249,305.379303 
	C302.399109,293.182922 303.505463,280.951050 305.073944,268.778198 
	C306.089966,260.892944 307.631622,253.068863 309.149994,245.258606 
	C309.649963,242.686737 311.226990,240.155685 314.271393,241.192749 
	C316.061737,241.802628 317.793182,243.762802 318.692993,245.548157 
	C320.243591,248.624847 321.124817,252.038940 322.286957,255.311432 
	C324.348022,252.566269 325.371124,250.105972 325.844849,247.544083 
	C327.656097,237.749084 329.145355,227.893005 331.054047,218.118164 
	C331.971863,213.417725 333.137634,208.673935 334.962067,204.269089 
	C336.654297,200.183395 339.283661,200.081039 342.176056,203.413132 
	C343.670227,205.134415 344.909210,207.077209 346.578125,209.348053 
	C347.093719,207.939545 347.412048,207.040390 347.750916,206.149033 
	C350.987549,197.635422 354.098877,189.070801 357.526398,180.634689 
	C359.016479,176.967178 361.158508,173.564529 363.004456,170.041595 
	C370.821228,159.407608 378.857025,148.946533 389.581573,141.009399 
	C392.839325,138.598373 396.539246,136.784836 400.036652,134.697647 
	C400.541412,134.882736 401.046173,135.067841 401.550934,135.252945 
	C401.403839,137.423157 401.749756,139.773499 401.032928,141.735565 
	C394.285828,160.204025 387.430237,178.633835 380.463013,197.020630 
	C371.347412,221.076981 361.810760,244.977753 352.984436,269.138763 
	C341.231659,301.310577 329.501068,333.506348 318.691376,366.001373 
	C311.048065,388.978058 304.336639,412.312469 298.361969,435.780640 
	C293.965454,453.049805 290.930939,470.715302 288.180786,488.343231 
	C283.211487,520.195557 290.670227,549.526855 308.241241,576.289856 
	C311.154633,580.727356 315.396576,584.450928 319.531219,587.896545 
	C329.146759,595.909668 338.051819,591.531372 343.893036,583.163696 
	C350.152039,574.197571 352.730347,563.715820 353.836639,553.124451 
	C355.174438,540.316345 355.535522,527.390747 355.894531,514.504089 
	C356.025543,509.802185 357.624634,508.283539 365.805939,507.256165 
	C383.899109,504.984070 401.562134,514.586670 407.879822,532.598999 
z"/>
<path fill="#5D7486" opacity="1.000000" stroke="none" 
	d="
M687.199585,654.032471 
	C672.642090,635.916626 657.930298,617.921997 643.568848,599.651978 
	C628.072449,579.938293 612.879395,559.985657 597.630737,540.078491 
	C596.155945,538.153137 595.222351,535.813293 594.007996,533.298340 
	C599.803040,515.438843 616.893066,505.818665 635.005859,506.980774 
	C643.818359,507.546143 646.169739,509.674896 645.964172,518.286377 
	C645.568298,534.866089 646.693665,551.294983 651.125061,567.315186 
	C652.504883,572.303345 654.566040,577.313110 657.329895,581.669250 
	C665.774841,594.979614 675.675415,595.159058 686.612488,584.752991 
	C696.606995,575.243774 702.028015,562.826965 707.081970,550.230896 
	C713.589905,534.011230 716.663940,517.187561 714.841919,499.873108 
	C713.230347,484.558716 711.036011,469.221741 707.778259,454.180786 
	C699.239197,414.756714 687.608398,376.159271 674.009033,338.205536 
	C660.191406,299.642487 645.754211,261.299988 631.416565,222.925064 
	C621.493958,196.366776 611.233948,169.934601 601.272400,143.390656 
	C600.345398,140.920486 600.484558,138.050171 599.955811,134.061447 
	C618.027405,142.183182 628.553833,155.582932 638.745972,170.236511 
	C645.824036,182.870590 652.925476,194.830551 655.007935,210.045547 
	C656.920105,207.342682 657.910889,205.831161 659.012695,204.405396 
	C662.581116,199.787445 665.302979,200.056229 667.717651,205.298111 
	C668.339600,206.648346 668.855835,208.096863 669.119202,209.554672 
	C670.802917,218.876236 672.273254,228.238068 674.076416,237.535736 
	C675.235107,243.510757 676.842834,249.398666 678.249329,255.325623 
	C678.813782,255.260849 679.378296,255.196091 679.942749,255.131317 
	C681.172241,251.539749 682.141357,247.825119 683.753784,244.414551 
	C684.441467,242.959961 686.450317,241.303329 687.899292,241.264908 
	C689.385010,241.225479 691.649109,242.722839 692.283020,244.128937 
	C693.629700,247.115891 694.551575,250.433578 694.920532,253.697861 
	C696.467041,267.380859 697.622498,281.108215 699.183105,294.789398 
	C699.791260,300.120911 701.090393,305.373596 702.074829,310.662201 
	C702.752563,310.883698 703.430298,311.105164 704.107971,311.326630 
	C710.719727,302.313782 717.331421,293.300903 723.943176,284.288055 
	C724.644348,284.448669 725.345581,284.609283 726.046814,284.769897 
	C726.697876,297.506134 727.732422,310.237518 727.892395,322.979919 
	C728.053528,335.818268 727.345825,348.667572 727.012024,361.779449 
	C735.547791,354.417206 744.068359,347.068085 753.369324,339.045837 
	C755.826294,360.394653 756.482910,379.776794 748.676941,398.684082 
	C744.948486,407.715027 742.615845,417.322174 739.550842,426.789764 
	C739.653870,426.963989 739.856934,427.016815 740.360962,426.924011 
	C749.455383,418.685669 758.074646,410.390228 767.131653,402.603912 
	C770.569519,399.648376 774.837646,397.438110 779.058350,395.684784 
	C782.312683,394.332825 784.633423,395.961060 783.972534,399.946136 
	C783.566650,402.393433 783.056091,404.842926 782.343506,407.216705 
	C777.100403,424.682465 771.794434,442.129364 766.416626,459.743469 
	C766.600220,459.991547 766.875610,460.078400 767.472290,460.050903 
	C781.079346,449.977448 794.928101,441.068695 811.660706,435.637238 
	C811.660706,439.427704 811.923889,442.230896 811.611877,444.968536 
	C810.626160,453.617920 805.531433,460.189392 800.619446,466.997314 
	C795.191772,474.520142 790.342834,482.483429 785.612732,490.474396 
	C783.928528,493.319641 783.330627,496.807892 781.868286,501.079346 
	C793.424194,496.236633 803.830750,492.265839 816.628967,494.733459 
	C811.379211,511.903168 795.829468,522.816223 790.197815,539.571716 
	C800.206665,538.917236 809.802124,538.289856 819.571350,537.651062 
	C818.916321,545.088074 816.611694,549.612122 810.866150,555.786743 
	C799.485107,568.017578 785.380005,576.586182 771.324829,585.225647 
	C769.553833,586.314209 767.844238,587.502563 765.033936,589.349182 
	C775.325378,597.299500 788.149109,596.892578 798.193542,603.599792 
	C780.287292,613.059875 760.995605,617.003967 742.136780,622.741760 
	C756.889587,626.226196 771.642395,629.710693 786.732300,633.274719 
	C784.030457,638.657227 780.044800,643.444397 774.382996,645.456116 
	C766.326660,648.318542 757.890747,651.127686 749.459717,651.719360 
	C728.754211,653.172485 707.958801,653.344910 687.199585,654.032471 
z"/>
<path fill="#1F2C34" opacity="1.000000" stroke="none" 
	d="
M687.278931,654.351318 
	C707.958801,653.344910 728.754211,653.172485 749.459717,651.719360 
	C757.890747,651.127686 766.326660,648.318542 774.382996,645.456116 
	C780.044800,643.444397 784.030457,638.657227 786.732300,633.274719 
	C771.642395,629.710693 756.889587,626.226196 742.136780,622.741760 
	C760.995605,617.003967 780.287292,613.059875 798.193542,603.599792 
	C788.149109,596.892578 775.325378,597.299500 765.033936,589.349182 
	C767.844238,587.502563 769.553833,586.314209 771.324829,585.225647 
	C785.380005,576.586182 799.485107,568.017578 810.866150,555.786743 
	C816.611694,549.612122 818.916321,545.088074 819.571350,537.651062 
	C809.802124,538.289856 800.206665,538.917236 790.197815,539.571716 
	C795.829468,522.816223 811.379211,511.903168 816.628967,494.733459 
	C803.830750,492.265839 793.424194,496.236633 781.868286,501.079346 
	C783.330627,496.807892 783.928528,493.319641 785.612732,490.474396 
	C790.342834,482.483429 795.191772,474.520142 800.619446,466.997314 
	C805.531433,460.189392 810.626160,453.617920 811.611877,444.968536 
	C811.923889,442.230896 811.660706,439.427704 811.660706,435.637238 
	C794.928101,441.068695 781.079346,449.977448 767.314880,459.901581 
	C766.836121,459.866669 766.508362,459.582245 766.508362,459.582245 
	C771.794434,442.129364 777.100403,424.682465 782.343506,407.216705 
	C783.056091,404.842926 783.566650,402.393433 783.972534,399.946136 
	C784.633423,395.961060 782.312683,394.332825 779.058350,395.684784 
	C774.837646,397.438110 770.569519,399.648376 767.131653,402.603912 
	C758.074646,410.390228 749.455383,418.685669 740.259094,426.823181 
	C739.856384,426.868042 739.650940,426.668335 739.650940,426.668335 
	C742.615845,417.322174 744.948486,407.715027 748.676941,398.684082 
	C756.482910,379.776794 755.826294,360.394653 753.369324,339.045837 
	C744.068359,347.068085 735.547791,354.417206 727.012024,361.779449 
	C727.345825,348.667572 728.053528,335.818268 727.892395,322.979919 
	C727.732422,310.237518 726.697876,297.506134 726.046814,284.769897 
	C725.345581,284.609283 724.644348,284.448669 723.943176,284.288055 
	C717.331421,293.300903 710.719727,302.313782 704.107971,311.326630 
	C703.430298,311.105164 702.752563,310.883698 702.074829,310.662201 
	C701.090393,305.373596 699.791260,300.120911 699.183105,294.789398 
	C697.622498,281.108215 696.467041,267.380859 694.920532,253.697861 
	C694.551575,250.433578 693.629700,247.115891 692.283020,244.128937 
	C691.649109,242.722839 689.385010,241.225479 687.899292,241.264908 
	C686.450317,241.303329 684.441467,242.959961 683.753784,244.414551 
	C682.141357,247.825119 681.172241,251.539749 679.942749,255.131317 
	C679.378296,255.196091 678.813782,255.260849 678.249329,255.325623 
	C676.842834,249.398666 675.235107,243.510757 674.076416,237.535736 
	C672.273254,228.238068 670.802917,218.876236 669.119202,209.554672 
	C668.855835,208.096863 668.339600,206.648346 667.717651,205.298111 
	C665.302979,200.056229 662.581116,199.787445 659.012695,204.405396 
	C657.910889,205.831161 656.920105,207.342682 655.007935,210.045547 
	C652.925476,194.830551 645.824036,182.870590 639.055542,170.390503 
	C638.665771,160.074234 638.231628,150.108627 638.044800,140.138382 
	C637.937561,134.415619 639.114441,133.701920 644.609314,134.910599 
	C649.649109,136.019150 653.082214,139.295227 654.736511,143.730392 
	C658.391907,153.530563 661.340515,163.592163 664.749695,173.487793 
	C665.734375,176.345978 667.304626,179.002396 668.606445,181.751328 
	C669.072388,181.622772 669.538391,181.494217 670.004395,181.365677 
	C670.004395,176.618790 669.769043,171.854660 670.115234,167.133179 
	C670.262634,165.123398 671.626648,163.202835 672.437744,161.241699 
	C674.862976,162.356934 678.647034,162.869370 679.459167,164.700195 
	C681.918518,170.244232 683.686646,176.207062 684.880127,182.175491 
	C686.929382,192.423065 688.270508,202.810501 690.074341,213.110245 
	C690.453186,215.273300 691.547791,217.311005 692.664612,220.371094 
	C696.319275,214.354248 699.205688,209.189117 702.513306,204.309402 
	C704.546204,201.310211 707.027222,198.540588 709.663635,196.044403 
	C712.569763,193.292831 715.785339,193.493332 717.120850,197.539185 
	C719.973267,206.180420 723.077332,214.847992 724.714844,223.755432 
	C727.231201,237.443161 728.600220,251.341827 730.618530,266.359558 
	C737.338257,256.404358 743.631653,247.080811 750.587097,236.776337 
	C759.133484,249.360214 761.861938,263.002808 764.001282,276.831970 
	C766.146606,290.700012 765.307922,304.501953 762.028198,318.223511 
	C762.498535,318.623260 762.968872,319.022980 763.439209,319.422729 
	C767.152527,317.252441 771.327820,315.604553 774.488464,312.809357 
	C782.458679,305.760712 789.966797,298.190033 797.674194,290.843414 
	C798.634766,289.927734 799.594971,288.967987 800.702759,288.258911 
	C803.572388,286.421997 805.758850,286.828918 806.606689,290.466949 
	C807.096924,292.570374 807.778442,294.695282 807.831848,296.824097 
	C808.312500,315.970093 808.945068,335.189453 802.170593,353.559357 
	C800.025696,359.375458 796.769409,364.781708 793.684509,371.062042 
	C796.645325,374.053131 801.413208,373.942169 805.592407,372.069336 
	C811.303345,369.510010 816.397400,365.610321 821.986023,362.731964 
	C827.831482,359.721313 833.890076,357.095886 839.970886,354.581238 
	C843.601562,353.079865 845.631592,355.453064 845.749268,358.627960 
	C845.967773,364.525085 846.218201,370.562866 845.235962,376.334595 
	C842.826416,390.492981 835.708496,402.857880 829.097290,415.365936 
	C828.496399,416.502869 827.932373,417.659302 826.828491,419.838837 
	C830.069702,418.785553 832.293396,417.870850 834.605774,417.348236 
	C841.077332,415.885559 847.563110,414.463318 854.086304,413.258179 
	C859.461060,412.265259 862.488586,415.338898 860.470520,420.498840 
	C857.703979,427.572540 854.262207,434.445892 850.481995,441.045502 
	C843.873535,452.582855 836.570740,463.722992 829.982361,475.271210 
	C826.072021,482.125458 827.087463,484.020691 834.600647,485.314270 
	C843.775330,486.893860 852.825439,486.465240 861.407959,482.287750 
	C862.571167,481.721588 863.818237,481.327667 865.579468,480.637207 
	C865.579468,482.325562 865.802185,483.592346 865.544739,484.752563 
	C863.131042,495.630219 857.341187,504.625488 849.845337,512.663696 
	C845.991394,516.796448 842.145935,520.940430 838.422913,525.189941 
	C837.386292,526.373169 836.800537,527.951355 835.327881,530.546814 
	C840.617004,531.098938 844.931274,531.664062 849.263855,531.961975 
	C852.249451,532.167297 855.260620,531.977234 858.259949,532.008911 
	C863.753784,532.066895 864.725220,533.151733 863.820068,538.556763 
	C862.299866,547.634521 857.588013,555.290649 851.026001,561.196899 
	C840.302368,570.848816 828.751831,579.582092 817.550476,588.703308 
	C817.067200,589.096863 816.587585,589.494934 815.446777,590.433289 
	C821.227844,591.686829 826.391785,592.561829 831.406616,593.968445 
	C835.705811,595.174255 839.984314,596.676941 844.001099,598.611023 
	C849.211487,601.119934 849.622681,605.066223 844.700623,608.577698 
	C837.681213,613.585571 830.180176,617.917114 822.900146,622.561462 
	C819.394226,624.798218 815.827759,626.958008 812.463806,629.394348 
	C809.222412,631.741821 809.520020,633.457947 813.321655,634.912109 
	C818.278687,636.808289 823.298401,638.540710 829.955627,640.944702 
	C825.118530,645.928223 821.266357,650.543274 816.775024,654.417358 
	C791.819946,675.942810 762.403748,688.081421 730.452881,694.585449 
	C722.986389,696.105286 715.210388,696.296021 708.261353,700.875671 
	C706.277161,696.601807 704.603516,692.190552 702.966370,687.765808 
	C701.988892,685.123962 701.068665,682.460876 700.456848,679.313232 
	C704.467896,677.494385 708.532471,676.763733 711.717468,674.685242 
	C715.212219,672.404602 714.546936,669.843872 710.609314,668.404419 
	C704.728210,666.254639 698.780823,664.286194 692.861633,662.240540 
	C691.027161,659.717041 689.192749,657.193604 687.278931,654.351318 
z"/>
<path fill="#1F2C34" opacity="1.000000" stroke="none" 
	d="
M261.940796,427.070160 
	C253.085190,418.999359 244.317871,410.828217 235.322311,402.916534 
	C232.477661,400.414612 229.205139,398.210724 225.777603,396.632263 
	C223.793457,395.718475 220.929169,395.803864 218.841476,396.531464 
	C218.129990,396.779388 218.048889,400.511780 218.583328,402.395721 
	C223.077087,418.236206 227.765060,434.021729 232.435135,449.811829 
	C233.331604,452.842896 234.406067,455.821289 235.281052,459.345154 
	C235.163696,459.866302 234.850937,460.166931 234.850937,460.166931 
	C222.716095,452.956970 210.612442,445.693420 198.416473,438.588379 
	C196.319031,437.366486 193.828674,436.819031 191.214325,435.846375 
	C188.794571,440.970276 189.823135,445.914276 191.683136,450.088287 
	C194.355682,456.085693 197.819229,461.882294 201.802628,467.111389 
	C209.422287,477.113922 216.590073,487.230103 219.756699,500.663574 
	C217.747452,499.949768 216.297180,499.490723 214.889694,498.925201 
	C206.954697,495.736908 198.915909,493.406067 190.161438,493.903717 
	C185.851852,494.148712 185.068451,495.982788 186.832092,499.193848 
	C189.385864,503.843445 192.305511,508.301880 195.228973,512.736450 
	C199.901276,519.823853 204.750214,526.794739 209.418198,533.884888 
	C210.468506,535.480164 211.081009,537.363708 212.214005,539.800598 
	C201.903885,539.015320 192.430008,538.293762 181.219177,537.439880 
	C183.169235,542.260864 183.750214,546.355957 186.051971,548.884888 
	C192.733948,556.226196 199.586212,563.597595 207.344772,569.725098 
	C216.181061,576.703857 226.067642,582.352661 236.617645,589.318970 
	C234.013809,591.050781 232.023422,592.953369 229.652939,593.842102 
	C222.647049,596.468872 215.480362,598.664307 208.402176,601.102661 
	C206.905563,601.618286 205.517807,602.449829 203.485565,603.419373 
	C221.602219,613.063416 240.868317,616.886719 259.632660,622.806152 
	C245.012039,626.244019 230.391434,629.681885 215.376526,633.212524 
	C217.751480,638.718933 221.996231,643.425659 227.754471,645.525574 
	C235.626831,648.396484 243.905914,650.684448 252.198395,651.721924 
	C260.568268,652.769043 269.176544,651.740540 277.663940,652.058960 
	C289.771667,652.513306 301.864502,653.366394 314.382172,654.041138 
	C313.092712,656.631409 311.384766,659.229675 309.034729,662.044128 
	C303.109467,664.166382 297.779785,665.956360 292.570587,668.046692 
	C290.928802,668.705505 289.610260,670.169678 288.143768,671.265259 
	C289.566559,672.979919 290.662903,675.347351 292.486908,676.259583 
	C295.379486,677.706177 298.758575,678.179810 301.931793,679.065063 
	C299.527527,686.278809 297.123230,693.492554 294.392883,700.860352 
	C285.094086,695.031982 274.369415,695.479370 264.442505,693.063477 
	C236.278458,686.209167 210.077042,675.376526 187.825668,656.311646 
	C182.598862,651.833313 177.713272,646.956726 171.580002,641.248169 
	C178.023270,638.840515 182.806503,637.170654 187.481689,635.239319 
	C189.013123,634.606628 190.263901,633.294495 191.643036,632.293152 
	C190.591110,631.095886 189.742310,629.584961 188.454956,628.751343 
	C178.693176,622.429871 168.715958,616.433777 159.066849,609.948059 
	C151.706329,605.000610 151.916199,600.768127 160.034164,597.685303 
	C167.743866,594.757507 175.975876,593.205444 183.977798,591.046814 
	C184.576202,590.885315 185.170990,590.710449 186.611938,590.302917 
	C179.093094,584.617981 172.073669,579.437195 165.192886,574.078369 
	C154.901550,566.063416 145.260254,557.445007 140.022766,545.032349 
	C139.893265,544.725464 139.746414,544.425110 139.631836,544.112854 
	C135.871658,533.865906 137.155457,532.014893 147.972900,531.994202 
	C151.469894,531.987549 154.978485,532.053406 158.459442,531.790588 
	C160.741882,531.618164 162.984299,530.915466 166.293839,530.234375 
	C165.067795,528.074280 164.336426,526.139404 163.069016,524.665466 
	C157.763885,518.495789 151.546463,512.961609 147.100922,506.243317 
	C142.595474,499.434540 139.750198,491.520752 136.277908,484.044434 
	C135.914886,483.262817 136.229080,482.166687 136.229080,480.817688 
	C137.614304,481.214874 138.598282,481.334869 139.426270,481.759216 
	C148.904968,486.617371 158.879929,486.950562 169.088272,485.037231 
	C174.079086,484.101776 175.441742,481.915497 173.007294,477.327271 
	C168.726486,469.259186 163.875427,461.495514 159.346039,453.557068 
	C153.591278,443.470978 147.883850,433.357300 142.255936,423.200165 
	C141.554962,421.935028 141.271545,420.351074 141.126099,418.882019 
	C140.693207,414.509521 143.030426,412.271393 147.611115,413.236389 
	C155.876236,414.977570 164.057251,417.117889 172.274887,419.085297 
	C172.870590,419.227936 173.478455,419.319733 174.836166,419.579987 
	C174.076431,417.857697 173.652206,416.696014 173.074493,415.616486 
	C165.217453,400.935059 157.076126,386.330139 155.672607,369.273621 
	C155.352814,365.387085 155.698349,361.299530 156.644150,357.532043 
	C156.989120,356.157837 160.356033,354.225708 161.682449,354.644440 
	C167.153748,356.371796 172.546692,358.569397 177.629303,361.239685 
	C182.170853,363.625702 186.189331,366.985535 190.577072,369.691162 
	C197.631851,374.041382 204.124771,374.146515 208.973099,370.219421 
	C197.098267,356.156281 195.186996,338.909454 194.167389,321.640289 
	C193.592255,311.899200 194.568039,302.052673 195.139511,292.270844 
	C195.239471,290.559631 196.712830,287.619293 197.704926,287.553467 
	C199.535370,287.432068 201.852737,288.615875 203.313660,289.964081 
	C211.258545,297.295929 218.834152,305.034332 226.899780,312.225800 
	C230.217392,315.183838 234.442139,317.124451 239.077972,319.039703 
	C233.780670,290.114594 237.043076,263.102509 250.989914,236.148880 
	C258.253632,246.927551 264.594574,256.336945 271.085205,265.968414 
	C273.796783,248.324081 276.167572,231.279129 279.158813,214.343765 
	C280.155914,208.698395 282.411011,203.190750 284.702637,197.884277 
	C286.657471,193.357773 289.492767,192.765747 292.736450,196.497757 
	C297.280762,201.726135 301.089996,207.603745 305.081787,213.296143 
	C306.395233,215.169220 307.298920,217.329636 308.390015,219.358643 
	C308.957489,219.429138 309.524963,219.499634 310.092438,219.570129 
	C311.389893,214.127716 312.890076,208.724167 313.942352,203.234756 
	C316.095367,192.003174 317.692383,180.653625 320.229523,169.514648 
	C320.907410,166.538589 323.689697,163.439789 326.353973,161.685165 
	C329.096130,159.879288 331.930115,161.148346 331.956818,165.226700 
	C331.991638,170.543961 331.965332,175.861603 333.151276,181.702728 
	C334.444977,179.257385 336.106201,176.933914 336.965027,174.344330 
	C339.791077,165.823013 342.150787,157.145767 345.032532,148.644669 
	C347.096313,142.556671 350.009949,136.895187 356.994232,135.016800 
	C362.709930,133.479645 364.067352,134.394638 363.955688,140.225433 
	C363.771149,149.860550 363.332703,159.490799 363.002808,169.582336 
	C361.158508,173.564529 359.016479,176.967178 357.526398,180.634689 
	C354.098877,189.070801 350.987549,197.635422 347.750916,206.149033 
	C347.412048,207.040390 347.093719,207.939545 346.578125,209.348053 
	C344.909210,207.077209 343.670227,205.134415 342.176056,203.413132 
	C339.283661,200.081039 336.654297,200.183395 334.962067,204.269089 
	C333.137634,208.673935 331.971863,213.417725 331.054047,218.118164 
	C329.145355,227.893005 327.656097,237.749084 325.844849,247.544083 
	C325.371124,250.105972 324.348022,252.566269 322.286957,255.311432 
	C321.124817,252.038940 320.243591,248.624847 318.692993,245.548157 
	C317.793182,243.762802 316.061737,241.802628 314.271393,241.192749 
	C311.226990,240.155685 309.649963,242.686737 309.149994,245.258606 
	C307.631622,253.068863 306.089966,260.892944 305.073944,268.778198 
	C303.505463,280.951050 302.399109,293.182922 301.005249,305.379303 
	C300.805756,307.124939 300.094360,308.812073 299.390839,311.353912 
	C289.786285,303.763489 285.531433,292.897675 277.565674,283.469635 
	C271.695160,310.058044 272.582031,335.723541 275.639221,362.404480 
	C266.298553,354.295776 257.923035,347.024933 248.515060,338.857819 
	C246.816559,358.309448 245.054810,375.899231 251.454025,393.210602 
	C255.430832,403.968872 258.720032,414.981323 262.230743,426.373718 
	C262.143646,426.867737 261.940796,427.070160 261.940796,427.070160 
z"/>
<path fill="#1F2C34" opacity="1.000000" stroke="none" 
	d="
M495.897827,522.882690 
	C496.957397,554.736389 495.537323,586.416870 487.806061,617.477051 
	C479.949768,649.039673 468.014008,678.959473 448.649475,705.357971 
	C436.766144,721.557800 423.033936,736.100525 404.123047,744.356628 
	C392.308563,749.514587 380.440125,750.541321 368.890930,743.045959 
	C364.018585,739.883850 358.809448,737.240601 353.455383,733.855347 
	C358.668030,722.542664 364.044220,711.665222 369.711517,700.941589 
	C402.449188,638.996033 443.767029,583.007019 488.889435,529.677002 
	C490.980835,527.205139 493.550751,525.138184 495.897827,522.882690 
z"/>
<path fill="#1F2C34" opacity="1.000000" stroke="none" 
	d="
M648.856201,734.076111 
	C644.929810,736.243652 640.721313,738.024292 637.125549,740.645447 
	C621.091125,752.333679 605.310486,749.617371 589.676636,740.089294 
	C568.339172,727.084961 553.690674,707.919434 541.389282,686.726501 
	C526.554810,661.169556 517.306763,633.523987 511.439484,604.692383 
	C506.006805,577.996338 505.392365,550.950439 506.410828,523.435486 
	C507.652283,523.759827 508.669556,524.367004 509.397369,525.220947 
	C561.033936,585.807800 607.624451,649.831848 642.946472,721.517700 
	C644.991028,725.667053 646.889648,729.888306 648.856201,734.076111 
z"/>
<path fill="#5D7486" opacity="1.000000" stroke="none" 
	d="
M496.053162,522.591919 
	C493.550751,525.138184 490.980835,527.205139 488.889435,529.677002 
	C443.767029,583.007019 402.449188,638.996033 369.711517,700.941589 
	C364.044220,711.665222 358.668030,722.542664 353.150604,733.712708 
	C343.766266,750.381714 338.558777,767.987061 337.013733,786.673523 
	C335.874664,800.449097 335.408325,814.293396 333.844086,828.016052 
	C332.852386,836.716064 331.150391,845.497559 328.415192,853.797058 
	C324.581726,865.429016 315.116638,870.228638 303.359467,870.977539 
	C301.208771,871.114563 299.040527,870.975525 296.422485,870.902832 
	C300.976440,847.962769 306.987823,825.245117 310.710358,802.158325 
	C314.220276,780.390198 314.374481,758.088318 317.719421,736.284302 
	C321.914520,708.938110 333.551178,684.208740 348.378326,660.959167 
	C367.488800,630.993164 389.795990,603.502014 412.807526,576.494690 
	C431.785492,554.221313 450.183868,531.450317 468.623749,508.725189 
	C472.442688,504.018768 475.312286,498.542023 479.070007,492.722443 
	C487.596619,500.333008 493.323120,509.190033 498.974304,518.505432 
	C498.101562,519.995605 497.155029,521.148376 496.053162,522.591919 
z"/>
<path fill="#5D7486" opacity="1.000000" stroke="none" 
	d="
M649.028564,734.385193 
	C646.889648,729.888306 644.991028,725.667053 642.946472,721.517700 
	C607.624451,649.831848 561.033936,585.807800 509.397369,525.220947 
	C508.669556,524.367004 507.652283,523.759827 506.436127,522.960083 
	C505.253296,521.629272 504.404419,520.375793 503.254730,518.982422 
	C508.134552,509.346252 514.361572,500.674591 522.883606,492.760376 
	C526.793457,498.721832 529.895325,504.428192 533.908142,509.399170 
	C550.425781,529.860779 566.910583,550.363159 583.981262,570.360718 
	C613.645142,605.110718 643.100647,640.014587 664.861206,680.487915 
	C676.138306,701.462646 683.604553,723.855042 686.056580,747.744690 
	C688.924744,775.688660 689.507812,803.915039 696.002441,831.417419 
	C699.062744,844.376465 702.470581,857.253418 705.873657,870.503784 
	C693.494263,871.746155 681.710327,869.785522 675.428772,857.575378 
	C672.011353,850.932678 670.050720,843.133850 669.205750,835.656067 
	C667.228149,818.154175 666.905029,800.461365 664.811096,782.977722 
	C662.777100,765.995056 658.007385,749.622437 649.028564,734.385193 
z"/>
<path fill="#5D7485" opacity="1.000000" stroke="none" 
	d="
M302.101257,678.746582 
	C298.758575,678.179810 295.379486,677.706177 292.486908,676.259583 
	C290.662903,675.347351 289.566559,672.979919 288.143768,671.265259 
	C289.610260,670.169678 290.928802,668.705505 292.570587,668.046692 
	C297.779785,665.956360 303.109467,664.166382 308.766022,662.250305 
	C306.849854,667.636230 304.560272,673.032104 302.101257,678.746582 
z"/>
<path fill="#5D7485" opacity="1.000000" stroke="none" 
	d="
M692.915222,662.597229 
	C698.780823,664.286194 704.728210,666.254639 710.609314,668.404419 
	C714.546936,669.843872 715.212219,672.404602 711.717468,674.685242 
	C708.532471,676.763733 704.467896,677.494385 700.429626,678.941895 
	C697.701782,673.694458 695.335327,668.324219 692.915222,662.597229 
z"/>
<path fill="#1F2C34" opacity="1.000000" stroke="none" 
	d="
M262.245972,426.767456 
	C262.384705,426.896698 262.421051,427.126251 262.457397,427.355774 
	C262.339722,427.343689 262.222076,427.331604 262.022583,427.194824 
	C261.940796,427.070160 262.143646,426.867737 262.245972,426.767456 
z"/>
<path fill="#1F2C34" opacity="1.000000" stroke="none" 
	d="
M235.326538,459.723022 
	C235.355591,459.868713 235.221802,460.157715 234.969482,460.306824 
	C234.850937,460.166931 235.163696,459.866302 235.326538,459.723022 
z"/>
<path fill="#1F2C34" opacity="1.000000" stroke="none" 
	d="
M739.958252,426.968842 
	C739.856934,427.016815 739.653870,426.963989 739.550842,426.789764 
	C739.650940,426.668335 739.856384,426.868042 739.958252,426.968842 
z"/>
<path fill="#1F2C34" opacity="1.000000" stroke="none" 
	d="
M766.993530,460.015991 
	C766.875610,460.078400 766.600220,459.991547 766.416626,459.743469 
	C766.508362,459.582245 766.836121,459.866669 766.993530,460.015991 
z"/>
</svg>