# Created by FreeCAD <http://www.freecadweb.org>
v -8.500000 3.500000 0.000000
v 8.500000 3.500000 10.000000
v -8.500000 3.500000 10.000000
v 8.500000 3.500000 0.000000
v 8.500000 -3.500000 0.000000
v 8.500000 -3.500000 10.000000
v -8.500000 -3.500000 10.000000
v -8.500000 -3.500000 0.000000
v -8.722521 -4.474928 10.000000
v -8.500000 -4.500000 10.000000
v -8.933884 -4.400969 10.000000
v -9.123489 -4.281831 10.000000
v -9.281832 -4.123490 10.000000
v -9.400969 -3.933884 10.000000
v -9.474928 -3.722521 10.000000
v -9.500000 -3.500000 10.000000
v -9.281832 4.123490 10.000000
v -9.400969 3.933884 10.000000
v -9.474928 3.722521 10.000000
v -9.500000 3.500000 10.000000
v -9.123489 4.281831 10.000000
v -8.933884 4.400969 10.000000
v -8.722521 4.474928 10.000000
v -8.500000 4.500000 10.000000
v 8.500000 -4.500000 10.000000
v 8.933884 -4.400969 10.000000
v 9.123489 -4.281831 10.000000
v 8.722521 -4.474928 10.000000
v 9.281832 -4.123490 10.000000
v 9.400969 -3.933884 10.000000
v 9.474928 -3.722521 10.000000
v 9.500000 -3.500000 10.000000
v 9.500000 3.500000 10.000000
v 8.500000 4.500000 10.000000
v 8.722521 4.474928 10.000000
v 9.474928 3.722521 10.000000
v 8.933884 4.400969 10.000000
v 9.400969 3.933884 10.000000
v 9.123489 4.281831 10.000000
v 9.281832 4.123490 10.000000
v -8.500000 4.500000 0.000000
v 8.500000 4.500000 0.000000
v -8.722521 -4.474928 0.000000
v -8.500000 -4.500000 0.000000
v -8.933884 -4.400969 0.000000
v -9.123489 -4.281831 0.000000
v -9.281832 -4.123490 0.000000
v -9.400969 -3.933884 0.000000
v -9.474928 -3.722521 0.000000
v -9.500000 -3.500000 0.000000
v -9.281832 4.123490 0.000000
v -9.400969 3.933884 0.000000
v -9.474928 3.722521 0.000000
v -9.500000 3.500000 0.000000
v -9.123489 4.281831 0.000000
v -8.933884 4.400969 0.000000
v -8.722521 4.474928 0.000000
v 8.500000 -4.500000 0.000000
v 8.933884 -4.400969 0.000000
v 9.123489 -4.281831 0.000000
v 8.722521 -4.474928 0.000000
v 9.281832 -4.123490 0.000000
v 9.400969 -3.933884 0.000000
v 9.474928 -3.722521 0.000000
v 9.500000 -3.500000 0.000000
v 9.500000 3.500000 0.000000
v 8.722521 4.474928 0.000000
v 9.474928 3.722521 0.000000
v 8.933884 4.400969 0.000000
v 9.400969 3.933884 0.000000
v 9.123489 4.281831 0.000000
v 9.281832 4.123490 0.000000
vn 0.000000 -1.000000 0.000000
vn 0.000000 -1.000000 0.000000
vn -1.000000 0.000000 0.000000
vn -1.000000 -0.000000 0.000000
vn 0.000000 1.000000 -0.000000
vn 0.000000 1.000000 0.000000
vn 1.000000 0.000000 0.000000
vn 1.000000 -0.000000 0.000000
vn 0.000000 0.000000 1.000000
vn 0.000000 0.000000 1.000000
vn 0.000000 0.000000 1.000000
vn 0.000000 0.000000 1.000000
vn 0.000000 0.000000 1.000000
vn 0.000000 0.000000 1.000000
vn 0.000000 0.000000 1.000000
vn 0.000000 0.000000 1.000000
vn 0.000000 0.000000 1.000000
vn 0.000000 0.000000 1.000000
vn 0.000000 0.000000 1.000000
vn 0.000000 0.000000 1.000000
vn 0.000000 0.000000 1.000000
vn 0.000000 0.000000 1.000000
vn 0.000000 0.000000 1.000000
vn 0.000000 0.000000 1.000000
vn 0.000000 0.000000 1.000000
vn 0.000000 0.000000 1.000000
vn 0.000000 0.000000 1.000000
vn 0.000000 0.000000 1.000000
vn 0.000000 0.000000 1.000000
vn 0.000000 0.000000 1.000000
vn 0.000000 0.000000 1.000000
vn 0.000000 0.000000 1.000000
vn 0.000000 0.000000 1.000000
vn 0.000000 0.000000 1.000000
vn 0.000000 0.000000 1.000000
vn 0.000000 0.000000 1.000000
vn 0.000000 0.000000 1.000000
vn 0.000000 0.000000 1.000000
vn 0.000000 0.000000 1.000000
vn 0.000000 0.000000 1.000000
vn 0.000000 0.000000 1.000000
vn 0.000000 0.000000 1.000000
vn 0.000000 0.000000 1.000000
vn 0.000000 0.000000 1.000000
vn 0.000000 1.000000 0.000000
vn 0.000000 1.000000 -0.000000
vn 0.000000 0.000000 -1.000000
vn 0.000000 0.000000 -1.000000
vn 0.000000 0.000000 -1.000000
vn 0.000000 0.000000 -1.000000
vn 0.000000 0.000000 -1.000000
vn 0.000000 0.000000 -1.000000
vn 0.000000 0.000000 -1.000000
vn 0.000000 -0.000000 -1.000000
vn 0.000000 -0.000000 -1.000000
vn 0.000000 -0.000000 -1.000000
vn 0.000000 0.000000 -1.000000
vn 0.000000 0.000000 -1.000000
vn 0.000000 0.000000 -1.000000
vn 0.000000 0.000000 -1.000000
vn 0.000000 0.000000 -1.000000
vn 0.000000 0.000000 -1.000000
vn 0.000000 0.000000 -1.000000
vn 0.000000 0.000000 -1.000000
vn 0.000000 0.000000 -1.000000
vn 0.000000 0.000000 -1.000000
vn 0.000000 0.000000 -1.000000
vn 0.000000 0.000000 -1.000000
vn 0.000000 0.000000 -1.000000
vn 0.000000 0.000000 -1.000000
vn 0.000000 0.000000 -1.000000
vn 0.000000 0.000000 -1.000000
vn 0.000000 0.000000 -1.000000
vn 0.000000 0.000000 -1.000000
vn 0.000000 0.000000 -1.000000
vn 0.000000 0.000000 -1.000000
vn 0.000000 0.000000 -1.000000
vn 0.000000 -0.000000 -1.000000
vn 0.000000 0.000000 -1.000000
vn 0.000000 -0.000000 -1.000000
vn 0.000000 0.000000 -1.000000
vn 0.000000 -0.000000 -1.000000
vn -0.111965 0.993712 0.000000
vn -0.111965 0.993712 0.000000
vn -0.330278 0.943884 0.000000
vn -0.330278 0.943884 0.000000
vn -0.532034 0.846723 0.000000
vn -0.707105 0.707109 0.000000
vn -0.532034 0.846723 0.000000
vn -0.707105 0.707109 0.000000
vn -0.846725 0.532030 0.000000
vn -0.846725 0.532030 0.000000
vn -0.943883 0.330280 0.000000
vn -0.943883 0.330280 0.000000
vn -0.993712 0.111965 0.000000
vn -0.993712 0.111965 0.000000
vn 0.111965 0.993712 0.000000
vn 0.111965 0.993712 0.000000
vn 0.330278 0.943884 0.000000
vn 0.330278 0.943884 0.000000
vn 0.532034 0.846723 0.000000
vn 0.707105 0.707109 -0.000000
vn 0.532034 0.846723 0.000000
vn 0.707105 0.707109 0.000000
vn 0.846725 0.532030 0.000000
vn 0.846725 0.532030 0.000000
vn 0.943883 0.330280 0.000000
vn 0.943883 0.330280 0.000000
vn 0.993712 0.111965 0.000000
vn 0.993712 0.111965 0.000000
vn 1.000000 0.000000 0.000000
vn 1.000000 0.000000 0.000000
vn 0.993712 -0.111965 0.000000
vn 0.993712 -0.111965 0.000000
vn 0.943883 -0.330280 0.000000
vn 0.943883 -0.330280 0.000000
vn 0.846725 -0.532030 0.000000
vn 0.707105 -0.707109 0.000000
vn 0.846725 -0.532030 0.000000
vn 0.707105 -0.707109 0.000000
vn 0.532034 -0.846723 0.000000
vn 0.532034 -0.846723 0.000000
vn 0.330278 -0.943884 0.000000
vn 0.330278 -0.943884 0.000000
vn 0.111965 -0.993712 0.000000
vn 0.111965 -0.993712 0.000000
vn 0.000000 -1.000000 0.000000
vn 0.000000 -1.000000 0.000000
vn -0.111965 -0.993712 -0.000000
vn -0.111965 -0.993712 0.000000
vn -0.330278 -0.943884 0.000000
vn -0.330278 -0.943884 -0.000000
vn -0.532034 -0.846723 0.000000
vn -0.707105 -0.707109 0.000000
vn -0.532034 -0.846723 -0.000000
vn -0.707105 -0.707109 0.000000
vn -0.846725 -0.532030 0.000000
vn -0.846725 -0.532030 -0.000000
vn -0.943883 -0.330280 0.000000
vn -0.943883 -0.330280 -0.000000
vn -0.993712 -0.111965 0.000000
vn -0.993712 -0.111965 -0.000000
vn -1.000000 0.000000 0.000000
vn -1.000000 0.000000 0.000000
f 1//1 2//1 3//1
f 1//2 4//2 2//2
f 4//3 5//3 2//3
f 2//4 5//4 6//4
f 5//5 7//5 6//5
f 5//6 8//6 7//6
f 8//7 1//7 7//7
f 7//8 1//8 3//8
f 7//9 9//9 10//9
f 7//10 11//10 9//10
f 7//11 12//11 11//11
f 7//12 13//12 12//12
f 7//13 14//13 13//13
f 7//14 15//14 14//14
f 7//15 16//15 15//15
f 3//16 17//16 18//16
f 3//17 18//17 19//17
f 3//18 19//18 20//18
f 3//19 20//19 16//19
f 3//20 16//20 7//20
f 21//21 17//21 3//21
f 22//22 21//22 3//22
f 23//23 22//23 3//23
f 24//24 23//24 3//24
f 6//25 10//25 25//25
f 6//26 26//26 27//26
f 6//27 28//27 26//27
f 6//28 25//28 28//28
f 6//29 7//29 10//29
f 29//30 6//30 27//30
f 30//31 6//31 29//31
f 31//32 6//32 30//32
f 32//33 6//33 31//33
f 33//34 2//34 6//34
f 33//35 6//35 32//35
f 34//36 3//36 2//36
f 34//37 24//37 3//37
f 35//38 34//38 2//38
f 36//39 2//39 33//39
f 37//40 35//40 2//40
f 38//41 2//41 36//41
f 39//42 37//42 2//42
f 40//43 2//43 38//43
f 40//44 39//44 2//44
f 34//45 41//45 24//45
f 42//46 41//46 34//46
f 43//47 8//47 44//47
f 45//48 8//48 43//48
f 46//49 8//49 45//49
f 47//50 8//50 46//50
f 48//51 8//51 47//51
f 49//52 8//52 48//52
f 50//53 8//53 49//53
f 51//54 1//54 52//54
f 52//55 1//55 53//55
f 53//56 1//56 54//56
f 54//57 1//57 50//57
f 50//58 1//58 8//58
f 51//59 55//59 1//59
f 55//60 56//60 1//60
f 56//61 57//61 1//61
f 57//62 41//62 1//62
f 44//63 5//63 58//63
f 59//64 5//64 60//64
f 61//65 5//65 59//65
f 58//66 5//66 61//66
f 8//67 5//67 44//67
f 5//68 62//68 60//68
f 5//69 63//69 62//69
f 5//70 64//70 63//70
f 5//71 65//71 64//71
f 4//72 66//72 5//72
f 5//73 66//73 65//73
f 1//74 42//74 4//74
f 41//75 42//75 1//75
f 42//76 67//76 4//76
f 4//77 68//77 66//77
f 67//78 69//78 4//78
f 4//79 70//79 68//79
f 69//80 71//80 4//80
f 4//81 72//81 70//81
f 71//82 72//82 4//82
f 23//83 24//83 41//83
f 23//84 41//84 57//84
f 22//85 57//85 56//85
f 22//86 23//86 57//86
f 21//87 56//87 55//87
f 21//88 55//88 51//88
f 21//89 22//89 56//89
f 17//90 21//90 51//90
f 18//91 51//91 52//91
f 18//92 17//92 51//92
f 19//93 52//93 53//93
f 19//94 18//94 52//94
f 20//95 53//95 54//95
f 20//96 19//96 53//96
f 34//97 35//97 42//97
f 42//98 35//98 67//98
f 67//99 37//99 69//99
f 35//100 37//100 67//100
f 69//101 39//101 71//101
f 71//102 39//102 72//102
f 37//103 39//103 69//103
f 39//104 40//104 72//104
f 72//105 38//105 70//105
f 40//106 38//106 72//106
f 70//107 36//107 68//107
f 38//108 36//108 70//108
f 68//109 33//109 66//109
f 36//110 33//110 68//110
f 65//111 66//111 33//111
f 65//112 33//112 32//112
f 32//113 31//113 65//113
f 65//114 31//114 64//114
f 64//115 30//115 63//115
f 31//116 30//116 64//116
f 63//117 29//117 62//117
f 62//118 29//118 60//118
f 30//119 29//119 63//119
f 29//120 27//120 60//120
f 60//121 26//121 59//121
f 27//122 26//122 60//122
f 59//123 28//123 61//123
f 26//124 28//124 59//124
f 61//125 25//125 58//125
f 28//126 25//126 61//126
f 10//127 58//127 25//127
f 44//128 58//128 10//128
f 10//129 9//129 44//129
f 44//130 9//130 43//130
f 43//131 11//131 45//131
f 9//132 11//132 43//132
f 45//133 12//133 46//133
f 46//134 12//134 47//134
f 11//135 12//135 45//135
f 12//136 13//136 47//136
f 47//137 14//137 48//137
f 13//138 14//138 47//138
f 48//139 15//139 49//139
f 14//140 15//140 48//140
f 49//141 16//141 50//141
f 15//142 16//142 49//142
f 54//143 50//143 16//143
f 54//144 16//144 20//144
