ISO-10303-21;
HEADER;

/* File generated by HOOPS Exchange Version 23.2.20 */

FILE_DESCRIPTION(('HOOPS Exchange Step'),'2;1');

FILE_NAME('C:\\Users\\nguye\\Projects\\3D-Model-Collection\\078-helmet-ring-replacement\\dist\\078-v2.stp',
'2024-09-29T02:03:24-17:00',
('nguye'),
('Unknown organisation'),
'HOOPS Exchange 2023.2',
'HOOPS Exchange',
'Unknown authorisation');

FILE_SCHEMA( ('AP203_CONFIGURATION_CONTROLLED_3D_DESIGN_OF_MECHANICAL_PARTS_AND_ASSEMBLIES_MIM_LF') );

ENDSEC;

DATA;
#3=(NAMED_UNIT(*)PLANE_ANGLE_UNIT()SI_UNIT($,.RADIAN.));
#4=PLANE_ANGLE_MEASURE_WITH_UNIT(PLANE_ANGLE_MEASURE(0.0174532925),#3);
#5=(CONVERSION_BASED_UNIT('DEGREE',#4)NAMED_UNIT(#6)PLANE_ANGLE_UNIT());
#6=DIMENSIONAL_EXPONENTS(0.,0.,0.,0.,0.,0.,0.);
#7=(NAMED_UNIT(*)SI_UNIT($,.STERADIAN.)SOLID_ANGLE_UNIT());
#8=(LENGTH_UNIT()NAMED_UNIT(*)SI_UNIT(.MILLI.,.METRE.));
#9=UNCERTAINTY_MEASURE_WITH_UNIT(LENGTH_MEASURE(1.000000E-05),#8,'DISTANCE_ACCURACY_VALUE','Maximum Tolerance applied to model');
#10=(GEOMETRIC_REPRESENTATION_CONTEXT(3)GLOBAL_UNCERTAINTY_ASSIGNED_CONTEXT((#9))GLOBAL_UNIT_ASSIGNED_CONTEXT((#8,#5,#7))REPRESENTATION_CONTEXT('','Extruded.001'));
#12=CARTESIAN_POINT('',(0.,0.,0.));
#13=DIRECTION('',(0.,0.,1.));
#14=DIRECTION('',(1.,0.,0.));
#15=AXIS2_PLACEMENT_3D('',#12,#13,#14);
#27=CARTESIAN_POINT('',(0.,0.,0.));
#28=DIRECTION('',(0.,0.,1.));
#29=DIRECTION('',(1.,0.,0.));
#30=AXIS2_PLACEMENT_3D('',#27,#28,#29);
#31=PLANE('',#30);
#32=CARTESIAN_POINT('',(3.2,-0.,0.));
#33=VERTEX_POINT('',#32);
#34=CARTESIAN_POINT('',(-3.2,0.,0.));
#35=VERTEX_POINT('',#34);
#36=CARTESIAN_POINT('',(0.,0.,0.));
#37=DIRECTION('',(0.,0.,1.));
#38=DIRECTION('',(1.,0.,-0.));
#39=AXIS2_PLACEMENT_3D('',#36,#37,#38);
#40=CIRCLE('',#39,3.2);
#41=EDGE_CURVE('',#33,#35,#40,.T.);
#42=ORIENTED_EDGE('',*,*,#41,.T.);
#43=CARTESIAN_POINT('',(0.,0.,0.));
#44=DIRECTION('',(0.,0.,1.));
#45=DIRECTION('',(1.,0.,-0.));
#46=AXIS2_PLACEMENT_3D('',#43,#44,#45);
#47=CIRCLE('',#46,3.2);
#48=EDGE_CURVE('',#35,#33,#47,.T.);
#49=ORIENTED_EDGE('',*,*,#48,.T.);
#50=EDGE_LOOP('',(#42,#49));
#51=FACE_BOUND('',#50,.T.);
#52=CARTESIAN_POINT('',(-6.5,0.,0.));
#53=VERTEX_POINT('',#52);
#54=CARTESIAN_POINT('',(6.5,-0.,0.));
#55=VERTEX_POINT('',#54);
#56=CARTESIAN_POINT('',(0.,0.,0.));
#57=DIRECTION('',(0.,0.,1.));
#58=DIRECTION('',(1.,0.,-0.));
#59=AXIS2_PLACEMENT_3D('',#56,#57,#58);
#60=CIRCLE('',#59,6.5);
#61=EDGE_CURVE('',#53,#55,#60,.T.);
#62=ORIENTED_EDGE('',*,*,#61,.F.);
#63=CARTESIAN_POINT('',(0.,0.,0.));
#64=DIRECTION('',(0.,0.,1.));
#65=DIRECTION('',(1.,0.,-0.));
#66=AXIS2_PLACEMENT_3D('',#63,#64,#65);
#67=CIRCLE('',#66,6.5);
#68=EDGE_CURVE('',#55,#53,#67,.T.);
#69=ORIENTED_EDGE('',*,*,#68,.F.);
#70=EDGE_LOOP('',(#62,#69));
#71=FACE_BOUND('',#70,.T.);
#72=ADVANCED_FACE('',(#51,#71),#31,.F.);
#73=CARTESIAN_POINT('',(0.,0.,1.3));
#74=DIRECTION('',(0.,0.,-1.));
#75=DIRECTION('',(-1.,0.,0.));
#76=AXIS2_PLACEMENT_3D('',#73,#74,#75);
#77=CYLINDRICAL_SURFACE('',#76,2.2);
#78=CARTESIAN_POINT('',(-2.2,0.,1.));
#79=VERTEX_POINT('',#78);
#80=CARTESIAN_POINT('',(-2.2,0.,1.3));
#81=VERTEX_POINT('',#80);
#82=CARTESIAN_POINT('',(-2.2,0.,1.));
#83=DIRECTION('',(-0.,-0.,1.));
#84=VECTOR('',#83,0.3);
#85=LINE('',#82,#84);
#86=EDGE_CURVE('',#79,#81,#85,.T.);
#87=ORIENTED_EDGE('',*,*,#86,.F.);
#88=CARTESIAN_POINT('',(2.2,-0.,1.));
#89=VERTEX_POINT('',#88);
#90=CARTESIAN_POINT('',(0.,0.,1.));
#91=DIRECTION('',(-0.,-0.,-1.));
#92=DIRECTION('',(1.,0.,-0.));
#93=AXIS2_PLACEMENT_3D('',#90,#91,#92);
#94=CIRCLE('',#93,2.2);
#95=EDGE_CURVE('',#79,#89,#94,.T.);
#96=ORIENTED_EDGE('',*,*,#95,.T.);
#97=CARTESIAN_POINT('',(0.,0.,1.));
#98=DIRECTION('',(-0.,-0.,-1.));
#99=DIRECTION('',(1.,0.,-0.));
#100=AXIS2_PLACEMENT_3D('',#97,#98,#99);
#101=CIRCLE('',#100,2.2);
#102=EDGE_CURVE('',#89,#79,#101,.T.);
#103=ORIENTED_EDGE('',*,*,#102,.T.);
#104=ORIENTED_EDGE('',*,*,#86,.T.);
#105=CARTESIAN_POINT('',(-1.136774348,-1.883545614,1.3));
#106=VERTEX_POINT('',#105);
#107=CARTESIAN_POINT('',(0.,0.,1.3));
#108=DIRECTION('',(0.,0.,1.));
#109=DIRECTION('',(1.,0.,-0.));
#110=AXIS2_PLACEMENT_3D('',#107,#108,#109);
#111=CIRCLE('',#110,2.2);
#112=EDGE_CURVE('',#81,#106,#111,.T.);
#113=ORIENTED_EDGE('',*,*,#112,.T.);
#114=CARTESIAN_POINT('',(-1.136774348,-1.883545614,3.1));
#115=VERTEX_POINT('',#114);
#116=CARTESIAN_POINT('',(-1.136774348,-1.883545614,1.3));
#117=DIRECTION('',(0.,0.,1.));
#118=VECTOR('',#117,1.8);
#119=LINE('',#116,#118);
#120=EDGE_CURVE('',#106,#115,#119,.T.);
#121=ORIENTED_EDGE('',*,*,#120,.T.);
#122=CARTESIAN_POINT('',(1.136774348,-1.883545614,3.1));
#123=VERTEX_POINT('',#122);
#124=CARTESIAN_POINT('',(0.,0.,3.1));
#125=DIRECTION('',(0.,0.,1.));
#126=DIRECTION('',(1.,0.,-0.));
#127=AXIS2_PLACEMENT_3D('',#124,#125,#126);
#128=CIRCLE('',#127,2.2);
#129=EDGE_CURVE('',#115,#123,#128,.T.);
#130=ORIENTED_EDGE('',*,*,#129,.T.);
#131=CARTESIAN_POINT('',(1.136774348,-1.883545614,1.3));
#132=VERTEX_POINT('',#131);
#133=CARTESIAN_POINT('',(1.136774348,-1.883545614,3.1));
#134=DIRECTION('',(-0.,-0.,-1.));
#135=VECTOR('',#134,1.8);
#136=LINE('',#133,#135);
#137=EDGE_CURVE('',#123,#132,#136,.T.);
#138=ORIENTED_EDGE('',*,*,#137,.T.);
#139=CARTESIAN_POINT('',(1.136774348,1.883545614,1.3));
#140=VERTEX_POINT('',#139);
#141=CARTESIAN_POINT('',(0.,0.,1.3));
#142=DIRECTION('',(0.,0.,1.));
#143=DIRECTION('',(1.,0.,-0.));
#144=AXIS2_PLACEMENT_3D('',#141,#142,#143);
#145=CIRCLE('',#144,2.2);
#146=EDGE_CURVE('',#132,#140,#145,.T.);
#147=ORIENTED_EDGE('',*,*,#146,.T.);
#148=CARTESIAN_POINT('',(1.136774348,1.883545614,3.1));
#149=VERTEX_POINT('',#148);
#150=CARTESIAN_POINT('',(1.136774348,1.883545614,1.3));
#151=DIRECTION('',(0.,0.,1.));
#152=VECTOR('',#151,1.8);
#153=LINE('',#150,#152);
#154=EDGE_CURVE('',#140,#149,#153,.T.);
#155=ORIENTED_EDGE('',*,*,#154,.T.);
#156=CARTESIAN_POINT('',(-1.136774348,1.883545614,3.1));
#157=VERTEX_POINT('',#156);
#158=CARTESIAN_POINT('',(0.,0.,3.1));
#159=DIRECTION('',(0.,0.,1.));
#160=DIRECTION('',(1.,0.,-0.));
#161=AXIS2_PLACEMENT_3D('',#158,#159,#160);
#162=CIRCLE('',#161,2.2);
#163=EDGE_CURVE('',#149,#157,#162,.T.);
#164=ORIENTED_EDGE('',*,*,#163,.T.);
#165=CARTESIAN_POINT('',(-1.136774348,1.883545614,1.3));
#166=VERTEX_POINT('',#165);
#167=CARTESIAN_POINT('',(-1.136774348,1.883545614,3.1));
#168=DIRECTION('',(-0.,-0.,-1.));
#169=VECTOR('',#168,1.8);
#170=LINE('',#167,#169);
#171=EDGE_CURVE('',#157,#166,#170,.T.);
#172=ORIENTED_EDGE('',*,*,#171,.T.);
#173=CARTESIAN_POINT('',(0.,0.,1.3));
#174=DIRECTION('',(0.,0.,1.));
#175=DIRECTION('',(1.,0.,-0.));
#176=AXIS2_PLACEMENT_3D('',#173,#174,#175);
#177=CIRCLE('',#176,2.2);
#178=EDGE_CURVE('',#166,#81,#177,.T.);
#179=ORIENTED_EDGE('',*,*,#178,.T.);
#180=EDGE_LOOP('',(#87,#96,#103,#104,#113,#121,#130,#138,#147,#155,#164,#172,#179));
#181=FACE_BOUND('',#180,.T.);
#182=ADVANCED_FACE('',(#181),#77,.F.);
#183=CARTESIAN_POINT('',(0.,0.,1.3));
#184=DIRECTION('',(0.,0.,-1.));
#185=DIRECTION('',(-1.,0.,0.));
#186=AXIS2_PLACEMENT_3D('',#183,#184,#185);
#187=CYLINDRICAL_SURFACE('',#186,6.5);
#188=CARTESIAN_POINT('',(-6.5,0.,1.3));
#189=VERTEX_POINT('',#188);
#190=CARTESIAN_POINT('',(-6.5,0.,0.));
#191=DIRECTION('',(-0.,-0.,1.));
#192=VECTOR('',#191,1.3);
#193=LINE('',#190,#192);
#194=EDGE_CURVE('',#53,#189,#193,.T.);
#195=ORIENTED_EDGE('',*,*,#194,.T.);
#196=CARTESIAN_POINT('',(6.5,-0.,1.3));
#197=VERTEX_POINT('',#196);
#198=CARTESIAN_POINT('',(0.,0.,1.3));
#199=DIRECTION('',(0.,0.,1.));
#200=DIRECTION('',(1.,0.,-0.));
#201=AXIS2_PLACEMENT_3D('',#198,#199,#200);
#202=CIRCLE('',#201,6.5);
#203=EDGE_CURVE('',#197,#189,#202,.T.);
#204=ORIENTED_EDGE('',*,*,#203,.F.);
#205=CARTESIAN_POINT('',(0.,0.,1.3));
#206=DIRECTION('',(0.,0.,1.));
#207=DIRECTION('',(1.,0.,-0.));
#208=AXIS2_PLACEMENT_3D('',#205,#206,#207);
#209=CIRCLE('',#208,6.5);
#210=EDGE_CURVE('',#189,#197,#209,.T.);
#211=ORIENTED_EDGE('',*,*,#210,.F.);
#212=ORIENTED_EDGE('',*,*,#194,.F.);
#213=ORIENTED_EDGE('',*,*,#61,.T.);
#214=ORIENTED_EDGE('',*,*,#68,.T.);
#215=EDGE_LOOP('',(#195,#204,#211,#212,#213,#214));
#216=FACE_BOUND('',#215,.T.);
#217=ADVANCED_FACE('',(#216),#187,.T.);
#218=CARTESIAN_POINT('',(0.,0.,1.3));
#219=DIRECTION('',(0.,0.,1.));
#220=DIRECTION('',(1.,0.,0.));
#221=AXIS2_PLACEMENT_3D('',#218,#219,#220);
#222=PLANE('',#221);
#223=CARTESIAN_POINT('',(-1.147237935,-1.883545614,1.3));
#224=VERTEX_POINT('',#223);
#225=CARTESIAN_POINT('',(-1.136774348,-1.883545614,1.3));
#226=DIRECTION('',(-1.,0.,0.));
#227=VECTOR('',#226,0.010463587);
#228=LINE('',#225,#227);
#229=EDGE_CURVE('',#106,#224,#228,.T.);
#230=ORIENTED_EDGE('',*,*,#229,.F.);
#231=ORIENTED_EDGE('',*,*,#112,.F.);
#232=ORIENTED_EDGE('',*,*,#178,.F.);
#233=CARTESIAN_POINT('',(-1.147237935,1.883545614,1.3));
#234=VERTEX_POINT('',#233);
#235=CARTESIAN_POINT('',(-1.147237935,1.883545614,1.3));
#236=DIRECTION('',(1.,0.,-0.));
#237=VECTOR('',#236,0.010463587);
#238=LINE('',#235,#237);
#239=EDGE_CURVE('',#234,#166,#238,.T.);
#240=ORIENTED_EDGE('',*,*,#239,.F.);
#241=CARTESIAN_POINT('',(-1.147237935,2.883545614,1.3));
#242=VERTEX_POINT('',#241);
#243=CARTESIAN_POINT('',(-1.147237935,2.883545614,1.3));
#244=DIRECTION('',(0.,-1.,0.));
#245=VECTOR('',#244,1.);
#246=LINE('',#243,#245);
#247=EDGE_CURVE('',#242,#234,#246,.T.);
#248=ORIENTED_EDGE('',*,*,#247,.F.);
#249=CARTESIAN_POINT('',(1.152762065,2.883545614,1.3));
#250=VERTEX_POINT('',#249);
#251=CARTESIAN_POINT('',(1.152762065,2.883545614,1.3));
#252=DIRECTION('',(-1.,0.,0.));
#253=VECTOR('',#252,2.3);
#254=LINE('',#251,#253);
#255=EDGE_CURVE('',#250,#242,#254,.T.);
#256=ORIENTED_EDGE('',*,*,#255,.F.);
#257=CARTESIAN_POINT('',(1.152762065,1.883545614,1.3));
#258=VERTEX_POINT('',#257);
#259=CARTESIAN_POINT('',(1.152762065,1.883545614,1.3));
#260=DIRECTION('',(0.,1.,0.));
#261=VECTOR('',#260,1.);
#262=LINE('',#259,#261);
#263=EDGE_CURVE('',#258,#250,#262,.T.);
#264=ORIENTED_EDGE('',*,*,#263,.F.);
#265=CARTESIAN_POINT('',(1.136774348,1.883545614,1.3));
#266=DIRECTION('',(1.,0.,-0.));
#267=VECTOR('',#266,0.015987717);
#268=LINE('',#265,#267);
#269=EDGE_CURVE('',#140,#258,#268,.T.);
#270=ORIENTED_EDGE('',*,*,#269,.F.);
#271=ORIENTED_EDGE('',*,*,#146,.F.);
#272=CARTESIAN_POINT('',(1.152762065,-1.883545614,1.3));
#273=VERTEX_POINT('',#272);
#274=CARTESIAN_POINT('',(1.152762065,-1.883545614,1.3));
#275=DIRECTION('',(-1.,0.,0.));
#276=VECTOR('',#275,0.015987717);
#277=LINE('',#274,#276);
#278=EDGE_CURVE('',#273,#132,#277,.T.);
#279=ORIENTED_EDGE('',*,*,#278,.F.);
#280=CARTESIAN_POINT('',(1.152762065,-2.883545614,1.3));
#281=VERTEX_POINT('',#280);
#282=CARTESIAN_POINT('',(1.152762065,-2.883545614,1.3));
#283=DIRECTION('',(0.,1.,0.));
#284=VECTOR('',#283,1.);
#285=LINE('',#282,#284);
#286=EDGE_CURVE('',#281,#273,#285,.T.);
#287=ORIENTED_EDGE('',*,*,#286,.F.);
#288=CARTESIAN_POINT('',(-1.147237935,-2.883545614,1.3));
#289=VERTEX_POINT('',#288);
#290=CARTESIAN_POINT('',(-1.147237935,-2.883545614,1.3));
#291=DIRECTION('',(1.,0.,-0.));
#292=VECTOR('',#291,2.3);
#293=LINE('',#290,#292);
#294=EDGE_CURVE('',#289,#281,#293,.T.);
#295=ORIENTED_EDGE('',*,*,#294,.F.);
#296=CARTESIAN_POINT('',(-1.147237935,-1.883545614,1.3));
#297=DIRECTION('',(0.,-1.,0.));
#298=VECTOR('',#297,1.);
#299=LINE('',#296,#298);
#300=EDGE_CURVE('',#224,#289,#299,.T.);
#301=ORIENTED_EDGE('',*,*,#300,.F.);
#302=EDGE_LOOP('',(#230,#231,#232,#240,#248,#256,#264,#270,#271,#279,#287,#295,#301));
#303=FACE_BOUND('',#302,.T.);
#304=ORIENTED_EDGE('',*,*,#203,.T.);
#305=ORIENTED_EDGE('',*,*,#210,.T.);
#306=EDGE_LOOP('',(#304,#305));
#307=FACE_BOUND('',#306,.T.);
#308=ADVANCED_FACE('',(#303,#307),#222,.T.);
#309=CARTESIAN_POINT('',(1.152762065,2.383545614,3.1));
#310=DIRECTION('',(1.,0.,0.));
#311=DIRECTION('',(0.,0.,-1.));
#312=AXIS2_PLACEMENT_3D('',#309,#310,#311);
#313=PLANE('',#312);
#314=CARTESIAN_POINT('',(1.152762065,1.883545614,3.1));
#315=VERTEX_POINT('',#314);
#316=CARTESIAN_POINT('',(1.152762065,1.883545614,3.1));
#317=DIRECTION('',(0.,-0.,-1.));
#318=VECTOR('',#317,1.8);
#319=LINE('',#316,#318);
#320=EDGE_CURVE('',#315,#258,#319,.T.);
#321=ORIENTED_EDGE('',*,*,#320,.T.);
#322=ORIENTED_EDGE('',*,*,#263,.T.);
#323=CARTESIAN_POINT('',(1.152762065,2.883545614,3.1));
#324=VERTEX_POINT('',#323);
#325=CARTESIAN_POINT('',(1.152762065,2.883545614,3.1));
#326=DIRECTION('',(0.,-0.,-1.));
#327=VECTOR('',#326,1.8);
#328=LINE('',#325,#327);
#329=EDGE_CURVE('',#324,#250,#328,.T.);
#330=ORIENTED_EDGE('',*,*,#329,.F.);
#331=CARTESIAN_POINT('',(1.152762065,2.883545614,3.1));
#332=DIRECTION('',(0.,-1.,0.));
#333=VECTOR('',#332,1.);
#334=LINE('',#331,#333);
#335=EDGE_CURVE('',#324,#315,#334,.T.);
#336=ORIENTED_EDGE('',*,*,#335,.T.);
#337=EDGE_LOOP('',(#321,#322,#330,#336));
#338=FACE_BOUND('',#337,.T.);
#339=ADVANCED_FACE('',(#338),#313,.T.);
#340=CARTESIAN_POINT('',(0.002762065,2.883545614,3.1));
#341=DIRECTION('',(0.,1.,-0.));
#342=DIRECTION('',(0.,0.,1.));
#343=AXIS2_PLACEMENT_3D('',#340,#341,#342);
#344=PLANE('',#343);
#345=ORIENTED_EDGE('',*,*,#329,.T.);
#346=ORIENTED_EDGE('',*,*,#255,.T.);
#347=CARTESIAN_POINT('',(-1.147237935,2.883545614,3.1));
#348=VERTEX_POINT('',#347);
#349=CARTESIAN_POINT('',(-1.147237935,2.883545614,3.1));
#350=DIRECTION('',(0.,-0.,-1.));
#351=VECTOR('',#350,1.8);
#352=LINE('',#349,#351);
#353=EDGE_CURVE('',#348,#242,#352,.T.);
#354=ORIENTED_EDGE('',*,*,#353,.F.);
#355=CARTESIAN_POINT('',(-1.147237935,2.883545614,3.1));
#356=DIRECTION('',(1.,0.,-0.));
#357=VECTOR('',#356,2.3);
#358=LINE('',#355,#357);
#359=EDGE_CURVE('',#348,#324,#358,.T.);
#360=ORIENTED_EDGE('',*,*,#359,.T.);
#361=EDGE_LOOP('',(#345,#346,#354,#360));
#362=FACE_BOUND('',#361,.T.);
#363=ADVANCED_FACE('',(#362),#344,.T.);
#364=CARTESIAN_POINT('',(-1.147237935,2.383545614,3.1));
#365=DIRECTION('',(-1.,0.,0.));
#366=DIRECTION('',(0.,0.,1.));
#367=AXIS2_PLACEMENT_3D('',#364,#365,#366);
#368=PLANE('',#367);
#369=ORIENTED_EDGE('',*,*,#353,.T.);
#370=ORIENTED_EDGE('',*,*,#247,.T.);
#371=CARTESIAN_POINT('',(-1.147237935,1.883545614,3.1));
#372=VERTEX_POINT('',#371);
#373=CARTESIAN_POINT('',(-1.147237935,1.883545614,3.1));
#374=DIRECTION('',(0.,-0.,-1.));
#375=VECTOR('',#374,1.8);
#376=LINE('',#373,#375);
#377=EDGE_CURVE('',#372,#234,#376,.T.);
#378=ORIENTED_EDGE('',*,*,#377,.F.);
#379=CARTESIAN_POINT('',(-1.147237935,1.883545614,3.1));
#380=DIRECTION('',(0.,1.,0.));
#381=VECTOR('',#380,1.);
#382=LINE('',#379,#381);
#383=EDGE_CURVE('',#372,#348,#382,.T.);
#384=ORIENTED_EDGE('',*,*,#383,.T.);
#385=EDGE_LOOP('',(#369,#370,#378,#384));
#386=FACE_BOUND('',#385,.T.);
#387=ADVANCED_FACE('',(#386),#368,.T.);
#388=CARTESIAN_POINT('',(0.,-0.307637439,3.1));
#389=DIRECTION('',(0.,0.,1.));
#390=DIRECTION('',(1.,0.,0.));
#391=AXIS2_PLACEMENT_3D('',#388,#389,#390);
#392=PLANE('',#391);
#393=ORIENTED_EDGE('',*,*,#163,.F.);
#394=CARTESIAN_POINT('',(1.152762065,1.883545614,3.1));
#395=DIRECTION('',(-1.,0.,0.));
#396=VECTOR('',#395,0.015987717);
#397=LINE('',#394,#396);
#398=EDGE_CURVE('',#315,#149,#397,.T.);
#399=ORIENTED_EDGE('',*,*,#398,.F.);
#400=ORIENTED_EDGE('',*,*,#335,.F.);
#401=ORIENTED_EDGE('',*,*,#359,.F.);
#402=ORIENTED_EDGE('',*,*,#383,.F.);
#403=CARTESIAN_POINT('',(-1.136774348,1.883545614,3.1));
#404=DIRECTION('',(-1.,0.,0.));
#405=VECTOR('',#404,0.010463587);
#406=LINE('',#403,#405);
#407=EDGE_CURVE('',#157,#372,#406,.T.);
#408=ORIENTED_EDGE('',*,*,#407,.F.);
#409=EDGE_LOOP('',(#393,#399,#400,#401,#402,#408));
#410=FACE_BOUND('',#409,.T.);
#411=ADVANCED_FACE('',(#410),#392,.T.);
#412=CARTESIAN_POINT('',(-0.672001925,1.883545614,3.1));
#413=DIRECTION('',(0.,-1.,0.));
#414=DIRECTION('',(0.,-0.,-1.));
#415=AXIS2_PLACEMENT_3D('',#412,#413,#414);
#416=PLANE('',#415);
#417=ORIENTED_EDGE('',*,*,#377,.T.);
#418=ORIENTED_EDGE('',*,*,#239,.T.);
#419=ORIENTED_EDGE('',*,*,#171,.F.);
#420=ORIENTED_EDGE('',*,*,#407,.T.);
#421=EDGE_LOOP('',(#417,#418,#419,#420));
#422=FACE_BOUND('',#421,.T.);
#423=ADVANCED_FACE('',(#422),#416,.T.);
#424=CARTESIAN_POINT('',(0.674763989,1.883545614,3.1));
#425=DIRECTION('',(0.,-1.,0.));
#426=DIRECTION('',(0.,-0.,-1.));
#427=AXIS2_PLACEMENT_3D('',#424,#425,#426);
#428=PLANE('',#427);
#429=ORIENTED_EDGE('',*,*,#154,.F.);
#430=ORIENTED_EDGE('',*,*,#269,.T.);
#431=ORIENTED_EDGE('',*,*,#320,.F.);
#432=ORIENTED_EDGE('',*,*,#398,.T.);
#433=EDGE_LOOP('',(#429,#430,#431,#432));
#434=FACE_BOUND('',#433,.T.);
#435=ADVANCED_FACE('',(#434),#428,.T.);
#436=CARTESIAN_POINT('',(-1.147237935,-2.383545614,3.1));
#437=DIRECTION('',(-1.,0.,0.));
#438=DIRECTION('',(0.,0.,1.));
#439=AXIS2_PLACEMENT_3D('',#436,#437,#438);
#440=PLANE('',#439);
#441=CARTESIAN_POINT('',(-1.147237935,-1.883545614,3.1));
#442=VERTEX_POINT('',#441);
#443=CARTESIAN_POINT('',(-1.147237935,-1.883545614,3.1));
#444=DIRECTION('',(0.,-0.,-1.));
#445=VECTOR('',#444,1.8);
#446=LINE('',#443,#445);
#447=EDGE_CURVE('',#442,#224,#446,.T.);
#448=ORIENTED_EDGE('',*,*,#447,.T.);
#449=ORIENTED_EDGE('',*,*,#300,.T.);
#450=CARTESIAN_POINT('',(-1.147237935,-2.883545614,3.1));
#451=VERTEX_POINT('',#450);
#452=CARTESIAN_POINT('',(-1.147237935,-2.883545614,3.1));
#453=DIRECTION('',(0.,-0.,-1.));
#454=VECTOR('',#453,1.8);
#455=LINE('',#452,#454);
#456=EDGE_CURVE('',#451,#289,#455,.T.);
#457=ORIENTED_EDGE('',*,*,#456,.F.);
#458=CARTESIAN_POINT('',(-1.147237935,-2.883545614,3.1));
#459=DIRECTION('',(0.,1.,0.));
#460=VECTOR('',#459,1.);
#461=LINE('',#458,#460);
#462=EDGE_CURVE('',#451,#442,#461,.T.);
#463=ORIENTED_EDGE('',*,*,#462,.T.);
#464=EDGE_LOOP('',(#448,#449,#457,#463));
#465=FACE_BOUND('',#464,.T.);
#466=ADVANCED_FACE('',(#465),#440,.T.);
#467=CARTESIAN_POINT('',(0.002762065,-2.883545614,3.1));
#468=DIRECTION('',(0.,-1.,0.));
#469=DIRECTION('',(0.,-0.,-1.));
#470=AXIS2_PLACEMENT_3D('',#467,#468,#469);
#471=PLANE('',#470);
#472=ORIENTED_EDGE('',*,*,#456,.T.);
#473=ORIENTED_EDGE('',*,*,#294,.T.);
#474=CARTESIAN_POINT('',(1.152762065,-2.883545614,3.1));
#475=VERTEX_POINT('',#474);
#476=CARTESIAN_POINT('',(1.152762065,-2.883545614,3.1));
#477=DIRECTION('',(0.,-0.,-1.));
#478=VECTOR('',#477,1.8);
#479=LINE('',#476,#478);
#480=EDGE_CURVE('',#475,#281,#479,.T.);
#481=ORIENTED_EDGE('',*,*,#480,.F.);
#482=CARTESIAN_POINT('',(1.152762065,-2.883545614,3.1));
#483=DIRECTION('',(-1.,0.,0.));
#484=VECTOR('',#483,2.3);
#485=LINE('',#482,#484);
#486=EDGE_CURVE('',#475,#451,#485,.T.);
#487=ORIENTED_EDGE('',*,*,#486,.T.);
#488=EDGE_LOOP('',(#472,#473,#481,#487));
#489=FACE_BOUND('',#488,.T.);
#490=ADVANCED_FACE('',(#489),#471,.T.);
#491=CARTESIAN_POINT('',(1.152762065,-2.383545614,3.1));
#492=DIRECTION('',(1.,0.,0.));
#493=DIRECTION('',(0.,0.,-1.));
#494=AXIS2_PLACEMENT_3D('',#491,#492,#493);
#495=PLANE('',#494);
#496=ORIENTED_EDGE('',*,*,#480,.T.);
#497=ORIENTED_EDGE('',*,*,#286,.T.);
#498=CARTESIAN_POINT('',(1.152762065,-1.883545614,3.1));
#499=VERTEX_POINT('',#498);
#500=CARTESIAN_POINT('',(1.152762065,-1.883545614,3.1));
#501=DIRECTION('',(0.,-0.,-1.));
#502=VECTOR('',#501,1.8);
#503=LINE('',#500,#502);
#504=EDGE_CURVE('',#499,#273,#503,.T.);
#505=ORIENTED_EDGE('',*,*,#504,.F.);
#506=CARTESIAN_POINT('',(1.152762065,-1.883545614,3.1));
#507=DIRECTION('',(0.,-1.,0.));
#508=VECTOR('',#507,1.);
#509=LINE('',#506,#508);
#510=EDGE_CURVE('',#499,#475,#509,.T.);
#511=ORIENTED_EDGE('',*,*,#510,.T.);
#512=EDGE_LOOP('',(#496,#497,#505,#511));
#513=FACE_BOUND('',#512,.T.);
#514=ADVANCED_FACE('',(#513),#495,.T.);
#515=CARTESIAN_POINT('',(0.,0.307637439,3.1));
#516=DIRECTION('',(0.,0.,1.));
#517=DIRECTION('',(1.,0.,0.));
#518=AXIS2_PLACEMENT_3D('',#515,#516,#517);
#519=PLANE('',#518);
#520=ORIENTED_EDGE('',*,*,#129,.F.);
#521=CARTESIAN_POINT('',(-1.147237935,-1.883545614,3.1));
#522=DIRECTION('',(1.,0.,-0.));
#523=VECTOR('',#522,0.010463587);
#524=LINE('',#521,#523);
#525=EDGE_CURVE('',#442,#115,#524,.T.);
#526=ORIENTED_EDGE('',*,*,#525,.F.);
#527=ORIENTED_EDGE('',*,*,#462,.F.);
#528=ORIENTED_EDGE('',*,*,#486,.F.);
#529=ORIENTED_EDGE('',*,*,#510,.F.);
#530=CARTESIAN_POINT('',(1.136774348,-1.883545614,3.1));
#531=DIRECTION('',(1.,0.,-0.));
#532=VECTOR('',#531,0.015987717);
#533=LINE('',#530,#532);
#534=EDGE_CURVE('',#123,#499,#533,.T.);
#535=ORIENTED_EDGE('',*,*,#534,.F.);
#536=EDGE_LOOP('',(#520,#526,#527,#528,#529,#535));
#537=FACE_BOUND('',#536,.T.);
#538=ADVANCED_FACE('',(#537),#519,.T.);
#539=CARTESIAN_POINT('',(-0.672001925,-1.883545614,3.1));
#540=DIRECTION('',(0.,1.,-0.));
#541=DIRECTION('',(0.,0.,1.));
#542=AXIS2_PLACEMENT_3D('',#539,#540,#541);
#543=PLANE('',#542);
#544=ORIENTED_EDGE('',*,*,#120,.F.);
#545=ORIENTED_EDGE('',*,*,#229,.T.);
#546=ORIENTED_EDGE('',*,*,#447,.F.);
#547=ORIENTED_EDGE('',*,*,#525,.T.);
#548=EDGE_LOOP('',(#544,#545,#546,#547));
#549=FACE_BOUND('',#548,.T.);
#550=ADVANCED_FACE('',(#549),#543,.T.);
#551=CARTESIAN_POINT('',(0.674763989,-1.883545614,3.1));
#552=DIRECTION('',(0.,1.,-0.));
#553=DIRECTION('',(0.,0.,1.));
#554=AXIS2_PLACEMENT_3D('',#551,#552,#553);
#555=PLANE('',#554);
#556=ORIENTED_EDGE('',*,*,#504,.T.);
#557=ORIENTED_EDGE('',*,*,#278,.T.);
#558=ORIENTED_EDGE('',*,*,#137,.F.);
#559=ORIENTED_EDGE('',*,*,#534,.T.);
#560=EDGE_LOOP('',(#556,#557,#558,#559));
#561=FACE_BOUND('',#560,.T.);
#562=ADVANCED_FACE('',(#561),#555,.T.);
#563=CARTESIAN_POINT('',(0.,0.,0.));
#564=DIRECTION('',(0.,0.,-1.));
#565=DIRECTION('',(-1.,0.,0.));
#566=AXIS2_PLACEMENT_3D('',#563,#564,#565);
#567=CONICAL_SURFACE('',#566,3.2,45.);
#568=CARTESIAN_POINT('',(-3.2,0.,-0.));
#569=DIRECTION('',(0.707106781,-0.,0.707106781));
#570=VECTOR('',#569,1.414213562);
#571=LINE('',#568,#570);
#572=EDGE_CURVE('',#35,#79,#571,.T.);
#573=ORIENTED_EDGE('',*,*,#572,.F.);
#574=ORIENTED_EDGE('',*,*,#41,.F.);
#575=ORIENTED_EDGE('',*,*,#48,.F.);
#576=ORIENTED_EDGE('',*,*,#572,.T.);
#577=ORIENTED_EDGE('',*,*,#102,.F.);
#578=ORIENTED_EDGE('',*,*,#95,.F.);
#579=EDGE_LOOP('',(#573,#574,#575,#576,#577,#578));
#580=FACE_BOUND('',#579,.T.);
#581=ADVANCED_FACE('',(#580),#567,.F.);
#582=CLOSED_SHELL('',(#72,#182,#217,#308,#339,#363,#387,#411,#423,#435,#466,#490,#514,#538,#550,#562,#581));
#583=MANIFOLD_SOLID_BREP('Extruded.001',#582);
#26=STYLED_ITEM('',(),#583);
#16=SHAPE_REPRESENTATION('Extruded.001',(#15),#10);
#17=ADVANCED_BREP_SHAPE_REPRESENTATION('Extruded.001',(#583),#10);
#591=SHAPE_REPRESENTATION_RELATIONSHIP('','',#16,#17);
#592=APPLICATION_CONTEXT('configuration controlled 3D design of mechanical parts and assemblies');
#593=APPLICATION_PROTOCOL_DEFINITION('international standard','configuration_control_3d_design_ed2_mim',2004,#592);
#594=PRODUCT_CONTEXT('',#592,'mechanical');
#595=PRODUCT_DEFINITION_CONTEXT('part definition',#592,'design');
#24=PRODUCT('Extruded.001','Extruded.001','',(#594));
#596=PRODUCT_RELATED_PRODUCT_CATEGORY('part','',(#24));
#597=PRODUCT_DEFINITION_FORMATION_WITH_SPECIFIED_SOURCE('','',#24,.NOT_KNOWN.);
#25=PRODUCT_DEFINITION('design','',#597,#595);
#23=PRODUCT_DEFINITION_SHAPE('','',#25);
#598=SHAPE_DEFINITION_REPRESENTATION(#23,#16);
#11=DRAUGHTING_MODEL('',(),#10);
#1=MECHANICAL_DESIGN_GEOMETRIC_PRESENTATION_REPRESENTATION('',(#26),#10);
ENDSEC;
END-ISO-10303-21;
