ISO-10303-21;
HEADER;

/* File generated by HOOPS Exchange Version 23.2.20 */

FILE_DESCRIPTION(('HOOPS Exchange Step'),'2;1');

FILE_NAME('C:\\Users\\nguye\\Projects\\3D-Model-Collection\\078-helmet-ring-replacement\\dist\\078.stp',
'2024-09-29T01:48:13-17:00',
('nguye'),
('Unknown organisation'),
'HOOPS Exchange 2023.2',
'HOOPS Exchange',
'Unknown authorisation');

FILE_SCHEMA( ('AP203_CONFIGURATION_CONTROLLED_3D_DESIGN_OF_MECHANICAL_PARTS_AND_ASSEMBLIES_MIM_LF') );

ENDSEC;

DATA;
#3=(NAMED_UNIT(*)PLANE_ANGLE_UNIT()SI_UNIT($,.RADIAN.));
#4=PLANE_ANGLE_MEASURE_WITH_UNIT(PLANE_ANGLE_MEASURE(0.0174532925),#3);
#5=(CONVERSION_BASED_UNIT('DEGREE',#4)NAMED_UNIT(#6)PLANE_ANGLE_UNIT());
#6=DIMENSIONAL_EXPONENTS(0.,0.,0.,0.,0.,0.,0.);
#7=(NAMED_UNIT(*)SI_UNIT($,.STERADIAN.)SOLID_ANGLE_UNIT());
#8=(LENGTH_UNIT()NAMED_UNIT(*)SI_UNIT(.MILLI.,.METRE.));
#9=UNCERTAINTY_MEASURE_WITH_UNIT(LENGTH_MEASURE(1.000000E-05),#8,'DISTANCE_ACCURACY_VALUE','Maximum Tolerance applied to model');
#10=(GEOMETRIC_REPRESENTATION_CONTEXT(3)GLOBAL_UNCERTAINTY_ASSIGNED_CONTEXT((#9))GLOBAL_UNIT_ASSIGNED_CONTEXT((#8,#5,#7))REPRESENTATION_CONTEXT('','Extruded.001'));
#12=CARTESIAN_POINT('',(0.,0.,0.));
#13=DIRECTION('',(0.,0.,1.));
#14=DIRECTION('',(1.,0.,0.));
#15=AXIS2_PLACEMENT_3D('',#12,#13,#14);
#27=CARTESIAN_POINT('',(0.,0.,1.3));
#28=DIRECTION('',(0.,0.,-1.));
#29=DIRECTION('',(-1.,0.,0.));
#30=AXIS2_PLACEMENT_3D('',#27,#28,#29);
#31=CYLINDRICAL_SURFACE('',#30,2.2);
#32=CARTESIAN_POINT('',(-2.2,0.,0.));
#33=VERTEX_POINT('',#32);
#34=CARTESIAN_POINT('',(-2.2,0.,1.3));
#35=VERTEX_POINT('',#34);
#36=CARTESIAN_POINT('',(-2.2,0.,0.));
#37=DIRECTION('',(-0.,-0.,1.));
#38=VECTOR('',#37,1.3);
#39=LINE('',#36,#38);
#40=EDGE_CURVE('',#33,#35,#39,.T.);
#41=ORIENTED_EDGE('',*,*,#40,.F.);
#42=CARTESIAN_POINT('',(2.2,-0.,0.));
#43=VERTEX_POINT('',#42);
#44=CARTESIAN_POINT('',(0.,0.,0.));
#45=DIRECTION('',(0.,0.,1.));
#46=DIRECTION('',(1.,0.,-0.));
#47=AXIS2_PLACEMENT_3D('',#44,#45,#46);
#48=CIRCLE('',#47,2.2);
#49=EDGE_CURVE('',#43,#33,#48,.T.);
#50=ORIENTED_EDGE('',*,*,#49,.F.);
#51=CARTESIAN_POINT('',(0.,0.,0.));
#52=DIRECTION('',(0.,0.,1.));
#53=DIRECTION('',(1.,0.,-0.));
#54=AXIS2_PLACEMENT_3D('',#51,#52,#53);
#55=CIRCLE('',#54,2.2);
#56=EDGE_CURVE('',#33,#43,#55,.T.);
#57=ORIENTED_EDGE('',*,*,#56,.F.);
#58=ORIENTED_EDGE('',*,*,#40,.T.);
#59=CARTESIAN_POINT('',(-1.136774348,-1.883545614,1.3));
#60=VERTEX_POINT('',#59);
#61=CARTESIAN_POINT('',(0.,0.,1.3));
#62=DIRECTION('',(0.,0.,1.));
#63=DIRECTION('',(1.,0.,-0.));
#64=AXIS2_PLACEMENT_3D('',#61,#62,#63);
#65=CIRCLE('',#64,2.2);
#66=EDGE_CURVE('',#35,#60,#65,.T.);
#67=ORIENTED_EDGE('',*,*,#66,.T.);
#68=CARTESIAN_POINT('',(-1.136774348,-1.883545614,3.1));
#69=VERTEX_POINT('',#68);
#70=CARTESIAN_POINT('',(-1.136774348,-1.883545614,1.3));
#71=DIRECTION('',(0.,0.,1.));
#72=VECTOR('',#71,1.8);
#73=LINE('',#70,#72);
#74=EDGE_CURVE('',#60,#69,#73,.T.);
#75=ORIENTED_EDGE('',*,*,#74,.T.);
#76=CARTESIAN_POINT('',(1.136774348,-1.883545614,3.1));
#77=VERTEX_POINT('',#76);
#78=CARTESIAN_POINT('',(0.,0.,3.1));
#79=DIRECTION('',(0.,0.,1.));
#80=DIRECTION('',(1.,0.,-0.));
#81=AXIS2_PLACEMENT_3D('',#78,#79,#80);
#82=CIRCLE('',#81,2.2);
#83=EDGE_CURVE('',#69,#77,#82,.T.);
#84=ORIENTED_EDGE('',*,*,#83,.T.);
#85=CARTESIAN_POINT('',(1.136774348,-1.883545614,1.3));
#86=VERTEX_POINT('',#85);
#87=CARTESIAN_POINT('',(1.136774348,-1.883545614,3.1));
#88=DIRECTION('',(-0.,-0.,-1.));
#89=VECTOR('',#88,1.8);
#90=LINE('',#87,#89);
#91=EDGE_CURVE('',#77,#86,#90,.T.);
#92=ORIENTED_EDGE('',*,*,#91,.T.);
#93=CARTESIAN_POINT('',(1.136774348,1.883545614,1.3));
#94=VERTEX_POINT('',#93);
#95=CARTESIAN_POINT('',(0.,0.,1.3));
#96=DIRECTION('',(0.,0.,1.));
#97=DIRECTION('',(1.,0.,-0.));
#98=AXIS2_PLACEMENT_3D('',#95,#96,#97);
#99=CIRCLE('',#98,2.2);
#100=EDGE_CURVE('',#86,#94,#99,.T.);
#101=ORIENTED_EDGE('',*,*,#100,.T.);
#102=CARTESIAN_POINT('',(1.136774348,1.883545614,3.1));
#103=VERTEX_POINT('',#102);
#104=CARTESIAN_POINT('',(1.136774348,1.883545614,1.3));
#105=DIRECTION('',(0.,0.,1.));
#106=VECTOR('',#105,1.8);
#107=LINE('',#104,#106);
#108=EDGE_CURVE('',#94,#103,#107,.T.);
#109=ORIENTED_EDGE('',*,*,#108,.T.);
#110=CARTESIAN_POINT('',(-1.136774348,1.883545614,3.1));
#111=VERTEX_POINT('',#110);
#112=CARTESIAN_POINT('',(0.,0.,3.1));
#113=DIRECTION('',(0.,0.,1.));
#114=DIRECTION('',(1.,0.,-0.));
#115=AXIS2_PLACEMENT_3D('',#112,#113,#114);
#116=CIRCLE('',#115,2.2);
#117=EDGE_CURVE('',#103,#111,#116,.T.);
#118=ORIENTED_EDGE('',*,*,#117,.T.);
#119=CARTESIAN_POINT('',(-1.136774348,1.883545614,1.3));
#120=VERTEX_POINT('',#119);
#121=CARTESIAN_POINT('',(-1.136774348,1.883545614,3.1));
#122=DIRECTION('',(-0.,-0.,-1.));
#123=VECTOR('',#122,1.8);
#124=LINE('',#121,#123);
#125=EDGE_CURVE('',#111,#120,#124,.T.);
#126=ORIENTED_EDGE('',*,*,#125,.T.);
#127=CARTESIAN_POINT('',(0.,0.,1.3));
#128=DIRECTION('',(0.,0.,1.));
#129=DIRECTION('',(1.,0.,-0.));
#130=AXIS2_PLACEMENT_3D('',#127,#128,#129);
#131=CIRCLE('',#130,2.2);
#132=EDGE_CURVE('',#120,#35,#131,.T.);
#133=ORIENTED_EDGE('',*,*,#132,.T.);
#134=EDGE_LOOP('',(#41,#50,#57,#58,#67,#75,#84,#92,#101,#109,#118,#126,#133));
#135=FACE_BOUND('',#134,.T.);
#136=ADVANCED_FACE('',(#135),#31,.F.);
#137=CARTESIAN_POINT('',(0.,0.,1.3));
#138=DIRECTION('',(0.,0.,-1.));
#139=DIRECTION('',(-1.,0.,0.));
#140=AXIS2_PLACEMENT_3D('',#137,#138,#139);
#141=CYLINDRICAL_SURFACE('',#140,6.5);
#142=CARTESIAN_POINT('',(-6.5,0.,0.));
#143=VERTEX_POINT('',#142);
#144=CARTESIAN_POINT('',(-6.5,0.,1.3));
#145=VERTEX_POINT('',#144);
#146=CARTESIAN_POINT('',(-6.5,0.,0.));
#147=DIRECTION('',(-0.,-0.,1.));
#148=VECTOR('',#147,1.3);
#149=LINE('',#146,#148);
#150=EDGE_CURVE('',#143,#145,#149,.T.);
#151=ORIENTED_EDGE('',*,*,#150,.T.);
#152=CARTESIAN_POINT('',(6.5,-0.,1.3));
#153=VERTEX_POINT('',#152);
#154=CARTESIAN_POINT('',(0.,0.,1.3));
#155=DIRECTION('',(0.,0.,1.));
#156=DIRECTION('',(1.,0.,-0.));
#157=AXIS2_PLACEMENT_3D('',#154,#155,#156);
#158=CIRCLE('',#157,6.5);
#159=EDGE_CURVE('',#153,#145,#158,.T.);
#160=ORIENTED_EDGE('',*,*,#159,.F.);
#161=CARTESIAN_POINT('',(0.,0.,1.3));
#162=DIRECTION('',(0.,0.,1.));
#163=DIRECTION('',(1.,0.,-0.));
#164=AXIS2_PLACEMENT_3D('',#161,#162,#163);
#165=CIRCLE('',#164,6.5);
#166=EDGE_CURVE('',#145,#153,#165,.T.);
#167=ORIENTED_EDGE('',*,*,#166,.F.);
#168=ORIENTED_EDGE('',*,*,#150,.F.);
#169=CARTESIAN_POINT('',(6.5,-0.,0.));
#170=VERTEX_POINT('',#169);
#171=CARTESIAN_POINT('',(0.,0.,0.));
#172=DIRECTION('',(0.,0.,1.));
#173=DIRECTION('',(1.,0.,-0.));
#174=AXIS2_PLACEMENT_3D('',#171,#172,#173);
#175=CIRCLE('',#174,6.5);
#176=EDGE_CURVE('',#143,#170,#175,.T.);
#177=ORIENTED_EDGE('',*,*,#176,.T.);
#178=CARTESIAN_POINT('',(0.,0.,0.));
#179=DIRECTION('',(0.,0.,1.));
#180=DIRECTION('',(1.,0.,-0.));
#181=AXIS2_PLACEMENT_3D('',#178,#179,#180);
#182=CIRCLE('',#181,6.5);
#183=EDGE_CURVE('',#170,#143,#182,.T.);
#184=ORIENTED_EDGE('',*,*,#183,.T.);
#185=EDGE_LOOP('',(#151,#160,#167,#168,#177,#184));
#186=FACE_BOUND('',#185,.T.);
#187=ADVANCED_FACE('',(#186),#141,.T.);
#188=CARTESIAN_POINT('',(0.,0.,1.3));
#189=DIRECTION('',(0.,0.,1.));
#190=DIRECTION('',(1.,0.,0.));
#191=AXIS2_PLACEMENT_3D('',#188,#189,#190);
#192=PLANE('',#191);
#193=CARTESIAN_POINT('',(-1.147237935,-1.883545614,1.3));
#194=VERTEX_POINT('',#193);
#195=CARTESIAN_POINT('',(-1.136774348,-1.883545614,1.3));
#196=DIRECTION('',(-1.,0.,0.));
#197=VECTOR('',#196,0.010463587);
#198=LINE('',#195,#197);
#199=EDGE_CURVE('',#60,#194,#198,.T.);
#200=ORIENTED_EDGE('',*,*,#199,.F.);
#201=ORIENTED_EDGE('',*,*,#66,.F.);
#202=ORIENTED_EDGE('',*,*,#132,.F.);
#203=CARTESIAN_POINT('',(-1.147237935,1.883545614,1.3));
#204=VERTEX_POINT('',#203);
#205=CARTESIAN_POINT('',(-1.147237935,1.883545614,1.3));
#206=DIRECTION('',(1.,0.,-0.));
#207=VECTOR('',#206,0.010463587);
#208=LINE('',#205,#207);
#209=EDGE_CURVE('',#204,#120,#208,.T.);
#210=ORIENTED_EDGE('',*,*,#209,.F.);
#211=CARTESIAN_POINT('',(-1.147237935,2.883545614,1.3));
#212=VERTEX_POINT('',#211);
#213=CARTESIAN_POINT('',(-1.147237935,2.883545614,1.3));
#214=DIRECTION('',(0.,-1.,0.));
#215=VECTOR('',#214,1.);
#216=LINE('',#213,#215);
#217=EDGE_CURVE('',#212,#204,#216,.T.);
#218=ORIENTED_EDGE('',*,*,#217,.F.);
#219=CARTESIAN_POINT('',(1.152762065,2.883545614,1.3));
#220=VERTEX_POINT('',#219);
#221=CARTESIAN_POINT('',(1.152762065,2.883545614,1.3));
#222=DIRECTION('',(-1.,0.,0.));
#223=VECTOR('',#222,2.3);
#224=LINE('',#221,#223);
#225=EDGE_CURVE('',#220,#212,#224,.T.);
#226=ORIENTED_EDGE('',*,*,#225,.F.);
#227=CARTESIAN_POINT('',(1.152762065,1.883545614,1.3));
#228=VERTEX_POINT('',#227);
#229=CARTESIAN_POINT('',(1.152762065,1.883545614,1.3));
#230=DIRECTION('',(0.,1.,0.));
#231=VECTOR('',#230,1.);
#232=LINE('',#229,#231);
#233=EDGE_CURVE('',#228,#220,#232,.T.);
#234=ORIENTED_EDGE('',*,*,#233,.F.);
#235=CARTESIAN_POINT('',(1.136774348,1.883545614,1.3));
#236=DIRECTION('',(1.,0.,-0.));
#237=VECTOR('',#236,0.015987717);
#238=LINE('',#235,#237);
#239=EDGE_CURVE('',#94,#228,#238,.T.);
#240=ORIENTED_EDGE('',*,*,#239,.F.);
#241=ORIENTED_EDGE('',*,*,#100,.F.);
#242=CARTESIAN_POINT('',(1.152762065,-1.883545614,1.3));
#243=VERTEX_POINT('',#242);
#244=CARTESIAN_POINT('',(1.152762065,-1.883545614,1.3));
#245=DIRECTION('',(-1.,0.,0.));
#246=VECTOR('',#245,0.015987717);
#247=LINE('',#244,#246);
#248=EDGE_CURVE('',#243,#86,#247,.T.);
#249=ORIENTED_EDGE('',*,*,#248,.F.);
#250=CARTESIAN_POINT('',(1.152762065,-2.883545614,1.3));
#251=VERTEX_POINT('',#250);
#252=CARTESIAN_POINT('',(1.152762065,-2.883545614,1.3));
#253=DIRECTION('',(0.,1.,0.));
#254=VECTOR('',#253,1.);
#255=LINE('',#252,#254);
#256=EDGE_CURVE('',#251,#243,#255,.T.);
#257=ORIENTED_EDGE('',*,*,#256,.F.);
#258=CARTESIAN_POINT('',(-1.147237935,-2.883545614,1.3));
#259=VERTEX_POINT('',#258);
#260=CARTESIAN_POINT('',(-1.147237935,-2.883545614,1.3));
#261=DIRECTION('',(1.,0.,-0.));
#262=VECTOR('',#261,2.3);
#263=LINE('',#260,#262);
#264=EDGE_CURVE('',#259,#251,#263,.T.);
#265=ORIENTED_EDGE('',*,*,#264,.F.);
#266=CARTESIAN_POINT('',(-1.147237935,-1.883545614,1.3));
#267=DIRECTION('',(0.,-1.,0.));
#268=VECTOR('',#267,1.);
#269=LINE('',#266,#268);
#270=EDGE_CURVE('',#194,#259,#269,.T.);
#271=ORIENTED_EDGE('',*,*,#270,.F.);
#272=EDGE_LOOP('',(#200,#201,#202,#210,#218,#226,#234,#240,#241,#249,#257,#265,#271));
#273=FACE_BOUND('',#272,.T.);
#274=ORIENTED_EDGE('',*,*,#159,.T.);
#275=ORIENTED_EDGE('',*,*,#166,.T.);
#276=EDGE_LOOP('',(#274,#275));
#277=FACE_BOUND('',#276,.T.);
#278=ADVANCED_FACE('',(#273,#277),#192,.T.);
#279=CARTESIAN_POINT('',(0.,0.,0.));
#280=DIRECTION('',(0.,0.,1.));
#281=DIRECTION('',(1.,0.,0.));
#282=AXIS2_PLACEMENT_3D('',#279,#280,#281);
#283=PLANE('',#282);
#284=ORIENTED_EDGE('',*,*,#49,.T.);
#285=ORIENTED_EDGE('',*,*,#56,.T.);
#286=EDGE_LOOP('',(#284,#285));
#287=FACE_BOUND('',#286,.T.);
#288=ORIENTED_EDGE('',*,*,#176,.F.);
#289=ORIENTED_EDGE('',*,*,#183,.F.);
#290=EDGE_LOOP('',(#288,#289));
#291=FACE_BOUND('',#290,.T.);
#292=ADVANCED_FACE('',(#287,#291),#283,.F.);
#293=CARTESIAN_POINT('',(1.152762065,2.383545614,3.1));
#294=DIRECTION('',(1.,0.,0.));
#295=DIRECTION('',(0.,0.,-1.));
#296=AXIS2_PLACEMENT_3D('',#293,#294,#295);
#297=PLANE('',#296);
#298=CARTESIAN_POINT('',(1.152762065,1.883545614,3.1));
#299=VERTEX_POINT('',#298);
#300=CARTESIAN_POINT('',(1.152762065,1.883545614,3.1));
#301=DIRECTION('',(0.,-0.,-1.));
#302=VECTOR('',#301,1.8);
#303=LINE('',#300,#302);
#304=EDGE_CURVE('',#299,#228,#303,.T.);
#305=ORIENTED_EDGE('',*,*,#304,.T.);
#306=ORIENTED_EDGE('',*,*,#233,.T.);
#307=CARTESIAN_POINT('',(1.152762065,2.883545614,3.1));
#308=VERTEX_POINT('',#307);
#309=CARTESIAN_POINT('',(1.152762065,2.883545614,3.1));
#310=DIRECTION('',(0.,-0.,-1.));
#311=VECTOR('',#310,1.8);
#312=LINE('',#309,#311);
#313=EDGE_CURVE('',#308,#220,#312,.T.);
#314=ORIENTED_EDGE('',*,*,#313,.F.);
#315=CARTESIAN_POINT('',(1.152762065,2.883545614,3.1));
#316=DIRECTION('',(0.,-1.,0.));
#317=VECTOR('',#316,1.);
#318=LINE('',#315,#317);
#319=EDGE_CURVE('',#308,#299,#318,.T.);
#320=ORIENTED_EDGE('',*,*,#319,.T.);
#321=EDGE_LOOP('',(#305,#306,#314,#320));
#322=FACE_BOUND('',#321,.T.);
#323=ADVANCED_FACE('',(#322),#297,.T.);
#324=CARTESIAN_POINT('',(0.002762065,2.883545614,3.1));
#325=DIRECTION('',(0.,1.,-0.));
#326=DIRECTION('',(0.,0.,1.));
#327=AXIS2_PLACEMENT_3D('',#324,#325,#326);
#328=PLANE('',#327);
#329=ORIENTED_EDGE('',*,*,#313,.T.);
#330=ORIENTED_EDGE('',*,*,#225,.T.);
#331=CARTESIAN_POINT('',(-1.147237935,2.883545614,3.1));
#332=VERTEX_POINT('',#331);
#333=CARTESIAN_POINT('',(-1.147237935,2.883545614,3.1));
#334=DIRECTION('',(0.,-0.,-1.));
#335=VECTOR('',#334,1.8);
#336=LINE('',#333,#335);
#337=EDGE_CURVE('',#332,#212,#336,.T.);
#338=ORIENTED_EDGE('',*,*,#337,.F.);
#339=CARTESIAN_POINT('',(-1.147237935,2.883545614,3.1));
#340=DIRECTION('',(1.,0.,-0.));
#341=VECTOR('',#340,2.3);
#342=LINE('',#339,#341);
#343=EDGE_CURVE('',#332,#308,#342,.T.);
#344=ORIENTED_EDGE('',*,*,#343,.T.);
#345=EDGE_LOOP('',(#329,#330,#338,#344));
#346=FACE_BOUND('',#345,.T.);
#347=ADVANCED_FACE('',(#346),#328,.T.);
#348=CARTESIAN_POINT('',(-1.147237935,2.383545614,3.1));
#349=DIRECTION('',(-1.,0.,0.));
#350=DIRECTION('',(0.,0.,1.));
#351=AXIS2_PLACEMENT_3D('',#348,#349,#350);
#352=PLANE('',#351);
#353=ORIENTED_EDGE('',*,*,#337,.T.);
#354=ORIENTED_EDGE('',*,*,#217,.T.);
#355=CARTESIAN_POINT('',(-1.147237935,1.883545614,3.1));
#356=VERTEX_POINT('',#355);
#357=CARTESIAN_POINT('',(-1.147237935,1.883545614,3.1));
#358=DIRECTION('',(0.,-0.,-1.));
#359=VECTOR('',#358,1.8);
#360=LINE('',#357,#359);
#361=EDGE_CURVE('',#356,#204,#360,.T.);
#362=ORIENTED_EDGE('',*,*,#361,.F.);
#363=CARTESIAN_POINT('',(-1.147237935,1.883545614,3.1));
#364=DIRECTION('',(0.,1.,0.));
#365=VECTOR('',#364,1.);
#366=LINE('',#363,#365);
#367=EDGE_CURVE('',#356,#332,#366,.T.);
#368=ORIENTED_EDGE('',*,*,#367,.T.);
#369=EDGE_LOOP('',(#353,#354,#362,#368));
#370=FACE_BOUND('',#369,.T.);
#371=ADVANCED_FACE('',(#370),#352,.T.);
#372=CARTESIAN_POINT('',(0.,-0.307637439,3.1));
#373=DIRECTION('',(0.,0.,1.));
#374=DIRECTION('',(1.,0.,0.));
#375=AXIS2_PLACEMENT_3D('',#372,#373,#374);
#376=PLANE('',#375);
#377=ORIENTED_EDGE('',*,*,#117,.F.);
#378=CARTESIAN_POINT('',(1.152762065,1.883545614,3.1));
#379=DIRECTION('',(-1.,0.,0.));
#380=VECTOR('',#379,0.015987717);
#381=LINE('',#378,#380);
#382=EDGE_CURVE('',#299,#103,#381,.T.);
#383=ORIENTED_EDGE('',*,*,#382,.F.);
#384=ORIENTED_EDGE('',*,*,#319,.F.);
#385=ORIENTED_EDGE('',*,*,#343,.F.);
#386=ORIENTED_EDGE('',*,*,#367,.F.);
#387=CARTESIAN_POINT('',(-1.136774348,1.883545614,3.1));
#388=DIRECTION('',(-1.,0.,0.));
#389=VECTOR('',#388,0.010463587);
#390=LINE('',#387,#389);
#391=EDGE_CURVE('',#111,#356,#390,.T.);
#392=ORIENTED_EDGE('',*,*,#391,.F.);
#393=EDGE_LOOP('',(#377,#383,#384,#385,#386,#392));
#394=FACE_BOUND('',#393,.T.);
#395=ADVANCED_FACE('',(#394),#376,.T.);
#396=CARTESIAN_POINT('',(-0.672001925,1.883545614,3.1));
#397=DIRECTION('',(0.,-1.,0.));
#398=DIRECTION('',(0.,-0.,-1.));
#399=AXIS2_PLACEMENT_3D('',#396,#397,#398);
#400=PLANE('',#399);
#401=ORIENTED_EDGE('',*,*,#361,.T.);
#402=ORIENTED_EDGE('',*,*,#209,.T.);
#403=ORIENTED_EDGE('',*,*,#125,.F.);
#404=ORIENTED_EDGE('',*,*,#391,.T.);
#405=EDGE_LOOP('',(#401,#402,#403,#404));
#406=FACE_BOUND('',#405,.T.);
#407=ADVANCED_FACE('',(#406),#400,.T.);
#408=CARTESIAN_POINT('',(0.674763989,1.883545614,3.1));
#409=DIRECTION('',(0.,-1.,0.));
#410=DIRECTION('',(0.,-0.,-1.));
#411=AXIS2_PLACEMENT_3D('',#408,#409,#410);
#412=PLANE('',#411);
#413=ORIENTED_EDGE('',*,*,#108,.F.);
#414=ORIENTED_EDGE('',*,*,#239,.T.);
#415=ORIENTED_EDGE('',*,*,#304,.F.);
#416=ORIENTED_EDGE('',*,*,#382,.T.);
#417=EDGE_LOOP('',(#413,#414,#415,#416));
#418=FACE_BOUND('',#417,.T.);
#419=ADVANCED_FACE('',(#418),#412,.T.);
#420=CARTESIAN_POINT('',(-1.147237935,-2.383545614,3.1));
#421=DIRECTION('',(-1.,0.,0.));
#422=DIRECTION('',(0.,0.,1.));
#423=AXIS2_PLACEMENT_3D('',#420,#421,#422);
#424=PLANE('',#423);
#425=CARTESIAN_POINT('',(-1.147237935,-1.883545614,3.1));
#426=VERTEX_POINT('',#425);
#427=CARTESIAN_POINT('',(-1.147237935,-1.883545614,3.1));
#428=DIRECTION('',(0.,-0.,-1.));
#429=VECTOR('',#428,1.8);
#430=LINE('',#427,#429);
#431=EDGE_CURVE('',#426,#194,#430,.T.);
#432=ORIENTED_EDGE('',*,*,#431,.T.);
#433=ORIENTED_EDGE('',*,*,#270,.T.);
#434=CARTESIAN_POINT('',(-1.147237935,-2.883545614,3.1));
#435=VERTEX_POINT('',#434);
#436=CARTESIAN_POINT('',(-1.147237935,-2.883545614,3.1));
#437=DIRECTION('',(0.,-0.,-1.));
#438=VECTOR('',#437,1.8);
#439=LINE('',#436,#438);
#440=EDGE_CURVE('',#435,#259,#439,.T.);
#441=ORIENTED_EDGE('',*,*,#440,.F.);
#442=CARTESIAN_POINT('',(-1.147237935,-2.883545614,3.1));
#443=DIRECTION('',(0.,1.,0.));
#444=VECTOR('',#443,1.);
#445=LINE('',#442,#444);
#446=EDGE_CURVE('',#435,#426,#445,.T.);
#447=ORIENTED_EDGE('',*,*,#446,.T.);
#448=EDGE_LOOP('',(#432,#433,#441,#447));
#449=FACE_BOUND('',#448,.T.);
#450=ADVANCED_FACE('',(#449),#424,.T.);
#451=CARTESIAN_POINT('',(0.002762065,-2.883545614,3.1));
#452=DIRECTION('',(0.,-1.,0.));
#453=DIRECTION('',(0.,-0.,-1.));
#454=AXIS2_PLACEMENT_3D('',#451,#452,#453);
#455=PLANE('',#454);
#456=ORIENTED_EDGE('',*,*,#440,.T.);
#457=ORIENTED_EDGE('',*,*,#264,.T.);
#458=CARTESIAN_POINT('',(1.152762065,-2.883545614,3.1));
#459=VERTEX_POINT('',#458);
#460=CARTESIAN_POINT('',(1.152762065,-2.883545614,3.1));
#461=DIRECTION('',(0.,-0.,-1.));
#462=VECTOR('',#461,1.8);
#463=LINE('',#460,#462);
#464=EDGE_CURVE('',#459,#251,#463,.T.);
#465=ORIENTED_EDGE('',*,*,#464,.F.);
#466=CARTESIAN_POINT('',(1.152762065,-2.883545614,3.1));
#467=DIRECTION('',(-1.,0.,0.));
#468=VECTOR('',#467,2.3);
#469=LINE('',#466,#468);
#470=EDGE_CURVE('',#459,#435,#469,.T.);
#471=ORIENTED_EDGE('',*,*,#470,.T.);
#472=EDGE_LOOP('',(#456,#457,#465,#471));
#473=FACE_BOUND('',#472,.T.);
#474=ADVANCED_FACE('',(#473),#455,.T.);
#475=CARTESIAN_POINT('',(1.152762065,-2.383545614,3.1));
#476=DIRECTION('',(1.,0.,0.));
#477=DIRECTION('',(0.,0.,-1.));
#478=AXIS2_PLACEMENT_3D('',#475,#476,#477);
#479=PLANE('',#478);
#480=ORIENTED_EDGE('',*,*,#464,.T.);
#481=ORIENTED_EDGE('',*,*,#256,.T.);
#482=CARTESIAN_POINT('',(1.152762065,-1.883545614,3.1));
#483=VERTEX_POINT('',#482);
#484=CARTESIAN_POINT('',(1.152762065,-1.883545614,3.1));
#485=DIRECTION('',(0.,-0.,-1.));
#486=VECTOR('',#485,1.8);
#487=LINE('',#484,#486);
#488=EDGE_CURVE('',#483,#243,#487,.T.);
#489=ORIENTED_EDGE('',*,*,#488,.F.);
#490=CARTESIAN_POINT('',(1.152762065,-1.883545614,3.1));
#491=DIRECTION('',(0.,-1.,0.));
#492=VECTOR('',#491,1.);
#493=LINE('',#490,#492);
#494=EDGE_CURVE('',#483,#459,#493,.T.);
#495=ORIENTED_EDGE('',*,*,#494,.T.);
#496=EDGE_LOOP('',(#480,#481,#489,#495));
#497=FACE_BOUND('',#496,.T.);
#498=ADVANCED_FACE('',(#497),#479,.T.);
#499=CARTESIAN_POINT('',(0.,0.307637439,3.1));
#500=DIRECTION('',(0.,0.,1.));
#501=DIRECTION('',(1.,0.,0.));
#502=AXIS2_PLACEMENT_3D('',#499,#500,#501);
#503=PLANE('',#502);
#504=ORIENTED_EDGE('',*,*,#83,.F.);
#505=CARTESIAN_POINT('',(-1.147237935,-1.883545614,3.1));
#506=DIRECTION('',(1.,0.,-0.));
#507=VECTOR('',#506,0.010463587);
#508=LINE('',#505,#507);
#509=EDGE_CURVE('',#426,#69,#508,.T.);
#510=ORIENTED_EDGE('',*,*,#509,.F.);
#511=ORIENTED_EDGE('',*,*,#446,.F.);
#512=ORIENTED_EDGE('',*,*,#470,.F.);
#513=ORIENTED_EDGE('',*,*,#494,.F.);
#514=CARTESIAN_POINT('',(1.136774348,-1.883545614,3.1));
#515=DIRECTION('',(1.,0.,-0.));
#516=VECTOR('',#515,0.015987717);
#517=LINE('',#514,#516);
#518=EDGE_CURVE('',#77,#483,#517,.T.);
#519=ORIENTED_EDGE('',*,*,#518,.F.);
#520=EDGE_LOOP('',(#504,#510,#511,#512,#513,#519));
#521=FACE_BOUND('',#520,.T.);
#522=ADVANCED_FACE('',(#521),#503,.T.);
#523=CARTESIAN_POINT('',(-0.672001925,-1.883545614,3.1));
#524=DIRECTION('',(0.,1.,-0.));
#525=DIRECTION('',(0.,0.,1.));
#526=AXIS2_PLACEMENT_3D('',#523,#524,#525);
#527=PLANE('',#526);
#528=ORIENTED_EDGE('',*,*,#74,.F.);
#529=ORIENTED_EDGE('',*,*,#199,.T.);
#530=ORIENTED_EDGE('',*,*,#431,.F.);
#531=ORIENTED_EDGE('',*,*,#509,.T.);
#532=EDGE_LOOP('',(#528,#529,#530,#531));
#533=FACE_BOUND('',#532,.T.);
#534=ADVANCED_FACE('',(#533),#527,.T.);
#535=CARTESIAN_POINT('',(0.674763989,-1.883545614,3.1));
#536=DIRECTION('',(0.,1.,-0.));
#537=DIRECTION('',(0.,0.,1.));
#538=AXIS2_PLACEMENT_3D('',#535,#536,#537);
#539=PLANE('',#538);
#540=ORIENTED_EDGE('',*,*,#488,.T.);
#541=ORIENTED_EDGE('',*,*,#248,.T.);
#542=ORIENTED_EDGE('',*,*,#91,.F.);
#543=ORIENTED_EDGE('',*,*,#518,.T.);
#544=EDGE_LOOP('',(#540,#541,#542,#543));
#545=FACE_BOUND('',#544,.T.);
#546=ADVANCED_FACE('',(#545),#539,.T.);
#547=CLOSED_SHELL('',(#136,#187,#278,#292,#323,#347,#371,#395,#407,#419,#450,#474,#498,#522,#534,#546));
#548=MANIFOLD_SOLID_BREP('Extruded.001',#547);
#26=STYLED_ITEM('',(),#548);
#16=SHAPE_REPRESENTATION('Extruded.001',(#15),#10);
#17=ADVANCED_BREP_SHAPE_REPRESENTATION('Extruded.001',(#548),#10);
#556=SHAPE_REPRESENTATION_RELATIONSHIP('','',#16,#17);
#557=APPLICATION_CONTEXT('configuration controlled 3D design of mechanical parts and assemblies');
#558=APPLICATION_PROTOCOL_DEFINITION('international standard','configuration_control_3d_design_ed2_mim',2004,#557);
#559=PRODUCT_CONTEXT('',#557,'mechanical');
#560=PRODUCT_DEFINITION_CONTEXT('part definition',#557,'design');
#24=PRODUCT('Extruded.001','Extruded.001','',(#559));
#561=PRODUCT_RELATED_PRODUCT_CATEGORY('part','',(#24));
#562=PRODUCT_DEFINITION_FORMATION_WITH_SPECIFIED_SOURCE('','',#24,.NOT_KNOWN.);
#25=PRODUCT_DEFINITION('design','',#562,#560);
#23=PRODUCT_DEFINITION_SHAPE('','',#25);
#563=SHAPE_DEFINITION_REPRESENTATION(#23,#16);
#11=DRAUGHTING_MODEL('',(),#10);
#1=MECHANICAL_DESIGN_GEOMETRIC_PRESENTATION_REPRESENTATION('',(#26),#10);
ENDSEC;
END-ISO-10303-21;
