# Created by FreeCAD <http://www.freecadweb.org>
v 83.190002 9.340000 0.000000
v 83.053612 10.985946 0.000000
v 83.190002 9.340000 2.000000
v 83.053612 10.985946 2.000000
v 82.648170 12.586995 0.000000
v 82.648170 12.586995 2.000000
v 81.984741 14.099474 0.000000
v 81.984741 14.099474 2.000000
v 81.081406 15.482127 0.000000
v 81.081406 15.482127 2.000000
v 79.962814 16.697239 0.000000
v 79.962814 16.697239 2.000000
v 78.659485 17.711664 0.000000
v 78.659485 17.711664 2.000000
v 77.206955 18.497732 0.000000
v 77.206955 18.497732 2.000000
v 75.644852 19.034002 0.000000
v 75.644852 19.034002 2.000000
v 74.015793 19.305845 0.000000
v 74.015793 19.305845 2.000000
v 72.364204 19.305845 0.000000
v 72.364204 19.305845 2.000000
v 70.735146 19.034002 0.000000
v 70.735146 19.034002 2.000000
v 69.173042 18.497732 2.000000
v 69.173042 18.497732 0.000000
v 67.720520 17.711664 0.000000
v 67.720520 17.711664 2.000000
v 66.417183 16.697239 0.000000
v 66.417183 16.697239 2.000000
v 65.298592 15.482127 0.000000
v 65.298592 15.482127 2.000000
v 64.395264 14.099474 0.000000
v 64.395264 14.099474 2.000000
v 63.731827 12.586995 0.000000
v 63.731827 12.586995 2.000000
v 63.326385 10.985946 0.000000
v 63.326385 10.985946 2.000000
v 63.189999 9.340000 0.000000
v 63.189999 9.340000 2.000000
v 63.326385 7.694054 0.000000
v 63.326385 7.694054 2.000000
v 63.731827 6.093005 0.000000
v 63.731827 6.093005 2.000000
v 64.395264 4.580526 2.000000
v 64.395264 4.580526 0.000000
v 65.298592 3.197873 2.000000
v 65.298592 3.197873 0.000000
v 66.417183 1.982761 2.000000
v 66.417183 1.982761 0.000000
v 67.720520 0.968335 0.000000
v 67.720520 0.968335 2.000000
v 69.173042 0.182267 0.000000
v 69.173042 0.182267 2.000000
v 70.735146 -0.354003 0.000000
v 70.735146 -0.354003 2.000000
v 72.364204 -0.625845 0.000000
v 72.364204 -0.625845 2.000000
v 74.015793 -0.625845 0.000000
v 74.015793 -0.625845 2.000000
v 75.644852 -0.354003 0.000000
v 75.644852 -0.354003 2.000000
v 77.206955 0.182267 0.000000
v 77.206955 0.182267 2.000000
v 78.659485 0.968335 0.000000
v 78.659485 0.968335 2.000000
v 79.962814 1.982761 0.000000
v 79.962814 1.982761 2.000000
v 81.081406 3.197873 0.000000
v 81.081406 3.197873 2.000000
v 81.984741 4.580526 0.000000
v 81.984741 4.580526 2.000000
v 82.648170 6.093005 0.000000
v 82.648170 6.093005 2.000000
v 83.053612 7.694054 0.000000
v 83.053612 7.694054 2.000000
vn 0.996584 0.082582 -0.000000
vn 0.996584 0.082582 0.000000
vn 0.969400 0.245486 0.000000
vn 0.969400 0.245486 -0.000000
vn 0.915775 0.401693 0.000000
vn 0.915775 0.401693 -0.000000
vn 0.837166 0.546950 0.000000
vn 0.837166 0.546950 -0.000000
vn 0.735723 0.677282 -0.000000
vn 0.735723 0.677282 0.000000
vn 0.614214 0.789140 0.000000
vn 0.614214 0.789140 -0.000000
vn 0.475946 0.879474 0.000000
vn 0.475946 0.879474 -0.000000
vn 0.324699 0.945817 0.000000
vn 0.324699 0.945817 -0.000000
vn 0.164595 0.986361 -0.000000
vn 0.164595 0.986361 0.000000
vn 0.000000 1.000000 0.000000
vn 0.000000 1.000000 -0.000000
vn -0.164595 0.986361 0.000000
vn -0.324699 0.945817 0.000000
vn -0.164595 0.986361 0.000000
vn -0.324699 0.945817 0.000000
vn -0.475948 0.879473 0.000000
vn -0.475948 0.879473 0.000000
vn -0.614212 0.789141 0.000000
vn -0.614212 0.789141 0.000000
vn -0.735723 0.677282 0.000000
vn -0.735723 0.677282 0.000000
vn -0.837168 0.546946 0.000000
vn -0.837168 0.546946 0.000000
vn -0.915773 0.401697 0.000000
vn -0.915773 0.401697 0.000000
vn -0.969400 0.245486 0.000000
vn -0.969400 0.245486 0.000000
vn -0.996585 0.082579 0.000000
vn -0.996585 0.082579 0.000000
vn -0.996585 -0.082579 0.000000
vn -0.996585 -0.082579 0.000000
vn -0.969400 -0.245486 0.000000
vn -0.915773 -0.401697 -0.000000
vn -0.969400 -0.245486 0.000000
vn -0.837168 -0.546946 -0.000000
vn -0.915773 -0.401697 0.000000
vn -0.735723 -0.677282 -0.000000
vn -0.837168 -0.546946 0.000000
vn -0.735723 -0.677282 0.000000
vn -0.614212 -0.789141 0.000000
vn -0.614212 -0.789141 0.000000
vn -0.475948 -0.879473 0.000000
vn -0.475948 -0.879473 0.000000
vn -0.324699 -0.945817 0.000000
vn -0.324699 -0.945817 0.000000
vn -0.164595 -0.986361 0.000000
vn -0.164595 -0.986361 0.000000
vn 0.000000 -1.000000 0.000000
vn 0.000000 -1.000000 0.000000
vn 0.164595 -0.986361 0.000000
vn 0.164595 -0.986361 0.000000
vn 0.324699 -0.945817 0.000000
vn 0.324699 -0.945817 0.000000
vn 0.475946 -0.879474 0.000000
vn 0.475946 -0.879474 0.000000
vn 0.614214 -0.789139 0.000000
vn 0.614214 -0.789139 0.000000
vn 0.735723 -0.677282 0.000000
vn 0.735723 -0.677282 0.000000
vn 0.837166 -0.546949 0.000000
vn 0.837166 -0.546949 0.000000
vn 0.915775 -0.401693 0.000000
vn 0.915775 -0.401693 0.000000
vn 0.969400 -0.245486 0.000000
vn 0.969400 -0.245486 0.000000
vn 0.996584 -0.082582 0.000000
vn 0.996584 -0.082582 0.000000
vn 0.000000 0.000000 -1.000000
vn 0.000000 0.000000 -1.000000
vn 0.000000 0.000000 -1.000000
vn 0.000000 0.000000 -1.000000
vn 0.000000 0.000000 -1.000000
vn 0.000000 0.000000 -1.000000
vn 0.000000 0.000000 -1.000000
vn 0.000000 0.000000 -1.000000
vn 0.000000 0.000000 -1.000000
vn 0.000000 -0.000000 -1.000000
vn 0.000000 0.000000 -1.000000
vn 0.000000 0.000000 -1.000000
vn 0.000000 0.000000 -1.000000
vn 0.000000 0.000000 -1.000000
vn 0.000000 0.000000 -1.000000
vn 0.000000 -0.000000 -1.000000
vn 0.000000 -0.000000 -1.000000
vn 0.000000 -0.000000 -1.000000
vn 0.000000 0.000000 -1.000000
vn 0.000000 0.000000 -1.000000
vn 0.000000 -0.000000 -1.000000
vn 0.000000 0.000000 -1.000000
vn 0.000000 -0.000000 -1.000000
vn -0.000000 -0.000000 -1.000000
vn 0.000000 0.000000 -1.000000
vn 0.000000 0.000000 -1.000000
vn 0.000000 0.000000 -1.000000
vn 0.000000 0.000000 -1.000000
vn -0.000000 -0.000000 -1.000000
vn 0.000000 -0.000000 -1.000000
vn 0.000000 0.000000 -1.000000
vn -0.000000 -0.000000 -1.000000
vn 0.000000 0.000000 -1.000000
vn 0.000000 0.000000 -1.000000
vn 0.000000 0.000000 -1.000000
vn 0.000000 0.000000 -1.000000
vn 0.000000 0.000000 1.000000
vn 0.000000 0.000000 1.000000
vn 0.000000 0.000000 1.000000
vn 0.000000 0.000000 1.000000
vn 0.000000 0.000000 1.000000
vn 0.000000 0.000000 1.000000
vn 0.000000 0.000000 1.000000
vn 0.000000 0.000000 1.000000
vn 0.000000 0.000000 1.000000
vn 0.000000 0.000000 1.000000
vn 0.000000 0.000000 1.000000
vn 0.000000 0.000000 1.000000
vn 0.000000 0.000000 1.000000
vn 0.000000 0.000000 1.000000
vn 0.000000 0.000000 1.000000
vn 0.000000 0.000000 1.000000
vn 0.000000 0.000000 1.000000
vn 0.000000 0.000000 1.000000
vn 0.000000 0.000000 1.000000
vn 0.000000 0.000000 1.000000
vn 0.000000 0.000000 1.000000
vn 0.000000 0.000000 1.000000
vn 0.000000 0.000000 1.000000
vn 0.000000 0.000000 1.000000
vn 0.000000 0.000000 1.000000
vn 0.000000 0.000000 1.000000
vn 0.000000 0.000000 1.000000
vn 0.000000 0.000000 1.000000
vn 0.000000 0.000000 1.000000
vn 0.000000 0.000000 1.000000
vn 0.000000 0.000000 1.000000
vn 0.000000 0.000000 1.000000
vn 0.000000 0.000000 1.000000
vn 0.000000 0.000000 1.000000
vn 0.000000 0.000000 1.000000
vn 0.000000 0.000000 1.000000
f 1//1 2//1 3//1
f 3//2 2//2 4//2
f 4//3 5//3 6//3
f 2//4 5//4 4//4
f 6//5 7//5 8//5
f 5//6 7//6 6//6
f 8//7 9//7 10//7
f 7//8 9//8 8//8
f 9//9 11//9 10//9
f 10//10 11//10 12//10
f 12//11 13//11 14//11
f 11//12 13//12 12//12
f 14//13 15//13 16//13
f 13//14 15//14 14//14
f 16//15 17//15 18//15
f 15//16 17//16 16//16
f 17//17 19//17 18//17
f 18//18 19//18 20//18
f 20//19 21//19 22//19
f 19//20 21//20 20//20
f 22//21 23//21 24//21
f 24//22 23//22 25//22
f 21//23 23//23 22//23
f 23//24 26//24 25//24
f 25//25 27//25 28//25
f 26//26 27//26 25//26
f 28//27 29//27 30//27
f 27//28 29//28 28//28
f 30//29 31//29 32//29
f 29//30 31//30 30//30
f 32//31 33//31 34//31
f 31//32 33//32 32//32
f 34//33 35//33 36//33
f 33//34 35//34 34//34
f 36//35 37//35 38//35
f 35//36 37//36 36//36
f 38//37 39//37 40//37
f 37//38 39//38 38//38
f 40//39 41//39 42//39
f 39//40 41//40 40//40
f 42//41 43//41 44//41
f 44//42 43//42 45//42
f 41//43 43//43 42//43
f 45//44 46//44 47//44
f 43//45 46//45 45//45
f 47//46 48//46 49//46
f 46//47 48//47 47//47
f 48//48 50//48 49//48
f 49//49 51//49 52//49
f 50//50 51//50 49//50
f 52//51 53//51 54//51
f 51//52 53//52 52//52
f 54//53 55//53 56//53
f 53//54 55//54 54//54
f 56//55 57//55 58//55
f 55//56 57//56 56//56
f 58//57 59//57 60//57
f 57//58 59//58 58//58
f 60//59 61//59 62//59
f 59//60 61//60 60//60
f 61//61 63//61 62//61
f 62//62 63//62 64//62
f 63//63 65//63 64//63
f 64//64 65//64 66//64
f 65//65 67//65 66//65
f 66//66 67//66 68//66
f 67//67 69//67 68//67
f 68//68 69//68 70//68
f 69//69 71//69 70//69
f 70//70 71//70 72//70
f 71//71 73//71 72//71
f 72//72 73//72 74//72
f 73//73 75//73 74//73
f 74//74 75//74 76//74
f 76//75 75//75 3//75
f 75//76 1//76 3//76
f 46//77 43//77 48//77
f 48//78 43//78 50//78
f 50//79 43//79 51//79
f 41//80 39//80 43//80
f 43//81 37//81 51//81
f 39//82 37//82 43//82
f 53//83 61//83 55//83
f 55//84 61//84 57//84
f 57//85 61//85 59//85
f 35//86 33//86 37//86
f 51//87 67//87 53//87
f 61//88 67//88 63//88
f 63//89 67//89 65//89
f 37//90 67//90 51//90
f 53//91 67//91 61//91
f 29//92 27//92 31//92
f 31//93 26//93 33//93
f 27//94 26//94 31//94
f 67//95 23//95 69//95
f 69//96 23//96 71//96
f 33//97 23//97 37//97
f 37//98 23//98 67//98
f 26//99 23//99 33//99
f 19//100 17//100 21//100
f 1//101 5//101 2//101
f 73//102 5//102 75//102
f 75//103 5//103 1//103
f 73//104 13//104 5//104
f 15//105 13//105 17//105
f 21//106 13//106 23//106
f 71//107 13//107 73//107
f 17//108 13//108 21//108
f 23//109 13//109 71//109
f 5//110 9//110 7//110
f 13//111 9//111 5//111
f 13//112 11//112 9//112
f 44//113 45//113 47//113
f 44//114 47//114 49//114
f 44//115 49//115 52//115
f 40//116 42//116 44//116
f 38//117 44//117 52//117
f 38//118 40//118 44//118
f 62//119 54//119 56//119
f 62//120 56//120 58//120
f 62//121 58//121 60//121
f 34//122 36//122 38//122
f 68//123 52//123 54//123
f 68//124 62//124 64//124
f 68//125 64//125 66//125
f 68//126 38//126 52//126
f 68//127 54//127 62//127
f 28//128 30//128 32//128
f 25//129 32//129 34//129
f 25//130 28//130 32//130
f 24//131 68//131 70//131
f 24//132 70//132 72//132
f 24//133 34//133 38//133
f 24//134 38//134 68//134
f 24//135 25//135 34//135
f 18//136 20//136 22//136
f 6//137 3//137 4//137
f 6//138 74//138 76//138
f 6//139 76//139 3//139
f 14//140 74//140 6//140
f 14//141 16//141 18//141
f 14//142 22//142 24//142
f 14//143 72//143 74//143
f 14//144 18//144 22//144
f 14//145 24//145 72//145
f 10//146 6//146 8//146
f 10//147 14//147 6//147
f 12//148 14//148 10//148
