ISO-10303-21;
HEADER;

/* File generated by HOOPS Exchange Version 23.2.20 */

FILE_DESCRIPTION(('HOOPS Exchange Step'),'2;1');

FILE_NAME('C:\\Users\\nguye\\Projects\\3D-Model-Collection\\077-VA-phone-hanger\\dist\\left-nail-x3-v2.stp',
'2024-09-24T10:59:33+07:00',
('nguye'),
('Unknown organisation'),
'HOOPS Exchange 2023.2',
'HOOPS Exchange',
'Unknown authorisation');

FILE_SCHEMA( ('AP203_CONFIGURATION_CONTROLLED_3D_DESIGN_OF_MECHANICAL_PARTS_AND_ASSEMBLIES_MIM_LF') );

ENDSEC;

DATA;
#3=(NAMED_UNIT(*)PLANE_ANGLE_UNIT()SI_UNIT($,.RADIAN.));
#4=PLANE_ANGLE_MEASURE_WITH_UNIT(PLANE_ANGLE_MEASURE(0.0174532925),#3);
#5=(CONVERSION_BASED_UNIT('DEGREE',#4)NAMED_UNIT(#6)PLANE_ANGLE_UNIT());
#6=DIMENSIONAL_EXPONENTS(0.,0.,0.,0.,0.,0.,0.);
#7=(NAMED_UNIT(*)SI_UNIT($,.STERADIAN.)SOLID_ANGLE_UNIT());
#8=(LENGTH_UNIT()NAMED_UNIT(*)SI_UNIT(.MILLI.,.METRE.));
#9=UNCERTAINTY_MEASURE_WITH_UNIT(LENGTH_MEASURE(1.000000E-05),#8,'DISTANCE_ACCURACY_VALUE','Maximum Tolerance applied to model');
#10=(GEOMETRIC_REPRESENTATION_CONTEXT(3)GLOBAL_UNCERTAINTY_ASSIGNED_CONTEXT((#9))GLOBAL_UNIT_ASSIGNED_CONTEXT((#8,#5,#7))REPRESENTATION_CONTEXT('','Left-w-nail-x3'));
#12=CARTESIAN_POINT('',(0.,0.,0.));
#13=DIRECTION('',(0.,0.,1.));
#14=DIRECTION('',(1.,0.,0.));
#15=AXIS2_PLACEMENT_3D('',#12,#13,#14);
#27=CARTESIAN_POINT('',(649.105403586,345.734859999,587.));
#28=DIRECTION('',(1.,0.,0.));
#29=DIRECTION('',(0.,0.,1.));
#30=AXIS2_PLACEMENT_3D('',#27,#28,#29);
#31=PLANE('',#30);
#32=CARTESIAN_POINT('',(649.105403586,153.615671207,583.854017427));
#33=VERTEX_POINT('',#32);
#34=CARTESIAN_POINT('',(649.105403586,153.615671207,580.760017427));
#35=VERTEX_POINT('',#34);
#36=CARTESIAN_POINT('',(649.105403586,153.615671207,582.307017427));
#37=DIRECTION('',(1.,-0.,-0.));
#38=DIRECTION('',(0.,0.,1.));
#39=AXIS2_PLACEMENT_3D('',#36,#37,#38);
#40=CIRCLE('',#39,1.547);
#41=EDGE_CURVE('',#33,#35,#40,.T.);
#42=ORIENTED_EDGE('',*,*,#41,.T.);
#43=CARTESIAN_POINT('',(649.105403586,153.615671207,582.307017427));
#44=DIRECTION('',(1.,-0.,-0.));
#45=DIRECTION('',(0.,0.,1.));
#46=AXIS2_PLACEMENT_3D('',#43,#44,#45);
#47=CIRCLE('',#46,1.547);
#48=EDGE_CURVE('',#35,#33,#47,.T.);
#49=ORIENTED_EDGE('',*,*,#48,.T.);
#50=EDGE_LOOP('',(#42,#49));
#51=FACE_BOUND('',#50,.T.);
#52=ADVANCED_FACE('',(#51),#31,.T.);
#53=CARTESIAN_POINT('',(648.152403586,153.615671207,582.307017427));
#54=DIRECTION('',(-1.,0.,0.));
#55=DIRECTION('',(0.,0.,-1.));
#56=AXIS2_PLACEMENT_3D('',#53,#54,#55);
#57=CONICAL_SURFACE('',#56,2.5,45.);
#58=CARTESIAN_POINT('',(648.202403586,153.615671207,579.857017427));
#59=VERTEX_POINT('',#58);
#60=CARTESIAN_POINT('',(648.202403586,153.615671207,579.857017427));
#61=DIRECTION('',(0.707106781,-0.,0.707106781));
#62=VECTOR('',#61,1.277034847);
#63=LINE('',#60,#62);
#64=EDGE_CURVE('',#59,#35,#63,.T.);
#65=ORIENTED_EDGE('',*,*,#64,.T.);
#66=ORIENTED_EDGE('',*,*,#41,.F.);
#67=ORIENTED_EDGE('',*,*,#48,.F.);
#68=ORIENTED_EDGE('',*,*,#64,.F.);
#69=CARTESIAN_POINT('',(648.202403586,153.615671207,584.757017427));
#70=VERTEX_POINT('',#69);
#71=CARTESIAN_POINT('',(648.202403586,153.615671207,582.307017427));
#72=DIRECTION('',(1.,-0.,-0.));
#73=DIRECTION('',(0.,0.,1.));
#74=AXIS2_PLACEMENT_3D('',#71,#72,#73);
#75=CIRCLE('',#74,2.45);
#76=EDGE_CURVE('',#59,#70,#75,.T.);
#77=ORIENTED_EDGE('',*,*,#76,.T.);
#78=CARTESIAN_POINT('',(648.202403586,153.615671207,582.307017427));
#79=DIRECTION('',(1.,-0.,-0.));
#80=DIRECTION('',(0.,0.,1.));
#81=AXIS2_PLACEMENT_3D('',#78,#79,#80);
#82=CIRCLE('',#81,2.45);
#83=EDGE_CURVE('',#70,#59,#82,.T.);
#84=ORIENTED_EDGE('',*,*,#83,.T.);
#85=EDGE_LOOP('',(#65,#66,#67,#68,#77,#84));
#86=FACE_BOUND('',#85,.T.);
#87=ADVANCED_FACE('',(#86),#57,.T.);
#88=CARTESIAN_POINT('',(640.152403586,153.615671207,582.307017427));
#89=DIRECTION('',(1.,0.,-0.));
#90=DIRECTION('',(0.,0.,1.));
#91=AXIS2_PLACEMENT_3D('',#88,#89,#90);
#92=CYLINDRICAL_SURFACE('',#91,2.45);
#93=CARTESIAN_POINT('',(645.152403586,153.615671207,584.757017427));
#94=VERTEX_POINT('',#93);
#95=CARTESIAN_POINT('',(648.202403586,153.615671207,584.757017427));
#96=DIRECTION('',(-1.,-0.,-0.));
#97=VECTOR('',#96,3.05);
#98=LINE('',#95,#97);
#99=EDGE_CURVE('',#70,#94,#98,.T.);
#100=ORIENTED_EDGE('',*,*,#99,.T.);
#101=CARTESIAN_POINT('',(645.152403586,153.615671207,579.857017427));
#102=VERTEX_POINT('',#101);
#103=CARTESIAN_POINT('',(645.152403586,153.615671207,582.307017427));
#104=DIRECTION('',(-1.,-0.,-0.));
#105=DIRECTION('',(0.,0.,-1.));
#106=AXIS2_PLACEMENT_3D('',#103,#104,#105);
#107=CIRCLE('',#106,2.45);
#108=EDGE_CURVE('',#102,#94,#107,.T.);
#109=ORIENTED_EDGE('',*,*,#108,.F.);
#110=CARTESIAN_POINT('',(645.152403586,153.615671207,582.307017427));
#111=DIRECTION('',(-1.,-0.,-0.));
#112=DIRECTION('',(0.,0.,-1.));
#113=AXIS2_PLACEMENT_3D('',#110,#111,#112);
#114=CIRCLE('',#113,2.45);
#115=EDGE_CURVE('',#94,#102,#114,.T.);
#116=ORIENTED_EDGE('',*,*,#115,.F.);
#117=ORIENTED_EDGE('',*,*,#99,.F.);
#118=ORIENTED_EDGE('',*,*,#76,.F.);
#119=ORIENTED_EDGE('',*,*,#83,.F.);
#120=EDGE_LOOP('',(#100,#109,#116,#117,#118,#119));
#121=FACE_BOUND('',#120,.T.);
#122=ADVANCED_FACE('',(#121),#92,.T.);
#123=CARTESIAN_POINT('',(649.105403586,345.734859999,587.));
#124=DIRECTION('',(1.,0.,0.));
#125=DIRECTION('',(0.,0.,1.));
#126=AXIS2_PLACEMENT_3D('',#123,#124,#125);
#127=PLANE('',#126);
#128=CARTESIAN_POINT('',(649.105403586,131.739025991,545.962556414));
#129=VERTEX_POINT('',#128);
#130=CARTESIAN_POINT('',(649.105403586,131.739025991,542.868556414));
#131=VERTEX_POINT('',#130);
#132=CARTESIAN_POINT('',(649.105403586,131.739025991,544.415556414));
#133=DIRECTION('',(1.,-0.,-0.));
#134=DIRECTION('',(0.,0.,1.));
#135=AXIS2_PLACEMENT_3D('',#132,#133,#134);
#136=CIRCLE('',#135,1.547);
#137=EDGE_CURVE('',#129,#131,#136,.T.);
#138=ORIENTED_EDGE('',*,*,#137,.T.);
#139=CARTESIAN_POINT('',(649.105403586,131.739025991,544.415556414));
#140=DIRECTION('',(1.,-0.,-0.));
#141=DIRECTION('',(0.,0.,1.));
#142=AXIS2_PLACEMENT_3D('',#139,#140,#141);
#143=CIRCLE('',#142,1.547);
#144=EDGE_CURVE('',#131,#129,#143,.T.);
#145=ORIENTED_EDGE('',*,*,#144,.T.);
#146=EDGE_LOOP('',(#138,#145));
#147=FACE_BOUND('',#146,.T.);
#148=ADVANCED_FACE('',(#147),#127,.T.);
#149=CARTESIAN_POINT('',(648.152403586,131.739025991,544.415556414));
#150=DIRECTION('',(-1.,0.,0.));
#151=DIRECTION('',(0.,0.,-1.));
#152=AXIS2_PLACEMENT_3D('',#149,#150,#151);
#153=CONICAL_SURFACE('',#152,2.5,45.);
#154=CARTESIAN_POINT('',(648.202403586,131.739025991,541.965556414));
#155=VERTEX_POINT('',#154);
#156=CARTESIAN_POINT('',(648.202403586,131.739025991,541.965556414));
#157=DIRECTION('',(0.707106781,-0.,0.707106781));
#158=VECTOR('',#157,1.277034847);
#159=LINE('',#156,#158);
#160=EDGE_CURVE('',#155,#131,#159,.T.);
#161=ORIENTED_EDGE('',*,*,#160,.T.);
#162=ORIENTED_EDGE('',*,*,#137,.F.);
#163=ORIENTED_EDGE('',*,*,#144,.F.);
#164=ORIENTED_EDGE('',*,*,#160,.F.);
#165=CARTESIAN_POINT('',(648.202403586,131.739025991,546.865556414));
#166=VERTEX_POINT('',#165);
#167=CARTESIAN_POINT('',(648.202403586,131.739025991,544.415556414));
#168=DIRECTION('',(1.,-0.,-0.));
#169=DIRECTION('',(0.,0.,1.));
#170=AXIS2_PLACEMENT_3D('',#167,#168,#169);
#171=CIRCLE('',#170,2.45);
#172=EDGE_CURVE('',#155,#166,#171,.T.);
#173=ORIENTED_EDGE('',*,*,#172,.T.);
#174=CARTESIAN_POINT('',(648.202403586,131.739025991,544.415556414));
#175=DIRECTION('',(1.,-0.,-0.));
#176=DIRECTION('',(0.,0.,1.));
#177=AXIS2_PLACEMENT_3D('',#174,#175,#176);
#178=CIRCLE('',#177,2.45);
#179=EDGE_CURVE('',#166,#155,#178,.T.);
#180=ORIENTED_EDGE('',*,*,#179,.T.);
#181=EDGE_LOOP('',(#161,#162,#163,#164,#173,#180));
#182=FACE_BOUND('',#181,.T.);
#183=ADVANCED_FACE('',(#182),#153,.T.);
#184=CARTESIAN_POINT('',(640.152403586,131.739025991,544.415556414));
#185=DIRECTION('',(1.,0.,-0.));
#186=DIRECTION('',(0.,0.,1.));
#187=AXIS2_PLACEMENT_3D('',#184,#185,#186);
#188=CYLINDRICAL_SURFACE('',#187,2.45);
#189=CARTESIAN_POINT('',(645.152403586,131.739025991,546.865556414));
#190=VERTEX_POINT('',#189);
#191=CARTESIAN_POINT('',(648.202403586,131.739025991,546.865556414));
#192=DIRECTION('',(-1.,-0.,-0.));
#193=VECTOR('',#192,3.05);
#194=LINE('',#191,#193);
#195=EDGE_CURVE('',#166,#190,#194,.T.);
#196=ORIENTED_EDGE('',*,*,#195,.T.);
#197=CARTESIAN_POINT('',(645.152403586,131.739025991,541.965556414));
#198=VERTEX_POINT('',#197);
#199=CARTESIAN_POINT('',(645.152403586,131.739025991,544.415556414));
#200=DIRECTION('',(-1.,-0.,-0.));
#201=DIRECTION('',(0.,0.,-1.));
#202=AXIS2_PLACEMENT_3D('',#199,#200,#201);
#203=CIRCLE('',#202,2.45);
#204=EDGE_CURVE('',#198,#190,#203,.T.);
#205=ORIENTED_EDGE('',*,*,#204,.F.);
#206=CARTESIAN_POINT('',(645.152403586,131.739025991,544.415556414));
#207=DIRECTION('',(-1.,-0.,-0.));
#208=DIRECTION('',(0.,0.,-1.));
#209=AXIS2_PLACEMENT_3D('',#206,#207,#208);
#210=CIRCLE('',#209,2.45);
#211=EDGE_CURVE('',#190,#198,#210,.T.);
#212=ORIENTED_EDGE('',*,*,#211,.F.);
#213=ORIENTED_EDGE('',*,*,#195,.F.);
#214=ORIENTED_EDGE('',*,*,#172,.F.);
#215=ORIENTED_EDGE('',*,*,#179,.F.);
#216=EDGE_LOOP('',(#196,#205,#212,#213,#214,#215));
#217=FACE_BOUND('',#216,.T.);
#218=ADVANCED_FACE('',(#217),#188,.T.);
#219=CARTESIAN_POINT('',(649.105403586,345.734859999,587.));
#220=DIRECTION('',(1.,0.,0.));
#221=DIRECTION('',(0.,0.,1.));
#222=AXIS2_PLACEMENT_3D('',#219,#220,#221);
#223=PLANE('',#222);
#224=CARTESIAN_POINT('',(649.105403586,109.862380774,583.854017427));
#225=VERTEX_POINT('',#224);
#226=CARTESIAN_POINT('',(649.105403586,109.862380774,580.760017427));
#227=VERTEX_POINT('',#226);
#228=CARTESIAN_POINT('',(649.105403586,109.862380774,582.307017427));
#229=DIRECTION('',(1.,-0.,-0.));
#230=DIRECTION('',(0.,0.,1.));
#231=AXIS2_PLACEMENT_3D('',#228,#229,#230);
#232=CIRCLE('',#231,1.547);
#233=EDGE_CURVE('',#225,#227,#232,.T.);
#234=ORIENTED_EDGE('',*,*,#233,.T.);
#235=CARTESIAN_POINT('',(649.105403586,109.862380774,582.307017427));
#236=DIRECTION('',(1.,-0.,-0.));
#237=DIRECTION('',(0.,0.,1.));
#238=AXIS2_PLACEMENT_3D('',#235,#236,#237);
#239=CIRCLE('',#238,1.547);
#240=EDGE_CURVE('',#227,#225,#239,.T.);
#241=ORIENTED_EDGE('',*,*,#240,.T.);
#242=EDGE_LOOP('',(#234,#241));
#243=FACE_BOUND('',#242,.T.);
#244=ADVANCED_FACE('',(#243),#223,.T.);
#245=CARTESIAN_POINT('',(648.152403586,109.862380774,582.307017427));
#246=DIRECTION('',(-1.,0.,0.));
#247=DIRECTION('',(0.,0.,-1.));
#248=AXIS2_PLACEMENT_3D('',#245,#246,#247);
#249=CONICAL_SURFACE('',#248,2.5,45.);
#250=CARTESIAN_POINT('',(648.202403586,109.862380774,579.857017427));
#251=VERTEX_POINT('',#250);
#252=CARTESIAN_POINT('',(648.202403586,109.862380774,579.857017427));
#253=DIRECTION('',(0.707106781,-0.,0.707106781));
#254=VECTOR('',#253,1.277034847);
#255=LINE('',#252,#254);
#256=EDGE_CURVE('',#251,#227,#255,.T.);
#257=ORIENTED_EDGE('',*,*,#256,.T.);
#258=ORIENTED_EDGE('',*,*,#233,.F.);
#259=ORIENTED_EDGE('',*,*,#240,.F.);
#260=ORIENTED_EDGE('',*,*,#256,.F.);
#261=CARTESIAN_POINT('',(648.202403586,109.862380774,584.757017427));
#262=VERTEX_POINT('',#261);
#263=CARTESIAN_POINT('',(648.202403586,109.862380774,582.307017427));
#264=DIRECTION('',(1.,-0.,-0.));
#265=DIRECTION('',(0.,0.,1.));
#266=AXIS2_PLACEMENT_3D('',#263,#264,#265);
#267=CIRCLE('',#266,2.45);
#268=EDGE_CURVE('',#251,#262,#267,.T.);
#269=ORIENTED_EDGE('',*,*,#268,.T.);
#270=CARTESIAN_POINT('',(648.202403586,109.862380774,582.307017427));
#271=DIRECTION('',(1.,-0.,-0.));
#272=DIRECTION('',(0.,0.,1.));
#273=AXIS2_PLACEMENT_3D('',#270,#271,#272);
#274=CIRCLE('',#273,2.45);
#275=EDGE_CURVE('',#262,#251,#274,.T.);
#276=ORIENTED_EDGE('',*,*,#275,.T.);
#277=EDGE_LOOP('',(#257,#258,#259,#260,#269,#276));
#278=FACE_BOUND('',#277,.T.);
#279=ADVANCED_FACE('',(#278),#249,.T.);
#280=CARTESIAN_POINT('',(640.152403586,109.862380774,582.307017427));
#281=DIRECTION('',(1.,0.,-0.));
#282=DIRECTION('',(0.,0.,1.));
#283=AXIS2_PLACEMENT_3D('',#280,#281,#282);
#284=CYLINDRICAL_SURFACE('',#283,2.45);
#285=CARTESIAN_POINT('',(645.152403586,109.862380774,584.757017427));
#286=VERTEX_POINT('',#285);
#287=CARTESIAN_POINT('',(648.202403586,109.862380774,584.757017427));
#288=DIRECTION('',(-1.,-0.,-0.));
#289=VECTOR('',#288,3.05);
#290=LINE('',#287,#289);
#291=EDGE_CURVE('',#262,#286,#290,.T.);
#292=ORIENTED_EDGE('',*,*,#291,.T.);
#293=CARTESIAN_POINT('',(645.152403586,109.862380774,579.857017427));
#294=VERTEX_POINT('',#293);
#295=CARTESIAN_POINT('',(645.152403586,109.862380774,582.307017427));
#296=DIRECTION('',(-1.,-0.,-0.));
#297=DIRECTION('',(0.,0.,-1.));
#298=AXIS2_PLACEMENT_3D('',#295,#296,#297);
#299=CIRCLE('',#298,2.45);
#300=EDGE_CURVE('',#294,#286,#299,.T.);
#301=ORIENTED_EDGE('',*,*,#300,.F.);
#302=CARTESIAN_POINT('',(645.152403586,109.862380774,582.307017427));
#303=DIRECTION('',(-1.,-0.,-0.));
#304=DIRECTION('',(0.,0.,-1.));
#305=AXIS2_PLACEMENT_3D('',#302,#303,#304);
#306=CIRCLE('',#305,2.45);
#307=EDGE_CURVE('',#286,#294,#306,.T.);
#308=ORIENTED_EDGE('',*,*,#307,.F.);
#309=ORIENTED_EDGE('',*,*,#291,.F.);
#310=ORIENTED_EDGE('',*,*,#268,.F.);
#311=ORIENTED_EDGE('',*,*,#275,.F.);
#312=EDGE_LOOP('',(#292,#301,#308,#309,#310,#311));
#313=FACE_BOUND('',#312,.T.);
#314=ADVANCED_FACE('',(#313),#284,.T.);
#315=CARTESIAN_POINT('',(645.152403586,397.139666532,649.676530423));
#316=DIRECTION('',(1.,0.,0.));
#317=DIRECTION('',(0.,0.,1.));
#318=AXIS2_PLACEMENT_3D('',#315,#316,#317);
#319=PLANE('',#318);
#320=CARTESIAN_POINT('',(645.152403586,180.739025991,594.676530423));
#321=VERTEX_POINT('',#320);
#322=CARTESIAN_POINT('',(645.152403586,164.530587967,594.676530423));
#323=VERTEX_POINT('',#322);
#324=CARTESIAN_POINT('',(645.152403586,180.739025991,594.676530423));
#325=DIRECTION('',(-0.,-1.,-0.));
#326=VECTOR('',#325,16.208438024);
#327=LINE('',#324,#326);
#328=EDGE_CURVE('',#321,#323,#327,.T.);
#329=ORIENTED_EDGE('',*,*,#328,.F.);
#330=CARTESIAN_POINT('',(645.152403586,181.739025991,595.676530423));
#331=VERTEX_POINT('',#330);
#332=CARTESIAN_POINT('',(645.152403586,180.739025991,595.676530423));
#333=DIRECTION('',(-1.,0.,0.));
#334=DIRECTION('',(0.,0.,1.));
#335=AXIS2_PLACEMENT_3D('',#332,#333,#334);
#336=CIRCLE('',#335,1.);
#337=EDGE_CURVE('',#331,#321,#336,.T.);
#338=ORIENTED_EDGE('',*,*,#337,.F.);
#339=CARTESIAN_POINT('',(645.152403586,181.739025991,598.676530423));
#340=VERTEX_POINT('',#339);
#341=CARTESIAN_POINT('',(645.152403586,181.739025991,595.676530423));
#342=DIRECTION('',(0.,0.,1.));
#343=VECTOR('',#342,3.);
#344=LINE('',#341,#343);
#345=EDGE_CURVE('',#331,#340,#344,.T.);
#346=ORIENTED_EDGE('',*,*,#345,.T.);
#347=CARTESIAN_POINT('',(645.152403586,180.739025991,599.676530423));
#348=VERTEX_POINT('',#347);
#349=CARTESIAN_POINT('',(645.152403586,180.739025991,598.676530423));
#350=DIRECTION('',(-1.,0.,0.));
#351=DIRECTION('',(0.,0.,1.));
#352=AXIS2_PLACEMENT_3D('',#349,#350,#351);
#353=CIRCLE('',#352,1.);
#354=EDGE_CURVE('',#348,#340,#353,.T.);
#355=ORIENTED_EDGE('',*,*,#354,.F.);
#356=CARTESIAN_POINT('',(645.152403586,164.530587967,599.676530423));
#357=VERTEX_POINT('',#356);
#358=CARTESIAN_POINT('',(645.152403586,180.739025991,599.676530423));
#359=DIRECTION('',(0.,-1.,0.));
#360=VECTOR('',#359,16.208438024);
#361=LINE('',#358,#360);
#362=EDGE_CURVE('',#348,#357,#361,.T.);
#363=ORIENTED_EDGE('',*,*,#362,.T.);
#364=CARTESIAN_POINT('',(645.152403586,164.530587967,594.676530423));
#365=DIRECTION('',(0.,0.,1.));
#366=VECTOR('',#365,5.);
#367=LINE('',#364,#366);
#368=EDGE_CURVE('',#323,#357,#367,.T.);
#369=ORIENTED_EDGE('',*,*,#368,.F.);
#370=EDGE_LOOP('',(#329,#338,#346,#355,#363,#369));
#371=FACE_BOUND('',#370,.T.);
#372=ADVANCED_FACE('',(#371),#319,.T.);
#373=CARTESIAN_POINT('',(645.152403586,397.139666532,649.676530423));
#374=DIRECTION('',(1.,0.,0.));
#375=DIRECTION('',(0.,0.,1.));
#376=AXIS2_PLACEMENT_3D('',#373,#374,#375);
#377=PLANE('',#376);
#378=ORIENTED_EDGE('',*,*,#368,.T.);
#379=CARTESIAN_POINT('',(645.152403586,85.739025991,599.676530423));
#380=VERTEX_POINT('',#379);
#381=CARTESIAN_POINT('',(645.152403586,164.530587967,599.676530423));
#382=DIRECTION('',(0.,-1.,0.));
#383=VECTOR('',#382,78.791561976);
#384=LINE('',#381,#383);
#385=EDGE_CURVE('',#357,#380,#384,.T.);
#386=ORIENTED_EDGE('',*,*,#385,.T.);
#387=CARTESIAN_POINT('',(645.152403586,85.739025991,609.676530423));
#388=VERTEX_POINT('',#387);
#389=CARTESIAN_POINT('',(645.152403586,85.739025991,609.676530423));
#390=DIRECTION('',(0.,0.,-1.));
#391=VECTOR('',#390,10.);
#392=LINE('',#389,#391);
#393=EDGE_CURVE('',#388,#380,#392,.T.);
#394=ORIENTED_EDGE('',*,*,#393,.F.);
#395=CARTESIAN_POINT('',(645.152403586,89.739025991,609.676530423));
#396=VERTEX_POINT('',#395);
#397=CARTESIAN_POINT('',(645.152403586,89.739025991,609.676530423));
#398=DIRECTION('',(0.,-1.,0.));
#399=VECTOR('',#398,4.);
#400=LINE('',#397,#399);
#401=EDGE_CURVE('',#396,#388,#400,.T.);
#402=ORIENTED_EDGE('',*,*,#401,.F.);
#403=CARTESIAN_POINT('',(645.152403586,90.739025991,610.676530423));
#404=VERTEX_POINT('',#403);
#405=CARTESIAN_POINT('',(645.152403586,89.739025991,610.676530423));
#406=DIRECTION('',(-1.,0.,0.));
#407=DIRECTION('',(0.,0.,1.));
#408=AXIS2_PLACEMENT_3D('',#405,#406,#407);
#409=CIRCLE('',#408,1.);
#410=EDGE_CURVE('',#404,#396,#409,.T.);
#411=ORIENTED_EDGE('',*,*,#410,.F.);
#412=CARTESIAN_POINT('',(645.152403586,90.739025991,613.676530423));
#413=VERTEX_POINT('',#412);
#414=CARTESIAN_POINT('',(645.152403586,90.739025991,613.676530423));
#415=DIRECTION('',(0.,0.,-1.));
#416=VECTOR('',#415,3.);
#417=LINE('',#414,#416);
#418=EDGE_CURVE('',#413,#404,#417,.T.);
#419=ORIENTED_EDGE('',*,*,#418,.F.);
#420=CARTESIAN_POINT('',(645.152403586,89.739025991,614.676530423));
#421=VERTEX_POINT('',#420);
#422=CARTESIAN_POINT('',(645.152403586,89.739025991,613.676530423));
#423=DIRECTION('',(-1.,0.,0.));
#424=DIRECTION('',(0.,0.,1.));
#425=AXIS2_PLACEMENT_3D('',#422,#423,#424);
#426=CIRCLE('',#425,1.);
#427=EDGE_CURVE('',#421,#413,#426,.T.);
#428=ORIENTED_EDGE('',*,*,#427,.F.);
#429=CARTESIAN_POINT('',(645.152403586,82.739025991,614.676530423));
#430=VERTEX_POINT('',#429);
#431=CARTESIAN_POINT('',(645.152403586,89.739025991,614.676530423));
#432=DIRECTION('',(0.,-1.,0.));
#433=VECTOR('',#432,7.);
#434=LINE('',#431,#433);
#435=EDGE_CURVE('',#421,#430,#434,.T.);
#436=ORIENTED_EDGE('',*,*,#435,.T.);
#437=CARTESIAN_POINT('',(645.152403586,81.739025991,613.676530423));
#438=VERTEX_POINT('',#437);
#439=CARTESIAN_POINT('',(645.152403586,82.739025991,613.676530423));
#440=DIRECTION('',(-1.,0.,0.));
#441=DIRECTION('',(0.,0.,1.));
#442=AXIS2_PLACEMENT_3D('',#439,#440,#441);
#443=CIRCLE('',#442,1.);
#444=EDGE_CURVE('',#438,#430,#443,.T.);
#445=ORIENTED_EDGE('',*,*,#444,.F.);
#446=CARTESIAN_POINT('',(645.152403586,81.739025991,595.676530423));
#447=VERTEX_POINT('',#446);
#448=CARTESIAN_POINT('',(645.152403586,81.739025991,613.676530423));
#449=DIRECTION('',(0.,0.,-1.));
#450=VECTOR('',#449,18.);
#451=LINE('',#448,#450);
#452=EDGE_CURVE('',#438,#447,#451,.T.);
#453=ORIENTED_EDGE('',*,*,#452,.T.);
#454=CARTESIAN_POINT('',(645.152403586,82.739025991,594.676530423));
#455=VERTEX_POINT('',#454);
#456=CARTESIAN_POINT('',(645.152403586,82.739025991,595.676530423));
#457=DIRECTION('',(-1.,0.,0.));
#458=DIRECTION('',(0.,0.,1.));
#459=AXIS2_PLACEMENT_3D('',#456,#457,#458);
#460=CIRCLE('',#459,1.);
#461=EDGE_CURVE('',#455,#447,#460,.T.);
#462=ORIENTED_EDGE('',*,*,#461,.F.);
#463=CARTESIAN_POINT('',(645.152403586,115.155902039,594.676530423));
#464=VERTEX_POINT('',#463);
#465=CARTESIAN_POINT('',(645.152403586,115.155902039,594.676530423));
#466=DIRECTION('',(0.,-1.,0.));
#467=VECTOR('',#466,32.416876048);
#468=LINE('',#465,#467);
#469=EDGE_CURVE('',#464,#455,#468,.T.);
#470=ORIENTED_EDGE('',*,*,#469,.F.);
#471=CARTESIAN_POINT('',(645.152403586,148.322149942,594.676530423));
#472=VERTEX_POINT('',#471);
#473=CARTESIAN_POINT('',(645.152403586,131.739025991,569.676530423));
#474=DIRECTION('',(1.,-0.,-0.));
#475=DIRECTION('',(0.,0.,1.));
#476=AXIS2_PLACEMENT_3D('',#473,#474,#475);
#477=CIRCLE('',#476,30.);
#478=EDGE_CURVE('',#464,#472,#477,.T.);
#479=ORIENTED_EDGE('',*,*,#478,.T.);
#480=CARTESIAN_POINT('',(645.152403586,164.530587967,594.676530423));
#481=DIRECTION('',(-0.,-1.,-0.));
#482=VECTOR('',#481,16.208438024);
#483=LINE('',#480,#482);
#484=EDGE_CURVE('',#323,#472,#483,.T.);
#485=ORIENTED_EDGE('',*,*,#484,.F.);
#486=EDGE_LOOP('',(#378,#386,#394,#402,#411,#419,#428,#436,#445,#453,#462,#470,#479,#485));
#487=FACE_BOUND('',#486,.T.);
#488=ORIENTED_EDGE('',*,*,#108,.T.);
#489=ORIENTED_EDGE('',*,*,#115,.T.);
#490=EDGE_LOOP('',(#488,#489));
#491=FACE_BOUND('',#490,.T.);
#492=ORIENTED_EDGE('',*,*,#300,.T.);
#493=ORIENTED_EDGE('',*,*,#307,.T.);
#494=EDGE_LOOP('',(#492,#493));
#495=FACE_BOUND('',#494,.T.);
#496=ORIENTED_EDGE('',*,*,#204,.T.);
#497=ORIENTED_EDGE('',*,*,#211,.T.);
#498=EDGE_LOOP('',(#496,#497));
#499=FACE_BOUND('',#498,.T.);
#500=CARTESIAN_POINT('',(645.152403586,131.739025991,589.676530423));
#501=VERTEX_POINT('',#500);
#502=CARTESIAN_POINT('',(645.152403586,131.739025991,569.676530423));
#503=DIRECTION('',(-1.,0.,0.));
#504=DIRECTION('',(0.,0.,1.));
#505=AXIS2_PLACEMENT_3D('',#502,#503,#504);
#506=CIRCLE('',#505,20.);
#507=EDGE_CURVE('',#501,#501,#506,.T.);
#508=ORIENTED_EDGE('',*,*,#507,.T.);
#509=EDGE_LOOP('',(#508));
#510=FACE_BOUND('',#509,.T.);
#511=ADVANCED_FACE('',(#487,#491,#495,#499,#510),#377,.T.);
#512=CARTESIAN_POINT('',(625.152403586,131.739025991,569.676530423));
#513=DIRECTION('',(1.,0.,-0.));
#514=DIRECTION('',(0.,0.,1.));
#515=AXIS2_PLACEMENT_3D('',#512,#513,#514);
#516=CYLINDRICAL_SURFACE('',#515,30.);
#517=ORIENTED_EDGE('',*,*,#478,.F.);
#518=CARTESIAN_POINT('',(626.152403586,115.155902039,594.676530423));
#519=VERTEX_POINT('',#518);
#520=CARTESIAN_POINT('',(626.152403586,115.155902039,594.676530423));
#521=DIRECTION('',(1.,0.,-0.));
#522=VECTOR('',#521,19.);
#523=LINE('',#520,#522);
#524=EDGE_CURVE('',#519,#464,#523,.T.);
#525=ORIENTED_EDGE('',*,*,#524,.F.);
#526=CARTESIAN_POINT('',(625.152403586,116.772396444,595.676530423));
#527=VERTEX_POINT('',#526);
#528=CARTESIAN_POINT('',(625.152403586,116.772396444,595.676530423));
#529=CARTESIAN_POINT('',(625.152403586,116.603061576,595.579054568));
#530=CARTESIAN_POINT('',(625.166322501,116.436418173,595.480923503));
#531=CARTESIAN_POINT('',(625.1966314,116.272703944,595.3824224));
#532=CARTESIAN_POINT('',(625.211785849,116.19084683,595.333171849));
#533=CARTESIAN_POINT('',(625.231092381,116.109728539,595.283832949));
#534=CARTESIAN_POINT('',(625.255411036,116.029443882,595.234484761));
#535=CARTESIAN_POINT('',(625.279729692,115.949159225,595.185136574));
#536=CARTESIAN_POINT('',(625.309212262,115.869407589,595.135586005));
#537=CARTESIAN_POINT('',(625.344539083,115.792245922,595.087162163));
#538=CARTESIAN_POINT('',(625.379865904,115.715084255,595.038738321));
#539=CARTESIAN_POINT('',(625.421302222,115.639793473,594.990990332));
#540=CARTESIAN_POINT('',(625.47021287,115.568483429,594.945356143));
#541=CARTESIAN_POINT('',(625.519123518,115.497173386,594.899721954));
#542=CARTESIAN_POINT('',(625.574959731,115.430264255,594.856472885));
#543=CARTESIAN_POINT('',(625.641178044,115.369769002,594.81708383));
#544=CARTESIAN_POINT('',(625.707396356,115.309273749,594.777694775));
#545=CARTESIAN_POINT('',(625.783185195,115.256134815,594.74277184));
#546=CARTESIAN_POINT('',(625.870203088,115.217339621,594.717174973));
#547=CARTESIAN_POINT('',(625.913712035,115.197942023,594.704376539));
#548=CARTESIAN_POINT('',(625.958954755,115.182653629,594.694258021));
#549=CARTESIAN_POINT('',(626.006207708,115.17211114,594.68727476));
#550=CARTESIAN_POINT('',(626.053460661,115.161568651,594.6802915));
#551=CARTESIAN_POINT('',(626.102904523,115.155902039,594.676530423));
#552=CARTESIAN_POINT('',(626.152403586,115.155902039,594.676530423));
#553=B_SPLINE_CURVE_WITH_KNOTS('',3,(#528,#529,#530,#531,#532,#533,#534,#535,#536,#537,#538,#539,#540,#541,#542,#543,#544,#545,#546,#547,#548,#549,#550,#551,#552),.UNSPECIFIED.,.F.,.F.,(4,3,3,3,3,3,3,3,4),(0.,0.000580274,0.00087041,0.001160547,0.001450684,0.001740821,0.002030957,0.002176026,0.002321094),.UNSPECIFIED.);
#554=EDGE_CURVE('',#527,#519,#553,.T.);
#555=ORIENTED_EDGE('',*,*,#554,.F.);
#556=CARTESIAN_POINT('',(625.152403586,148.322149942,594.676530423));
#557=VERTEX_POINT('',#556);
#558=CARTESIAN_POINT('',(625.152403586,131.739025991,569.676530423));
#559=DIRECTION('',(1.,-0.,-0.));
#560=DIRECTION('',(0.,0.,1.));
#561=AXIS2_PLACEMENT_3D('',#558,#559,#560);
#562=CIRCLE('',#561,30.);
#563=EDGE_CURVE('',#527,#557,#562,.T.);
#564=ORIENTED_EDGE('',*,*,#563,.T.);
#565=CARTESIAN_POINT('',(625.152403586,148.322149942,594.676530423));
#566=DIRECTION('',(1.,0.,-0.));
#567=VECTOR('',#566,20.);
#568=LINE('',#565,#567);
#569=EDGE_CURVE('',#557,#472,#568,.T.);
#570=ORIENTED_EDGE('',*,*,#569,.T.);
#571=EDGE_LOOP('',(#517,#525,#555,#564,#570));
#572=FACE_BOUND('',#571,.T.);
#573=ADVANCED_FACE('',(#572),#516,.T.);
#574=CARTESIAN_POINT('',(625.152403586,397.139666532,594.676530423));
#575=DIRECTION('',(0.,0.,-1.));
#576=DIRECTION('',(1.,0.,0.));
#577=AXIS2_PLACEMENT_3D('',#574,#575,#576);
#578=PLANE('',#577);
#579=CARTESIAN_POINT('',(626.152403586,82.739025991,594.676530423));
#580=VERTEX_POINT('',#579);
#581=CARTESIAN_POINT('',(626.152403586,115.155902039,594.676530423));
#582=DIRECTION('',(0.,-1.,0.));
#583=VECTOR('',#582,32.416876048);
#584=LINE('',#581,#583);
#585=EDGE_CURVE('',#519,#580,#584,.T.);
#586=ORIENTED_EDGE('',*,*,#585,.F.);
#587=ORIENTED_EDGE('',*,*,#524,.T.);
#588=ORIENTED_EDGE('',*,*,#469,.T.);
#589=CARTESIAN_POINT('',(626.152403586,82.739025991,594.676530423));
#590=DIRECTION('',(1.,0.,-0.));
#591=VECTOR('',#590,19.);
#592=LINE('',#589,#591);
#593=EDGE_CURVE('',#580,#455,#592,.T.);
#594=ORIENTED_EDGE('',*,*,#593,.F.);
#595=EDGE_LOOP('',(#586,#587,#588,#594));
#596=FACE_BOUND('',#595,.T.);
#597=ADVANCED_FACE('',(#596),#578,.T.);
#598=CARTESIAN_POINT('',(625.152403586,81.739025991,649.676530423));
#599=DIRECTION('',(0.,-1.,0.));
#600=DIRECTION('',(0.,0.,-1.));
#601=AXIS2_PLACEMENT_3D('',#598,#599,#600);
#602=PLANE('',#601);
#603=CARTESIAN_POINT('',(626.152403586,81.739025991,595.676530423));
#604=VERTEX_POINT('',#603);
#605=CARTESIAN_POINT('',(626.152403586,81.739025991,613.676530423));
#606=VERTEX_POINT('',#605);
#607=CARTESIAN_POINT('',(626.152403586,81.739025991,595.676530423));
#608=DIRECTION('',(-0.,-0.,1.));
#609=VECTOR('',#608,18.);
#610=LINE('',#607,#609);
#611=EDGE_CURVE('',#604,#606,#610,.T.);
#612=ORIENTED_EDGE('',*,*,#611,.F.);
#613=CARTESIAN_POINT('',(645.152403586,81.739025991,595.676530423));
#614=DIRECTION('',(-1.,-0.,0.));
#615=VECTOR('',#614,19.);
#616=LINE('',#613,#615);
#617=EDGE_CURVE('',#447,#604,#616,.T.);
#618=ORIENTED_EDGE('',*,*,#617,.F.);
#619=ORIENTED_EDGE('',*,*,#452,.F.);
#620=CARTESIAN_POINT('',(626.152403586,81.739025991,613.676530423));
#621=DIRECTION('',(1.,0.,-0.));
#622=VECTOR('',#621,19.);
#623=LINE('',#620,#622);
#624=EDGE_CURVE('',#606,#438,#623,.T.);
#625=ORIENTED_EDGE('',*,*,#624,.F.);
#626=EDGE_LOOP('',(#612,#618,#619,#625));
#627=FACE_BOUND('',#626,.T.);
#628=ADVANCED_FACE('',(#627),#602,.T.);
#629=CARTESIAN_POINT('',(625.152403586,397.139666532,614.676530423));
#630=DIRECTION('',(0.,0.,1.));
#631=DIRECTION('',(-1.,0.,0.));
#632=AXIS2_PLACEMENT_3D('',#629,#630,#631);
#633=PLANE('',#632);
#634=ORIENTED_EDGE('',*,*,#435,.F.);
#635=CARTESIAN_POINT('',(626.152403586,89.739025991,614.676530423));
#636=VERTEX_POINT('',#635);
#637=CARTESIAN_POINT('',(626.152403586,89.739025991,614.676530423));
#638=DIRECTION('',(1.,0.,-0.));
#639=VECTOR('',#638,19.);
#640=LINE('',#637,#639);
#641=EDGE_CURVE('',#636,#421,#640,.T.);
#642=ORIENTED_EDGE('',*,*,#641,.F.);
#643=CARTESIAN_POINT('',(626.152403586,82.739025991,614.676530423));
#644=VERTEX_POINT('',#643);
#645=CARTESIAN_POINT('',(626.152403586,82.739025991,614.676530423));
#646=DIRECTION('',(-0.,1.,-0.));
#647=VECTOR('',#646,7.);
#648=LINE('',#645,#647);
#649=EDGE_CURVE('',#644,#636,#648,.T.);
#650=ORIENTED_EDGE('',*,*,#649,.F.);
#651=CARTESIAN_POINT('',(645.152403586,82.739025991,614.676530423));
#652=DIRECTION('',(-1.,-0.,0.));
#653=VECTOR('',#652,19.);
#654=LINE('',#651,#653);
#655=EDGE_CURVE('',#430,#644,#654,.T.);
#656=ORIENTED_EDGE('',*,*,#655,.F.);
#657=EDGE_LOOP('',(#634,#642,#650,#656));
#658=FACE_BOUND('',#657,.T.);
#659=ADVANCED_FACE('',(#658),#633,.T.);
#660=CARTESIAN_POINT('',(625.152403586,90.739025991,649.676530423));
#661=DIRECTION('',(0.,1.,0.));
#662=DIRECTION('',(0.,0.,1.));
#663=AXIS2_PLACEMENT_3D('',#660,#661,#662);
#664=PLANE('',#663);
#665=CARTESIAN_POINT('',(626.152403586,90.739025991,613.676530423));
#666=VERTEX_POINT('',#665);
#667=CARTESIAN_POINT('',(626.152403586,90.739025991,610.676530423));
#668=VERTEX_POINT('',#667);
#669=CARTESIAN_POINT('',(626.152403586,90.739025991,613.676530423));
#670=DIRECTION('',(0.,0.,-1.));
#671=VECTOR('',#670,3.);
#672=LINE('',#669,#671);
#673=EDGE_CURVE('',#666,#668,#672,.T.);
#674=ORIENTED_EDGE('',*,*,#673,.F.);
#675=CARTESIAN_POINT('',(645.152403586,90.739025991,613.676530423));
#676=DIRECTION('',(-1.,-0.,0.));
#677=VECTOR('',#676,19.);
#678=LINE('',#675,#677);
#679=EDGE_CURVE('',#413,#666,#678,.T.);
#680=ORIENTED_EDGE('',*,*,#679,.F.);
#681=ORIENTED_EDGE('',*,*,#418,.T.);
#682=CARTESIAN_POINT('',(626.152403586,90.739025991,610.676530423));
#683=DIRECTION('',(1.,0.,-0.));
#684=VECTOR('',#683,19.);
#685=LINE('',#682,#684);
#686=EDGE_CURVE('',#668,#404,#685,.T.);
#687=ORIENTED_EDGE('',*,*,#686,.F.);
#688=EDGE_LOOP('',(#674,#680,#681,#687));
#689=FACE_BOUND('',#688,.T.);
#690=ADVANCED_FACE('',(#689),#664,.T.);
#691=CARTESIAN_POINT('',(625.152403586,397.139666532,609.676530423));
#692=DIRECTION('',(0.,0.,-1.));
#693=DIRECTION('',(1.,0.,0.));
#694=AXIS2_PLACEMENT_3D('',#691,#692,#693);
#695=PLANE('',#694);
#696=CARTESIAN_POINT('',(626.152403586,89.739025991,609.676530423));
#697=VERTEX_POINT('',#696);
#698=CARTESIAN_POINT('',(645.152403586,89.739025991,609.676530423));
#699=DIRECTION('',(-1.,-0.,0.));
#700=VECTOR('',#699,19.);
#701=LINE('',#698,#700);
#702=EDGE_CURVE('',#396,#697,#701,.T.);
#703=ORIENTED_EDGE('',*,*,#702,.F.);
#704=ORIENTED_EDGE('',*,*,#401,.T.);
#705=CARTESIAN_POINT('',(644.152403586,86.739025991,609.676530423));
#706=VERTEX_POINT('',#705);
#707=CARTESIAN_POINT('',(644.152403586,85.739025991,609.676530423));
#708=DIRECTION('',(-0.,-0.,-1.));
#709=DIRECTION('',(1.,0.,-0.));
#710=AXIS2_PLACEMENT_3D('',#707,#708,#709);
#711=CIRCLE('',#710,1.);
#712=EDGE_CURVE('',#706,#388,#711,.T.);
#713=ORIENTED_EDGE('',*,*,#712,.F.);
#714=CARTESIAN_POINT('',(626.152403586,86.739025991,609.676530423));
#715=VERTEX_POINT('',#714);
#716=CARTESIAN_POINT('',(626.152403586,86.739025991,609.676530423));
#717=DIRECTION('',(1.,0.,-0.));
#718=VECTOR('',#717,18.);
#719=LINE('',#716,#718);
#720=EDGE_CURVE('',#715,#706,#719,.T.);
#721=ORIENTED_EDGE('',*,*,#720,.F.);
#722=CARTESIAN_POINT('',(626.152403586,89.739025991,609.676530423));
#723=DIRECTION('',(-0.,-1.,-0.));
#724=VECTOR('',#723,3.);
#725=LINE('',#722,#724);
#726=EDGE_CURVE('',#697,#715,#725,.T.);
#727=ORIENTED_EDGE('',*,*,#726,.F.);
#728=EDGE_LOOP('',(#703,#704,#713,#721,#727));
#729=FACE_BOUND('',#728,.T.);
#730=ADVANCED_FACE('',(#729),#695,.T.);
#731=CARTESIAN_POINT('',(625.152403586,86.739025991,649.676530423));
#732=DIRECTION('',(0.,1.,0.));
#733=DIRECTION('',(0.,0.,1.));
#734=AXIS2_PLACEMENT_3D('',#731,#732,#733);
#735=PLANE('',#734);
#736=CARTESIAN_POINT('',(626.152403586,86.739025991,599.676530423));
#737=VERTEX_POINT('',#736);
#738=CARTESIAN_POINT('',(644.152403586,86.739025991,599.676530423));
#739=VERTEX_POINT('',#738);
#740=CARTESIAN_POINT('',(626.152403586,86.739025991,599.676530423));
#741=DIRECTION('',(1.,0.,-0.));
#742=VECTOR('',#741,18.);
#743=LINE('',#740,#742);
#744=EDGE_CURVE('',#737,#739,#743,.T.);
#745=ORIENTED_EDGE('',*,*,#744,.F.);
#746=CARTESIAN_POINT('',(626.152403586,86.739025991,609.676530423));
#747=DIRECTION('',(-0.,-0.,-1.));
#748=VECTOR('',#747,10.);
#749=LINE('',#746,#748);
#750=EDGE_CURVE('',#715,#737,#749,.T.);
#751=ORIENTED_EDGE('',*,*,#750,.F.);
#752=ORIENTED_EDGE('',*,*,#720,.T.);
#753=CARTESIAN_POINT('',(644.152403586,86.739025991,599.676530423));
#754=DIRECTION('',(-0.,-0.,1.));
#755=VECTOR('',#754,10.);
#756=LINE('',#753,#755);
#757=EDGE_CURVE('',#739,#706,#756,.T.);
#758=ORIENTED_EDGE('',*,*,#757,.F.);
#759=EDGE_LOOP('',(#745,#751,#752,#758));
#760=FACE_BOUND('',#759,.T.);
#761=ADVANCED_FACE('',(#760),#735,.T.);
#762=CARTESIAN_POINT('',(625.152403586,397.139666532,599.676530423));
#763=DIRECTION('',(0.,0.,1.));
#764=DIRECTION('',(-1.,0.,0.));
#765=AXIS2_PLACEMENT_3D('',#762,#763,#764);
#766=PLANE('',#765);
#767=ORIENTED_EDGE('',*,*,#744,.T.);
#768=CARTESIAN_POINT('',(644.152403586,85.739025991,599.676530423));
#769=DIRECTION('',(-0.,-0.,1.));
#770=DIRECTION('',(-1.,0.,0.));
#771=AXIS2_PLACEMENT_3D('',#768,#769,#770);
#772=CIRCLE('',#771,1.);
#773=EDGE_CURVE('',#380,#739,#772,.T.);
#774=ORIENTED_EDGE('',*,*,#773,.F.);
#775=ORIENTED_EDGE('',*,*,#385,.F.);
#776=ORIENTED_EDGE('',*,*,#362,.F.);
#777=CARTESIAN_POINT('',(626.152403586,180.739025991,599.676530423));
#778=VERTEX_POINT('',#777);
#779=CARTESIAN_POINT('',(626.152403586,180.739025991,599.676530423));
#780=DIRECTION('',(1.,0.,-0.));
#781=VECTOR('',#780,19.);
#782=LINE('',#779,#781);
#783=EDGE_CURVE('',#778,#348,#782,.T.);
#784=ORIENTED_EDGE('',*,*,#783,.F.);
#785=CARTESIAN_POINT('',(626.152403586,86.739025991,599.676530423));
#786=DIRECTION('',(-0.,1.,-0.));
#787=VECTOR('',#786,94.);
#788=LINE('',#785,#787);
#789=EDGE_CURVE('',#737,#778,#788,.T.);
#790=ORIENTED_EDGE('',*,*,#789,.F.);
#791=EDGE_LOOP('',(#767,#774,#775,#776,#784,#790));
#792=FACE_BOUND('',#791,.T.);
#793=ADVANCED_FACE('',(#792),#766,.T.);
#794=CARTESIAN_POINT('',(625.152403586,181.739025991,649.676530423));
#795=DIRECTION('',(0.,1.,0.));
#796=DIRECTION('',(0.,0.,1.));
#797=AXIS2_PLACEMENT_3D('',#794,#795,#796);
#798=PLANE('',#797);
#799=CARTESIAN_POINT('',(626.152403586,181.739025991,598.676530423));
#800=VERTEX_POINT('',#799);
#801=CARTESIAN_POINT('',(626.152403586,181.739025991,595.676530423));
#802=VERTEX_POINT('',#801);
#803=CARTESIAN_POINT('',(626.152403586,181.739025991,598.676530423));
#804=DIRECTION('',(-0.,-0.,-1.));
#805=VECTOR('',#804,3.);
#806=LINE('',#803,#805);
#807=EDGE_CURVE('',#800,#802,#806,.T.);
#808=ORIENTED_EDGE('',*,*,#807,.F.);
#809=CARTESIAN_POINT('',(645.152403586,181.739025991,598.676530423));
#810=DIRECTION('',(-1.,-0.,0.));
#811=VECTOR('',#810,19.);
#812=LINE('',#809,#811);
#813=EDGE_CURVE('',#340,#800,#812,.T.);
#814=ORIENTED_EDGE('',*,*,#813,.F.);
#815=ORIENTED_EDGE('',*,*,#345,.F.);
#816=CARTESIAN_POINT('',(626.152403586,181.739025991,595.676530423));
#817=DIRECTION('',(1.,0.,-0.));
#818=VECTOR('',#817,19.);
#819=LINE('',#816,#818);
#820=EDGE_CURVE('',#802,#331,#819,.T.);
#821=ORIENTED_EDGE('',*,*,#820,.F.);
#822=EDGE_LOOP('',(#808,#814,#815,#821));
#823=FACE_BOUND('',#822,.T.);
#824=ADVANCED_FACE('',(#823),#798,.T.);
#825=CARTESIAN_POINT('',(625.152403586,397.139666532,594.676530423));
#826=DIRECTION('',(0.,0.,-1.));
#827=DIRECTION('',(1.,0.,0.));
#828=AXIS2_PLACEMENT_3D('',#825,#826,#827);
#829=PLANE('',#828);
#830=ORIENTED_EDGE('',*,*,#328,.T.);
#831=ORIENTED_EDGE('',*,*,#484,.T.);
#832=ORIENTED_EDGE('',*,*,#569,.F.);
#833=CARTESIAN_POINT('',(625.152403586,180.739025991,594.676530423));
#834=VERTEX_POINT('',#833);
#835=CARTESIAN_POINT('',(625.152403586,180.739025991,594.676530423));
#836=DIRECTION('',(-0.,-1.,-0.));
#837=VECTOR('',#836,32.416876048);
#838=LINE('',#835,#837);
#839=EDGE_CURVE('',#834,#557,#838,.T.);
#840=ORIENTED_EDGE('',*,*,#839,.F.);
#841=CARTESIAN_POINT('',(645.152403586,180.739025991,594.676530423));
#842=DIRECTION('',(-1.,-0.,0.));
#843=VECTOR('',#842,20.);
#844=LINE('',#841,#843);
#845=EDGE_CURVE('',#321,#834,#844,.T.);
#846=ORIENTED_EDGE('',*,*,#845,.F.);
#847=EDGE_LOOP('',(#830,#831,#832,#840,#846));
#848=FACE_BOUND('',#847,.T.);
#849=ADVANCED_FACE('',(#848),#829,.T.);
#850=CARTESIAN_POINT('',(625.152403586,131.739025991,569.676530423));
#851=DIRECTION('',(1.,0.,-0.));
#852=DIRECTION('',(0.,0.,1.));
#853=AXIS2_PLACEMENT_3D('',#850,#851,#852);
#854=CYLINDRICAL_SURFACE('',#853,20.);
#855=CARTESIAN_POINT('',(625.152403586,131.739025991,589.676530423));
#856=VERTEX_POINT('',#855);
#857=CARTESIAN_POINT('',(645.152403586,131.739025991,589.676530423));
#858=DIRECTION('',(-1.,-0.,-0.));
#859=VECTOR('',#858,20.);
#860=LINE('',#857,#859);
#861=EDGE_CURVE('',#501,#856,#860,.T.);
#862=ORIENTED_EDGE('',*,*,#861,.F.);
#863=ORIENTED_EDGE('',*,*,#507,.F.);
#864=ORIENTED_EDGE('',*,*,#861,.T.);
#865=CARTESIAN_POINT('',(625.152403586,131.739025991,569.676530423));
#866=DIRECTION('',(-1.,0.,0.));
#867=DIRECTION('',(0.,0.,1.));
#868=AXIS2_PLACEMENT_3D('',#865,#866,#867);
#869=CIRCLE('',#868,20.);
#870=EDGE_CURVE('',#856,#856,#869,.T.);
#871=ORIENTED_EDGE('',*,*,#870,.T.);
#872=EDGE_LOOP('',(#862,#863,#864,#871));
#873=FACE_BOUND('',#872,.T.);
#874=ADVANCED_FACE('',(#873),#854,.F.);
#875=CARTESIAN_POINT('',(625.152403586,397.139666532,649.676530423));
#876=DIRECTION('',(1.,0.,0.));
#877=DIRECTION('',(0.,0.,1.));
#878=AXIS2_PLACEMENT_3D('',#875,#876,#877);
#879=PLANE('',#878);
#880=CARTESIAN_POINT('',(625.152403586,85.739025991,598.676530423));
#881=VERTEX_POINT('',#880);
#882=CARTESIAN_POINT('',(625.152403586,85.739025991,610.676530423));
#883=VERTEX_POINT('',#882);
#884=CARTESIAN_POINT('',(625.152403586,85.739025991,598.676530423));
#885=DIRECTION('',(0.,0.,1.));
#886=VECTOR('',#885,12.);
#887=LINE('',#884,#886);
#888=EDGE_CURVE('',#881,#883,#887,.T.);
#889=ORIENTED_EDGE('',*,*,#888,.F.);
#890=CARTESIAN_POINT('',(625.152403586,180.739025991,598.676530423));
#891=VERTEX_POINT('',#890);
#892=CARTESIAN_POINT('',(625.152403586,180.739025991,598.676530423));
#893=DIRECTION('',(0.,-1.,0.));
#894=VECTOR('',#893,95.);
#895=LINE('',#892,#894);
#896=EDGE_CURVE('',#891,#881,#895,.T.);
#897=ORIENTED_EDGE('',*,*,#896,.F.);
#898=CARTESIAN_POINT('',(625.152403586,180.739025991,594.676530423));
#899=DIRECTION('',(0.,0.,1.));
#900=VECTOR('',#899,4.);
#901=LINE('',#898,#900);
#902=EDGE_CURVE('',#834,#891,#901,.T.);
#903=ORIENTED_EDGE('',*,*,#902,.F.);
#904=ORIENTED_EDGE('',*,*,#839,.T.);
#905=ORIENTED_EDGE('',*,*,#563,.F.);
#906=CARTESIAN_POINT('',(625.152403586,82.739025991,595.676530423));
#907=VERTEX_POINT('',#906);
#908=CARTESIAN_POINT('',(625.152403586,82.739025991,595.676530423));
#909=DIRECTION('',(-0.,1.,-0.));
#910=VECTOR('',#909,34.033370453);
#911=LINE('',#908,#910);
#912=EDGE_CURVE('',#907,#527,#911,.T.);
#913=ORIENTED_EDGE('',*,*,#912,.F.);
#914=CARTESIAN_POINT('',(625.152403586,82.739025991,613.676530423));
#915=VERTEX_POINT('',#914);
#916=CARTESIAN_POINT('',(625.152403586,82.739025991,613.676530423));
#917=DIRECTION('',(0.,0.,-1.));
#918=VECTOR('',#917,18.);
#919=LINE('',#916,#918);
#920=EDGE_CURVE('',#915,#907,#919,.T.);
#921=ORIENTED_EDGE('',*,*,#920,.F.);
#922=CARTESIAN_POINT('',(625.152403586,89.739025991,613.676530423));
#923=VERTEX_POINT('',#922);
#924=CARTESIAN_POINT('',(625.152403586,89.739025991,613.676530423));
#925=DIRECTION('',(0.,-1.,0.));
#926=VECTOR('',#925,7.);
#927=LINE('',#924,#926);
#928=EDGE_CURVE('',#923,#915,#927,.T.);
#929=ORIENTED_EDGE('',*,*,#928,.F.);
#930=CARTESIAN_POINT('',(625.152403586,89.739025991,610.676530423));
#931=VERTEX_POINT('',#930);
#932=CARTESIAN_POINT('',(625.152403586,89.739025991,610.676530423));
#933=DIRECTION('',(-0.,-0.,1.));
#934=VECTOR('',#933,3.);
#935=LINE('',#932,#934);
#936=EDGE_CURVE('',#931,#923,#935,.T.);
#937=ORIENTED_EDGE('',*,*,#936,.F.);
#938=CARTESIAN_POINT('',(625.152403586,85.739025991,610.676530423));
#939=DIRECTION('',(0.,1.,0.));
#940=VECTOR('',#939,4.);
#941=LINE('',#938,#940);
#942=EDGE_CURVE('',#883,#931,#941,.T.);
#943=ORIENTED_EDGE('',*,*,#942,.F.);
#944=EDGE_LOOP('',(#889,#897,#903,#904,#905,#913,#921,#929,#937,#943));
#945=FACE_BOUND('',#944,.T.);
#946=ORIENTED_EDGE('',*,*,#870,.F.);
#947=EDGE_LOOP('',(#946));
#948=FACE_BOUND('',#947,.T.);
#949=ADVANCED_FACE('',(#945,#948),#879,.F.);
#950=CARTESIAN_POINT('',(625.152403586,180.739025991,595.676530423));
#951=DIRECTION('',(1.,0.,-0.));
#952=DIRECTION('',(0.,0.,1.));
#953=AXIS2_PLACEMENT_3D('',#950,#951,#952);
#954=CYLINDRICAL_SURFACE('',#953,1.);
#955=ORIENTED_EDGE('',*,*,#337,.T.);
#956=ORIENTED_EDGE('',*,*,#845,.T.);
#957=CARTESIAN_POINT('',(626.152403586,180.739025991,595.676530423));
#958=DIRECTION('',(0.707106781,-0.,-0.707106781));
#959=DIRECTION('',(0.707106781,0.,0.707106781));
#960=AXIS2_PLACEMENT_3D('',#957,#958,#959);
#961=ELLIPSE('',#960,1.414213562,1.);
#962=EDGE_CURVE('',#834,#802,#961,.T.);
#963=ORIENTED_EDGE('',*,*,#962,.T.);
#964=ORIENTED_EDGE('',*,*,#820,.T.);
#965=EDGE_LOOP('',(#955,#956,#963,#964));
#966=FACE_BOUND('',#965,.T.);
#967=ADVANCED_FACE('',(#966),#954,.T.);
#968=CARTESIAN_POINT('',(625.152403586,180.739025991,598.676530423));
#969=DIRECTION('',(1.,0.,-0.));
#970=DIRECTION('',(0.,0.,1.));
#971=AXIS2_PLACEMENT_3D('',#968,#969,#970);
#972=CYLINDRICAL_SURFACE('',#971,1.);
#973=ORIENTED_EDGE('',*,*,#783,.T.);
#974=ORIENTED_EDGE('',*,*,#354,.T.);
#975=ORIENTED_EDGE('',*,*,#813,.T.);
#976=CARTESIAN_POINT('',(626.152403586,180.739025991,598.676530423));
#977=DIRECTION('',(-1.,0.,0.));
#978=DIRECTION('',(0.,0.,1.));
#979=AXIS2_PLACEMENT_3D('',#976,#977,#978);
#980=CIRCLE('',#979,1.);
#981=EDGE_CURVE('',#778,#800,#980,.T.);
#982=ORIENTED_EDGE('',*,*,#981,.F.);
#983=EDGE_LOOP('',(#973,#974,#975,#982));
#984=FACE_BOUND('',#983,.T.);
#985=ADVANCED_FACE('',(#984),#972,.T.);
#986=CARTESIAN_POINT('',(626.152403586,180.739025991,649.676530423));
#987=DIRECTION('',(0.,0.,-1.));
#988=DIRECTION('',(1.,0.,0.));
#989=AXIS2_PLACEMENT_3D('',#986,#987,#988);
#990=CYLINDRICAL_SURFACE('',#989,1.);
#991=ORIENTED_EDGE('',*,*,#807,.T.);
#992=ORIENTED_EDGE('',*,*,#962,.F.);
#993=ORIENTED_EDGE('',*,*,#902,.T.);
#994=CARTESIAN_POINT('',(626.152403586,180.739025991,598.676530423));
#995=DIRECTION('',(0.,0.,1.));
#996=DIRECTION('',(1.,0.,-0.));
#997=AXIS2_PLACEMENT_3D('',#994,#995,#996);
#998=CIRCLE('',#997,1.);
#999=EDGE_CURVE('',#800,#891,#998,.T.);
#1000=ORIENTED_EDGE('',*,*,#999,.F.);
#1001=EDGE_LOOP('',(#991,#992,#993,#1000));
#1002=FACE_BOUND('',#1001,.T.);
#1003=ADVANCED_FACE('',(#1002),#990,.T.);
#1004=CARTESIAN_POINT('',(626.152403586,397.139666532,598.676530423));
#1005=DIRECTION('',(0.,1.,0.));
#1006=DIRECTION('',(0.,-0.,1.));
#1007=AXIS2_PLACEMENT_3D('',#1004,#1005,#1006);
#1008=CYLINDRICAL_SURFACE('',#1007,1.);
#1009=ORIENTED_EDGE('',*,*,#789,.T.);
#1010=CARTESIAN_POINT('',(626.152403586,180.739025991,598.676530423));
#1011=DIRECTION('',(0.,-1.,0.));
#1012=DIRECTION('',(0.,0.,1.));
#1013=AXIS2_PLACEMENT_3D('',#1010,#1011,#1012);
#1014=CIRCLE('',#1013,1.);
#1015=EDGE_CURVE('',#778,#891,#1014,.T.);
#1016=ORIENTED_EDGE('',*,*,#1015,.T.);
#1017=ORIENTED_EDGE('',*,*,#896,.T.);
#1018=CARTESIAN_POINT('',(626.152403586,85.739025991,598.676530423));
#1019=DIRECTION('',(0.,-0.707106781,0.707106781));
#1020=DIRECTION('',(0.,-0.707106781,-0.707106781));
#1021=AXIS2_PLACEMENT_3D('',#1018,#1019,#1020);
#1022=ELLIPSE('',#1021,1.414213562,1.);
#1023=EDGE_CURVE('',#737,#881,#1022,.T.);
#1024=ORIENTED_EDGE('',*,*,#1023,.F.);
#1025=EDGE_LOOP('',(#1009,#1016,#1017,#1024));
#1026=FACE_BOUND('',#1025,.T.);
#1027=ADVANCED_FACE('',(#1026),#1008,.T.);
#1028=CARTESIAN_POINT('',(626.152403586,180.739025991,598.676530423));
#1029=DIRECTION('',(0.,0.,1.));
#1030=DIRECTION('',(-1.,0.,0.));
#1031=AXIS2_PLACEMENT_3D('',#1028,#1029,#1030);
#1032=SPHERICAL_SURFACE('',#1031,1.);
#1033=ORIENTED_EDGE('',*,*,#999,.T.);
#1034=ORIENTED_EDGE('',*,*,#1015,.F.);
#1035=ORIENTED_EDGE('',*,*,#981,.T.);
#1036=EDGE_LOOP('',(#1033,#1034,#1035));
#1037=FACE_BOUND('',#1036,.T.);
#1038=ADVANCED_FACE('',(#1037),#1032,.T.);
#1039=CARTESIAN_POINT('',(626.152403586,85.739025991,649.676530423));
#1040=DIRECTION('',(0.,0.,-1.));
#1041=DIRECTION('',(1.,0.,0.));
#1042=AXIS2_PLACEMENT_3D('',#1039,#1040,#1041);
#1043=CYLINDRICAL_SURFACE('',#1042,1.);
#1044=ORIENTED_EDGE('',*,*,#1023,.T.);
#1045=ORIENTED_EDGE('',*,*,#888,.T.);
#1046=CARTESIAN_POINT('',(626.152403586,85.739025991,610.676530423));
#1047=DIRECTION('',(0.,0.707106781,0.707106781));
#1048=DIRECTION('',(0.,-0.707106781,0.707106781));
#1049=AXIS2_PLACEMENT_3D('',#1046,#1047,#1048);
#1050=ELLIPSE('',#1049,1.414213562,1.);
#1051=EDGE_CURVE('',#715,#883,#1050,.T.);
#1052=ORIENTED_EDGE('',*,*,#1051,.F.);
#1053=ORIENTED_EDGE('',*,*,#750,.T.);
#1054=EDGE_LOOP('',(#1044,#1045,#1052,#1053));
#1055=FACE_BOUND('',#1054,.T.);
#1056=ADVANCED_FACE('',(#1055),#1043,.T.);
#1057=CARTESIAN_POINT('',(626.152403586,82.739025991,649.676530423));
#1058=DIRECTION('',(0.,0.,1.));
#1059=DIRECTION('',(-1.,0.,0.));
#1060=AXIS2_PLACEMENT_3D('',#1057,#1058,#1059);
#1061=CYLINDRICAL_SURFACE('',#1060,1.);
#1062=ORIENTED_EDGE('',*,*,#920,.T.);
#1063=CARTESIAN_POINT('',(626.152403586,82.739025991,595.676530423));
#1064=DIRECTION('',(0.,0.,-1.));
#1065=DIRECTION('',(-1.,0.,0.));
#1066=AXIS2_PLACEMENT_3D('',#1063,#1064,#1065);
#1067=CIRCLE('',#1066,1.);
#1068=EDGE_CURVE('',#604,#907,#1067,.T.);
#1069=ORIENTED_EDGE('',*,*,#1068,.F.);
#1070=ORIENTED_EDGE('',*,*,#611,.T.);
#1071=CARTESIAN_POINT('',(626.152403586,82.739025991,613.676530423));
#1072=DIRECTION('',(-0.,-0.,1.));
#1073=DIRECTION('',(-1.,0.,0.));
#1074=AXIS2_PLACEMENT_3D('',#1071,#1072,#1073);
#1075=CIRCLE('',#1074,1.);
#1076=EDGE_CURVE('',#915,#606,#1075,.T.);
#1077=ORIENTED_EDGE('',*,*,#1076,.F.);
#1078=EDGE_LOOP('',(#1062,#1069,#1070,#1077));
#1079=FACE_BOUND('',#1078,.T.);
#1080=ADVANCED_FACE('',(#1079),#1061,.T.);
#1081=CARTESIAN_POINT('',(626.152403586,397.139666532,595.676530423));
#1082=DIRECTION('',(0.,1.,0.));
#1083=DIRECTION('',(0.,-0.,1.));
#1084=AXIS2_PLACEMENT_3D('',#1081,#1082,#1083);
#1085=CYLINDRICAL_SURFACE('',#1084,1.);
#1086=ORIENTED_EDGE('',*,*,#554,.T.);
#1087=ORIENTED_EDGE('',*,*,#585,.T.);
#1088=CARTESIAN_POINT('',(626.152403586,82.739025991,595.676530423));
#1089=DIRECTION('',(0.,1.,0.));
#1090=DIRECTION('',(0.,0.,-1.));
#1091=AXIS2_PLACEMENT_3D('',#1088,#1089,#1090);
#1092=CIRCLE('',#1091,1.);
#1093=EDGE_CURVE('',#580,#907,#1092,.T.);
#1094=ORIENTED_EDGE('',*,*,#1093,.T.);
#1095=ORIENTED_EDGE('',*,*,#912,.T.);
#1096=EDGE_LOOP('',(#1086,#1087,#1094,#1095));
#1097=FACE_BOUND('',#1096,.T.);
#1098=ADVANCED_FACE('',(#1097),#1085,.T.);
#1099=CARTESIAN_POINT('',(626.152403586,82.739025991,595.676530423));
#1100=DIRECTION('',(0.,0.,-1.));
#1101=DIRECTION('',(1.,0.,0.));
#1102=AXIS2_PLACEMENT_3D('',#1099,#1100,#1101);
#1103=SPHERICAL_SURFACE('',#1102,1.);
#1104=ORIENTED_EDGE('',*,*,#1093,.F.);
#1105=CARTESIAN_POINT('',(626.152403586,82.739025991,595.676530423));
#1106=DIRECTION('',(-1.,0.,0.));
#1107=DIRECTION('',(0.,0.,1.));
#1108=AXIS2_PLACEMENT_3D('',#1105,#1106,#1107);
#1109=CIRCLE('',#1108,1.);
#1110=EDGE_CURVE('',#580,#604,#1109,.T.);
#1111=ORIENTED_EDGE('',*,*,#1110,.T.);
#1112=ORIENTED_EDGE('',*,*,#1068,.T.);
#1113=EDGE_LOOP('',(#1104,#1111,#1112));
#1114=FACE_BOUND('',#1113,.T.);
#1115=ADVANCED_FACE('',(#1114),#1103,.T.);
#1116=CARTESIAN_POINT('',(625.152403586,82.739025991,595.676530423));
#1117=DIRECTION('',(1.,0.,-0.));
#1118=DIRECTION('',(0.,0.,1.));
#1119=AXIS2_PLACEMENT_3D('',#1116,#1117,#1118);
#1120=CYLINDRICAL_SURFACE('',#1119,1.);
#1121=ORIENTED_EDGE('',*,*,#1110,.F.);
#1122=ORIENTED_EDGE('',*,*,#593,.T.);
#1123=ORIENTED_EDGE('',*,*,#461,.T.);
#1124=ORIENTED_EDGE('',*,*,#617,.T.);
#1125=EDGE_LOOP('',(#1121,#1122,#1123,#1124));
#1126=FACE_BOUND('',#1125,.T.);
#1127=ADVANCED_FACE('',(#1126),#1120,.T.);
#1128=CARTESIAN_POINT('',(625.152403586,89.739025991,613.676530423));
#1129=DIRECTION('',(1.,0.,-0.));
#1130=DIRECTION('',(0.,0.,1.));
#1131=AXIS2_PLACEMENT_3D('',#1128,#1129,#1130);
#1132=CYLINDRICAL_SURFACE('',#1131,1.);
#1133=ORIENTED_EDGE('',*,*,#641,.T.);
#1134=ORIENTED_EDGE('',*,*,#427,.T.);
#1135=ORIENTED_EDGE('',*,*,#679,.T.);
#1136=CARTESIAN_POINT('',(626.152403586,89.739025991,613.676530423));
#1137=DIRECTION('',(-1.,0.,0.));
#1138=DIRECTION('',(0.,0.,1.));
#1139=AXIS2_PLACEMENT_3D('',#1136,#1137,#1138);
#1140=CIRCLE('',#1139,1.);
#1141=EDGE_CURVE('',#636,#666,#1140,.T.);
#1142=ORIENTED_EDGE('',*,*,#1141,.F.);
#1143=EDGE_LOOP('',(#1133,#1134,#1135,#1142));
#1144=FACE_BOUND('',#1143,.T.);
#1145=ADVANCED_FACE('',(#1144),#1132,.T.);
#1146=CARTESIAN_POINT('',(626.152403586,89.739025991,649.676530423));
#1147=DIRECTION('',(0.,0.,1.));
#1148=DIRECTION('',(-1.,0.,0.));
#1149=AXIS2_PLACEMENT_3D('',#1146,#1147,#1148);
#1150=CYLINDRICAL_SURFACE('',#1149,1.);
#1151=ORIENTED_EDGE('',*,*,#936,.T.);
#1152=CARTESIAN_POINT('',(626.152403586,89.739025991,613.676530423));
#1153=DIRECTION('',(0.,0.,-1.));
#1154=DIRECTION('',(-1.,0.,0.));
#1155=AXIS2_PLACEMENT_3D('',#1152,#1153,#1154);
#1156=CIRCLE('',#1155,1.);
#1157=EDGE_CURVE('',#923,#666,#1156,.T.);
#1158=ORIENTED_EDGE('',*,*,#1157,.T.);
#1159=ORIENTED_EDGE('',*,*,#673,.T.);
#1160=CARTESIAN_POINT('',(626.152403586,89.739025991,610.676530423));
#1161=DIRECTION('',(0.,0.,-1.));
#1162=DIRECTION('',(-1.,0.,0.));
#1163=AXIS2_PLACEMENT_3D('',#1160,#1161,#1162);
#1164=CIRCLE('',#1163,1.);
#1165=EDGE_CURVE('',#931,#668,#1164,.T.);
#1166=ORIENTED_EDGE('',*,*,#1165,.F.);
#1167=EDGE_LOOP('',(#1151,#1158,#1159,#1166));
#1168=FACE_BOUND('',#1167,.T.);
#1169=ADVANCED_FACE('',(#1168),#1150,.T.);
#1170=CARTESIAN_POINT('',(626.152403586,89.739025991,613.676530423));
#1171=DIRECTION('',(1.,0.,-0.));
#1172=DIRECTION('',(0.,0.,1.));
#1173=AXIS2_PLACEMENT_3D('',#1170,#1171,#1172);
#1174=SPHERICAL_SURFACE('',#1173,1.);
#1175=ORIENTED_EDGE('',*,*,#1157,.F.);
#1176=CARTESIAN_POINT('',(626.152403586,89.739025991,613.676530423));
#1177=DIRECTION('',(0.,1.,0.));
#1178=DIRECTION('',(0.,0.,-1.));
#1179=AXIS2_PLACEMENT_3D('',#1176,#1177,#1178);
#1180=CIRCLE('',#1179,1.);
#1181=EDGE_CURVE('',#923,#636,#1180,.T.);
#1182=ORIENTED_EDGE('',*,*,#1181,.T.);
#1183=ORIENTED_EDGE('',*,*,#1141,.T.);
#1184=EDGE_LOOP('',(#1175,#1182,#1183));
#1185=FACE_BOUND('',#1184,.T.);
#1186=ADVANCED_FACE('',(#1185),#1174,.T.);
#1187=CARTESIAN_POINT('',(626.152403586,397.139666532,613.676530423));
#1188=DIRECTION('',(0.,1.,0.));
#1189=DIRECTION('',(0.,-0.,1.));
#1190=AXIS2_PLACEMENT_3D('',#1187,#1188,#1189);
#1191=CYLINDRICAL_SURFACE('',#1190,1.);
#1192=CARTESIAN_POINT('',(626.152403586,82.739025991,613.676530423));
#1193=DIRECTION('',(0.,1.,0.));
#1194=DIRECTION('',(0.,0.,-1.));
#1195=AXIS2_PLACEMENT_3D('',#1192,#1193,#1194);
#1196=CIRCLE('',#1195,1.);
#1197=EDGE_CURVE('',#915,#644,#1196,.T.);
#1198=ORIENTED_EDGE('',*,*,#1197,.T.);
#1199=ORIENTED_EDGE('',*,*,#649,.T.);
#1200=ORIENTED_EDGE('',*,*,#1181,.F.);
#1201=ORIENTED_EDGE('',*,*,#928,.T.);
#1202=EDGE_LOOP('',(#1198,#1199,#1200,#1201));
#1203=FACE_BOUND('',#1202,.T.);
#1204=ADVANCED_FACE('',(#1203),#1191,.T.);
#1205=CARTESIAN_POINT('',(626.152403586,82.739025991,613.676530423));
#1206=DIRECTION('',(0.,0.,1.));
#1207=DIRECTION('',(-1.,0.,0.));
#1208=AXIS2_PLACEMENT_3D('',#1205,#1206,#1207);
#1209=SPHERICAL_SURFACE('',#1208,1.);
#1210=ORIENTED_EDGE('',*,*,#1076,.T.);
#1211=CARTESIAN_POINT('',(626.152403586,82.739025991,613.676530423));
#1212=DIRECTION('',(-1.,0.,0.));
#1213=DIRECTION('',(0.,0.,1.));
#1214=AXIS2_PLACEMENT_3D('',#1211,#1212,#1213);
#1215=CIRCLE('',#1214,1.);
#1216=EDGE_CURVE('',#606,#644,#1215,.T.);
#1217=ORIENTED_EDGE('',*,*,#1216,.T.);
#1218=ORIENTED_EDGE('',*,*,#1197,.F.);
#1219=EDGE_LOOP('',(#1210,#1217,#1218));
#1220=FACE_BOUND('',#1219,.T.);
#1221=ADVANCED_FACE('',(#1220),#1209,.T.);
#1222=CARTESIAN_POINT('',(625.152403586,82.739025991,613.676530423));
#1223=DIRECTION('',(1.,0.,-0.));
#1224=DIRECTION('',(0.,0.,1.));
#1225=AXIS2_PLACEMENT_3D('',#1222,#1223,#1224);
#1226=CYLINDRICAL_SURFACE('',#1225,1.);
#1227=ORIENTED_EDGE('',*,*,#1216,.F.);
#1228=ORIENTED_EDGE('',*,*,#624,.T.);
#1229=ORIENTED_EDGE('',*,*,#444,.T.);
#1230=ORIENTED_EDGE('',*,*,#655,.T.);
#1231=EDGE_LOOP('',(#1227,#1228,#1229,#1230));
#1232=FACE_BOUND('',#1231,.T.);
#1233=ADVANCED_FACE('',(#1232),#1226,.T.);
#1234=CARTESIAN_POINT('',(644.152403586,85.739025991,649.676530423));
#1235=DIRECTION('',(0.,0.,-1.));
#1236=DIRECTION('',(1.,0.,0.));
#1237=AXIS2_PLACEMENT_3D('',#1234,#1235,#1236);
#1238=CYLINDRICAL_SURFACE('',#1237,1.);
#1239=ORIENTED_EDGE('',*,*,#712,.T.);
#1240=ORIENTED_EDGE('',*,*,#393,.T.);
#1241=ORIENTED_EDGE('',*,*,#773,.T.);
#1242=ORIENTED_EDGE('',*,*,#757,.T.);
#1243=EDGE_LOOP('',(#1239,#1240,#1241,#1242));
#1244=FACE_BOUND('',#1243,.T.);
#1245=ADVANCED_FACE('',(#1244),#1238,.T.);
#1246=CARTESIAN_POINT('',(625.152403586,89.739025991,610.676530423));
#1247=DIRECTION('',(1.,0.,-0.));
#1248=DIRECTION('',(0.,0.,1.));
#1249=AXIS2_PLACEMENT_3D('',#1246,#1247,#1248);
#1250=CYLINDRICAL_SURFACE('',#1249,1.);
#1251=ORIENTED_EDGE('',*,*,#410,.T.);
#1252=ORIENTED_EDGE('',*,*,#702,.T.);
#1253=CARTESIAN_POINT('',(626.152403586,89.739025991,610.676530423));
#1254=DIRECTION('',(1.,0.,0.));
#1255=DIRECTION('',(0.,0.,-1.));
#1256=AXIS2_PLACEMENT_3D('',#1253,#1254,#1255);
#1257=CIRCLE('',#1256,1.);
#1258=EDGE_CURVE('',#697,#668,#1257,.T.);
#1259=ORIENTED_EDGE('',*,*,#1258,.T.);
#1260=ORIENTED_EDGE('',*,*,#686,.T.);
#1261=EDGE_LOOP('',(#1251,#1252,#1259,#1260));
#1262=FACE_BOUND('',#1261,.T.);
#1263=ADVANCED_FACE('',(#1262),#1250,.T.);
#1264=CARTESIAN_POINT('',(626.152403586,89.739025991,610.676530423));
#1265=DIRECTION('',(0.,0.,-1.));
#1266=DIRECTION('',(1.,0.,0.));
#1267=AXIS2_PLACEMENT_3D('',#1264,#1265,#1266);
#1268=SPHERICAL_SURFACE('',#1267,1.);
#1269=ORIENTED_EDGE('',*,*,#1258,.F.);
#1270=CARTESIAN_POINT('',(626.152403586,89.739025991,610.676530423));
#1271=DIRECTION('',(0.,1.,0.));
#1272=DIRECTION('',(0.,0.,-1.));
#1273=AXIS2_PLACEMENT_3D('',#1270,#1271,#1272);
#1274=CIRCLE('',#1273,1.);
#1275=EDGE_CURVE('',#697,#931,#1274,.T.);
#1276=ORIENTED_EDGE('',*,*,#1275,.T.);
#1277=ORIENTED_EDGE('',*,*,#1165,.T.);
#1278=EDGE_LOOP('',(#1269,#1276,#1277));
#1279=FACE_BOUND('',#1278,.T.);
#1280=ADVANCED_FACE('',(#1279),#1268,.T.);
#1281=CARTESIAN_POINT('',(626.152403586,397.139666532,610.676530423));
#1282=DIRECTION('',(0.,-1.,0.));
#1283=DIRECTION('',(0.,0.,-1.));
#1284=AXIS2_PLACEMENT_3D('',#1281,#1282,#1283);
#1285=CYLINDRICAL_SURFACE('',#1284,1.);
#1286=ORIENTED_EDGE('',*,*,#1051,.T.);
#1287=ORIENTED_EDGE('',*,*,#942,.T.);
#1288=ORIENTED_EDGE('',*,*,#1275,.F.);
#1289=ORIENTED_EDGE('',*,*,#726,.T.);
#1290=EDGE_LOOP('',(#1286,#1287,#1288,#1289));
#1291=FACE_BOUND('',#1290,.T.);
#1292=ADVANCED_FACE('',(#1291),#1285,.T.);
#1293=CLOSED_SHELL('',(#52,#87,#122,#148,#183,#218,#244,#279,#314,#372,#511,#573,#597,#628,#659,#690,#730,#761,#793,#824,#849,#874,#949,#967,#985,#1003,
#1027,#1038,#1056,#1080,#1098,#1115,#1127,#1145,#1169,#1186,#1204,#1221,#1233,#1245,#1263,#1280,#1292));
#1294=MANIFOLD_SOLID_BREP('Left-w-nail-x3',#1293);
#26=STYLED_ITEM('',(),#1294);
#16=SHAPE_REPRESENTATION('Left-w-nail-x3',(#15),#10);
#17=ADVANCED_BREP_SHAPE_REPRESENTATION('Left-w-nail-x3',(#1294),#10);
#1302=SHAPE_REPRESENTATION_RELATIONSHIP('','',#16,#17);
#1303=APPLICATION_CONTEXT('configuration controlled 3D design of mechanical parts and assemblies');
#1304=APPLICATION_PROTOCOL_DEFINITION('international standard','configuration_control_3d_design_ed2_mim',2004,#1303);
#1305=PRODUCT_CONTEXT('',#1303,'mechanical');
#1306=PRODUCT_DEFINITION_CONTEXT('part definition',#1303,'design');
#24=PRODUCT('Left-w-nail-x3','Left-w-nail-x3','',(#1305));
#1307=PRODUCT_RELATED_PRODUCT_CATEGORY('part','',(#24));
#1308=PRODUCT_DEFINITION_FORMATION_WITH_SPECIFIED_SOURCE('','',#24,.NOT_KNOWN.);
#25=PRODUCT_DEFINITION('design','',#1308,#1306);
#23=PRODUCT_DEFINITION_SHAPE('','',#25);
#1309=SHAPE_DEFINITION_REPRESENTATION(#23,#16);
#11=DRAUGHTING_MODEL('',(),#10);
#1=MECHANICAL_DESIGN_GEOMETRIC_PRESENTATION_REPRESENTATION('',(#26),#10);
ENDSEC;
END-ISO-10303-21;
