ISO-10303-21;
HEADER;

/* File generated by HOOPS Exchange Version 23.2.20 */

FILE_DESCRIPTION(('HOOPS Exchange Step'),'2;1');

FILE_NAME('C:\\Users\\nguye\\Projects\\3D-Model-Collection\\077-VA-phone-hanger\\dist\\phone-holder\\nail-v1.stp',
'2024-09-23T15:58:06+07:00',
('nguye'),
('Unknown organisation'),
'HOOPS Exchange 2023.2',
'HOOPS Exchange',
'Unknown authorisation');

FILE_SCHEMA( ('AP203_CONFIGURATION_CONTROLLED_3D_DESIGN_OF_MECHANICAL_PARTS_AND_ASSEMBLIES_MIM_LF') );

ENDSEC;

DATA;
#3=(NAMED_UNIT(*)PLANE_ANGLE_UNIT()SI_UNIT($,.RADIAN.));
#4=PLANE_ANGLE_MEASURE_WITH_UNIT(PLANE_ANGLE_MEASURE(0.0174532925),#3);
#5=(CONVERSION_BASED_UNIT('DEGREE',#4)NAMED_UNIT(#6)PLANE_ANGLE_UNIT());
#6=DIMENSIONAL_EXPONENTS(0.,0.,0.,0.,0.,0.,0.);
#7=(NAMED_UNIT(*)SI_UNIT($,.STERADIAN.)SOLID_ANGLE_UNIT());
#8=(LENGTH_UNIT()NAMED_UNIT(*)SI_UNIT(.MILLI.,.METRE.));
#9=UNCERTAINTY_MEASURE_WITH_UNIT(LENGTH_MEASURE(1.000000E-05),#8,'DISTANCE_ACCURACY_VALUE','Maximum Tolerance applied to model');
#10=(GEOMETRIC_REPRESENTATION_CONTEXT(3)GLOBAL_UNCERTAINTY_ASSIGNED_CONTEXT((#9))GLOBAL_UNIT_ASSIGNED_CONTEXT((#8,#5,#7))REPRESENTATION_CONTEXT('','Nail-v1 (no-diff)'));
#12=CARTESIAN_POINT('',(0.,0.,0.));
#13=DIRECTION('',(0.,0.,1.));
#14=DIRECTION('',(1.,0.,0.));
#15=AXIS2_PLACEMENT_3D('',#12,#13,#14);
#27=CARTESIAN_POINT('',(685.052701793,91.107464635,559.667449881));
#28=DIRECTION('',(-1.,-0.,-0.));
#29=DIRECTION('',(0.,-1.,0.));
#30=AXIS2_PLACEMENT_3D('',#27,#28,#29);
#31=PLANE('',#30);
#32=CARTESIAN_POINT('',(685.052701793,100.471098008,561.66954232));
#33=VERTEX_POINT('',#32);
#34=CARTESIAN_POINT('',(685.052701793,81.742937426,561.665357341));
#35=VERTEX_POINT('',#34);
#36=CARTESIAN_POINT('',(685.052701793,100.471098008,561.66954232));
#37=DIRECTION('',(0.,-0.999999975,-0.000223459));
#38=VECTOR('',#37,18.728161049);
#39=LINE('',#36,#38);
#40=EDGE_CURVE('',#33,#35,#39,.T.);
#41=ORIENTED_EDGE('',*,*,#40,.T.);
#42=CARTESIAN_POINT('',(685.052701793,81.743384344,559.665357391));
#43=VERTEX_POINT('',#42);
#44=CARTESIAN_POINT('',(685.052701793,81.743384344,559.665357391));
#45=DIRECTION('',(0.,-0.000223459,0.999999975));
#46=VECTOR('',#45,2.);
#47=LINE('',#44,#46);
#48=EDGE_CURVE('',#43,#35,#47,.T.);
#49=ORIENTED_EDGE('',*,*,#48,.F.);
#50=CARTESIAN_POINT('',(685.052701793,100.471544926,559.66954237));
#51=VERTEX_POINT('',#50);
#52=CARTESIAN_POINT('',(685.052701793,100.471544926,559.66954237));
#53=DIRECTION('',(0.,-0.999999975,-0.000223459));
#54=VECTOR('',#53,18.728161049);
#55=LINE('',#52,#54);
#56=EDGE_CURVE('',#51,#43,#55,.T.);
#57=ORIENTED_EDGE('',*,*,#56,.F.);
#58=CARTESIAN_POINT('',(685.052701793,100.471544926,559.66954237));
#59=DIRECTION('',(0.,-0.000223459,0.999999975));
#60=VECTOR('',#59,2.);
#61=LINE('',#58,#60);
#62=EDGE_CURVE('',#51,#33,#61,.T.);
#63=ORIENTED_EDGE('',*,*,#62,.T.);
#64=EDGE_LOOP('',(#41,#49,#57,#63));
#65=FACE_BOUND('',#64,.T.);
#66=ADVANCED_FACE('',(#65),#31,.F.);
#67=CARTESIAN_POINT('',(670.052701793,81.743384344,559.665357391));
#68=DIRECTION('',(-0.,0.999999975,0.000223459));
#69=DIRECTION('',(0.,-0.000223459,0.999999975));
#70=AXIS2_PLACEMENT_3D('',#67,#68,#69);
#71=PLANE('',#70);
#72=CARTESIAN_POINT('',(655.052701793,81.742937426,561.665357341));
#73=VERTEX_POINT('',#72);
#74=CARTESIAN_POINT('',(685.052701793,81.742937426,561.665357341));
#75=DIRECTION('',(-1.,-0.,0.));
#76=VECTOR('',#75,30.);
#77=LINE('',#74,#76);
#78=EDGE_CURVE('',#35,#73,#77,.T.);
#79=ORIENTED_EDGE('',*,*,#78,.T.);
#80=CARTESIAN_POINT('',(655.052701793,81.743384344,559.665357391));
#81=VERTEX_POINT('',#80);
#82=CARTESIAN_POINT('',(655.052701793,81.743384344,559.665357391));
#83=DIRECTION('',(0.,-0.000223459,0.999999975));
#84=VECTOR('',#83,2.);
#85=LINE('',#82,#84);
#86=EDGE_CURVE('',#81,#73,#85,.T.);
#87=ORIENTED_EDGE('',*,*,#86,.F.);
#88=CARTESIAN_POINT('',(685.052701793,81.743384344,559.665357391));
#89=DIRECTION('',(-1.,-0.,0.));
#90=VECTOR('',#89,30.);
#91=LINE('',#88,#90);
#92=EDGE_CURVE('',#43,#81,#91,.T.);
#93=ORIENTED_EDGE('',*,*,#92,.F.);
#94=ORIENTED_EDGE('',*,*,#48,.T.);
#95=EDGE_LOOP('',(#79,#87,#93,#94));
#96=FACE_BOUND('',#95,.T.);
#97=ADVANCED_FACE('',(#96),#71,.F.);
#98=CARTESIAN_POINT('',(655.052701793,91.107464635,559.667449881));
#99=DIRECTION('',(1.,0.,0.));
#100=DIRECTION('',(-0.,1.,0.));
#101=AXIS2_PLACEMENT_3D('',#98,#99,#100);
#102=PLANE('',#101);
#103=CARTESIAN_POINT('',(655.052701793,100.471098008,561.66954232));
#104=VERTEX_POINT('',#103);
#105=CARTESIAN_POINT('',(655.052701793,81.742937426,561.665357341));
#106=DIRECTION('',(-0.,0.999999975,0.000223459));
#107=VECTOR('',#106,18.728161049);
#108=LINE('',#105,#107);
#109=EDGE_CURVE('',#73,#104,#108,.T.);
#110=ORIENTED_EDGE('',*,*,#109,.T.);
#111=CARTESIAN_POINT('',(655.052701793,100.471544926,559.66954237));
#112=VERTEX_POINT('',#111);
#113=CARTESIAN_POINT('',(655.052701793,100.471544926,559.66954237));
#114=DIRECTION('',(0.,-0.000223459,0.999999975));
#115=VECTOR('',#114,2.);
#116=LINE('',#113,#115);
#117=EDGE_CURVE('',#112,#104,#116,.T.);
#118=ORIENTED_EDGE('',*,*,#117,.F.);
#119=CARTESIAN_POINT('',(655.052701793,81.743384344,559.665357391));
#120=DIRECTION('',(-0.,0.999999975,0.000223459));
#121=VECTOR('',#120,18.728161049);
#122=LINE('',#119,#121);
#123=EDGE_CURVE('',#81,#112,#122,.T.);
#124=ORIENTED_EDGE('',*,*,#123,.F.);
#125=ORIENTED_EDGE('',*,*,#86,.T.);
#126=EDGE_LOOP('',(#110,#118,#124,#125));
#127=FACE_BOUND('',#126,.T.);
#128=ADVANCED_FACE('',(#127),#102,.F.);
#129=CARTESIAN_POINT('',(670.052701793,100.471544926,559.66954237));
#130=DIRECTION('',(0.,-0.999999975,-0.000223459));
#131=DIRECTION('',(0.,0.000223459,-0.999999975));
#132=AXIS2_PLACEMENT_3D('',#129,#130,#131);
#133=PLANE('',#132);
#134=CARTESIAN_POINT('',(655.052701793,100.471098008,561.66954232));
#135=DIRECTION('',(1.,0.,-0.));
#136=VECTOR('',#135,30.);
#137=LINE('',#134,#136);
#138=EDGE_CURVE('',#104,#33,#137,.T.);
#139=ORIENTED_EDGE('',*,*,#138,.T.);
#140=ORIENTED_EDGE('',*,*,#62,.F.);
#141=CARTESIAN_POINT('',(655.052701793,100.471544926,559.66954237));
#142=DIRECTION('',(1.,0.,-0.));
#143=VECTOR('',#142,30.);
#144=LINE('',#141,#143);
#145=EDGE_CURVE('',#112,#51,#144,.T.);
#146=ORIENTED_EDGE('',*,*,#145,.F.);
#147=ORIENTED_EDGE('',*,*,#117,.T.);
#148=EDGE_LOOP('',(#139,#140,#146,#147));
#149=FACE_BOUND('',#148,.T.);
#150=ADVANCED_FACE('',(#149),#133,.F.);
#151=CARTESIAN_POINT('',(670.052701793,91.107464635,559.667449881));
#152=DIRECTION('',(-0.,0.000223459,-0.999999975));
#153=DIRECTION('',(-0.,0.999999975,0.000223459));
#154=AXIS2_PLACEMENT_3D('',#151,#152,#153);
#155=PLANE('',#154);
#156=ORIENTED_EDGE('',*,*,#56,.T.);
#157=ORIENTED_EDGE('',*,*,#92,.T.);
#158=ORIENTED_EDGE('',*,*,#123,.T.);
#159=ORIENTED_EDGE('',*,*,#145,.T.);
#160=EDGE_LOOP('',(#156,#157,#158,#159));
#161=FACE_BOUND('',#160,.T.);
#162=ADVANCED_FACE('',(#161),#155,.T.);
#163=CARTESIAN_POINT('',(670.052701793,91.107017717,561.667449831));
#164=DIRECTION('',(-0.,0.000223459,-0.999999975));
#165=DIRECTION('',(-0.,0.999999975,0.000223459));
#166=AXIS2_PLACEMENT_3D('',#163,#164,#165);
#167=PLANE('',#166);
#168=CARTESIAN_POINT('',(658.052701793,85.742937326,561.666251178));
#169=VERTEX_POINT('',#168);
#170=CARTESIAN_POINT('',(658.052701793,98.1625381,561.669026451));
#171=VERTEX_POINT('',#170);
#172=CARTESIAN_POINT('',(658.052701793,85.742937326,561.666251178));
#173=DIRECTION('',(-0.,0.999999975,0.000223459));
#174=VECTOR('',#173,12.419601085);
#175=LINE('',#172,#174);
#176=EDGE_CURVE('',#169,#171,#175,.T.);
#177=ORIENTED_EDGE('',*,*,#176,.T.);
#178=CARTESIAN_POINT('',(659.052701793,99.162538075,561.66924991));
#179=VERTEX_POINT('',#178);
#180=CARTESIAN_POINT('',(659.052701793,98.1625381,561.669026451));
#181=DIRECTION('',(-0.,0.000223459,-0.999999975));
#182=DIRECTION('',(-0.,0.999999975,0.000223459));
#183=AXIS2_PLACEMENT_3D('',#180,#181,#182);
#184=CIRCLE('',#183,1.);
#185=EDGE_CURVE('',#171,#179,#184,.T.);
#186=ORIENTED_EDGE('',*,*,#185,.T.);
#187=CARTESIAN_POINT('',(681.052701793,99.162538075,561.66924991));
#188=VERTEX_POINT('',#187);
#189=CARTESIAN_POINT('',(659.052701793,99.162538075,561.66924991));
#190=DIRECTION('',(1.,0.,-0.));
#191=VECTOR('',#190,22.);
#192=LINE('',#189,#191);
#193=EDGE_CURVE('',#179,#188,#192,.T.);
#194=ORIENTED_EDGE('',*,*,#193,.T.);
#195=CARTESIAN_POINT('',(682.052701793,98.1625381,561.669026451));
#196=VERTEX_POINT('',#195);
#197=CARTESIAN_POINT('',(681.052701793,98.1625381,561.669026451));
#198=DIRECTION('',(-0.,0.000223459,-0.999999975));
#199=DIRECTION('',(-0.,0.999999975,0.000223459));
#200=AXIS2_PLACEMENT_3D('',#197,#198,#199);
#201=CIRCLE('',#200,1.);
#202=EDGE_CURVE('',#188,#196,#201,.T.);
#203=ORIENTED_EDGE('',*,*,#202,.T.);
#204=CARTESIAN_POINT('',(682.052701793,85.742937326,561.666251178));
#205=VERTEX_POINT('',#204);
#206=CARTESIAN_POINT('',(682.052701793,98.1625381,561.669026451));
#207=DIRECTION('',(0.,-0.999999975,-0.000223459));
#208=VECTOR('',#207,12.419601085);
#209=LINE('',#206,#208);
#210=EDGE_CURVE('',#196,#205,#209,.T.);
#211=ORIENTED_EDGE('',*,*,#210,.T.);
#212=CARTESIAN_POINT('',(681.052701793,84.742937351,561.666027719));
#213=VERTEX_POINT('',#212);
#214=CARTESIAN_POINT('',(681.052701793,85.742937326,561.666251178));
#215=DIRECTION('',(-0.,0.000223459,-0.999999975));
#216=DIRECTION('',(-0.,0.999999975,0.000223459));
#217=AXIS2_PLACEMENT_3D('',#214,#215,#216);
#218=CIRCLE('',#217,1.);
#219=EDGE_CURVE('',#205,#213,#218,.T.);
#220=ORIENTED_EDGE('',*,*,#219,.T.);
#221=CARTESIAN_POINT('',(659.052701793,84.742937351,561.666027719));
#222=VERTEX_POINT('',#221);
#223=CARTESIAN_POINT('',(681.052701793,84.742937351,561.666027719));
#224=DIRECTION('',(-1.,-0.,0.));
#225=VECTOR('',#224,22.);
#226=LINE('',#223,#225);
#227=EDGE_CURVE('',#213,#222,#226,.T.);
#228=ORIENTED_EDGE('',*,*,#227,.T.);
#229=CARTESIAN_POINT('',(659.052701793,85.742937326,561.666251178));
#230=DIRECTION('',(-0.,0.000223459,-0.999999975));
#231=DIRECTION('',(-0.,0.999999975,0.000223459));
#232=AXIS2_PLACEMENT_3D('',#229,#230,#231);
#233=CIRCLE('',#232,1.);
#234=EDGE_CURVE('',#222,#169,#233,.T.);
#235=ORIENTED_EDGE('',*,*,#234,.T.);
#236=EDGE_LOOP('',(#177,#186,#194,#203,#211,#220,#228,#235));
#237=FACE_BOUND('',#236,.T.);
#238=ORIENTED_EDGE('',*,*,#40,.F.);
#239=ORIENTED_EDGE('',*,*,#138,.F.);
#240=ORIENTED_EDGE('',*,*,#109,.F.);
#241=ORIENTED_EDGE('',*,*,#78,.F.);
#242=EDGE_LOOP('',(#238,#239,#240,#241));
#243=FACE_BOUND('',#242,.T.);
#244=ADVANCED_FACE('',(#237,#243),#167,.F.);
#245=CARTESIAN_POINT('',(658.052701793,91.952290795,563.667638765));
#246=DIRECTION('',(-1.,-0.,-0.));
#247=DIRECTION('',(0.,-1.,0.));
#248=AXIS2_PLACEMENT_3D('',#245,#246,#247);
#249=PLANE('',#248);
#250=CARTESIAN_POINT('',(658.052701793,85.742713867,562.666251153));
#251=VERTEX_POINT('',#250);
#252=CARTESIAN_POINT('',(658.052701793,85.742937326,561.666251178));
#253=DIRECTION('',(-0.,-0.000223459,0.999999975));
#254=VECTOR('',#253,1.);
#255=LINE('',#252,#254);
#256=EDGE_CURVE('',#169,#251,#255,.T.);
#257=ORIENTED_EDGE('',*,*,#256,.T.);
#258=CARTESIAN_POINT('',(658.052701793,98.162314641,562.669026426));
#259=VERTEX_POINT('',#258);
#260=CARTESIAN_POINT('',(658.052701793,85.742713867,562.666251153));
#261=DIRECTION('',(-0.,0.999999975,0.000223459));
#262=VECTOR('',#261,12.419601085);
#263=LINE('',#260,#262);
#264=EDGE_CURVE('',#251,#259,#263,.T.);
#265=ORIENTED_EDGE('',*,*,#264,.T.);
#266=CARTESIAN_POINT('',(658.052701793,98.162314641,562.669026426));
#267=DIRECTION('',(0.,0.000223459,-0.999999975));
#268=VECTOR('',#267,1.);
#269=LINE('',#266,#268);
#270=EDGE_CURVE('',#259,#171,#269,.T.);
#271=ORIENTED_EDGE('',*,*,#270,.T.);
#272=ORIENTED_EDGE('',*,*,#176,.F.);
#273=EDGE_LOOP('',(#257,#265,#271,#272));
#274=FACE_BOUND('',#273,.T.);
#275=ADVANCED_FACE('',(#274),#249,.T.);
#276=CARTESIAN_POINT('',(670.052701793,99.162091157,563.66924986));
#277=DIRECTION('',(-0.,0.999999975,0.000223459));
#278=DIRECTION('',(-0.,-0.000223459,0.999999975));
#279=AXIS2_PLACEMENT_3D('',#276,#277,#278);
#280=PLANE('',#279);
#281=CARTESIAN_POINT('',(659.052701793,99.162314616,562.669249885));
#282=VERTEX_POINT('',#281);
#283=CARTESIAN_POINT('',(659.052701793,99.162538075,561.66924991));
#284=DIRECTION('',(-0.,-0.000223459,0.999999975));
#285=VECTOR('',#284,1.);
#286=LINE('',#283,#285);
#287=EDGE_CURVE('',#179,#282,#286,.T.);
#288=ORIENTED_EDGE('',*,*,#287,.T.);
#289=CARTESIAN_POINT('',(681.052701793,99.162314616,562.669249885));
#290=VERTEX_POINT('',#289);
#291=CARTESIAN_POINT('',(659.052701793,99.162314616,562.669249885));
#292=DIRECTION('',(1.,0.,-0.));
#293=VECTOR('',#292,22.);
#294=LINE('',#291,#293);
#295=EDGE_CURVE('',#282,#290,#294,.T.);
#296=ORIENTED_EDGE('',*,*,#295,.T.);
#297=CARTESIAN_POINT('',(681.052701793,99.162314616,562.669249885));
#298=DIRECTION('',(0.,0.000223459,-0.999999975));
#299=VECTOR('',#298,1.);
#300=LINE('',#297,#299);
#301=EDGE_CURVE('',#290,#188,#300,.T.);
#302=ORIENTED_EDGE('',*,*,#301,.T.);
#303=ORIENTED_EDGE('',*,*,#193,.F.);
#304=EDGE_LOOP('',(#288,#296,#302,#303));
#305=FACE_BOUND('',#304,.T.);
#306=ADVANCED_FACE('',(#305),#280,.T.);
#307=CARTESIAN_POINT('',(682.052701793,91.952290795,563.667638765));
#308=DIRECTION('',(1.,0.,0.));
#309=DIRECTION('',(-0.,1.,0.));
#310=AXIS2_PLACEMENT_3D('',#307,#308,#309);
#311=PLANE('',#310);
#312=CARTESIAN_POINT('',(682.052701793,98.162314641,562.669026426));
#313=VERTEX_POINT('',#312);
#314=CARTESIAN_POINT('',(682.052701793,98.1625381,561.669026451));
#315=DIRECTION('',(-0.,-0.000223459,0.999999975));
#316=VECTOR('',#315,1.);
#317=LINE('',#314,#316);
#318=EDGE_CURVE('',#196,#313,#317,.T.);
#319=ORIENTED_EDGE('',*,*,#318,.T.);
#320=CARTESIAN_POINT('',(682.052701793,85.742713867,562.666251153));
#321=VERTEX_POINT('',#320);
#322=CARTESIAN_POINT('',(682.052701793,98.162314641,562.669026426));
#323=DIRECTION('',(0.,-0.999999975,-0.000223459));
#324=VECTOR('',#323,12.419601085);
#325=LINE('',#322,#324);
#326=EDGE_CURVE('',#313,#321,#325,.T.);
#327=ORIENTED_EDGE('',*,*,#326,.T.);
#328=CARTESIAN_POINT('',(682.052701793,85.742713867,562.666251153));
#329=DIRECTION('',(0.,0.000223459,-0.999999975));
#330=VECTOR('',#329,1.);
#331=LINE('',#328,#330);
#332=EDGE_CURVE('',#321,#205,#331,.T.);
#333=ORIENTED_EDGE('',*,*,#332,.T.);
#334=ORIENTED_EDGE('',*,*,#210,.F.);
#335=EDGE_LOOP('',(#319,#327,#333,#334));
#336=FACE_BOUND('',#335,.T.);
#337=ADVANCED_FACE('',(#336),#311,.T.);
#338=CARTESIAN_POINT('',(670.052701793,84.742490433,563.666027669));
#339=DIRECTION('',(0.,-0.999999975,-0.000223459));
#340=DIRECTION('',(0.,0.000223459,-0.999999975));
#341=AXIS2_PLACEMENT_3D('',#338,#339,#340);
#342=PLANE('',#341);
#343=CARTESIAN_POINT('',(681.052701793,84.742713892,562.666027694));
#344=VERTEX_POINT('',#343);
#345=CARTESIAN_POINT('',(681.052701793,84.742937351,561.666027719));
#346=DIRECTION('',(-0.,-0.000223459,0.999999975));
#347=VECTOR('',#346,1.);
#348=LINE('',#345,#347);
#349=EDGE_CURVE('',#213,#344,#348,.T.);
#350=ORIENTED_EDGE('',*,*,#349,.T.);
#351=CARTESIAN_POINT('',(659.052701793,84.742713892,562.666027694));
#352=VERTEX_POINT('',#351);
#353=CARTESIAN_POINT('',(681.052701793,84.742713892,562.666027694));
#354=DIRECTION('',(-1.,-0.,0.));
#355=VECTOR('',#354,22.);
#356=LINE('',#353,#355);
#357=EDGE_CURVE('',#344,#352,#356,.T.);
#358=ORIENTED_EDGE('',*,*,#357,.T.);
#359=CARTESIAN_POINT('',(659.052701793,84.742713892,562.666027694));
#360=DIRECTION('',(0.,0.000223459,-0.999999975));
#361=VECTOR('',#360,1.);
#362=LINE('',#359,#361);
#363=EDGE_CURVE('',#352,#222,#362,.T.);
#364=ORIENTED_EDGE('',*,*,#363,.T.);
#365=ORIENTED_EDGE('',*,*,#227,.F.);
#366=EDGE_LOOP('',(#350,#358,#364,#365));
#367=FACE_BOUND('',#366,.T.);
#368=ADVANCED_FACE('',(#367),#342,.T.);
#369=CARTESIAN_POINT('',(670.052701793,91.106570798,563.667449781));
#370=DIRECTION('',(-0.,0.000223459,-0.999999975));
#371=DIRECTION('',(-0.,0.999999975,0.000223459));
#372=AXIS2_PLACEMENT_3D('',#369,#370,#371);
#373=PLANE('',#372);
#374=CARTESIAN_POINT('',(659.052701793,98.162091182,563.669026401));
#375=VERTEX_POINT('',#374);
#376=CARTESIAN_POINT('',(659.052701793,85.742490408,563.666251128));
#377=VERTEX_POINT('',#376);
#378=CARTESIAN_POINT('',(659.052701793,98.162091182,563.669026401));
#379=DIRECTION('',(0.,-0.999999975,-0.000223459));
#380=VECTOR('',#379,12.419601085);
#381=LINE('',#378,#380);
#382=EDGE_CURVE('',#375,#377,#381,.T.);
#383=ORIENTED_EDGE('',*,*,#382,.T.);
#384=CARTESIAN_POINT('',(681.052701793,85.742490408,563.666251128));
#385=VERTEX_POINT('',#384);
#386=CARTESIAN_POINT('',(659.052701793,85.742490408,563.666251128));
#387=DIRECTION('',(1.,0.,-0.));
#388=VECTOR('',#387,22.);
#389=LINE('',#386,#388);
#390=EDGE_CURVE('',#377,#385,#389,.T.);
#391=ORIENTED_EDGE('',*,*,#390,.T.);
#392=CARTESIAN_POINT('',(681.052701793,98.162091182,563.669026401));
#393=VERTEX_POINT('',#392);
#394=CARTESIAN_POINT('',(681.052701793,85.742490408,563.666251128));
#395=DIRECTION('',(-0.,0.999999975,0.000223459));
#396=VECTOR('',#395,12.419601085);
#397=LINE('',#394,#396);
#398=EDGE_CURVE('',#385,#393,#397,.T.);
#399=ORIENTED_EDGE('',*,*,#398,.T.);
#400=CARTESIAN_POINT('',(681.052701793,98.162091182,563.669026401));
#401=DIRECTION('',(-1.,-0.,0.));
#402=VECTOR('',#401,22.);
#403=LINE('',#400,#402);
#404=EDGE_CURVE('',#393,#375,#403,.T.);
#405=ORIENTED_EDGE('',*,*,#404,.T.);
#406=EDGE_LOOP('',(#383,#391,#399,#405));
#407=FACE_BOUND('',#406,.T.);
#408=CARTESIAN_POINT('',(672.264441881,94.782248615,563.668271145));
#409=VERTEX_POINT('',#408);
#410=CARTESIAN_POINT('',(672.264441881,94.782248615,563.668271145));
#411=CARTESIAN_POINT('',(672.187443533,94.928344058,563.668303791));
#412=CARTESIAN_POINT('',(672.097393795,95.064440684,563.668334203));
#413=CARTESIAN_POINT('',(671.994828281,95.190948834,563.668362472));
#414=CARTESIAN_POINT('',(671.943545523,95.254202909,563.668376607));
#415=CARTESIAN_POINT('',(671.889111077,95.31504244,563.668390202));
#416=CARTESIAN_POINT('',(671.831451516,95.373411174,563.668403245));
#417=CARTESIAN_POINT('',(671.773791956,95.431779909,563.668416288));
#418=CARTESIAN_POINT('',(671.712692372,95.487805527,563.668428808));
#419=CARTESIAN_POINT('',(671.649655219,95.540129157,563.6684405));
#420=CARTESIAN_POINT('',(671.523580911,95.644776416,563.668463884));
#421=CARTESIAN_POINT('',(671.388713038,95.735994149,563.668484268));
#422=CARTESIAN_POINT('',(671.245126294,95.813896431,563.668501676));
#423=CARTESIAN_POINT('',(671.10153955,95.891798712,563.668519084));
#424=CARTESIAN_POINT('',(670.948151605,95.956387729,563.668533517));
#425=CARTESIAN_POINT('',(670.792376152,96.004625339,563.668544296));
#426=CARTESIAN_POINT('',(670.636600699,96.05286295,563.668555075));
#427=CARTESIAN_POINT('',(670.477026426,96.085739485,563.668562422));
#428=CARTESIAN_POINT('',(670.313562038,96.102885785,563.668566253));
#429=CARTESIAN_POINT('',(670.15009765,96.120032085,563.668570085));
#430=CARTESIAN_POINT('',(669.985173402,96.120913702,563.668570282));
#431=CARTESIAN_POINT('',(669.82306101,96.105962638,563.668566941));
#432=CARTESIAN_POINT('',(669.660948618,96.091011574,563.6685636));
#433=CARTESIAN_POINT('',(669.499242771,96.060052811,563.668556682));
#434=CARTESIAN_POINT('',(669.341537009,96.013268059,563.668546227));
#435=CARTESIAN_POINT('',(669.183831247,95.966483307,563.668535773));
#436=CARTESIAN_POINT('',(669.032930761,95.904948545,563.668522022));
#437=CARTESIAN_POINT('',(668.888654144,95.829056958,563.668505063));
#438=CARTESIAN_POINT('',(668.744377527,95.753165372,563.668488105));
#439=CARTESIAN_POINT('',(668.605433414,95.661657357,563.668467657));
#440=CARTESIAN_POINT('',(668.478455027,95.558752875,563.668444662));
#441=CARTESIAN_POINT('',(668.35147664,95.455848393,563.668421667));
#442=CARTESIAN_POINT('',(668.235589749,95.341498478,563.668396114));
#443=CARTESIAN_POINT('',(668.130855998,95.215639518,563.66836799));
#444=CARTESIAN_POINT('',(668.026122247,95.089780558,563.668339865));
#445=CARTESIAN_POINT('',(667.933043256,94.95230029,563.668309144));
#446=CARTESIAN_POINT('',(667.855342554,94.809135621,563.668277153));
#447=CARTESIAN_POINT('',(667.777641853,94.665970951,563.668245161));
#448=CARTESIAN_POINT('',(667.714053903,94.515749699,563.668211593));
#449=CARTESIAN_POINT('',(667.665127419,94.3581975,563.668176386));
#450=CARTESIAN_POINT('',(667.616200934,94.2006453,563.66814118));
#451=CARTESIAN_POINT('',(667.583437182,94.040369563,563.668105365));
#452=CARTESIAN_POINT('',(667.566404911,93.878425618,563.668069177));
#453=CARTESIAN_POINT('',(667.557888775,93.797453646,563.668051083));
#454=CARTESIAN_POINT('',(667.553314313,93.71598146,563.668032877));
#455=CARTESIAN_POINT('',(667.552759016,93.633999228,563.668014558));
#456=CARTESIAN_POINT('',(667.552203719,93.552016995,563.667996238));
#457=CARTESIAN_POINT('',(667.555736816,93.469179328,563.667977727));
#458=CARTESIAN_POINT('',(667.563266906,93.387544234,563.667959485));
#459=CARTESIAN_POINT('',(667.578327087,93.224274048,563.667923001));
#460=CARTESIAN_POINT('',(667.60913492,93.064379496,563.667887271));
#461=CARTESIAN_POINT('',(667.655473107,92.907813998,563.667852285));
#462=CARTESIAN_POINT('',(667.701811295,92.7512485,563.667817299));
#463=CARTESIAN_POINT('',(667.764543388,92.597048025,563.667782842));
#464=CARTESIAN_POINT('',(667.840552205,92.452704933,563.667750587));
#465=CARTESIAN_POINT('',(667.916561021,92.308361841,563.667718332));
#466=CARTESIAN_POINT('',(668.006096827,92.172284421,563.667687924));
#467=CARTESIAN_POINT('',(668.109431752,92.044638955,563.667659401));
#468=CARTESIAN_POINT('',(668.212766676,91.91699349,563.667630877));
#469=CARTESIAN_POINT('',(668.328897301,91.799518965,563.667604626));
#470=CARTESIAN_POINT('',(668.454083431,91.695430297,563.667581367));
#471=CARTESIAN_POINT('',(668.579269562,91.591341628,563.667558107));
#472=CARTESIAN_POINT('',(668.715224088,91.499009403,563.667537475));
#473=CARTESIAN_POINT('',(668.859922951,91.420472096,563.667519925));
#474=CARTESIAN_POINT('',(669.004621814,91.341934788,563.667502375));
#475=CARTESIAN_POINT('',(669.154869526,91.278708362,563.667488247));
#476=CARTESIAN_POINT('',(669.310500162,91.230334981,563.667477437));
#477=CARTESIAN_POINT('',(669.466130798,91.181961601,563.667466628));
#478=CARTESIAN_POINT('',(669.628994388,91.148386042,563.667459125));
#479=CARTESIAN_POINT('',(669.791625742,91.131313101,563.66745531));
#480=CARTESIAN_POINT('',(669.954257097,91.11424016,563.667451495));
#481=CARTESIAN_POINT('',(670.11705394,91.113124311,563.667451245));
#482=CARTESIAN_POINT('',(670.280016632,91.128000185,563.667454569));
#483=CARTESIAN_POINT('',(670.442979324,91.142876059,563.667457894));
#484=CARTESIAN_POINT('',(670.606149138,91.174226246,563.667464899));
#485=CARTESIAN_POINT('',(670.762374138,91.220465941,563.667475232));
#486=CARTESIAN_POINT('',(670.918599138,91.266705637,563.667485564));
#487=CARTESIAN_POINT('',(671.069755375,91.327890015,563.667499237));
#488=CARTESIAN_POINT('',(671.215663345,91.404548319,563.667516367));
#489=CARTESIAN_POINT('',(671.361571316,91.481206624,563.667533497));
#490=CARTESIAN_POINT('',(671.498423226,91.571474832,563.667553668));
#491=CARTESIAN_POINT('',(671.625020151,91.67386215,563.667576547));
#492=CARTESIAN_POINT('',(671.688318614,91.725055809,563.667587987));
#493=CARTESIAN_POINT('',(671.749170791,91.779372979,563.667600125));
#494=CARTESIAN_POINT('',(671.807529567,91.836873816,563.667612974));
#495=CARTESIAN_POINT('',(671.865888344,91.894374654,563.667625823));
#496=CARTESIAN_POINT('',(671.922001344,91.955396973,563.667639459));
#497=CARTESIAN_POINT('',(671.974481239,92.018456993,563.66765355));
#498=CARTESIAN_POINT('',(672.079441029,92.144577035,563.667681733));
#499=CARTESIAN_POINT('',(672.170813462,92.279386102,563.667711857));
#500=CARTESIAN_POINT('',(672.248814247,92.422746248,563.667743892));
#501=CARTESIAN_POINT('',(672.326815033,92.566106394,563.667775927));
#502=CARTESIAN_POINT('',(672.391621699,92.719461142,563.667810196));
#503=CARTESIAN_POINT('',(672.440066111,92.87530266,563.66784502));
#504=CARTESIAN_POINT('',(672.488510523,93.031144178,563.667879844));
#505=CARTESIAN_POINT('',(672.52150479,93.190627964,563.667915482));
#506=CARTESIAN_POINT('',(672.538794266,93.353814049,563.667951948));
#507=CARTESIAN_POINT('',(672.547439004,93.435407092,563.667970181));
#508=CARTESIAN_POINT('',(672.552086232,93.51817272,563.667988675));
#509=CARTESIAN_POINT('',(672.552643982,93.600090418,563.668006981));
#510=CARTESIAN_POINT('',(672.553201732,93.682008117,563.668025286));
#511=CARTESIAN_POINT('',(672.549734533,93.763498016,563.668043495));
#512=CARTESIAN_POINT('',(672.542326125,93.844569017,563.668061612));
#513=CARTESIAN_POINT('',(672.512692494,94.168853019,563.668134076));
#514=CARTESIAN_POINT('',(672.418438201,94.490058441,563.668205852));
#515=CARTESIAN_POINT('',(672.264441881,94.782248615,563.668271145));
#516=B_SPLINE_CURVE_WITH_KNOTS('',3,(#410,#411,#412,#413,#414,#415,#416,#417,#418,#419,#420,#421,#422,#423,#424,#425,#426,#427,#428,#429,#430,#431,#432,#433,#434,#435,
#436,#437,#438,#439,#440,#441,#442,#443,#444,#445,#446,#447,#448,#449,#450,#451,#452,#453,#454,#455,#456,#457,#458,#459,#460,
#461,#462,#463,#464,#465,#466,#467,#468,#469,#470,#471,#472,#473,#474,#475,#476,#477,#478,#479,#480,#481,#482,#483,#484,#485,
#486,#487,#488,#489,#490,#491,#492,#493,#494,#495,#496,#497,#498,#499,#500,#501,#502,#503,#504,#505,#506,#507,#508,#509,#510,
#511,#512,#513,#514,#515),.UNSPECIFIED.,.T.,.F.,(4,3,3,3,3,3,3,3,3,3,3,3,3,3,3,3,3,3,3,3,3,3,3,3,3,3,
3,3,3,3,3,3,3,3,3,4),(0.,0.000488401,0.000732601,0.000976801,0.001465202,0.001953603,0.002442003,0.002930404,0.003418804,0.003907205,0.004395606,0.004884006,0.005372407,0.005860808,0.006349208,0.006593409,0.006837609,0.007326009,0.00781441,0.008302811,0.008791211,0.009279612,0.009768013,0.010256413,0.010744814,0.011233215,
0.011721615,0.012210016,0.012454216,0.012698416,0.013186817,0.013675218,0.014163618,0.014407819,0.014652019,0.01562882),.UNSPECIFIED.);
#517=EDGE_CURVE('',#409,#409,#516,.T.);
#518=ORIENTED_EDGE('',*,*,#517,.F.);
#519=EDGE_LOOP('',(#518));
#520=FACE_BOUND('',#519,.T.);
#521=ADVANCED_FACE('',(#407,#520),#373,.F.);
#522=CARTESIAN_POINT('',(659.052701793,85.742490408,563.666251128));
#523=DIRECTION('',(0.,0.000223459,-0.999999975));
#524=DIRECTION('',(0.,0.999999975,0.000223459));
#525=AXIS2_PLACEMENT_3D('',#522,#523,#524);
#526=CYLINDRICAL_SURFACE('',#525,1.);
#527=ORIENTED_EDGE('',*,*,#363,.F.);
#528=CARTESIAN_POINT('',(659.052701793,85.742713867,562.666251153));
#529=DIRECTION('',(0.,0.000223459,-0.999999975));
#530=DIRECTION('',(0.,0.999999975,0.000223459));
#531=AXIS2_PLACEMENT_3D('',#528,#529,#530);
#532=CIRCLE('',#531,1.);
#533=EDGE_CURVE('',#352,#251,#532,.T.);
#534=ORIENTED_EDGE('',*,*,#533,.T.);
#535=ORIENTED_EDGE('',*,*,#256,.F.);
#536=ORIENTED_EDGE('',*,*,#234,.F.);
#537=EDGE_LOOP('',(#527,#534,#535,#536));
#538=FACE_BOUND('',#537,.T.);
#539=ADVANCED_FACE('',(#538),#526,.T.);
#540=CARTESIAN_POINT('',(681.052701793,85.742490408,563.666251128));
#541=DIRECTION('',(0.,0.000223459,-0.999999975));
#542=DIRECTION('',(0.,0.999999975,0.000223459));
#543=AXIS2_PLACEMENT_3D('',#540,#541,#542);
#544=CYLINDRICAL_SURFACE('',#543,1.);
#545=ORIENTED_EDGE('',*,*,#332,.F.);
#546=CARTESIAN_POINT('',(681.052701793,85.742713867,562.666251153));
#547=DIRECTION('',(0.,0.000223459,-0.999999975));
#548=DIRECTION('',(0.,0.999999975,0.000223459));
#549=AXIS2_PLACEMENT_3D('',#546,#547,#548);
#550=CIRCLE('',#549,1.);
#551=EDGE_CURVE('',#321,#344,#550,.T.);
#552=ORIENTED_EDGE('',*,*,#551,.T.);
#553=ORIENTED_EDGE('',*,*,#349,.F.);
#554=ORIENTED_EDGE('',*,*,#219,.F.);
#555=EDGE_LOOP('',(#545,#552,#553,#554));
#556=FACE_BOUND('',#555,.T.);
#557=ADVANCED_FACE('',(#556),#544,.T.);
#558=CARTESIAN_POINT('',(659.052701793,98.162091182,563.669026401));
#559=DIRECTION('',(0.,0.000223459,-0.999999975));
#560=DIRECTION('',(0.,0.999999975,0.000223459));
#561=AXIS2_PLACEMENT_3D('',#558,#559,#560);
#562=CYLINDRICAL_SURFACE('',#561,1.);
#563=ORIENTED_EDGE('',*,*,#270,.F.);
#564=CARTESIAN_POINT('',(659.052701793,98.162314641,562.669026426));
#565=DIRECTION('',(0.,0.000223459,-0.999999975));
#566=DIRECTION('',(0.,0.999999975,0.000223459));
#567=AXIS2_PLACEMENT_3D('',#564,#565,#566);
#568=CIRCLE('',#567,1.);
#569=EDGE_CURVE('',#259,#282,#568,.T.);
#570=ORIENTED_EDGE('',*,*,#569,.T.);
#571=ORIENTED_EDGE('',*,*,#287,.F.);
#572=ORIENTED_EDGE('',*,*,#185,.F.);
#573=EDGE_LOOP('',(#563,#570,#571,#572));
#574=FACE_BOUND('',#573,.T.);
#575=ADVANCED_FACE('',(#574),#562,.T.);
#576=CARTESIAN_POINT('',(681.052701793,98.162091182,563.669026401));
#577=DIRECTION('',(0.,0.000223459,-0.999999975));
#578=DIRECTION('',(0.,0.999999975,0.000223459));
#579=AXIS2_PLACEMENT_3D('',#576,#577,#578);
#580=CYLINDRICAL_SURFACE('',#579,1.);
#581=ORIENTED_EDGE('',*,*,#301,.F.);
#582=CARTESIAN_POINT('',(681.052701793,98.162314641,562.669026426));
#583=DIRECTION('',(0.,0.000223459,-0.999999975));
#584=DIRECTION('',(0.,0.999999975,0.000223459));
#585=AXIS2_PLACEMENT_3D('',#582,#583,#584);
#586=CIRCLE('',#585,1.);
#587=EDGE_CURVE('',#290,#313,#586,.T.);
#588=ORIENTED_EDGE('',*,*,#587,.T.);
#589=ORIENTED_EDGE('',*,*,#318,.F.);
#590=ORIENTED_EDGE('',*,*,#202,.F.);
#591=EDGE_LOOP('',(#581,#588,#589,#590));
#592=FACE_BOUND('',#591,.T.);
#593=ADVANCED_FACE('',(#592),#580,.T.);
#594=CARTESIAN_POINT('',(670.052701793,89.881669901,569.403428997));
#595=DIRECTION('',(0.,0.,1.));
#596=DIRECTION('',(-1.,0.,0.));
#597=AXIS2_PLACEMENT_3D('',#594,#595,#596);
#598=PLANE('',#597);
#599=CARTESIAN_POINT('',(672.264457345,89.047107053,569.403428997));
#600=VERTEX_POINT('',#599);
#601=CARTESIAN_POINT('',(667.713683606,88.764276224,569.403428997));
#602=VERTEX_POINT('',#601);
#603=CARTESIAN_POINT('',(667.713683606,88.764276224,569.403428997));
#604=CARTESIAN_POINT('',(667.771992876,88.918803151,569.403428997));
#605=CARTESIAN_POINT('',(667.844490205,89.065026473,569.403428997));
#606=CARTESIAN_POINT('',(667.93059609,89.203285347,569.403428997));
#607=CARTESIAN_POINT('',(667.973649032,89.272414783,569.403428997));
#608=CARTESIAN_POINT('',(668.020129027,89.339538527,569.403428997));
#609=CARTESIAN_POINT('',(668.070114672,89.404610579,569.403428997));
#610=CARTESIAN_POINT('',(668.120100316,89.469682631,569.403428997));
#611=CARTESIAN_POINT('',(668.17379236,89.532855058,569.403428997));
#612=CARTESIAN_POINT('',(668.229864714,89.592595085,569.403428997));
#613=CARTESIAN_POINT('',(668.342009423,89.712075141,569.403428997));
#614=CARTESIAN_POINT('',(668.464548213,89.819312673,569.403428997));
#615=CARTESIAN_POINT('',(668.597388039,89.914417274,569.403428997));
#616=CARTESIAN_POINT('',(668.730227865,90.009521874,569.403428997));
#617=CARTESIAN_POINT('',(668.874450422,90.09262503,569.403428997));
#618=CARTESIAN_POINT('',(669.02306765,90.159794905,569.403428997));
#619=CARTESIAN_POINT('',(669.171684878,90.22696478,569.403428997));
#620=CARTESIAN_POINT('',(669.325976324,90.279354294,569.403428997));
#621=CARTESIAN_POINT('',(669.4860774,90.316610721,569.403428997));
#622=CARTESIAN_POINT('',(669.646178475,90.353867148,569.403428997));
#623=CARTESIAN_POINT('',(669.809745507,90.375157648,569.403428997));
#624=CARTESIAN_POINT('',(669.972480325,90.380382473,569.403428997));
#625=CARTESIAN_POINT('',(670.135215144,90.385607298,569.403428997));
#626=CARTESIAN_POINT('',(670.299530589,90.37488888,569.403428997));
#627=CARTESIAN_POINT('',(670.461828555,90.347965766,569.403428997));
#628=CARTESIAN_POINT('',(670.62412652,90.321042652,569.403428997));
#629=CARTESIAN_POINT('',(670.781494925,90.278633741,569.403428997));
#630=CARTESIAN_POINT('',(670.934066565,90.221156199,569.403428997));
#631=CARTESIAN_POINT('',(671.086638205,90.163678658,569.403428997));
#632=CARTESIAN_POINT('',(671.235845479,90.090036069,569.403428997));
#633=CARTESIAN_POINT('',(671.374584314,90.00360925,569.403428997));
#634=CARTESIAN_POINT('',(671.513323149,89.917182431,569.403428997));
#635=CARTESIAN_POINT('',(671.642468587,89.818018985,569.403428997));
#636=CARTESIAN_POINT('',(671.761974026,89.706057041,569.403428997));
#637=CARTESIAN_POINT('',(671.881479465,89.594095097,569.403428997));
#638=CARTESIAN_POINT('',(671.990845144,89.469164615,569.403428997));
#639=CARTESIAN_POINT('',(672.085659109,89.336690366,569.403428997));
#640=CARTESIAN_POINT('',(672.180473074,89.204216117,569.403428997));
#641=CARTESIAN_POINT('',(672.262159162,89.06299241,569.403428997));
#642=CARTESIAN_POINT('',(672.330205327,88.912677977,569.403428997));
#643=CARTESIAN_POINT('',(672.398251491,88.762363544,569.403428997));
#644=CARTESIAN_POINT('',(672.450592665,88.607370585,569.403428997));
#645=CARTESIAN_POINT('',(672.487534278,88.448759638,569.403428997));
#646=CARTESIAN_POINT('',(672.506005084,88.369454165,569.403428997));
#647=CARTESIAN_POINT('',(672.520631002,88.289164867,569.403428997));
#648=CARTESIAN_POINT('',(672.531329066,88.207870514,569.403428997));
#649=CARTESIAN_POINT('',(672.542027131,88.126576162,569.403428997));
#650=CARTESIAN_POINT('',(672.548778038,88.043929646,569.403428997));
#651=CARTESIAN_POINT('',(672.551411413,87.961983256,569.403428997));
#652=CARTESIAN_POINT('',(672.556678163,87.798090477,569.403428997));
#653=CARTESIAN_POINT('',(672.545916355,87.635593535,569.403428997));
#654=CARTESIAN_POINT('',(672.519317476,87.474475755,569.403428997));
#655=CARTESIAN_POINT('',(672.492718596,87.313357975,569.403428997));
#656=CARTESIAN_POINT('',(672.449577512,87.152555156,569.403428997));
#657=CARTESIAN_POINT('',(672.392032113,86.999891213,569.403428997));
#658=CARTESIAN_POINT('',(672.334486713,86.84722727,569.403428997));
#659=CARTESIAN_POINT('',(672.262498314,86.701086666,569.403428997));
#660=CARTESIAN_POINT('',(672.175771121,86.561602998,569.403428997));
#661=CARTESIAN_POINT('',(672.089043928,86.422119331,569.403428997));
#662=CARTESIAN_POINT('',(671.988352762,86.29114563,569.403428997));
#663=CARTESIAN_POINT('',(671.877023837,86.172328192,569.403428997));
#664=CARTESIAN_POINT('',(671.765694911,86.053510753,569.403428997));
#665=CARTESIAN_POINT('',(671.642217022,85.945035204,569.403428997));
#666=CARTESIAN_POINT('',(671.508348608,85.849161021,569.403428997));
#667=CARTESIAN_POINT('',(671.374480194,85.753286838,569.403428997));
#668=CARTESIAN_POINT('',(671.233206876,85.671924601,569.403428997));
#669=CARTESIAN_POINT('',(671.084751247,85.604638078,569.403428997));
#670=CARTESIAN_POINT('',(670.936295618,85.537351556,569.403428997));
#671=CARTESIAN_POINT('',(670.778825496,85.483860269,569.403428997));
#672=CARTESIAN_POINT('',(670.619540636,85.446778995,569.403428997));
#673=CARTESIAN_POINT('',(670.460255776,85.409697721,569.403428997));
#674=CARTESIAN_POINT('',(670.298830689,85.388438208,569.403428997));
#675=CARTESIAN_POINT('',(670.135260909,85.383033475,569.403428997));
#676=CARTESIAN_POINT('',(669.971691129,85.377628741,569.403428997));
#677=CARTESIAN_POINT('',(669.805877686,85.388554256,569.403428997));
#678=CARTESIAN_POINT('',(669.645114864,85.415119092,569.403428997));
#679=CARTESIAN_POINT('',(669.484352042,85.441683928,569.403428997));
#680=CARTESIAN_POINT('',(669.326770922,85.483713011,569.403428997));
#681=CARTESIAN_POINT('',(669.172483753,85.541751911,569.403428997));
#682=CARTESIAN_POINT('',(669.018196584,85.599790811,569.403428997));
#683=CARTESIAN_POINT('',(668.871228393,85.67245712,569.403428997));
#684=CARTESIAN_POINT('',(668.732928007,85.758418348,569.403428997));
#685=CARTESIAN_POINT('',(668.663777815,85.801398962,569.403428997));
#686=CARTESIAN_POINT('',(668.596670768,85.847785873,569.403428997));
#687=CARTESIAN_POINT('',(668.53164271,85.897638836,569.403428997));
#688=CARTESIAN_POINT('',(668.466614652,85.947491799,569.403428997));
#689=CARTESIAN_POINT('',(668.403382589,86.001118155,569.403428997));
#690=CARTESIAN_POINT('',(668.343505068,86.057212021,569.403428997));
#691=CARTESIAN_POINT('',(668.223750028,86.169399753,569.403428997));
#692=CARTESIAN_POINT('',(668.116408171,86.29189832,569.403428997));
#693=CARTESIAN_POINT('',(668.021263987,86.42452871,569.403428997));
#694=CARTESIAN_POINT('',(667.926119802,86.557159099,569.403428997));
#695=CARTESIAN_POINT('',(667.842837876,86.701340946,569.403428997));
#696=CARTESIAN_POINT('',(667.775492697,86.85001165,569.403428997));
#697=CARTESIAN_POINT('',(667.708147519,86.998682353,569.403428997));
#698=CARTESIAN_POINT('',(667.655661769,87.152874627,569.403428997));
#699=CARTESIAN_POINT('',(667.618310183,87.312690559,569.403428997));
#700=CARTESIAN_POINT('',(667.59963439,87.392598526,569.403428997));
#701=CARTESIAN_POINT('',(667.584777112,87.474160207,569.403428997));
#702=CARTESIAN_POINT('',(667.574085461,87.555386156,569.403428997));
#703=CARTESIAN_POINT('',(667.563393811,87.636612106,569.403428997));
#704=CARTESIAN_POINT('',(667.556740534,87.717912394,569.403428997));
#705=CARTESIAN_POINT('',(667.554059589,87.799285805,569.403428997));
#706=CARTESIAN_POINT('',(667.543335805,88.124779451,569.403428997));
#707=CARTESIAN_POINT('',(667.597065047,88.455222321,569.403428997));
#708=CARTESIAN_POINT('',(667.713683606,88.764276224,569.403428997));
#709=B_SPLINE_CURVE_WITH_KNOTS('',3,(#603,#604,#605,#606,#607,#608,#609,#610,#611,#612,#613,#614,#615,#616,#617,#618,#619,#620,#621,#622,#623,#624,#625,#626,#627,#628,
#629,#630,#631,#632,#633,#634,#635,#636,#637,#638,#639,#640,#641,#642,#643,#644,#645,#646,#647,#648,#649,#650,#651,#652,#653,
#654,#655,#656,#657,#658,#659,#660,#661,#662,#663,#664,#665,#666,#667,#668,#669,#670,#671,#672,#673,#674,#675,#676,#677,#678,
#679,#680,#681,#682,#683,#684,#685,#686,#687,#688,#689,#690,#691,#692,#693,#694,#695,#696,#697,#698,#699,#700,#701,#702,#703,
#704,#705,#706,#707,#708),.UNSPECIFIED.,.T.,.F.,(4,3,3,3,3,3,3,3,3,3,3,3,3,3,3,3,3,3,3,3,3,3,3,3,3,3,
3,3,3,3,3,3,3,3,3,4),(0.,0.000488454,0.000732681,0.000976908,0.001465361,0.001953815,0.002442269,0.002930723,0.003419177,0.00390763,0.004396084,0.004884538,0.005372992,0.005861446,0.006349899,0.006594126,0.006838353,0.007326807,0.007815261,0.008303715,0.008792168,0.009280622,0.009769076,0.01025753,0.010745984,0.011234438,
0.011722891,0.012211345,0.012455572,0.012699799,0.013188253,0.013676707,0.01416516,0.014409387,0.014653614,0.015630522),.UNSPECIFIED.);
#710=EDGE_CURVE('',#600,#602,#709,.T.);
#711=ORIENTED_EDGE('',*,*,#710,.F.);
#712=CARTESIAN_POINT('',(667.713683606,88.764276224,569.403428997));
#713=CARTESIAN_POINT('',(667.771992876,88.918803151,569.403428997));
#714=CARTESIAN_POINT('',(667.844490205,89.065026473,569.403428997));
#715=CARTESIAN_POINT('',(667.93059609,89.203285347,569.403428997));
#716=CARTESIAN_POINT('',(667.973649032,89.272414783,569.403428997));
#717=CARTESIAN_POINT('',(668.020129027,89.339538527,569.403428997));
#718=CARTESIAN_POINT('',(668.070114672,89.404610579,569.403428997));
#719=CARTESIAN_POINT('',(668.120100316,89.469682631,569.403428997));
#720=CARTESIAN_POINT('',(668.17379236,89.532855058,569.403428997));
#721=CARTESIAN_POINT('',(668.229864714,89.592595085,569.403428997));
#722=CARTESIAN_POINT('',(668.342009423,89.712075141,569.403428997));
#723=CARTESIAN_POINT('',(668.464548213,89.819312673,569.403428997));
#724=CARTESIAN_POINT('',(668.597388039,89.914417274,569.403428997));
#725=CARTESIAN_POINT('',(668.730227865,90.009521874,569.403428997));
#726=CARTESIAN_POINT('',(668.874450422,90.09262503,569.403428997));
#727=CARTESIAN_POINT('',(669.02306765,90.159794905,569.403428997));
#728=CARTESIAN_POINT('',(669.171684878,90.22696478,569.403428997));
#729=CARTESIAN_POINT('',(669.325976324,90.279354294,569.403428997));
#730=CARTESIAN_POINT('',(669.4860774,90.316610721,569.403428997));
#731=CARTESIAN_POINT('',(669.646178475,90.353867148,569.403428997));
#732=CARTESIAN_POINT('',(669.809745507,90.375157648,569.403428997));
#733=CARTESIAN_POINT('',(669.972480325,90.380382473,569.403428997));
#734=CARTESIAN_POINT('',(670.135215144,90.385607298,569.403428997));
#735=CARTESIAN_POINT('',(670.299530589,90.37488888,569.403428997));
#736=CARTESIAN_POINT('',(670.461828555,90.347965766,569.403428997));
#737=CARTESIAN_POINT('',(670.62412652,90.321042652,569.403428997));
#738=CARTESIAN_POINT('',(670.781494925,90.278633741,569.403428997));
#739=CARTESIAN_POINT('',(670.934066565,90.221156199,569.403428997));
#740=CARTESIAN_POINT('',(671.086638205,90.163678658,569.403428997));
#741=CARTESIAN_POINT('',(671.235845479,90.090036069,569.403428997));
#742=CARTESIAN_POINT('',(671.374584314,90.00360925,569.403428997));
#743=CARTESIAN_POINT('',(671.513323149,89.917182431,569.403428997));
#744=CARTESIAN_POINT('',(671.642468587,89.818018985,569.403428997));
#745=CARTESIAN_POINT('',(671.761974026,89.706057041,569.403428997));
#746=CARTESIAN_POINT('',(671.881479465,89.594095097,569.403428997));
#747=CARTESIAN_POINT('',(671.990845144,89.469164615,569.403428997));
#748=CARTESIAN_POINT('',(672.085659109,89.336690366,569.403428997));
#749=CARTESIAN_POINT('',(672.180473074,89.204216117,569.403428997));
#750=CARTESIAN_POINT('',(672.262159162,89.06299241,569.403428997));
#751=CARTESIAN_POINT('',(672.330205327,88.912677977,569.403428997));
#752=CARTESIAN_POINT('',(672.398251491,88.762363544,569.403428997));
#753=CARTESIAN_POINT('',(672.450592665,88.607370585,569.403428997));
#754=CARTESIAN_POINT('',(672.487534278,88.448759638,569.403428997));
#755=CARTESIAN_POINT('',(672.506005084,88.369454165,569.403428997));
#756=CARTESIAN_POINT('',(672.520631002,88.289164867,569.403428997));
#757=CARTESIAN_POINT('',(672.531329066,88.207870514,569.403428997));
#758=CARTESIAN_POINT('',(672.542027131,88.126576162,569.403428997));
#759=CARTESIAN_POINT('',(672.548778038,88.043929646,569.403428997));
#760=CARTESIAN_POINT('',(672.551411413,87.961983256,569.403428997));
#761=CARTESIAN_POINT('',(672.556678163,87.798090477,569.403428997));
#762=CARTESIAN_POINT('',(672.545916355,87.635593535,569.403428997));
#763=CARTESIAN_POINT('',(672.519317476,87.474475755,569.403428997));
#764=CARTESIAN_POINT('',(672.492718596,87.313357975,569.403428997));
#765=CARTESIAN_POINT('',(672.449577512,87.152555156,569.403428997));
#766=CARTESIAN_POINT('',(672.392032113,86.999891213,569.403428997));
#767=CARTESIAN_POINT('',(672.334486713,86.84722727,569.403428997));
#768=CARTESIAN_POINT('',(672.262498314,86.701086666,569.403428997));
#769=CARTESIAN_POINT('',(672.175771121,86.561602998,569.403428997));
#770=CARTESIAN_POINT('',(672.089043928,86.422119331,569.403428997));
#771=CARTESIAN_POINT('',(671.988352762,86.29114563,569.403428997));
#772=CARTESIAN_POINT('',(671.877023837,86.172328192,569.403428997));
#773=CARTESIAN_POINT('',(671.765694911,86.053510753,569.403428997));
#774=CARTESIAN_POINT('',(671.642217022,85.945035204,569.403428997));
#775=CARTESIAN_POINT('',(671.508348608,85.849161021,569.403428997));
#776=CARTESIAN_POINT('',(671.374480194,85.753286838,569.403428997));
#777=CARTESIAN_POINT('',(671.233206876,85.671924601,569.403428997));
#778=CARTESIAN_POINT('',(671.084751247,85.604638078,569.403428997));
#779=CARTESIAN_POINT('',(670.936295618,85.537351556,569.403428997));
#780=CARTESIAN_POINT('',(670.778825496,85.483860269,569.403428997));
#781=CARTESIAN_POINT('',(670.619540636,85.446778995,569.403428997));
#782=CARTESIAN_POINT('',(670.460255776,85.409697721,569.403428997));
#783=CARTESIAN_POINT('',(670.298830689,85.388438208,569.403428997));
#784=CARTESIAN_POINT('',(670.135260909,85.383033475,569.403428997));
#785=CARTESIAN_POINT('',(669.971691129,85.377628741,569.403428997));
#786=CARTESIAN_POINT('',(669.805877686,85.388554256,569.403428997));
#787=CARTESIAN_POINT('',(669.645114864,85.415119092,569.403428997));
#788=CARTESIAN_POINT('',(669.484352042,85.441683928,569.403428997));
#789=CARTESIAN_POINT('',(669.326770922,85.483713011,569.403428997));
#790=CARTESIAN_POINT('',(669.172483753,85.541751911,569.403428997));
#791=CARTESIAN_POINT('',(669.018196584,85.599790811,569.403428997));
#792=CARTESIAN_POINT('',(668.871228393,85.67245712,569.403428997));
#793=CARTESIAN_POINT('',(668.732928007,85.758418348,569.403428997));
#794=CARTESIAN_POINT('',(668.663777815,85.801398962,569.403428997));
#795=CARTESIAN_POINT('',(668.596670768,85.847785873,569.403428997));
#796=CARTESIAN_POINT('',(668.53164271,85.897638836,569.403428997));
#797=CARTESIAN_POINT('',(668.466614652,85.947491799,569.403428997));
#798=CARTESIAN_POINT('',(668.403382589,86.001118155,569.403428997));
#799=CARTESIAN_POINT('',(668.343505068,86.057212021,569.403428997));
#800=CARTESIAN_POINT('',(668.223750028,86.169399753,569.403428997));
#801=CARTESIAN_POINT('',(668.116408171,86.29189832,569.403428997));
#802=CARTESIAN_POINT('',(668.021263987,86.42452871,569.403428997));
#803=CARTESIAN_POINT('',(667.926119802,86.557159099,569.403428997));
#804=CARTESIAN_POINT('',(667.842837876,86.701340946,569.403428997));
#805=CARTESIAN_POINT('',(667.775492697,86.85001165,569.403428997));
#806=CARTESIAN_POINT('',(667.708147519,86.998682353,569.403428997));
#807=CARTESIAN_POINT('',(667.655661769,87.152874627,569.403428997));
#808=CARTESIAN_POINT('',(667.618310183,87.312690559,569.403428997));
#809=CARTESIAN_POINT('',(667.59963439,87.392598526,569.403428997));
#810=CARTESIAN_POINT('',(667.584777112,87.474160207,569.403428997));
#811=CARTESIAN_POINT('',(667.574085461,87.555386156,569.403428997));
#812=CARTESIAN_POINT('',(667.563393811,87.636612106,569.403428997));
#813=CARTESIAN_POINT('',(667.556740534,87.717912394,569.403428997));
#814=CARTESIAN_POINT('',(667.554059589,87.799285805,569.403428997));
#815=CARTESIAN_POINT('',(667.543335805,88.124779451,569.403428997));
#816=CARTESIAN_POINT('',(667.597065047,88.455222321,569.403428997));
#817=CARTESIAN_POINT('',(667.713683606,88.764276224,569.403428997));
#818=B_SPLINE_CURVE_WITH_KNOTS('',3,(#712,#713,#714,#715,#716,#717,#718,#719,#720,#721,#722,#723,#724,#725,#726,#727,#728,#729,#730,#731,#732,#733,#734,#735,#736,#737,
#738,#739,#740,#741,#742,#743,#744,#745,#746,#747,#748,#749,#750,#751,#752,#753,#754,#755,#756,#757,#758,#759,#760,#761,#762,
#763,#764,#765,#766,#767,#768,#769,#770,#771,#772,#773,#774,#775,#776,#777,#778,#779,#780,#781,#782,#783,#784,#785,#786,#787,
#788,#789,#790,#791,#792,#793,#794,#795,#796,#797,#798,#799,#800,#801,#802,#803,#804,#805,#806,#807,#808,#809,#810,#811,#812,
#813,#814,#815,#816,#817),.UNSPECIFIED.,.T.,.F.,(4,3,3,3,3,3,3,3,3,3,3,3,3,3,3,3,3,3,3,3,3,3,3,3,3,3,
3,3,3,3,3,3,3,3,3,4),(0.,0.000488454,0.000732681,0.000976908,0.001465361,0.001953815,0.002442269,0.002930723,0.003419177,0.00390763,0.004396084,0.004884538,0.005372992,0.005861446,0.006349899,0.006594126,0.006838353,0.007326807,0.007815261,0.008303715,0.008792168,0.009280622,0.009769076,0.01025753,0.010745984,0.011234438,
0.011722891,0.012211345,0.012455572,0.012699799,0.013188253,0.013676707,0.01416516,0.014409387,0.014653614,0.015630522),.UNSPECIFIED.);
#819=EDGE_CURVE('',#602,#600,#818,.T.);
#820=ORIENTED_EDGE('',*,*,#819,.F.);
#821=EDGE_LOOP('',(#711,#820));
#822=FACE_BOUND('',#821,.T.);
#823=ADVANCED_FACE('',(#822),#598,.T.);
#824=CARTESIAN_POINT('',(672.264441881,94.7830685,563.667451259));
#825=CARTESIAN_POINT('',(672.264441881,91.047090762,567.403428997));
#826=CARTESIAN_POINT('',(672.264441881,89.047090762,569.403428997));
#827=CARTESIAN_POINT('',(674.595283602,90.359588324,563.667451259));
#828=CARTESIAN_POINT('',(674.595283602,86.623610586,567.403428997));
#829=CARTESIAN_POINT('',(674.595283602,84.623610586,569.403428997));
#830=CARTESIAN_POINT('',(670.171803426,88.028746602,563.667451259));
#831=CARTESIAN_POINT('',(670.171803426,84.292768864,567.403428997));
#832=CARTESIAN_POINT('',(670.171803426,82.292768864,569.403428997));
#833=CARTESIAN_POINT('',(667.840961705,92.452226779,563.667451259));
#834=CARTESIAN_POINT('',(667.840961705,88.716249041,567.403428997));
#835=CARTESIAN_POINT('',(667.840961705,86.716249041,569.403428997));
#836=CARTESIAN_POINT('',(665.510119983,96.875706955,563.667451259));
#837=CARTESIAN_POINT('',(665.510119983,93.139729217,567.403428997));
#838=CARTESIAN_POINT('',(665.510119983,91.139729217,569.403428997));
#839=CARTESIAN_POINT('',(669.93360016,99.206548676,563.667451259));
#840=CARTESIAN_POINT('',(669.93360016,95.470570938,567.403428997));
#841=CARTESIAN_POINT('',(669.93360016,93.470570938,569.403428997));
#842=CARTESIAN_POINT('',(672.264441881,94.7830685,563.667451259));
#843=CARTESIAN_POINT('',(672.264441881,91.047090762,567.403428997));
#844=CARTESIAN_POINT('',(672.264441881,89.047090762,569.403428997));
#845=(BOUNDED_SURFACE()
B_SPLINE_SURFACE(3,1,((#824,#825,#826),(#827,#828,#829),(#830,#831,#832),(#833,#834,#835),(#836,#837,#838),(#839,#840,#841),(#842,#843,#844)),.UNSPECIFIED.,.T.,.F.,.U.)
B_SPLINE_SURFACE_WITH_KNOTS((4,3,4),(2,1,2),(0.,0.5,1.),(0.471652961,1.,1.282842712),.UNSPECIFIED.)
GEOMETRIC_REPRESENTATION_ITEM()
RATIONAL_B_SPLINE_SURFACE(((1.,1.,1.),(0.333333333,0.333333333,0.333333333),(0.333333333,0.333333333,0.333333333),(1.,1.,1.),(0.333333333,0.333333333,0.333333333),(0.333333333,0.333333333,0.333333333),(1.,1.,1.)))
REPRESENTATION_ITEM('')
SURFACE()
);
#846=CARTESIAN_POINT('',(672.264441881,89.047090762,569.403428997));
#847=CARTESIAN_POINT('',(672.264441881,91.047090762,567.403428997));
#848=CARTESIAN_POINT('',(672.264441881,94.782248615,563.668271145));
#849=B_SPLINE_CURVE_WITH_KNOTS('',1,(#846,#847,#848),.UNSPECIFIED.,.F.,.F.,(2,1,2),(0.,0.282842712,0.811073802),.UNSPECIFIED.);
#850=EDGE_CURVE('',#600,#409,#849,.T.);
#851=ORIENTED_EDGE('',*,*,#850,.F.);
#852=ORIENTED_EDGE('',*,*,#710,.T.);
#853=ORIENTED_EDGE('',*,*,#819,.T.);
#854=ORIENTED_EDGE('',*,*,#850,.T.);
#855=ORIENTED_EDGE('',*,*,#517,.T.);
#856=EDGE_LOOP('',(#851,#852,#853,#854,#855));
#857=FACE_BOUND('',#856,.T.);
#858=ADVANCED_FACE('',(#857),#845,.F.);
#859=CARTESIAN_POINT('',(681.052701793,98.162314641,562.669026426));
#860=DIRECTION('',(-0.,0.000223459,-0.999999975));
#861=DIRECTION('',(-0.,0.999999975,0.000223459));
#862=AXIS2_PLACEMENT_3D('',#859,#860,#861);
#863=SPHERICAL_SURFACE('',#862,1.);
#864=CARTESIAN_POINT('',(681.052701793,98.162314641,562.669026426));
#865=DIRECTION('',(0.,-0.999999975,-0.000223459));
#866=DIRECTION('',(0.,0.000223459,-0.999999975));
#867=AXIS2_PLACEMENT_3D('',#864,#865,#866);
#868=CIRCLE('',#867,1.);
#869=EDGE_CURVE('',#313,#393,#868,.T.);
#870=ORIENTED_EDGE('',*,*,#869,.F.);
#871=ORIENTED_EDGE('',*,*,#587,.F.);
#872=CARTESIAN_POINT('',(681.052701793,98.162314641,562.669026426));
#873=DIRECTION('',(-1.,-0.,-0.));
#874=DIRECTION('',(0.,-1.,0.));
#875=AXIS2_PLACEMENT_3D('',#872,#873,#874);
#876=CIRCLE('',#875,1.);
#877=EDGE_CURVE('',#393,#290,#876,.T.);
#878=ORIENTED_EDGE('',*,*,#877,.F.);
#879=EDGE_LOOP('',(#870,#871,#878));
#880=FACE_BOUND('',#879,.T.);
#881=ADVANCED_FACE('',(#880),#863,.T.);
#882=CARTESIAN_POINT('',(670.052701793,98.162314641,562.669026426));
#883=DIRECTION('',(-1.,-0.,0.));
#884=DIRECTION('',(0.,-1.,0.));
#885=AXIS2_PLACEMENT_3D('',#882,#883,#884);
#886=CYLINDRICAL_SURFACE('',#885,1.);
#887=ORIENTED_EDGE('',*,*,#877,.T.);
#888=ORIENTED_EDGE('',*,*,#295,.F.);
#889=CARTESIAN_POINT('',(659.052701793,98.162314641,562.669026426));
#890=DIRECTION('',(-1.,-0.,-0.));
#891=DIRECTION('',(0.,-1.,0.));
#892=AXIS2_PLACEMENT_3D('',#889,#890,#891);
#893=CIRCLE('',#892,1.);
#894=EDGE_CURVE('',#375,#282,#893,.T.);
#895=ORIENTED_EDGE('',*,*,#894,.F.);
#896=ORIENTED_EDGE('',*,*,#404,.F.);
#897=EDGE_LOOP('',(#887,#888,#895,#896));
#898=FACE_BOUND('',#897,.T.);
#899=ADVANCED_FACE('',(#898),#886,.T.);
#900=CARTESIAN_POINT('',(681.052701793,91.952514254,562.66763879));
#901=DIRECTION('',(-0.,0.999999975,0.000223459));
#902=DIRECTION('',(0.,-0.000223459,0.999999975));
#903=AXIS2_PLACEMENT_3D('',#900,#901,#902);
#904=CYLINDRICAL_SURFACE('',#903,1.);
#905=ORIENTED_EDGE('',*,*,#869,.T.);
#906=ORIENTED_EDGE('',*,*,#398,.F.);
#907=CARTESIAN_POINT('',(681.052701793,85.742713867,562.666251153));
#908=DIRECTION('',(0.,-0.999999975,-0.000223459));
#909=DIRECTION('',(0.,0.000223459,-0.999999975));
#910=AXIS2_PLACEMENT_3D('',#907,#908,#909);
#911=CIRCLE('',#910,1.);
#912=EDGE_CURVE('',#321,#385,#911,.T.);
#913=ORIENTED_EDGE('',*,*,#912,.F.);
#914=ORIENTED_EDGE('',*,*,#326,.F.);
#915=EDGE_LOOP('',(#905,#906,#913,#914));
#916=FACE_BOUND('',#915,.T.);
#917=ADVANCED_FACE('',(#916),#904,.T.);
#918=CARTESIAN_POINT('',(659.052701793,98.162314641,562.669026426));
#919=DIRECTION('',(-0.,0.000223459,-0.999999975));
#920=DIRECTION('',(-0.,0.999999975,0.000223459));
#921=AXIS2_PLACEMENT_3D('',#918,#919,#920);
#922=SPHERICAL_SURFACE('',#921,1.);
#923=ORIENTED_EDGE('',*,*,#894,.T.);
#924=ORIENTED_EDGE('',*,*,#569,.F.);
#925=CARTESIAN_POINT('',(659.052701793,98.162314641,562.669026426));
#926=DIRECTION('',(0.,-0.999999975,-0.000223459));
#927=DIRECTION('',(0.,0.000223459,-0.999999975));
#928=AXIS2_PLACEMENT_3D('',#925,#926,#927);
#929=CIRCLE('',#928,1.);
#930=EDGE_CURVE('',#375,#259,#929,.T.);
#931=ORIENTED_EDGE('',*,*,#930,.F.);
#932=EDGE_LOOP('',(#923,#924,#931));
#933=FACE_BOUND('',#932,.T.);
#934=ADVANCED_FACE('',(#933),#922,.T.);
#935=CARTESIAN_POINT('',(681.052701793,85.742713867,562.666251153));
#936=DIRECTION('',(-0.,0.000223459,-0.999999975));
#937=DIRECTION('',(-0.,0.999999975,0.000223459));
#938=AXIS2_PLACEMENT_3D('',#935,#936,#937);
#939=SPHERICAL_SURFACE('',#938,1.);
#940=ORIENTED_EDGE('',*,*,#551,.F.);
#941=ORIENTED_EDGE('',*,*,#912,.T.);
#942=CARTESIAN_POINT('',(681.052701793,85.742713867,562.666251153));
#943=DIRECTION('',(-1.,-0.,-0.));
#944=DIRECTION('',(0.,-1.,0.));
#945=AXIS2_PLACEMENT_3D('',#942,#943,#944);
#946=CIRCLE('',#945,1.);
#947=EDGE_CURVE('',#344,#385,#946,.T.);
#948=ORIENTED_EDGE('',*,*,#947,.F.);
#949=EDGE_LOOP('',(#940,#941,#948));
#950=FACE_BOUND('',#949,.T.);
#951=ADVANCED_FACE('',(#950),#939,.T.);
#952=CARTESIAN_POINT('',(659.052701793,91.952514254,562.66763879));
#953=DIRECTION('',(0.,-0.999999975,-0.000223459));
#954=DIRECTION('',(-0.,0.000223459,-0.999999975));
#955=AXIS2_PLACEMENT_3D('',#952,#953,#954);
#956=CYLINDRICAL_SURFACE('',#955,1.);
#957=ORIENTED_EDGE('',*,*,#930,.T.);
#958=ORIENTED_EDGE('',*,*,#264,.F.);
#959=CARTESIAN_POINT('',(659.052701793,85.742713867,562.666251153));
#960=DIRECTION('',(0.,-0.999999975,-0.000223459));
#961=DIRECTION('',(-0.,0.000223459,-0.999999975));
#962=AXIS2_PLACEMENT_3D('',#959,#960,#961);
#963=CIRCLE('',#962,1.);
#964=EDGE_CURVE('',#377,#251,#963,.T.);
#965=ORIENTED_EDGE('',*,*,#964,.F.);
#966=ORIENTED_EDGE('',*,*,#382,.F.);
#967=EDGE_LOOP('',(#957,#958,#965,#966));
#968=FACE_BOUND('',#967,.T.);
#969=ADVANCED_FACE('',(#968),#956,.T.);
#970=CARTESIAN_POINT('',(670.052701793,85.742713867,562.666251153));
#971=DIRECTION('',(1.,0.,-0.));
#972=DIRECTION('',(-0.,1.,0.));
#973=AXIS2_PLACEMENT_3D('',#970,#971,#972);
#974=CYLINDRICAL_SURFACE('',#973,1.);
#975=ORIENTED_EDGE('',*,*,#947,.T.);
#976=ORIENTED_EDGE('',*,*,#390,.F.);
#977=CARTESIAN_POINT('',(659.052701793,85.742713867,562.666251153));
#978=DIRECTION('',(-1.,-0.,-0.));
#979=DIRECTION('',(0.,-1.,0.));
#980=AXIS2_PLACEMENT_3D('',#977,#978,#979);
#981=CIRCLE('',#980,1.);
#982=EDGE_CURVE('',#352,#377,#981,.T.);
#983=ORIENTED_EDGE('',*,*,#982,.F.);
#984=ORIENTED_EDGE('',*,*,#357,.F.);
#985=EDGE_LOOP('',(#975,#976,#983,#984));
#986=FACE_BOUND('',#985,.T.);
#987=ADVANCED_FACE('',(#986),#974,.T.);
#988=CARTESIAN_POINT('',(659.052701793,85.742713867,562.666251153));
#989=DIRECTION('',(-0.,0.000223459,-0.999999975));
#990=DIRECTION('',(-0.,0.999999975,0.000223459));
#991=AXIS2_PLACEMENT_3D('',#988,#989,#990);
#992=SPHERICAL_SURFACE('',#991,1.);
#993=ORIENTED_EDGE('',*,*,#964,.T.);
#994=ORIENTED_EDGE('',*,*,#533,.F.);
#995=ORIENTED_EDGE('',*,*,#982,.T.);
#996=EDGE_LOOP('',(#993,#994,#995));
#997=FACE_BOUND('',#996,.T.);
#998=ADVANCED_FACE('',(#997),#992,.T.);
#999=CLOSED_SHELL('',(#66,#97,#128,#150,#162,#244,#275,#306,#337,#368,#521,#539,#557,#575,#593,#823,#858,#881,#899,#917,#934,#951,#969,#987,#998));
#1000=MANIFOLD_SOLID_BREP('Nail-v1 (no-diff)',#999);
#26=STYLED_ITEM('',(),#1000);
#16=SHAPE_REPRESENTATION('Nail-v1 (no-diff)',(#15),#10);
#17=ADVANCED_BREP_SHAPE_REPRESENTATION('Nail-v1 (no-diff)',(#1000),#10);
#1008=SHAPE_REPRESENTATION_RELATIONSHIP('','',#16,#17);
#1009=APPLICATION_CONTEXT('configuration controlled 3D design of mechanical parts and assemblies');
#1010=APPLICATION_PROTOCOL_DEFINITION('international standard','configuration_control_3d_design_ed2_mim',2004,#1009);
#1011=PRODUCT_CONTEXT('',#1009,'mechanical');
#1012=PRODUCT_DEFINITION_CONTEXT('part definition',#1009,'design');
#24=PRODUCT('Nail-v1 (no-diff)','Nail-v1 (no-diff)','',(#1011));
#1013=PRODUCT_RELATED_PRODUCT_CATEGORY('part','',(#24));
#1014=PRODUCT_DEFINITION_FORMATION_WITH_SPECIFIED_SOURCE('','',#24,.NOT_KNOWN.);
#25=PRODUCT_DEFINITION('design','',#1014,#1012);
#23=PRODUCT_DEFINITION_SHAPE('','',#25);
#1015=SHAPE_DEFINITION_REPRESENTATION(#23,#16);
#11=DRAUGHTING_MODEL('',(),#10);
#1=MECHANICAL_DESIGN_GEOMETRIC_PRESENTATION_REPRESENTATION('',(#26),#10);
ENDSEC;
END-ISO-10303-21;
