ISO-10303-21;
HEADER;

/* File generated by HOOPS Exchange Version 23.2.20 */

FILE_DESCRIPTION(('HOOPS Exchange Step'),'2;1');

FILE_NAME('C:\\Users\\nguye\\Projects\\3D-Model-Collection\\077-VA-phone-hanger\\dist\\right-nail-x3-v2.stp',
'2024-09-24T11:00:00+07:00',
('nguye'),
('Unknown organisation'),
'HOOPS Exchange 2023.2',
'HOOPS Exchange',
'Unknown authorisation');

FILE_SCHEMA( ('AP203_CONFIGURATION_CONTROLLED_3D_DESIGN_OF_MECHANICAL_PARTS_AND_ASSEMBLIES_MIM_LF') );

ENDSEC;

DATA;
#3=(NAMED_UNIT(*)PLANE_ANGLE_UNIT()SI_UNIT($,.RADIAN.));
#4=PLANE_ANGLE_MEASURE_WITH_UNIT(PLANE_ANGLE_MEASURE(0.0174532925),#3);
#5=(CONVERSION_BASED_UNIT('DEGREE',#4)NAMED_UNIT(#6)PLANE_ANGLE_UNIT());
#6=DIMENSIONAL_EXPONENTS(0.,0.,0.,0.,0.,0.,0.);
#7=(NAMED_UNIT(*)SI_UNIT($,.STERADIAN.)SOLID_ANGLE_UNIT());
#8=(LENGTH_UNIT()NAMED_UNIT(*)SI_UNIT(.MILLI.,.METRE.));
#9=UNCERTAINTY_MEASURE_WITH_UNIT(LENGTH_MEASURE(1.000000E-05),#8,'DISTANCE_ACCURACY_VALUE','Maximum Tolerance applied to model');
#10=(GEOMETRIC_REPRESENTATION_CONTEXT(3)GLOBAL_UNCERTAINTY_ASSIGNED_CONTEXT((#9))GLOBAL_UNIT_ASSIGNED_CONTEXT((#8,#5,#7))REPRESENTATION_CONTEXT('','Right-w-nail-x3-v2'));
#12=CARTESIAN_POINT('',(0.,0.,0.));
#13=DIRECTION('',(0.,0.,1.));
#14=DIRECTION('',(1.,0.,0.));
#15=AXIS2_PLACEMENT_3D('',#12,#13,#14);
#27=CARTESIAN_POINT('',(691.,345.734859999,587.));
#28=DIRECTION('',(-1.,0.,0.));
#29=DIRECTION('',(0.,0.,1.));
#30=AXIS2_PLACEMENT_3D('',#27,#28,#29);
#31=PLANE('',#30);
#32=CARTESIAN_POINT('',(691.,153.615671207,580.760017427));
#33=VERTEX_POINT('',#32);
#34=CARTESIAN_POINT('',(691.,153.615671207,583.854017427));
#35=VERTEX_POINT('',#34);
#36=CARTESIAN_POINT('',(691.,153.615671207,582.307017427));
#37=DIRECTION('',(1.,-0.,-0.));
#38=DIRECTION('',(0.,0.,1.));
#39=AXIS2_PLACEMENT_3D('',#36,#37,#38);
#40=CIRCLE('',#39,1.547);
#41=EDGE_CURVE('',#33,#35,#40,.T.);
#42=ORIENTED_EDGE('',*,*,#41,.F.);
#43=CARTESIAN_POINT('',(691.,153.615671207,582.307017427));
#44=DIRECTION('',(1.,-0.,-0.));
#45=DIRECTION('',(0.,0.,1.));
#46=AXIS2_PLACEMENT_3D('',#43,#44,#45);
#47=CIRCLE('',#46,1.547);
#48=EDGE_CURVE('',#35,#33,#47,.T.);
#49=ORIENTED_EDGE('',*,*,#48,.F.);
#50=EDGE_LOOP('',(#42,#49));
#51=FACE_BOUND('',#50,.T.);
#52=ADVANCED_FACE('',(#51),#31,.T.);
#53=CARTESIAN_POINT('',(691.953,153.615671207,582.307017427));
#54=DIRECTION('',(1.,0.,0.));
#55=DIRECTION('',(0.,0.,-1.));
#56=AXIS2_PLACEMENT_3D('',#53,#54,#55);
#57=CONICAL_SURFACE('',#56,2.5,45.);
#58=CARTESIAN_POINT('',(691.903,153.615671207,579.857017427));
#59=VERTEX_POINT('',#58);
#60=CARTESIAN_POINT('',(691.903,153.615671207,579.857017427));
#61=DIRECTION('',(-0.707106781,-0.,0.707106781));
#62=VECTOR('',#61,1.277034847);
#63=LINE('',#60,#62);
#64=EDGE_CURVE('',#59,#33,#63,.T.);
#65=ORIENTED_EDGE('',*,*,#64,.T.);
#66=ORIENTED_EDGE('',*,*,#41,.T.);
#67=ORIENTED_EDGE('',*,*,#48,.T.);
#68=ORIENTED_EDGE('',*,*,#64,.F.);
#69=CARTESIAN_POINT('',(691.903,153.615671207,584.757017427));
#70=VERTEX_POINT('',#69);
#71=CARTESIAN_POINT('',(691.903,153.615671207,582.307017427));
#72=DIRECTION('',(1.,0.,0.));
#73=DIRECTION('',(0.,0.,-1.));
#74=AXIS2_PLACEMENT_3D('',#71,#72,#73);
#75=CIRCLE('',#74,2.45);
#76=EDGE_CURVE('',#70,#59,#75,.T.);
#77=ORIENTED_EDGE('',*,*,#76,.F.);
#78=CARTESIAN_POINT('',(691.903,153.615671207,582.307017427));
#79=DIRECTION('',(1.,0.,0.));
#80=DIRECTION('',(0.,0.,-1.));
#81=AXIS2_PLACEMENT_3D('',#78,#79,#80);
#82=CIRCLE('',#81,2.45);
#83=EDGE_CURVE('',#59,#70,#82,.T.);
#84=ORIENTED_EDGE('',*,*,#83,.F.);
#85=EDGE_LOOP('',(#65,#66,#67,#68,#77,#84));
#86=FACE_BOUND('',#85,.T.);
#87=ADVANCED_FACE('',(#86),#57,.T.);
#88=CARTESIAN_POINT('',(699.953,153.615671207,582.307017427));
#89=DIRECTION('',(-1.,0.,0.));
#90=DIRECTION('',(0.,0.,1.));
#91=AXIS2_PLACEMENT_3D('',#88,#89,#90);
#92=CYLINDRICAL_SURFACE('',#91,2.45);
#93=CARTESIAN_POINT('',(694.953,153.615671207,584.757017427));
#94=VERTEX_POINT('',#93);
#95=CARTESIAN_POINT('',(691.903,153.615671207,584.757017427));
#96=DIRECTION('',(1.,-0.,-0.));
#97=VECTOR('',#96,3.05);
#98=LINE('',#95,#97);
#99=EDGE_CURVE('',#70,#94,#98,.T.);
#100=ORIENTED_EDGE('',*,*,#99,.T.);
#101=CARTESIAN_POINT('',(694.953,153.615671207,582.307017427));
#102=DIRECTION('',(-1.,0.,0.));
#103=DIRECTION('',(0.,0.,1.));
#104=AXIS2_PLACEMENT_3D('',#101,#102,#103);
#105=CIRCLE('',#104,2.45);
#106=EDGE_CURVE('',#94,#94,#105,.T.);
#107=ORIENTED_EDGE('',*,*,#106,.T.);
#108=ORIENTED_EDGE('',*,*,#99,.F.);
#109=ORIENTED_EDGE('',*,*,#76,.T.);
#110=ORIENTED_EDGE('',*,*,#83,.T.);
#111=EDGE_LOOP('',(#100,#107,#108,#109,#110));
#112=FACE_BOUND('',#111,.T.);
#113=ADVANCED_FACE('',(#112),#92,.T.);
#114=CARTESIAN_POINT('',(691.,345.734859999,587.));
#115=DIRECTION('',(-1.,0.,0.));
#116=DIRECTION('',(0.,0.,1.));
#117=AXIS2_PLACEMENT_3D('',#114,#115,#116);
#118=PLANE('',#117);
#119=CARTESIAN_POINT('',(691.,131.739025991,542.868556414));
#120=VERTEX_POINT('',#119);
#121=CARTESIAN_POINT('',(691.,131.739025991,545.962556414));
#122=VERTEX_POINT('',#121);
#123=CARTESIAN_POINT('',(691.,131.739025991,544.415556414));
#124=DIRECTION('',(1.,-0.,-0.));
#125=DIRECTION('',(0.,0.,1.));
#126=AXIS2_PLACEMENT_3D('',#123,#124,#125);
#127=CIRCLE('',#126,1.547);
#128=EDGE_CURVE('',#120,#122,#127,.T.);
#129=ORIENTED_EDGE('',*,*,#128,.F.);
#130=CARTESIAN_POINT('',(691.,131.739025991,544.415556414));
#131=DIRECTION('',(1.,-0.,-0.));
#132=DIRECTION('',(0.,0.,1.));
#133=AXIS2_PLACEMENT_3D('',#130,#131,#132);
#134=CIRCLE('',#133,1.547);
#135=EDGE_CURVE('',#122,#120,#134,.T.);
#136=ORIENTED_EDGE('',*,*,#135,.F.);
#137=EDGE_LOOP('',(#129,#136));
#138=FACE_BOUND('',#137,.T.);
#139=ADVANCED_FACE('',(#138),#118,.T.);
#140=CARTESIAN_POINT('',(691.953,131.739025991,544.415556414));
#141=DIRECTION('',(1.,0.,0.));
#142=DIRECTION('',(0.,0.,-1.));
#143=AXIS2_PLACEMENT_3D('',#140,#141,#142);
#144=CONICAL_SURFACE('',#143,2.5,45.);
#145=CARTESIAN_POINT('',(691.903,131.739025991,541.965556414));
#146=VERTEX_POINT('',#145);
#147=CARTESIAN_POINT('',(691.903,131.739025991,541.965556414));
#148=DIRECTION('',(-0.707106781,-0.,0.707106781));
#149=VECTOR('',#148,1.277034847);
#150=LINE('',#147,#149);
#151=EDGE_CURVE('',#146,#120,#150,.T.);
#152=ORIENTED_EDGE('',*,*,#151,.T.);
#153=ORIENTED_EDGE('',*,*,#128,.T.);
#154=ORIENTED_EDGE('',*,*,#135,.T.);
#155=ORIENTED_EDGE('',*,*,#151,.F.);
#156=CARTESIAN_POINT('',(691.903,131.739025991,546.865556414));
#157=VERTEX_POINT('',#156);
#158=CARTESIAN_POINT('',(691.903,131.739025991,544.415556414));
#159=DIRECTION('',(1.,0.,0.));
#160=DIRECTION('',(0.,0.,-1.));
#161=AXIS2_PLACEMENT_3D('',#158,#159,#160);
#162=CIRCLE('',#161,2.45);
#163=EDGE_CURVE('',#157,#146,#162,.T.);
#164=ORIENTED_EDGE('',*,*,#163,.F.);
#165=CARTESIAN_POINT('',(691.903,131.739025991,544.415556414));
#166=DIRECTION('',(1.,0.,0.));
#167=DIRECTION('',(0.,0.,-1.));
#168=AXIS2_PLACEMENT_3D('',#165,#166,#167);
#169=CIRCLE('',#168,2.45);
#170=EDGE_CURVE('',#146,#157,#169,.T.);
#171=ORIENTED_EDGE('',*,*,#170,.F.);
#172=EDGE_LOOP('',(#152,#153,#154,#155,#164,#171));
#173=FACE_BOUND('',#172,.T.);
#174=ADVANCED_FACE('',(#173),#144,.T.);
#175=CARTESIAN_POINT('',(699.953,131.739025991,544.415556414));
#176=DIRECTION('',(-1.,0.,0.));
#177=DIRECTION('',(0.,0.,1.));
#178=AXIS2_PLACEMENT_3D('',#175,#176,#177);
#179=CYLINDRICAL_SURFACE('',#178,2.45);
#180=CARTESIAN_POINT('',(694.953,131.739025991,546.865556414));
#181=VERTEX_POINT('',#180);
#182=CARTESIAN_POINT('',(691.903,131.739025991,546.865556414));
#183=DIRECTION('',(1.,-0.,-0.));
#184=VECTOR('',#183,3.05);
#185=LINE('',#182,#184);
#186=EDGE_CURVE('',#157,#181,#185,.T.);
#187=ORIENTED_EDGE('',*,*,#186,.T.);
#188=CARTESIAN_POINT('',(694.953,131.739025991,544.415556414));
#189=DIRECTION('',(-1.,0.,0.));
#190=DIRECTION('',(0.,0.,1.));
#191=AXIS2_PLACEMENT_3D('',#188,#189,#190);
#192=CIRCLE('',#191,2.45);
#193=EDGE_CURVE('',#181,#181,#192,.T.);
#194=ORIENTED_EDGE('',*,*,#193,.T.);
#195=ORIENTED_EDGE('',*,*,#186,.F.);
#196=ORIENTED_EDGE('',*,*,#163,.T.);
#197=ORIENTED_EDGE('',*,*,#170,.T.);
#198=EDGE_LOOP('',(#187,#194,#195,#196,#197));
#199=FACE_BOUND('',#198,.T.);
#200=ADVANCED_FACE('',(#199),#179,.T.);
#201=CARTESIAN_POINT('',(691.,345.734859999,587.));
#202=DIRECTION('',(-1.,0.,0.));
#203=DIRECTION('',(0.,0.,1.));
#204=AXIS2_PLACEMENT_3D('',#201,#202,#203);
#205=PLANE('',#204);
#206=CARTESIAN_POINT('',(691.,109.862380774,580.760017427));
#207=VERTEX_POINT('',#206);
#208=CARTESIAN_POINT('',(691.,109.862380774,583.854017427));
#209=VERTEX_POINT('',#208);
#210=CARTESIAN_POINT('',(691.,109.862380774,582.307017427));
#211=DIRECTION('',(1.,-0.,-0.));
#212=DIRECTION('',(0.,0.,1.));
#213=AXIS2_PLACEMENT_3D('',#210,#211,#212);
#214=CIRCLE('',#213,1.547);
#215=EDGE_CURVE('',#207,#209,#214,.T.);
#216=ORIENTED_EDGE('',*,*,#215,.F.);
#217=CARTESIAN_POINT('',(691.,109.862380774,582.307017427));
#218=DIRECTION('',(1.,-0.,-0.));
#219=DIRECTION('',(0.,0.,1.));
#220=AXIS2_PLACEMENT_3D('',#217,#218,#219);
#221=CIRCLE('',#220,1.547);
#222=EDGE_CURVE('',#209,#207,#221,.T.);
#223=ORIENTED_EDGE('',*,*,#222,.F.);
#224=EDGE_LOOP('',(#216,#223));
#225=FACE_BOUND('',#224,.T.);
#226=ADVANCED_FACE('',(#225),#205,.T.);
#227=CARTESIAN_POINT('',(691.953,109.862380774,582.307017427));
#228=DIRECTION('',(1.,0.,0.));
#229=DIRECTION('',(0.,0.,-1.));
#230=AXIS2_PLACEMENT_3D('',#227,#228,#229);
#231=CONICAL_SURFACE('',#230,2.5,45.);
#232=CARTESIAN_POINT('',(691.903,109.862380774,579.857017427));
#233=VERTEX_POINT('',#232);
#234=CARTESIAN_POINT('',(691.903,109.862380774,579.857017427));
#235=DIRECTION('',(-0.707106781,-0.,0.707106781));
#236=VECTOR('',#235,1.277034847);
#237=LINE('',#234,#236);
#238=EDGE_CURVE('',#233,#207,#237,.T.);
#239=ORIENTED_EDGE('',*,*,#238,.T.);
#240=ORIENTED_EDGE('',*,*,#215,.T.);
#241=ORIENTED_EDGE('',*,*,#222,.T.);
#242=ORIENTED_EDGE('',*,*,#238,.F.);
#243=CARTESIAN_POINT('',(691.903,109.862380774,584.757017427));
#244=VERTEX_POINT('',#243);
#245=CARTESIAN_POINT('',(691.903,109.862380774,582.307017427));
#246=DIRECTION('',(1.,0.,0.));
#247=DIRECTION('',(0.,0.,-1.));
#248=AXIS2_PLACEMENT_3D('',#245,#246,#247);
#249=CIRCLE('',#248,2.45);
#250=EDGE_CURVE('',#244,#233,#249,.T.);
#251=ORIENTED_EDGE('',*,*,#250,.F.);
#252=CARTESIAN_POINT('',(691.903,109.862380774,582.307017427));
#253=DIRECTION('',(1.,0.,0.));
#254=DIRECTION('',(0.,0.,-1.));
#255=AXIS2_PLACEMENT_3D('',#252,#253,#254);
#256=CIRCLE('',#255,2.45);
#257=EDGE_CURVE('',#233,#244,#256,.T.);
#258=ORIENTED_EDGE('',*,*,#257,.F.);
#259=EDGE_LOOP('',(#239,#240,#241,#242,#251,#258));
#260=FACE_BOUND('',#259,.T.);
#261=ADVANCED_FACE('',(#260),#231,.T.);
#262=CARTESIAN_POINT('',(699.953,109.862380774,582.307017427));
#263=DIRECTION('',(-1.,0.,0.));
#264=DIRECTION('',(0.,0.,1.));
#265=AXIS2_PLACEMENT_3D('',#262,#263,#264);
#266=CYLINDRICAL_SURFACE('',#265,2.45);
#267=CARTESIAN_POINT('',(694.953,109.862380774,584.757017427));
#268=VERTEX_POINT('',#267);
#269=CARTESIAN_POINT('',(691.903,109.862380774,584.757017427));
#270=DIRECTION('',(1.,-0.,-0.));
#271=VECTOR('',#270,3.05);
#272=LINE('',#269,#271);
#273=EDGE_CURVE('',#244,#268,#272,.T.);
#274=ORIENTED_EDGE('',*,*,#273,.T.);
#275=CARTESIAN_POINT('',(694.953,109.862380774,582.307017427));
#276=DIRECTION('',(-1.,0.,0.));
#277=DIRECTION('',(0.,0.,1.));
#278=AXIS2_PLACEMENT_3D('',#275,#276,#277);
#279=CIRCLE('',#278,2.45);
#280=EDGE_CURVE('',#268,#268,#279,.T.);
#281=ORIENTED_EDGE('',*,*,#280,.T.);
#282=ORIENTED_EDGE('',*,*,#273,.F.);
#283=ORIENTED_EDGE('',*,*,#250,.T.);
#284=ORIENTED_EDGE('',*,*,#257,.T.);
#285=EDGE_LOOP('',(#274,#281,#282,#283,#284));
#286=FACE_BOUND('',#285,.T.);
#287=ADVANCED_FACE('',(#286),#266,.T.);
#288=CARTESIAN_POINT('',(694.953,397.139666532,649.676530423));
#289=DIRECTION('',(-1.,0.,0.));
#290=DIRECTION('',(0.,0.,1.));
#291=AXIS2_PLACEMENT_3D('',#288,#289,#290);
#292=PLANE('',#291);
#293=CARTESIAN_POINT('',(694.953,180.739025991,594.676530423));
#294=VERTEX_POINT('',#293);
#295=CARTESIAN_POINT('',(694.953,164.530587967,594.676530423));
#296=VERTEX_POINT('',#295);
#297=CARTESIAN_POINT('',(694.953,180.739025991,594.676530423));
#298=DIRECTION('',(-0.,-1.,-0.));
#299=VECTOR('',#298,16.208438024);
#300=LINE('',#297,#299);
#301=EDGE_CURVE('',#294,#296,#300,.T.);
#302=ORIENTED_EDGE('',*,*,#301,.T.);
#303=CARTESIAN_POINT('',(694.953,164.530587967,599.676530423));
#304=VERTEX_POINT('',#303);
#305=CARTESIAN_POINT('',(694.953,164.530587967,594.676530423));
#306=DIRECTION('',(0.,0.,1.));
#307=VECTOR('',#306,5.);
#308=LINE('',#305,#307);
#309=EDGE_CURVE('',#296,#304,#308,.T.);
#310=ORIENTED_EDGE('',*,*,#309,.T.);
#311=CARTESIAN_POINT('',(694.953,180.739025991,599.676530423));
#312=VERTEX_POINT('',#311);
#313=CARTESIAN_POINT('',(694.953,180.739025991,599.676530423));
#314=DIRECTION('',(0.,-1.,0.));
#315=VECTOR('',#314,16.208438024);
#316=LINE('',#313,#315);
#317=EDGE_CURVE('',#312,#304,#316,.T.);
#318=ORIENTED_EDGE('',*,*,#317,.F.);
#319=CARTESIAN_POINT('',(694.953,181.739025991,598.676530423));
#320=VERTEX_POINT('',#319);
#321=CARTESIAN_POINT('',(694.953,180.739025991,598.676530423));
#322=DIRECTION('',(-1.,0.,0.));
#323=DIRECTION('',(0.,0.,1.));
#324=AXIS2_PLACEMENT_3D('',#321,#322,#323);
#325=CIRCLE('',#324,1.);
#326=EDGE_CURVE('',#312,#320,#325,.T.);
#327=ORIENTED_EDGE('',*,*,#326,.T.);
#328=CARTESIAN_POINT('',(694.953,181.739025991,595.676530423));
#329=VERTEX_POINT('',#328);
#330=CARTESIAN_POINT('',(694.953,181.739025991,595.676530423));
#331=DIRECTION('',(0.,0.,1.));
#332=VECTOR('',#331,3.);
#333=LINE('',#330,#332);
#334=EDGE_CURVE('',#329,#320,#333,.T.);
#335=ORIENTED_EDGE('',*,*,#334,.F.);
#336=CARTESIAN_POINT('',(694.953,180.739025991,595.676530423));
#337=DIRECTION('',(-1.,0.,0.));
#338=DIRECTION('',(0.,0.,1.));
#339=AXIS2_PLACEMENT_3D('',#336,#337,#338);
#340=CIRCLE('',#339,1.);
#341=EDGE_CURVE('',#329,#294,#340,.T.);
#342=ORIENTED_EDGE('',*,*,#341,.T.);
#343=EDGE_LOOP('',(#302,#310,#318,#327,#335,#342));
#344=FACE_BOUND('',#343,.T.);
#345=ADVANCED_FACE('',(#344),#292,.T.);
#346=CARTESIAN_POINT('',(694.953,397.139666532,649.676530423));
#347=DIRECTION('',(-1.,0.,0.));
#348=DIRECTION('',(0.,0.,1.));
#349=AXIS2_PLACEMENT_3D('',#346,#347,#348);
#350=PLANE('',#349);
#351=ORIENTED_EDGE('',*,*,#309,.F.);
#352=CARTESIAN_POINT('',(694.953,148.322149942,594.676530423));
#353=VERTEX_POINT('',#352);
#354=CARTESIAN_POINT('',(694.953,164.530587967,594.676530423));
#355=DIRECTION('',(-0.,-1.,-0.));
#356=VECTOR('',#355,16.208438024);
#357=LINE('',#354,#356);
#358=EDGE_CURVE('',#296,#353,#357,.T.);
#359=ORIENTED_EDGE('',*,*,#358,.T.);
#360=CARTESIAN_POINT('',(694.953,115.155902039,594.676530423));
#361=VERTEX_POINT('',#360);
#362=CARTESIAN_POINT('',(694.953,131.739025991,569.676530423));
#363=DIRECTION('',(1.,-0.,-0.));
#364=DIRECTION('',(0.,0.,1.));
#365=AXIS2_PLACEMENT_3D('',#362,#363,#364);
#366=CIRCLE('',#365,30.);
#367=EDGE_CURVE('',#361,#353,#366,.T.);
#368=ORIENTED_EDGE('',*,*,#367,.F.);
#369=CARTESIAN_POINT('',(694.953,82.739025991,594.676530423));
#370=VERTEX_POINT('',#369);
#371=CARTESIAN_POINT('',(694.953,115.155902039,594.676530423));
#372=DIRECTION('',(0.,-1.,0.));
#373=VECTOR('',#372,32.416876048);
#374=LINE('',#371,#373);
#375=EDGE_CURVE('',#361,#370,#374,.T.);
#376=ORIENTED_EDGE('',*,*,#375,.T.);
#377=CARTESIAN_POINT('',(694.953,81.739025991,595.676530423));
#378=VERTEX_POINT('',#377);
#379=CARTESIAN_POINT('',(694.953,82.739025991,595.676530423));
#380=DIRECTION('',(-1.,0.,0.));
#381=DIRECTION('',(0.,0.,1.));
#382=AXIS2_PLACEMENT_3D('',#379,#380,#381);
#383=CIRCLE('',#382,1.);
#384=EDGE_CURVE('',#370,#378,#383,.T.);
#385=ORIENTED_EDGE('',*,*,#384,.T.);
#386=CARTESIAN_POINT('',(694.953,81.739025991,613.676530423));
#387=VERTEX_POINT('',#386);
#388=CARTESIAN_POINT('',(694.953,81.739025991,613.676530423));
#389=DIRECTION('',(0.,0.,-1.));
#390=VECTOR('',#389,18.);
#391=LINE('',#388,#390);
#392=EDGE_CURVE('',#387,#378,#391,.T.);
#393=ORIENTED_EDGE('',*,*,#392,.F.);
#394=CARTESIAN_POINT('',(694.953,82.739025991,614.676530423));
#395=VERTEX_POINT('',#394);
#396=CARTESIAN_POINT('',(694.953,82.739025991,613.676530423));
#397=DIRECTION('',(-1.,0.,0.));
#398=DIRECTION('',(0.,0.,1.));
#399=AXIS2_PLACEMENT_3D('',#396,#397,#398);
#400=CIRCLE('',#399,1.);
#401=EDGE_CURVE('',#387,#395,#400,.T.);
#402=ORIENTED_EDGE('',*,*,#401,.T.);
#403=CARTESIAN_POINT('',(694.953,89.739025991,614.676530423));
#404=VERTEX_POINT('',#403);
#405=CARTESIAN_POINT('',(694.953,89.739025991,614.676530423));
#406=DIRECTION('',(0.,-1.,0.));
#407=VECTOR('',#406,7.);
#408=LINE('',#405,#407);
#409=EDGE_CURVE('',#404,#395,#408,.T.);
#410=ORIENTED_EDGE('',*,*,#409,.F.);
#411=CARTESIAN_POINT('',(694.953,90.739025991,613.676530423));
#412=VERTEX_POINT('',#411);
#413=CARTESIAN_POINT('',(694.953,89.739025991,613.676530423));
#414=DIRECTION('',(-1.,0.,0.));
#415=DIRECTION('',(0.,0.,1.));
#416=AXIS2_PLACEMENT_3D('',#413,#414,#415);
#417=CIRCLE('',#416,1.);
#418=EDGE_CURVE('',#404,#412,#417,.T.);
#419=ORIENTED_EDGE('',*,*,#418,.T.);
#420=CARTESIAN_POINT('',(694.953,90.739025991,610.676530423));
#421=VERTEX_POINT('',#420);
#422=CARTESIAN_POINT('',(694.953,90.739025991,613.676530423));
#423=DIRECTION('',(0.,0.,-1.));
#424=VECTOR('',#423,3.);
#425=LINE('',#422,#424);
#426=EDGE_CURVE('',#412,#421,#425,.T.);
#427=ORIENTED_EDGE('',*,*,#426,.T.);
#428=CARTESIAN_POINT('',(694.953,89.739025991,609.676530423));
#429=VERTEX_POINT('',#428);
#430=CARTESIAN_POINT('',(694.953,89.739025991,610.676530423));
#431=DIRECTION('',(-1.,0.,0.));
#432=DIRECTION('',(0.,0.,1.));
#433=AXIS2_PLACEMENT_3D('',#430,#431,#432);
#434=CIRCLE('',#433,1.);
#435=EDGE_CURVE('',#421,#429,#434,.T.);
#436=ORIENTED_EDGE('',*,*,#435,.T.);
#437=CARTESIAN_POINT('',(694.953,85.739025991,609.676530423));
#438=VERTEX_POINT('',#437);
#439=CARTESIAN_POINT('',(694.953,89.739025991,609.676530423));
#440=DIRECTION('',(0.,-1.,0.));
#441=VECTOR('',#440,4.);
#442=LINE('',#439,#441);
#443=EDGE_CURVE('',#429,#438,#442,.T.);
#444=ORIENTED_EDGE('',*,*,#443,.T.);
#445=CARTESIAN_POINT('',(694.953,85.739025991,599.676530423));
#446=VERTEX_POINT('',#445);
#447=CARTESIAN_POINT('',(694.953,85.739025991,609.676530423));
#448=DIRECTION('',(0.,0.,-1.));
#449=VECTOR('',#448,10.);
#450=LINE('',#447,#449);
#451=EDGE_CURVE('',#438,#446,#450,.T.);
#452=ORIENTED_EDGE('',*,*,#451,.T.);
#453=CARTESIAN_POINT('',(694.953,164.530587967,599.676530423));
#454=DIRECTION('',(0.,-1.,0.));
#455=VECTOR('',#454,78.791561976);
#456=LINE('',#453,#455);
#457=EDGE_CURVE('',#304,#446,#456,.T.);
#458=ORIENTED_EDGE('',*,*,#457,.F.);
#459=EDGE_LOOP('',(#351,#359,#368,#376,#385,#393,#402,#410,#419,#427,#436,#444,#452,#458));
#460=FACE_BOUND('',#459,.T.);
#461=ORIENTED_EDGE('',*,*,#106,.F.);
#462=EDGE_LOOP('',(#461));
#463=FACE_BOUND('',#462,.T.);
#464=ORIENTED_EDGE('',*,*,#280,.F.);
#465=EDGE_LOOP('',(#464));
#466=FACE_BOUND('',#465,.T.);
#467=ORIENTED_EDGE('',*,*,#193,.F.);
#468=EDGE_LOOP('',(#467));
#469=FACE_BOUND('',#468,.T.);
#470=CARTESIAN_POINT('',(694.953,131.739025991,589.676530423));
#471=VERTEX_POINT('',#470);
#472=CARTESIAN_POINT('',(694.953,131.739025991,569.676530423));
#473=DIRECTION('',(-1.,0.,0.));
#474=DIRECTION('',(0.,0.,1.));
#475=AXIS2_PLACEMENT_3D('',#472,#473,#474);
#476=CIRCLE('',#475,20.);
#477=EDGE_CURVE('',#471,#471,#476,.T.);
#478=ORIENTED_EDGE('',*,*,#477,.F.);
#479=EDGE_LOOP('',(#478));
#480=FACE_BOUND('',#479,.T.);
#481=ADVANCED_FACE('',(#460,#463,#466,#469,#480),#350,.T.);
#482=CARTESIAN_POINT('',(714.953,131.739025991,569.676530423));
#483=DIRECTION('',(-1.,0.,0.));
#484=DIRECTION('',(0.,0.,1.));
#485=AXIS2_PLACEMENT_3D('',#482,#483,#484);
#486=CYLINDRICAL_SURFACE('',#485,30.);
#487=ORIENTED_EDGE('',*,*,#367,.T.);
#488=CARTESIAN_POINT('',(714.953,148.322149942,594.676530423));
#489=VERTEX_POINT('',#488);
#490=CARTESIAN_POINT('',(714.953,148.322149942,594.676530423));
#491=DIRECTION('',(-1.,0.,0.));
#492=VECTOR('',#491,20.);
#493=LINE('',#490,#492);
#494=EDGE_CURVE('',#489,#353,#493,.T.);
#495=ORIENTED_EDGE('',*,*,#494,.F.);
#496=CARTESIAN_POINT('',(714.953,116.772396444,595.676530423));
#497=VERTEX_POINT('',#496);
#498=CARTESIAN_POINT('',(714.953,131.739025991,569.676530423));
#499=DIRECTION('',(1.,-0.,-0.));
#500=DIRECTION('',(0.,0.,1.));
#501=AXIS2_PLACEMENT_3D('',#498,#499,#500);
#502=CIRCLE('',#501,30.);
#503=EDGE_CURVE('',#497,#489,#502,.T.);
#504=ORIENTED_EDGE('',*,*,#503,.F.);
#505=CARTESIAN_POINT('',(713.953,115.155902039,594.676530423));
#506=VERTEX_POINT('',#505);
#507=CARTESIAN_POINT('',(714.953,116.772396444,595.676530423));
#508=CARTESIAN_POINT('',(714.953,116.603061576,595.579054568));
#509=CARTESIAN_POINT('',(714.939081085,116.436418173,595.480923503));
#510=CARTESIAN_POINT('',(714.908772186,116.272703944,595.3824224));
#511=CARTESIAN_POINT('',(714.893617736,116.19084683,595.333171849));
#512=CARTESIAN_POINT('',(714.874311204,116.109728539,595.283832949));
#513=CARTESIAN_POINT('',(714.849992549,116.029443882,595.234484761));
#514=CARTESIAN_POINT('',(714.825673894,115.949159225,595.185136574));
#515=CARTESIAN_POINT('',(714.796191323,115.869407589,595.135586005));
#516=CARTESIAN_POINT('',(714.760864503,115.792245922,595.087162163));
#517=CARTESIAN_POINT('',(714.725537682,115.715084255,595.038738321));
#518=CARTESIAN_POINT('',(714.684101364,115.639793473,594.990990332));
#519=CARTESIAN_POINT('',(714.635190716,115.568483429,594.945356143));
#520=CARTESIAN_POINT('',(714.586280067,115.497173386,594.899721954));
#521=CARTESIAN_POINT('',(714.530443855,115.430264255,594.856472885));
#522=CARTESIAN_POINT('',(714.464225542,115.369769002,594.81708383));
#523=CARTESIAN_POINT('',(714.398007229,115.309273749,594.777694775));
#524=CARTESIAN_POINT('',(714.32221839,115.256134815,594.74277184));
#525=CARTESIAN_POINT('',(714.235200498,115.217339621,594.717174973));
#526=CARTESIAN_POINT('',(714.191691551,115.197942023,594.704376539));
#527=CARTESIAN_POINT('',(714.14644883,115.182653629,594.694258021));
#528=CARTESIAN_POINT('',(714.099195877,115.17211114,594.68727476));
#529=CARTESIAN_POINT('',(714.051942924,115.161568651,594.6802915));
#530=CARTESIAN_POINT('',(714.002499062,115.155902039,594.676530423));
#531=CARTESIAN_POINT('',(713.953,115.155902039,594.676530423));
#532=B_SPLINE_CURVE_WITH_KNOTS('',3,(#507,#508,#509,#510,#511,#512,#513,#514,#515,#516,#517,#518,#519,#520,#521,#522,#523,#524,#525,#526,#527,#528,#529,#530,#531),.UNSPECIFIED.,.F.,.F.,(4,3,3,3,3,3,3,3,4),(0.,0.000580274,0.00087041,0.001160547,0.001450684,0.001740821,0.002030957,0.002176026,0.002321094),.UNSPECIFIED.);
#533=EDGE_CURVE('',#497,#506,#532,.T.);
#534=ORIENTED_EDGE('',*,*,#533,.T.);
#535=CARTESIAN_POINT('',(713.953,115.155902039,594.676530423));
#536=DIRECTION('',(-1.,0.,0.));
#537=VECTOR('',#536,19.);
#538=LINE('',#535,#537);
#539=EDGE_CURVE('',#506,#361,#538,.T.);
#540=ORIENTED_EDGE('',*,*,#539,.T.);
#541=EDGE_LOOP('',(#487,#495,#504,#534,#540));
#542=FACE_BOUND('',#541,.T.);
#543=ADVANCED_FACE('',(#542),#486,.T.);
#544=CARTESIAN_POINT('',(714.953,397.139666532,594.676530423));
#545=DIRECTION('',(0.,0.,-1.));
#546=DIRECTION('',(-1.,0.,0.));
#547=AXIS2_PLACEMENT_3D('',#544,#545,#546);
#548=PLANE('',#547);
#549=CARTESIAN_POINT('',(713.953,82.739025991,594.676530423));
#550=VERTEX_POINT('',#549);
#551=CARTESIAN_POINT('',(713.953,115.155902039,594.676530423));
#552=DIRECTION('',(0.,-1.,0.));
#553=VECTOR('',#552,32.416876048);
#554=LINE('',#551,#553);
#555=EDGE_CURVE('',#506,#550,#554,.T.);
#556=ORIENTED_EDGE('',*,*,#555,.T.);
#557=CARTESIAN_POINT('',(713.953,82.739025991,594.676530423));
#558=DIRECTION('',(-1.,0.,0.));
#559=VECTOR('',#558,19.);
#560=LINE('',#557,#559);
#561=EDGE_CURVE('',#550,#370,#560,.T.);
#562=ORIENTED_EDGE('',*,*,#561,.T.);
#563=ORIENTED_EDGE('',*,*,#375,.F.);
#564=ORIENTED_EDGE('',*,*,#539,.F.);
#565=EDGE_LOOP('',(#556,#562,#563,#564));
#566=FACE_BOUND('',#565,.T.);
#567=ADVANCED_FACE('',(#566),#548,.T.);
#568=CARTESIAN_POINT('',(714.953,81.739025991,649.676530423));
#569=DIRECTION('',(0.,-1.,0.));
#570=DIRECTION('',(0.,0.,-1.));
#571=AXIS2_PLACEMENT_3D('',#568,#569,#570);
#572=PLANE('',#571);
#573=CARTESIAN_POINT('',(713.953,81.739025991,595.676530423));
#574=VERTEX_POINT('',#573);
#575=CARTESIAN_POINT('',(713.953,81.739025991,613.676530423));
#576=VERTEX_POINT('',#575);
#577=CARTESIAN_POINT('',(713.953,81.739025991,595.676530423));
#578=DIRECTION('',(-0.,-0.,1.));
#579=VECTOR('',#578,18.);
#580=LINE('',#577,#579);
#581=EDGE_CURVE('',#574,#576,#580,.T.);
#582=ORIENTED_EDGE('',*,*,#581,.T.);
#583=CARTESIAN_POINT('',(713.953,81.739025991,613.676530423));
#584=DIRECTION('',(-1.,0.,0.));
#585=VECTOR('',#584,19.);
#586=LINE('',#583,#585);
#587=EDGE_CURVE('',#576,#387,#586,.T.);
#588=ORIENTED_EDGE('',*,*,#587,.T.);
#589=ORIENTED_EDGE('',*,*,#392,.T.);
#590=CARTESIAN_POINT('',(694.953,81.739025991,595.676530423));
#591=DIRECTION('',(1.,-0.,-0.));
#592=VECTOR('',#591,19.);
#593=LINE('',#590,#592);
#594=EDGE_CURVE('',#378,#574,#593,.T.);
#595=ORIENTED_EDGE('',*,*,#594,.T.);
#596=EDGE_LOOP('',(#582,#588,#589,#595));
#597=FACE_BOUND('',#596,.T.);
#598=ADVANCED_FACE('',(#597),#572,.T.);
#599=CARTESIAN_POINT('',(714.953,397.139666532,614.676530423));
#600=DIRECTION('',(0.,0.,1.));
#601=DIRECTION('',(1.,0.,0.));
#602=AXIS2_PLACEMENT_3D('',#599,#600,#601);
#603=PLANE('',#602);
#604=ORIENTED_EDGE('',*,*,#409,.T.);
#605=CARTESIAN_POINT('',(713.953,82.739025991,614.676530423));
#606=VERTEX_POINT('',#605);
#607=CARTESIAN_POINT('',(694.953,82.739025991,614.676530423));
#608=DIRECTION('',(1.,-0.,-0.));
#609=VECTOR('',#608,19.);
#610=LINE('',#607,#609);
#611=EDGE_CURVE('',#395,#606,#610,.T.);
#612=ORIENTED_EDGE('',*,*,#611,.T.);
#613=CARTESIAN_POINT('',(713.953,89.739025991,614.676530423));
#614=VERTEX_POINT('',#613);
#615=CARTESIAN_POINT('',(713.953,82.739025991,614.676530423));
#616=DIRECTION('',(-0.,1.,-0.));
#617=VECTOR('',#616,7.);
#618=LINE('',#615,#617);
#619=EDGE_CURVE('',#606,#614,#618,.T.);
#620=ORIENTED_EDGE('',*,*,#619,.T.);
#621=CARTESIAN_POINT('',(713.953,89.739025991,614.676530423));
#622=DIRECTION('',(-1.,0.,0.));
#623=VECTOR('',#622,19.);
#624=LINE('',#621,#623);
#625=EDGE_CURVE('',#614,#404,#624,.T.);
#626=ORIENTED_EDGE('',*,*,#625,.T.);
#627=EDGE_LOOP('',(#604,#612,#620,#626));
#628=FACE_BOUND('',#627,.T.);
#629=ADVANCED_FACE('',(#628),#603,.T.);
#630=CARTESIAN_POINT('',(714.953,90.739025991,649.676530423));
#631=DIRECTION('',(0.,1.,0.));
#632=DIRECTION('',(0.,0.,1.));
#633=AXIS2_PLACEMENT_3D('',#630,#631,#632);
#634=PLANE('',#633);
#635=CARTESIAN_POINT('',(713.953,90.739025991,613.676530423));
#636=VERTEX_POINT('',#635);
#637=CARTESIAN_POINT('',(713.953,90.739025991,610.676530423));
#638=VERTEX_POINT('',#637);
#639=CARTESIAN_POINT('',(713.953,90.739025991,613.676530423));
#640=DIRECTION('',(0.,0.,-1.));
#641=VECTOR('',#640,3.);
#642=LINE('',#639,#641);
#643=EDGE_CURVE('',#636,#638,#642,.T.);
#644=ORIENTED_EDGE('',*,*,#643,.T.);
#645=CARTESIAN_POINT('',(713.953,90.739025991,610.676530423));
#646=DIRECTION('',(-1.,0.,0.));
#647=VECTOR('',#646,19.);
#648=LINE('',#645,#647);
#649=EDGE_CURVE('',#638,#421,#648,.T.);
#650=ORIENTED_EDGE('',*,*,#649,.T.);
#651=ORIENTED_EDGE('',*,*,#426,.F.);
#652=CARTESIAN_POINT('',(694.953,90.739025991,613.676530423));
#653=DIRECTION('',(1.,-0.,-0.));
#654=VECTOR('',#653,19.);
#655=LINE('',#652,#654);
#656=EDGE_CURVE('',#412,#636,#655,.T.);
#657=ORIENTED_EDGE('',*,*,#656,.T.);
#658=EDGE_LOOP('',(#644,#650,#651,#657));
#659=FACE_BOUND('',#658,.T.);
#660=ADVANCED_FACE('',(#659),#634,.T.);
#661=CARTESIAN_POINT('',(714.953,397.139666532,609.676530423));
#662=DIRECTION('',(0.,0.,-1.));
#663=DIRECTION('',(-1.,0.,0.));
#664=AXIS2_PLACEMENT_3D('',#661,#662,#663);
#665=PLANE('',#664);
#666=CARTESIAN_POINT('',(713.953,89.739025991,609.676530423));
#667=VERTEX_POINT('',#666);
#668=CARTESIAN_POINT('',(694.953,89.739025991,609.676530423));
#669=DIRECTION('',(1.,-0.,-0.));
#670=VECTOR('',#669,19.);
#671=LINE('',#668,#670);
#672=EDGE_CURVE('',#429,#667,#671,.T.);
#673=ORIENTED_EDGE('',*,*,#672,.T.);
#674=CARTESIAN_POINT('',(713.953,86.739025991,609.676530423));
#675=VERTEX_POINT('',#674);
#676=CARTESIAN_POINT('',(713.953,89.739025991,609.676530423));
#677=DIRECTION('',(-0.,-1.,-0.));
#678=VECTOR('',#677,3.);
#679=LINE('',#676,#678);
#680=EDGE_CURVE('',#667,#675,#679,.T.);
#681=ORIENTED_EDGE('',*,*,#680,.T.);
#682=CARTESIAN_POINT('',(695.953,86.739025991,609.676530423));
#683=VERTEX_POINT('',#682);
#684=CARTESIAN_POINT('',(713.953,86.739025991,609.676530423));
#685=DIRECTION('',(-1.,0.,0.));
#686=VECTOR('',#685,18.);
#687=LINE('',#684,#686);
#688=EDGE_CURVE('',#675,#683,#687,.T.);
#689=ORIENTED_EDGE('',*,*,#688,.T.);
#690=CARTESIAN_POINT('',(695.953,85.739025991,609.676530423));
#691=DIRECTION('',(-0.,-0.,1.));
#692=DIRECTION('',(-1.,0.,0.));
#693=AXIS2_PLACEMENT_3D('',#690,#691,#692);
#694=CIRCLE('',#693,1.);
#695=EDGE_CURVE('',#683,#438,#694,.T.);
#696=ORIENTED_EDGE('',*,*,#695,.T.);
#697=ORIENTED_EDGE('',*,*,#443,.F.);
#698=EDGE_LOOP('',(#673,#681,#689,#696,#697));
#699=FACE_BOUND('',#698,.T.);
#700=ADVANCED_FACE('',(#699),#665,.T.);
#701=CARTESIAN_POINT('',(714.953,86.739025991,649.676530423));
#702=DIRECTION('',(0.,1.,0.));
#703=DIRECTION('',(0.,0.,1.));
#704=AXIS2_PLACEMENT_3D('',#701,#702,#703);
#705=PLANE('',#704);
#706=CARTESIAN_POINT('',(713.953,86.739025991,599.676530423));
#707=VERTEX_POINT('',#706);
#708=CARTESIAN_POINT('',(695.953,86.739025991,599.676530423));
#709=VERTEX_POINT('',#708);
#710=CARTESIAN_POINT('',(713.953,86.739025991,599.676530423));
#711=DIRECTION('',(-1.,0.,0.));
#712=VECTOR('',#711,18.);
#713=LINE('',#710,#712);
#714=EDGE_CURVE('',#707,#709,#713,.T.);
#715=ORIENTED_EDGE('',*,*,#714,.T.);
#716=CARTESIAN_POINT('',(695.953,86.739025991,599.676530423));
#717=DIRECTION('',(-0.,-0.,1.));
#718=VECTOR('',#717,10.);
#719=LINE('',#716,#718);
#720=EDGE_CURVE('',#709,#683,#719,.T.);
#721=ORIENTED_EDGE('',*,*,#720,.T.);
#722=ORIENTED_EDGE('',*,*,#688,.F.);
#723=CARTESIAN_POINT('',(713.953,86.739025991,609.676530423));
#724=DIRECTION('',(-0.,-0.,-1.));
#725=VECTOR('',#724,10.);
#726=LINE('',#723,#725);
#727=EDGE_CURVE('',#675,#707,#726,.T.);
#728=ORIENTED_EDGE('',*,*,#727,.T.);
#729=EDGE_LOOP('',(#715,#721,#722,#728));
#730=FACE_BOUND('',#729,.T.);
#731=ADVANCED_FACE('',(#730),#705,.T.);
#732=CARTESIAN_POINT('',(714.953,397.139666532,599.676530423));
#733=DIRECTION('',(0.,0.,1.));
#734=DIRECTION('',(1.,0.,0.));
#735=AXIS2_PLACEMENT_3D('',#732,#733,#734);
#736=PLANE('',#735);
#737=ORIENTED_EDGE('',*,*,#714,.F.);
#738=CARTESIAN_POINT('',(713.953,180.739025991,599.676530423));
#739=VERTEX_POINT('',#738);
#740=CARTESIAN_POINT('',(713.953,86.739025991,599.676530423));
#741=DIRECTION('',(-0.,1.,-0.));
#742=VECTOR('',#741,94.);
#743=LINE('',#740,#742);
#744=EDGE_CURVE('',#707,#739,#743,.T.);
#745=ORIENTED_EDGE('',*,*,#744,.T.);
#746=CARTESIAN_POINT('',(713.953,180.739025991,599.676530423));
#747=DIRECTION('',(-1.,0.,0.));
#748=VECTOR('',#747,19.);
#749=LINE('',#746,#748);
#750=EDGE_CURVE('',#739,#312,#749,.T.);
#751=ORIENTED_EDGE('',*,*,#750,.T.);
#752=ORIENTED_EDGE('',*,*,#317,.T.);
#753=ORIENTED_EDGE('',*,*,#457,.T.);
#754=CARTESIAN_POINT('',(695.953,85.739025991,599.676530423));
#755=DIRECTION('',(-0.,-0.,-1.));
#756=DIRECTION('',(1.,0.,-0.));
#757=AXIS2_PLACEMENT_3D('',#754,#755,#756);
#758=CIRCLE('',#757,1.);
#759=EDGE_CURVE('',#446,#709,#758,.T.);
#760=ORIENTED_EDGE('',*,*,#759,.T.);
#761=EDGE_LOOP('',(#737,#745,#751,#752,#753,#760));
#762=FACE_BOUND('',#761,.T.);
#763=ADVANCED_FACE('',(#762),#736,.T.);
#764=CARTESIAN_POINT('',(714.953,181.739025991,649.676530423));
#765=DIRECTION('',(0.,1.,0.));
#766=DIRECTION('',(0.,0.,1.));
#767=AXIS2_PLACEMENT_3D('',#764,#765,#766);
#768=PLANE('',#767);
#769=CARTESIAN_POINT('',(713.953,181.739025991,598.676530423));
#770=VERTEX_POINT('',#769);
#771=CARTESIAN_POINT('',(713.953,181.739025991,595.676530423));
#772=VERTEX_POINT('',#771);
#773=CARTESIAN_POINT('',(713.953,181.739025991,598.676530423));
#774=DIRECTION('',(-0.,-0.,-1.));
#775=VECTOR('',#774,3.);
#776=LINE('',#773,#775);
#777=EDGE_CURVE('',#770,#772,#776,.T.);
#778=ORIENTED_EDGE('',*,*,#777,.T.);
#779=CARTESIAN_POINT('',(713.953,181.739025991,595.676530423));
#780=DIRECTION('',(-1.,0.,0.));
#781=VECTOR('',#780,19.);
#782=LINE('',#779,#781);
#783=EDGE_CURVE('',#772,#329,#782,.T.);
#784=ORIENTED_EDGE('',*,*,#783,.T.);
#785=ORIENTED_EDGE('',*,*,#334,.T.);
#786=CARTESIAN_POINT('',(694.953,181.739025991,598.676530423));
#787=DIRECTION('',(1.,-0.,-0.));
#788=VECTOR('',#787,19.);
#789=LINE('',#786,#788);
#790=EDGE_CURVE('',#320,#770,#789,.T.);
#791=ORIENTED_EDGE('',*,*,#790,.T.);
#792=EDGE_LOOP('',(#778,#784,#785,#791));
#793=FACE_BOUND('',#792,.T.);
#794=ADVANCED_FACE('',(#793),#768,.T.);
#795=CARTESIAN_POINT('',(714.953,397.139666532,594.676530423));
#796=DIRECTION('',(0.,0.,-1.));
#797=DIRECTION('',(-1.,0.,0.));
#798=AXIS2_PLACEMENT_3D('',#795,#796,#797);
#799=PLANE('',#798);
#800=ORIENTED_EDGE('',*,*,#301,.F.);
#801=CARTESIAN_POINT('',(714.953,180.739025991,594.676530423));
#802=VERTEX_POINT('',#801);
#803=CARTESIAN_POINT('',(694.953,180.739025991,594.676530423));
#804=DIRECTION('',(1.,-0.,-0.));
#805=VECTOR('',#804,20.);
#806=LINE('',#803,#805);
#807=EDGE_CURVE('',#294,#802,#806,.T.);
#808=ORIENTED_EDGE('',*,*,#807,.T.);
#809=CARTESIAN_POINT('',(714.953,180.739025991,594.676530423));
#810=DIRECTION('',(-0.,-1.,-0.));
#811=VECTOR('',#810,32.416876048);
#812=LINE('',#809,#811);
#813=EDGE_CURVE('',#802,#489,#812,.T.);
#814=ORIENTED_EDGE('',*,*,#813,.T.);
#815=ORIENTED_EDGE('',*,*,#494,.T.);
#816=ORIENTED_EDGE('',*,*,#358,.F.);
#817=EDGE_LOOP('',(#800,#808,#814,#815,#816));
#818=FACE_BOUND('',#817,.T.);
#819=ADVANCED_FACE('',(#818),#799,.T.);
#820=CARTESIAN_POINT('',(714.953,131.739025991,569.676530423));
#821=DIRECTION('',(-1.,0.,0.));
#822=DIRECTION('',(0.,0.,1.));
#823=AXIS2_PLACEMENT_3D('',#820,#821,#822);
#824=CYLINDRICAL_SURFACE('',#823,20.);
#825=CARTESIAN_POINT('',(714.953,131.739025991,589.676530423));
#826=VERTEX_POINT('',#825);
#827=CARTESIAN_POINT('',(694.953,131.739025991,589.676530423));
#828=DIRECTION('',(1.,-0.,-0.));
#829=VECTOR('',#828,20.);
#830=LINE('',#827,#829);
#831=EDGE_CURVE('',#471,#826,#830,.T.);
#832=ORIENTED_EDGE('',*,*,#831,.F.);
#833=ORIENTED_EDGE('',*,*,#477,.T.);
#834=ORIENTED_EDGE('',*,*,#831,.T.);
#835=CARTESIAN_POINT('',(714.953,131.739025991,569.676530423));
#836=DIRECTION('',(-1.,0.,0.));
#837=DIRECTION('',(0.,0.,1.));
#838=AXIS2_PLACEMENT_3D('',#835,#836,#837);
#839=CIRCLE('',#838,20.);
#840=EDGE_CURVE('',#826,#826,#839,.T.);
#841=ORIENTED_EDGE('',*,*,#840,.F.);
#842=EDGE_LOOP('',(#832,#833,#834,#841));
#843=FACE_BOUND('',#842,.T.);
#844=ADVANCED_FACE('',(#843),#824,.F.);
#845=CARTESIAN_POINT('',(714.953,397.139666532,649.676530423));
#846=DIRECTION('',(-1.,0.,0.));
#847=DIRECTION('',(0.,0.,1.));
#848=AXIS2_PLACEMENT_3D('',#845,#846,#847);
#849=PLANE('',#848);
#850=CARTESIAN_POINT('',(714.953,85.739025991,598.676530423));
#851=VERTEX_POINT('',#850);
#852=CARTESIAN_POINT('',(714.953,85.739025991,610.676530423));
#853=VERTEX_POINT('',#852);
#854=CARTESIAN_POINT('',(714.953,85.739025991,598.676530423));
#855=DIRECTION('',(0.,0.,1.));
#856=VECTOR('',#855,12.);
#857=LINE('',#854,#856);
#858=EDGE_CURVE('',#851,#853,#857,.T.);
#859=ORIENTED_EDGE('',*,*,#858,.T.);
#860=CARTESIAN_POINT('',(714.953,89.739025991,610.676530423));
#861=VERTEX_POINT('',#860);
#862=CARTESIAN_POINT('',(714.953,85.739025991,610.676530423));
#863=DIRECTION('',(0.,1.,0.));
#864=VECTOR('',#863,4.);
#865=LINE('',#862,#864);
#866=EDGE_CURVE('',#853,#861,#865,.T.);
#867=ORIENTED_EDGE('',*,*,#866,.T.);
#868=CARTESIAN_POINT('',(714.953,89.739025991,613.676530423));
#869=VERTEX_POINT('',#868);
#870=CARTESIAN_POINT('',(714.953,89.739025991,610.676530423));
#871=DIRECTION('',(-0.,-0.,1.));
#872=VECTOR('',#871,3.);
#873=LINE('',#870,#872);
#874=EDGE_CURVE('',#861,#869,#873,.T.);
#875=ORIENTED_EDGE('',*,*,#874,.T.);
#876=CARTESIAN_POINT('',(714.953,82.739025991,613.676530423));
#877=VERTEX_POINT('',#876);
#878=CARTESIAN_POINT('',(714.953,89.739025991,613.676530423));
#879=DIRECTION('',(0.,-1.,0.));
#880=VECTOR('',#879,7.);
#881=LINE('',#878,#880);
#882=EDGE_CURVE('',#869,#877,#881,.T.);
#883=ORIENTED_EDGE('',*,*,#882,.T.);
#884=CARTESIAN_POINT('',(714.953,82.739025991,595.676530423));
#885=VERTEX_POINT('',#884);
#886=CARTESIAN_POINT('',(714.953,82.739025991,613.676530423));
#887=DIRECTION('',(0.,0.,-1.));
#888=VECTOR('',#887,18.);
#889=LINE('',#886,#888);
#890=EDGE_CURVE('',#877,#885,#889,.T.);
#891=ORIENTED_EDGE('',*,*,#890,.T.);
#892=CARTESIAN_POINT('',(714.953,82.739025991,595.676530423));
#893=DIRECTION('',(-0.,1.,-0.));
#894=VECTOR('',#893,34.033370453);
#895=LINE('',#892,#894);
#896=EDGE_CURVE('',#885,#497,#895,.T.);
#897=ORIENTED_EDGE('',*,*,#896,.T.);
#898=ORIENTED_EDGE('',*,*,#503,.T.);
#899=ORIENTED_EDGE('',*,*,#813,.F.);
#900=CARTESIAN_POINT('',(714.953,180.739025991,598.676530423));
#901=VERTEX_POINT('',#900);
#902=CARTESIAN_POINT('',(714.953,180.739025991,594.676530423));
#903=DIRECTION('',(0.,0.,1.));
#904=VECTOR('',#903,4.);
#905=LINE('',#902,#904);
#906=EDGE_CURVE('',#802,#901,#905,.T.);
#907=ORIENTED_EDGE('',*,*,#906,.T.);
#908=CARTESIAN_POINT('',(714.953,180.739025991,598.676530423));
#909=DIRECTION('',(0.,-1.,0.));
#910=VECTOR('',#909,95.);
#911=LINE('',#908,#910);
#912=EDGE_CURVE('',#901,#851,#911,.T.);
#913=ORIENTED_EDGE('',*,*,#912,.T.);
#914=EDGE_LOOP('',(#859,#867,#875,#883,#891,#897,#898,#899,#907,#913));
#915=FACE_BOUND('',#914,.T.);
#916=ORIENTED_EDGE('',*,*,#840,.T.);
#917=EDGE_LOOP('',(#916));
#918=FACE_BOUND('',#917,.T.);
#919=ADVANCED_FACE('',(#915,#918),#849,.F.);
#920=CARTESIAN_POINT('',(714.953,180.739025991,595.676530423));
#921=DIRECTION('',(-1.,0.,0.));
#922=DIRECTION('',(0.,0.,1.));
#923=AXIS2_PLACEMENT_3D('',#920,#921,#922);
#924=CYLINDRICAL_SURFACE('',#923,1.);
#925=ORIENTED_EDGE('',*,*,#341,.F.);
#926=ORIENTED_EDGE('',*,*,#783,.F.);
#927=CARTESIAN_POINT('',(713.953,180.739025991,595.676530423));
#928=DIRECTION('',(0.707106781,-0.,0.707106781));
#929=DIRECTION('',(-0.707106781,0.,0.707106781));
#930=AXIS2_PLACEMENT_3D('',#927,#928,#929);
#931=ELLIPSE('',#930,1.414213562,1.);
#932=EDGE_CURVE('',#802,#772,#931,.T.);
#933=ORIENTED_EDGE('',*,*,#932,.F.);
#934=ORIENTED_EDGE('',*,*,#807,.F.);
#935=EDGE_LOOP('',(#925,#926,#933,#934));
#936=FACE_BOUND('',#935,.T.);
#937=ADVANCED_FACE('',(#936),#924,.T.);
#938=CARTESIAN_POINT('',(714.953,180.739025991,598.676530423));
#939=DIRECTION('',(-1.,0.,0.));
#940=DIRECTION('',(0.,0.,1.));
#941=AXIS2_PLACEMENT_3D('',#938,#939,#940);
#942=CYLINDRICAL_SURFACE('',#941,1.);
#943=ORIENTED_EDGE('',*,*,#750,.F.);
#944=CARTESIAN_POINT('',(713.953,180.739025991,598.676530423));
#945=DIRECTION('',(-1.,0.,0.));
#946=DIRECTION('',(0.,0.,1.));
#947=AXIS2_PLACEMENT_3D('',#944,#945,#946);
#948=CIRCLE('',#947,1.);
#949=EDGE_CURVE('',#739,#770,#948,.T.);
#950=ORIENTED_EDGE('',*,*,#949,.T.);
#951=ORIENTED_EDGE('',*,*,#790,.F.);
#952=ORIENTED_EDGE('',*,*,#326,.F.);
#953=EDGE_LOOP('',(#943,#950,#951,#952));
#954=FACE_BOUND('',#953,.T.);
#955=ADVANCED_FACE('',(#954),#942,.T.);
#956=CARTESIAN_POINT('',(713.953,180.739025991,649.676530423));
#957=DIRECTION('',(0.,0.,-1.));
#958=DIRECTION('',(-1.,0.,0.));
#959=AXIS2_PLACEMENT_3D('',#956,#957,#958);
#960=CYLINDRICAL_SURFACE('',#959,1.);
#961=ORIENTED_EDGE('',*,*,#777,.F.);
#962=CARTESIAN_POINT('',(713.953,180.739025991,598.676530423));
#963=DIRECTION('',(0.,0.,-1.));
#964=DIRECTION('',(-1.,0.,0.));
#965=AXIS2_PLACEMENT_3D('',#962,#963,#964);
#966=CIRCLE('',#965,1.);
#967=EDGE_CURVE('',#770,#901,#966,.T.);
#968=ORIENTED_EDGE('',*,*,#967,.T.);
#969=ORIENTED_EDGE('',*,*,#906,.F.);
#970=ORIENTED_EDGE('',*,*,#932,.T.);
#971=EDGE_LOOP('',(#961,#968,#969,#970));
#972=FACE_BOUND('',#971,.T.);
#973=ADVANCED_FACE('',(#972),#960,.T.);
#974=CARTESIAN_POINT('',(713.953,397.139666532,598.676530423));
#975=DIRECTION('',(0.,1.,0.));
#976=DIRECTION('',(0.,-0.,1.));
#977=AXIS2_PLACEMENT_3D('',#974,#975,#976);
#978=CYLINDRICAL_SURFACE('',#977,1.);
#979=ORIENTED_EDGE('',*,*,#744,.F.);
#980=CARTESIAN_POINT('',(713.953,85.739025991,598.676530423));
#981=DIRECTION('',(0.,0.707106781,-0.707106781));
#982=DIRECTION('',(0.,-0.707106781,-0.707106781));
#983=AXIS2_PLACEMENT_3D('',#980,#981,#982);
#984=ELLIPSE('',#983,1.414213562,1.);
#985=EDGE_CURVE('',#707,#851,#984,.T.);
#986=ORIENTED_EDGE('',*,*,#985,.T.);
#987=ORIENTED_EDGE('',*,*,#912,.F.);
#988=CARTESIAN_POINT('',(713.953,180.739025991,598.676530423));
#989=DIRECTION('',(0.,1.,0.));
#990=DIRECTION('',(0.,-0.,1.));
#991=AXIS2_PLACEMENT_3D('',#988,#989,#990);
#992=CIRCLE('',#991,1.);
#993=EDGE_CURVE('',#739,#901,#992,.T.);
#994=ORIENTED_EDGE('',*,*,#993,.F.);
#995=EDGE_LOOP('',(#979,#986,#987,#994));
#996=FACE_BOUND('',#995,.T.);
#997=ADVANCED_FACE('',(#996),#978,.T.);
#998=CARTESIAN_POINT('',(713.953,180.739025991,598.676530423));
#999=DIRECTION('',(0.,0.,1.));
#1000=DIRECTION('',(1.,0.,-0.));
#1001=AXIS2_PLACEMENT_3D('',#998,#999,#1000);
#1002=SPHERICAL_SURFACE('',#1001,1.);
#1003=ORIENTED_EDGE('',*,*,#967,.F.);
#1004=ORIENTED_EDGE('',*,*,#949,.F.);
#1005=ORIENTED_EDGE('',*,*,#993,.T.);
#1006=EDGE_LOOP('',(#1003,#1004,#1005));
#1007=FACE_BOUND('',#1006,.T.);
#1008=ADVANCED_FACE('',(#1007),#1002,.T.);
#1009=CARTESIAN_POINT('',(713.953,85.739025991,649.676530423));
#1010=DIRECTION('',(0.,0.,-1.));
#1011=DIRECTION('',(-1.,0.,0.));
#1012=AXIS2_PLACEMENT_3D('',#1009,#1010,#1011);
#1013=CYLINDRICAL_SURFACE('',#1012,1.);
#1014=ORIENTED_EDGE('',*,*,#985,.F.);
#1015=ORIENTED_EDGE('',*,*,#727,.F.);
#1016=CARTESIAN_POINT('',(713.953,85.739025991,610.676530423));
#1017=DIRECTION('',(0.,-0.707106781,-0.707106781));
#1018=DIRECTION('',(0.,-0.707106781,0.707106781));
#1019=AXIS2_PLACEMENT_3D('',#1016,#1017,#1018);
#1020=ELLIPSE('',#1019,1.414213562,1.);
#1021=EDGE_CURVE('',#675,#853,#1020,.T.);
#1022=ORIENTED_EDGE('',*,*,#1021,.T.);
#1023=ORIENTED_EDGE('',*,*,#858,.F.);
#1024=EDGE_LOOP('',(#1014,#1015,#1022,#1023));
#1025=FACE_BOUND('',#1024,.T.);
#1026=ADVANCED_FACE('',(#1025),#1013,.T.);
#1027=CARTESIAN_POINT('',(713.953,82.739025991,649.676530423));
#1028=DIRECTION('',(0.,0.,1.));
#1029=DIRECTION('',(1.,0.,-0.));
#1030=AXIS2_PLACEMENT_3D('',#1027,#1028,#1029);
#1031=CYLINDRICAL_SURFACE('',#1030,1.);
#1032=ORIENTED_EDGE('',*,*,#890,.F.);
#1033=CARTESIAN_POINT('',(713.953,82.739025991,613.676530423));
#1034=DIRECTION('',(-0.,-0.,-1.));
#1035=DIRECTION('',(1.,0.,-0.));
#1036=AXIS2_PLACEMENT_3D('',#1033,#1034,#1035);
#1037=CIRCLE('',#1036,1.);
#1038=EDGE_CURVE('',#877,#576,#1037,.T.);
#1039=ORIENTED_EDGE('',*,*,#1038,.T.);
#1040=ORIENTED_EDGE('',*,*,#581,.F.);
#1041=CARTESIAN_POINT('',(713.953,82.739025991,595.676530423));
#1042=DIRECTION('',(0.,0.,1.));
#1043=DIRECTION('',(1.,0.,-0.));
#1044=AXIS2_PLACEMENT_3D('',#1041,#1042,#1043);
#1045=CIRCLE('',#1044,1.);
#1046=EDGE_CURVE('',#574,#885,#1045,.T.);
#1047=ORIENTED_EDGE('',*,*,#1046,.T.);
#1048=EDGE_LOOP('',(#1032,#1039,#1040,#1047));
#1049=FACE_BOUND('',#1048,.T.);
#1050=ADVANCED_FACE('',(#1049),#1031,.T.);
#1051=CARTESIAN_POINT('',(713.953,397.139666532,595.676530423));
#1052=DIRECTION('',(0.,1.,0.));
#1053=DIRECTION('',(0.,-0.,1.));
#1054=AXIS2_PLACEMENT_3D('',#1051,#1052,#1053);
#1055=CYLINDRICAL_SURFACE('',#1054,1.);
#1056=ORIENTED_EDGE('',*,*,#533,.F.);
#1057=ORIENTED_EDGE('',*,*,#896,.F.);
#1058=CARTESIAN_POINT('',(713.953,82.739025991,595.676530423));
#1059=DIRECTION('',(0.,-1.,0.));
#1060=DIRECTION('',(0.,0.,-1.));
#1061=AXIS2_PLACEMENT_3D('',#1058,#1059,#1060);
#1062=CIRCLE('',#1061,1.);
#1063=EDGE_CURVE('',#550,#885,#1062,.T.);
#1064=ORIENTED_EDGE('',*,*,#1063,.F.);
#1065=ORIENTED_EDGE('',*,*,#555,.F.);
#1066=EDGE_LOOP('',(#1056,#1057,#1064,#1065));
#1067=FACE_BOUND('',#1066,.T.);
#1068=ADVANCED_FACE('',(#1067),#1055,.T.);
#1069=CARTESIAN_POINT('',(713.953,82.739025991,595.676530423));
#1070=DIRECTION('',(0.,0.,-1.));
#1071=DIRECTION('',(-1.,0.,0.));
#1072=AXIS2_PLACEMENT_3D('',#1069,#1070,#1071);
#1073=SPHERICAL_SURFACE('',#1072,1.);
#1074=ORIENTED_EDGE('',*,*,#1063,.T.);
#1075=ORIENTED_EDGE('',*,*,#1046,.F.);
#1076=CARTESIAN_POINT('',(713.953,82.739025991,595.676530423));
#1077=DIRECTION('',(-1.,0.,0.));
#1078=DIRECTION('',(0.,0.,1.));
#1079=AXIS2_PLACEMENT_3D('',#1076,#1077,#1078);
#1080=CIRCLE('',#1079,1.);
#1081=EDGE_CURVE('',#550,#574,#1080,.T.);
#1082=ORIENTED_EDGE('',*,*,#1081,.F.);
#1083=EDGE_LOOP('',(#1074,#1075,#1082));
#1084=FACE_BOUND('',#1083,.T.);
#1085=ADVANCED_FACE('',(#1084),#1073,.T.);
#1086=CARTESIAN_POINT('',(714.953,82.739025991,595.676530423));
#1087=DIRECTION('',(-1.,0.,0.));
#1088=DIRECTION('',(0.,0.,1.));
#1089=AXIS2_PLACEMENT_3D('',#1086,#1087,#1088);
#1090=CYLINDRICAL_SURFACE('',#1089,1.);
#1091=ORIENTED_EDGE('',*,*,#1081,.T.);
#1092=ORIENTED_EDGE('',*,*,#594,.F.);
#1093=ORIENTED_EDGE('',*,*,#384,.F.);
#1094=ORIENTED_EDGE('',*,*,#561,.F.);
#1095=EDGE_LOOP('',(#1091,#1092,#1093,#1094));
#1096=FACE_BOUND('',#1095,.T.);
#1097=ADVANCED_FACE('',(#1096),#1090,.T.);
#1098=CARTESIAN_POINT('',(714.953,89.739025991,613.676530423));
#1099=DIRECTION('',(-1.,0.,0.));
#1100=DIRECTION('',(0.,0.,1.));
#1101=AXIS2_PLACEMENT_3D('',#1098,#1099,#1100);
#1102=CYLINDRICAL_SURFACE('',#1101,1.);
#1103=ORIENTED_EDGE('',*,*,#625,.F.);
#1104=CARTESIAN_POINT('',(713.953,89.739025991,613.676530423));
#1105=DIRECTION('',(-1.,0.,0.));
#1106=DIRECTION('',(0.,0.,1.));
#1107=AXIS2_PLACEMENT_3D('',#1104,#1105,#1106);
#1108=CIRCLE('',#1107,1.);
#1109=EDGE_CURVE('',#614,#636,#1108,.T.);
#1110=ORIENTED_EDGE('',*,*,#1109,.T.);
#1111=ORIENTED_EDGE('',*,*,#656,.F.);
#1112=ORIENTED_EDGE('',*,*,#418,.F.);
#1113=EDGE_LOOP('',(#1103,#1110,#1111,#1112));
#1114=FACE_BOUND('',#1113,.T.);
#1115=ADVANCED_FACE('',(#1114),#1102,.T.);
#1116=CARTESIAN_POINT('',(713.953,89.739025991,649.676530423));
#1117=DIRECTION('',(0.,0.,1.));
#1118=DIRECTION('',(1.,0.,-0.));
#1119=AXIS2_PLACEMENT_3D('',#1116,#1117,#1118);
#1120=CYLINDRICAL_SURFACE('',#1119,1.);
#1121=ORIENTED_EDGE('',*,*,#874,.F.);
#1122=CARTESIAN_POINT('',(713.953,89.739025991,610.676530423));
#1123=DIRECTION('',(0.,0.,1.));
#1124=DIRECTION('',(1.,0.,-0.));
#1125=AXIS2_PLACEMENT_3D('',#1122,#1123,#1124);
#1126=CIRCLE('',#1125,1.);
#1127=EDGE_CURVE('',#861,#638,#1126,.T.);
#1128=ORIENTED_EDGE('',*,*,#1127,.T.);
#1129=ORIENTED_EDGE('',*,*,#643,.F.);
#1130=CARTESIAN_POINT('',(713.953,89.739025991,613.676530423));
#1131=DIRECTION('',(0.,0.,1.));
#1132=DIRECTION('',(1.,0.,-0.));
#1133=AXIS2_PLACEMENT_3D('',#1130,#1131,#1132);
#1134=CIRCLE('',#1133,1.);
#1135=EDGE_CURVE('',#869,#636,#1134,.T.);
#1136=ORIENTED_EDGE('',*,*,#1135,.F.);
#1137=EDGE_LOOP('',(#1121,#1128,#1129,#1136));
#1138=FACE_BOUND('',#1137,.T.);
#1139=ADVANCED_FACE('',(#1138),#1120,.T.);
#1140=CARTESIAN_POINT('',(713.953,89.739025991,613.676530423));
#1141=DIRECTION('',(-1.,0.,0.));
#1142=DIRECTION('',(0.,0.,1.));
#1143=AXIS2_PLACEMENT_3D('',#1140,#1141,#1142);
#1144=SPHERICAL_SURFACE('',#1143,1.);
#1145=ORIENTED_EDGE('',*,*,#1135,.T.);
#1146=ORIENTED_EDGE('',*,*,#1109,.F.);
#1147=CARTESIAN_POINT('',(713.953,89.739025991,613.676530423));
#1148=DIRECTION('',(0.,-1.,0.));
#1149=DIRECTION('',(0.,0.,-1.));
#1150=AXIS2_PLACEMENT_3D('',#1147,#1148,#1149);
#1151=CIRCLE('',#1150,1.);
#1152=EDGE_CURVE('',#869,#614,#1151,.T.);
#1153=ORIENTED_EDGE('',*,*,#1152,.F.);
#1154=EDGE_LOOP('',(#1145,#1146,#1153));
#1155=FACE_BOUND('',#1154,.T.);
#1156=ADVANCED_FACE('',(#1155),#1144,.T.);
#1157=CARTESIAN_POINT('',(713.953,397.139666532,613.676530423));
#1158=DIRECTION('',(0.,1.,0.));
#1159=DIRECTION('',(0.,-0.,1.));
#1160=AXIS2_PLACEMENT_3D('',#1157,#1158,#1159);
#1161=CYLINDRICAL_SURFACE('',#1160,1.);
#1162=CARTESIAN_POINT('',(713.953,82.739025991,613.676530423));
#1163=DIRECTION('',(0.,-1.,0.));
#1164=DIRECTION('',(0.,0.,-1.));
#1165=AXIS2_PLACEMENT_3D('',#1162,#1163,#1164);
#1166=CIRCLE('',#1165,1.);
#1167=EDGE_CURVE('',#877,#606,#1166,.T.);
#1168=ORIENTED_EDGE('',*,*,#1167,.F.);
#1169=ORIENTED_EDGE('',*,*,#882,.F.);
#1170=ORIENTED_EDGE('',*,*,#1152,.T.);
#1171=ORIENTED_EDGE('',*,*,#619,.F.);
#1172=EDGE_LOOP('',(#1168,#1169,#1170,#1171));
#1173=FACE_BOUND('',#1172,.T.);
#1174=ADVANCED_FACE('',(#1173),#1161,.T.);
#1175=CARTESIAN_POINT('',(713.953,82.739025991,613.676530423));
#1176=DIRECTION('',(0.,0.,1.));
#1177=DIRECTION('',(1.,0.,-0.));
#1178=AXIS2_PLACEMENT_3D('',#1175,#1176,#1177);
#1179=SPHERICAL_SURFACE('',#1178,1.);
#1180=ORIENTED_EDGE('',*,*,#1038,.F.);
#1181=ORIENTED_EDGE('',*,*,#1167,.T.);
#1182=CARTESIAN_POINT('',(713.953,82.739025991,613.676530423));
#1183=DIRECTION('',(-1.,0.,0.));
#1184=DIRECTION('',(0.,0.,1.));
#1185=AXIS2_PLACEMENT_3D('',#1182,#1183,#1184);
#1186=CIRCLE('',#1185,1.);
#1187=EDGE_CURVE('',#576,#606,#1186,.T.);
#1188=ORIENTED_EDGE('',*,*,#1187,.F.);
#1189=EDGE_LOOP('',(#1180,#1181,#1188));
#1190=FACE_BOUND('',#1189,.T.);
#1191=ADVANCED_FACE('',(#1190),#1179,.T.);
#1192=CARTESIAN_POINT('',(714.953,82.739025991,613.676530423));
#1193=DIRECTION('',(-1.,0.,0.));
#1194=DIRECTION('',(0.,0.,1.));
#1195=AXIS2_PLACEMENT_3D('',#1192,#1193,#1194);
#1196=CYLINDRICAL_SURFACE('',#1195,1.);
#1197=ORIENTED_EDGE('',*,*,#1187,.T.);
#1198=ORIENTED_EDGE('',*,*,#611,.F.);
#1199=ORIENTED_EDGE('',*,*,#401,.F.);
#1200=ORIENTED_EDGE('',*,*,#587,.F.);
#1201=EDGE_LOOP('',(#1197,#1198,#1199,#1200));
#1202=FACE_BOUND('',#1201,.T.);
#1203=ADVANCED_FACE('',(#1202),#1196,.T.);
#1204=CARTESIAN_POINT('',(695.953,85.739025991,649.676530423));
#1205=DIRECTION('',(0.,0.,-1.));
#1206=DIRECTION('',(-1.,0.,0.));
#1207=AXIS2_PLACEMENT_3D('',#1204,#1205,#1206);
#1208=CYLINDRICAL_SURFACE('',#1207,1.);
#1209=ORIENTED_EDGE('',*,*,#695,.F.);
#1210=ORIENTED_EDGE('',*,*,#720,.F.);
#1211=ORIENTED_EDGE('',*,*,#759,.F.);
#1212=ORIENTED_EDGE('',*,*,#451,.F.);
#1213=EDGE_LOOP('',(#1209,#1210,#1211,#1212));
#1214=FACE_BOUND('',#1213,.T.);
#1215=ADVANCED_FACE('',(#1214),#1208,.T.);
#1216=CARTESIAN_POINT('',(714.953,89.739025991,610.676530423));
#1217=DIRECTION('',(-1.,0.,0.));
#1218=DIRECTION('',(0.,0.,1.));
#1219=AXIS2_PLACEMENT_3D('',#1216,#1217,#1218);
#1220=CYLINDRICAL_SURFACE('',#1219,1.);
#1221=ORIENTED_EDGE('',*,*,#435,.F.);
#1222=ORIENTED_EDGE('',*,*,#649,.F.);
#1223=CARTESIAN_POINT('',(713.953,89.739025991,610.676530423));
#1224=DIRECTION('',(1.,0.,0.));
#1225=DIRECTION('',(0.,0.,-1.));
#1226=AXIS2_PLACEMENT_3D('',#1223,#1224,#1225);
#1227=CIRCLE('',#1226,1.);
#1228=EDGE_CURVE('',#667,#638,#1227,.T.);
#1229=ORIENTED_EDGE('',*,*,#1228,.F.);
#1230=ORIENTED_EDGE('',*,*,#672,.F.);
#1231=EDGE_LOOP('',(#1221,#1222,#1229,#1230));
#1232=FACE_BOUND('',#1231,.T.);
#1233=ADVANCED_FACE('',(#1232),#1220,.T.);
#1234=CARTESIAN_POINT('',(713.953,89.739025991,610.676530423));
#1235=DIRECTION('',(0.,0.,-1.));
#1236=DIRECTION('',(-1.,0.,0.));
#1237=AXIS2_PLACEMENT_3D('',#1234,#1235,#1236);
#1238=SPHERICAL_SURFACE('',#1237,1.);
#1239=ORIENTED_EDGE('',*,*,#1228,.T.);
#1240=ORIENTED_EDGE('',*,*,#1127,.F.);
#1241=CARTESIAN_POINT('',(713.953,89.739025991,610.676530423));
#1242=DIRECTION('',(0.,-1.,0.));
#1243=DIRECTION('',(0.,0.,-1.));
#1244=AXIS2_PLACEMENT_3D('',#1241,#1242,#1243);
#1245=CIRCLE('',#1244,1.);
#1246=EDGE_CURVE('',#667,#861,#1245,.T.);
#1247=ORIENTED_EDGE('',*,*,#1246,.F.);
#1248=EDGE_LOOP('',(#1239,#1240,#1247));
#1249=FACE_BOUND('',#1248,.T.);
#1250=ADVANCED_FACE('',(#1249),#1238,.T.);
#1251=CARTESIAN_POINT('',(713.953,397.139666532,610.676530423));
#1252=DIRECTION('',(0.,-1.,0.));
#1253=DIRECTION('',(0.,0.,-1.));
#1254=AXIS2_PLACEMENT_3D('',#1251,#1252,#1253);
#1255=CYLINDRICAL_SURFACE('',#1254,1.);
#1256=ORIENTED_EDGE('',*,*,#1021,.F.);
#1257=ORIENTED_EDGE('',*,*,#680,.F.);
#1258=ORIENTED_EDGE('',*,*,#1246,.T.);
#1259=ORIENTED_EDGE('',*,*,#866,.F.);
#1260=EDGE_LOOP('',(#1256,#1257,#1258,#1259));
#1261=FACE_BOUND('',#1260,.T.);
#1262=ADVANCED_FACE('',(#1261),#1255,.T.);
#1263=CLOSED_SHELL('',(#52,#87,#113,#139,#174,#200,#226,#261,#287,#345,#481,#543,#567,#598,#629,#660,#700,#731,#763,#794,#819,#844,#919,#937,#955,#973,
#997,#1008,#1026,#1050,#1068,#1085,#1097,#1115,#1139,#1156,#1174,#1191,#1203,#1215,#1233,#1250,#1262));
#1264=MANIFOLD_SOLID_BREP('Right-w-nail-x3-v2',#1263);
#26=STYLED_ITEM('',(),#1264);
#16=SHAPE_REPRESENTATION('Right-w-nail-x3-v2',(#15),#10);
#17=ADVANCED_BREP_SHAPE_REPRESENTATION('Right-w-nail-x3-v2',(#1264),#10);
#1272=SHAPE_REPRESENTATION_RELATIONSHIP('','',#16,#17);
#1273=APPLICATION_CONTEXT('configuration controlled 3D design of mechanical parts and assemblies');
#1274=APPLICATION_PROTOCOL_DEFINITION('international standard','configuration_control_3d_design_ed2_mim',2004,#1273);
#1275=PRODUCT_CONTEXT('',#1273,'mechanical');
#1276=PRODUCT_DEFINITION_CONTEXT('part definition',#1273,'design');
#24=PRODUCT('Right-w-nail-x3-v2','Right-w-nail-x3-v2','',(#1275));
#1277=PRODUCT_RELATED_PRODUCT_CATEGORY('part','',(#24));
#1278=PRODUCT_DEFINITION_FORMATION_WITH_SPECIFIED_SOURCE('','',#24,.NOT_KNOWN.);
#25=PRODUCT_DEFINITION('design','',#1278,#1276);
#23=PRODUCT_DEFINITION_SHAPE('','',#25);
#1279=SHAPE_DEFINITION_REPRESENTATION(#23,#16);
#11=DRAUGHTING_MODEL('',(),#10);
#1=MECHANICAL_DESIGN_GEOMETRIC_PRESENTATION_REPRESENTATION('',(#26),#10);
ENDSEC;
END-ISO-10303-21;
