# Created by FreeCAD <http://www.freecadweb.org>
v 45.674000 10.000000 0.000000
v 25.674000 10.000000 0.000000
v 25.674000 10.000000 20.000000
v 45.674000 10.000000 20.000000
v 25.674000 -10.000000 0.000000
v 25.674000 -10.000000 20.000000
v 45.674000 -10.000000 0.000000
v 45.674000 -10.000000 20.000000
v 37.094162 -10.000000 12.057460
v 37.545277 -10.000000 11.657806
v 37.887638 -10.000000 11.161808
v 36.560513 -10.000000 12.337541
v 38.101353 -10.000000 10.598289
v 35.975342 -10.000000 12.481772
v 38.174000 -10.000000 10.000000
v 35.372658 -10.000000 12.481772
v 37.887638 -10.000000 8.838192
v 37.545277 -10.000000 8.342194
v 38.101353 -10.000000 9.401711
v 34.787487 -10.000000 12.337541
v 34.253838 -10.000000 12.057460
v 33.802723 -10.000000 11.657806
v 37.094162 -10.000000 7.942540
v 33.460361 -10.000000 11.161808
v 36.560513 -10.000000 7.662459
v 33.246647 -10.000000 10.598289
v 35.975342 -10.000000 7.518228
v 33.174000 -10.000000 10.000000
v 33.246647 -10.000000 9.401711
v 33.460361 -10.000000 8.838192
v 33.802723 -10.000000 8.342194
v 34.253838 -10.000000 7.942540
v 34.787487 -10.000000 7.662459
v 35.372658 -10.000000 7.518228
v 38.174000 -8.000000 10.000000
v 38.101353 -8.000000 10.598289
v 37.887638 -8.000000 11.161808
v 37.545277 -8.000000 11.657806
v 37.094162 -8.000000 12.057460
v 36.560513 -8.000000 12.337541
v 35.975342 -8.000000 12.481772
v 35.372658 -8.000000 12.481772
v 34.787487 -8.000000 12.337541
v 34.253838 -8.000000 12.057460
v 33.802723 -8.000000 11.657806
v 33.460361 -8.000000 11.161808
v 33.246647 -8.000000 10.598289
v 33.174000 -8.000000 10.000000
v 33.246647 -8.000000 9.401711
v 33.460361 -8.000000 8.838192
v 33.802723 -8.000000 8.342194
v 34.253838 -8.000000 7.942540
v 34.787487 -8.000000 7.662459
v 35.372658 -8.000000 7.518228
v 35.975342 -8.000000 7.518228
v 36.560513 -8.000000 7.662459
v 37.094162 -8.000000 7.942540
v 37.545277 -8.000000 8.342194
v 37.887638 -8.000000 8.838192
v 38.101353 -8.000000 9.401711
v 33.802723 -8.000000 11.657806
v 34.787487 -8.000000 12.337541
v 34.253838 -8.000000 12.057460
v 33.460361 -8.000000 11.161808
v 33.246647 -8.000000 10.598289
v 33.174000 -8.000000 10.000000
v 38.101353 -8.000000 10.598289
v 35.372658 -8.000000 12.481772
v 36.560513 -8.000000 12.337541
v 35.975342 -8.000000 12.481772
v 37.094162 -8.000000 12.057460
v 37.887638 -8.000000 11.161808
v 37.545277 -8.000000 11.657806
vn 0.000000 1.000000 0.000000
vn 0.000000 1.000000 -0.000000
vn -1.000000 0.000000 0.000000
vn -1.000000 0.000000 0.000000
vn 1.000000 0.000000 0.000000
vn 1.000000 0.000000 0.000000
vn 0.000000 0.000000 -1.000000
vn 0.000000 0.000000 -1.000000
vn 0.000000 0.000000 1.000000
vn 0.000000 0.000000 1.000000
vn 0.000000 -1.000000 0.000000
vn 0.000000 -1.000000 0.000000
vn 0.000000 -1.000000 0.000000
vn 0.000000 -1.000000 0.000000
vn 0.000000 -1.000000 0.000000
vn 0.000000 -1.000000 0.000000
vn 0.000000 -1.000000 0.000000
vn 0.000000 -1.000000 0.000000
vn 0.000000 -1.000000 0.000000
vn 0.000000 -1.000000 0.000000
vn 0.000000 -1.000000 0.000000
vn 0.000000 -1.000000 0.000000
vn 0.000000 -1.000000 0.000000
vn 0.000000 -1.000000 0.000000
vn 0.000000 -1.000000 0.000000
vn 0.000000 -1.000000 0.000000
vn 0.000000 -1.000000 0.000000
vn 0.000000 -1.000000 0.000000
vn 0.000000 -1.000000 0.000000
vn 0.000000 -1.000000 0.000000
vn 0.000000 -1.000000 0.000000
vn 0.000000 -1.000000 0.000000
vn 0.000000 -1.000000 0.000000
vn 0.000000 -1.000000 0.000000
vn 0.000000 -1.000000 0.000000
vn 0.000000 -1.000000 0.000000
vn 0.000000 -1.000000 0.000000
vn 0.000000 -1.000000 0.000000
vn 0.000000 -1.000000 0.000000
vn 0.000000 -1.000000 0.000000
vn -0.992709 0.000000 -0.120539
vn -0.992709 0.000000 -0.120539
vn -0.935016 0.000000 -0.354605
vn -0.935016 0.000000 -0.354605
vn -0.822985 0.000000 -0.568063
vn -0.822985 0.000000 -0.568063
vn -0.663123 0.000000 -0.748510
vn -0.663123 0.000000 -0.748510
vn -0.464723 0.000000 -0.885456
vn -0.464723 0.000000 -0.885456
vn -0.239316 0.000000 -0.970942
vn -0.239316 0.000000 -0.970942
vn -0.000000 0.000000 -1.000000
vn 0.000000 0.000000 -1.000000
vn 0.239316 0.000000 -0.970942
vn 0.464723 0.000000 -0.885456
vn 0.239316 0.000000 -0.970942
vn 0.464723 0.000000 -0.885456
vn 0.663123 0.000000 -0.748510
vn 0.663123 0.000000 -0.748510
vn 0.822985 0.000000 -0.568063
vn 0.822985 0.000000 -0.568063
vn 0.935016 0.000000 -0.354605
vn 0.935016 0.000000 -0.354605
vn 0.992709 0.000000 -0.120539
vn 0.992709 0.000000 -0.120539
vn 0.992709 0.000000 0.120539
vn 0.992709 -0.000000 0.120539
vn 0.935016 0.000000 0.354605
vn 0.935016 -0.000000 0.354605
vn 0.822985 0.000000 0.568063
vn 0.822985 -0.000000 0.568063
vn 0.663123 0.000000 0.748510
vn 0.663123 -0.000000 0.748510
vn 0.464723 0.000000 0.885456
vn 0.464723 -0.000000 0.885456
vn 0.239316 0.000000 0.970942
vn 0.239316 -0.000000 0.970942
vn -0.000000 0.000000 1.000000
vn 0.000000 0.000000 1.000000
vn -0.239316 0.000000 0.970942
vn -0.239316 0.000000 0.970942
vn -0.464723 0.000000 0.885456
vn -0.464723 0.000000 0.885456
vn -0.663123 0.000000 0.748510
vn -0.663123 0.000000 0.748510
vn -0.822985 0.000000 0.568063
vn -0.822985 0.000000 0.568063
vn -0.935016 0.000000 0.354605
vn -0.935016 0.000000 0.354605
vn -0.992709 0.000000 0.120539
vn -0.992709 0.000000 0.120539
vn 0.000000 -1.000000 0.000000
vn 0.000000 -1.000000 0.000000
vn 0.000000 -1.000000 0.000000
vn 0.000000 -1.000000 0.000000
vn -0.000000 -1.000000 0.000000
vn -0.000000 -1.000000 0.000000
vn -0.000000 -1.000000 0.000000
vn 0.000000 -1.000000 0.000000
vn 0.000000 -1.000000 0.000000
vn 0.000000 -1.000000 0.000000
vn 0.000000 -1.000000 0.000000
vn 0.000000 -1.000000 0.000000
vn 0.000000 -1.000000 0.000000
vn -0.000000 -1.000000 0.000000
vn -0.000000 -1.000000 0.000000
vn 0.000000 -1.000000 0.000000
vn 0.000000 -1.000000 0.000000
vn 0.000000 -1.000000 0.000000
vn -0.000000 -1.000000 -0.000000
vn 0.000000 -1.000000 0.000000
vn -0.000000 -1.000000 0.000000
vn 0.000000 -1.000000 0.000000
vn -0.000000 -1.000000 0.000000
vn 0.000000 -1.000000 0.000000
f 1//1 2//1 3//1
f 1//2 3//2 4//2
f 2//3 5//3 6//3
f 2//4 6//4 3//4
f 7//5 1//5 4//5
f 7//6 4//6 8//6
f 2//7 1//7 5//7
f 5//8 1//8 7//8
f 4//9 3//9 6//9
f 4//10 6//10 8//10
f 9//11 10//11 8//11
f 11//12 8//12 10//12
f 12//13 9//13 8//13
f 13//14 8//14 11//14
f 14//15 12//15 8//15
f 15//16 8//16 13//16
f 16//17 14//17 8//17
f 7//18 17//18 18//18
f 7//19 19//19 17//19
f 7//20 15//20 19//20
f 7//21 8//21 15//21
f 6//22 20//22 16//22
f 6//23 21//23 20//23
f 6//24 16//24 8//24
f 22//25 21//25 6//25
f 23//26 7//26 18//26
f 24//27 22//27 6//27
f 25//28 7//28 23//28
f 26//29 24//29 6//29
f 27//30 7//30 25//30
f 28//31 26//31 6//31
f 5//32 29//32 28//32
f 5//33 30//33 29//33
f 5//34 31//34 30//34
f 5//35 32//35 31//35
f 5//36 33//36 32//36
f 5//37 34//37 33//37
f 5//38 27//38 34//38
f 5//39 7//39 27//39
f 5//40 28//40 6//40
f 15//41 13//41 35//41
f 35//42 13//42 36//42
f 36//43 11//43 37//43
f 13//44 11//44 36//44
f 37//45 10//45 38//45
f 11//46 10//46 37//46
f 38//47 9//47 39//47
f 10//48 9//48 38//48
f 39//49 12//49 40//49
f 9//50 12//50 39//50
f 40//51 14//51 41//51
f 12//52 14//52 40//52
f 41//53 16//53 42//53
f 14//54 16//54 41//54
f 42//55 20//55 43//55
f 43//56 20//56 44//56
f 16//57 20//57 42//57
f 20//58 21//58 44//58
f 44//59 22//59 45//59
f 21//60 22//60 44//60
f 45//61 24//61 46//61
f 22//62 24//62 45//62
f 24//63 26//63 46//63
f 46//64 26//64 47//64
f 26//65 28//65 47//65
f 47//66 28//66 48//66
f 48//67 29//67 49//67
f 28//68 29//68 48//68
f 49//69 30//69 50//69
f 29//70 30//70 49//70
f 50//71 31//71 51//71
f 30//72 31//72 50//72
f 51//73 32//73 52//73
f 31//74 32//74 51//74
f 52//75 33//75 53//75
f 32//76 33//76 52//76
f 53//77 34//77 54//77
f 33//78 34//78 53//78
f 54//79 27//79 55//79
f 34//80 27//80 54//80
f 55//81 25//81 56//81
f 27//82 25//82 55//82
f 56//83 23//83 57//83
f 25//84 23//84 56//84
f 57//85 18//85 58//85
f 23//86 18//86 57//86
f 58//87 17//87 59//87
f 18//88 17//88 58//88
f 59//89 19//89 60//89
f 17//90 19//90 59//90
f 60//91 15//91 35//91
f 19//92 15//92 60//92
f 52//93 53//93 51//93
f 51//94 54//94 50//94
f 53//95 54//95 51//95
f 55//96 56//96 54//96
f 57//97 58//97 56//97
f 56//98 59//98 54//98
f 58//99 59//99 56//99
f 61//100 62//100 63//100
f 64//101 62//101 61//101
f 65//102 62//102 64//102
f 66//103 62//103 65//103
f 49//104 62//104 66//104
f 50//105 62//105 49//105
f 60//106 67//106 59//106
f 35//107 67//107 60//107
f 68//108 69//108 70//108
f 62//109 71//109 68//109
f 68//110 71//110 69//110
f 72//111 73//111 67//111
f 54//112 73//112 50//112
f 67//113 73//113 59//113
f 50//114 73//114 62//114
f 59//115 73//115 54//115
f 62//116 73//116 71//116
