# Created by FreeCAD <http://www.freecadweb.org>
v 27.674000 10.000000 0.000000
v 27.674000 10.000000 20.000000
v 43.674000 10.000000 20.000000
v 43.674000 10.000000 0.000000
v 26.110338 -9.246980 0.000000
v 25.872063 -8.867767 0.000000
v 26.427021 -9.563663 0.000000
v 27.228958 -9.949856 0.000000
v 26.806232 -9.801938 0.000000
v 27.674000 -10.000000 0.000000
v 25.724144 -8.445042 0.000000
v 25.674000 -8.000000 0.000000
v 25.724144 8.445042 0.000000
v 25.872063 8.867767 0.000000
v 25.674000 8.000000 0.000000
v 44.119041 -9.949856 0.000000
v 44.920979 -9.563663 0.000000
v 44.541767 -9.801938 0.000000
v 43.674000 -10.000000 0.000000
v 26.110338 9.246980 0.000000
v 26.427021 9.563663 0.000000
v 45.237663 -9.246980 0.000000
v 45.475937 -8.867767 0.000000
v 45.623856 -8.445042 0.000000
v 26.806232 9.801938 0.000000
v 27.228958 9.949856 0.000000
v 45.674000 -8.000000 0.000000
v 45.674000 8.000000 0.000000
v 44.119041 9.949856 0.000000
v 44.541767 9.801938 0.000000
v 45.623856 8.445042 0.000000
v 45.237663 9.246980 0.000000
v 45.475937 8.867767 0.000000
v 44.920979 9.563663 0.000000
v 27.228958 9.949856 20.000000
v 26.806232 9.801938 20.000000
v 26.427021 9.563663 20.000000
v 26.110338 9.246980 20.000000
v 25.872063 8.867767 20.000000
v 25.724144 8.445042 20.000000
v 25.674000 8.000000 20.000000
v 44.119041 9.949856 20.000000
v 44.541767 9.801938 20.000000
v 44.920979 9.563663 20.000000
v 45.237663 9.246980 20.000000
v 45.475937 8.867767 20.000000
v 45.623856 8.445042 20.000000
v 45.674000 8.000000 20.000000
v 25.872063 -8.867767 20.000000
v 26.110338 -9.246980 20.000000
v 26.427021 -9.563663 20.000000
v 27.228958 -9.949856 20.000000
v 26.806232 -9.801938 20.000000
v 27.674000 -10.000000 20.000000
v 25.674000 -8.000000 20.000000
v 25.724144 -8.445042 20.000000
v 44.920979 -9.563663 20.000000
v 44.119041 -9.949856 20.000000
v 44.541767 -9.801938 20.000000
v 43.674000 -10.000000 20.000000
v 45.237663 -9.246980 20.000000
v 45.475937 -8.867767 20.000000
v 45.623856 -8.445042 20.000000
v 45.674000 -8.000000 20.000000
v 37.094162 -10.000000 12.057460
v 37.545277 -10.000000 11.657806
v 37.887638 -10.000000 11.161808
v 36.560513 -10.000000 12.337541
v 38.101353 -10.000000 10.598289
v 35.975342 -10.000000 12.481772
v 38.174000 -10.000000 10.000000
v 35.372658 -10.000000 12.481772
v 34.787487 -10.000000 12.337541
v 34.253838 -10.000000 12.057460
v 33.802723 -10.000000 11.657806
v 33.460361 -10.000000 11.161808
v 33.246647 -10.000000 10.598289
v 37.094162 -10.000000 7.942540
v 36.560513 -10.000000 7.662459
v 37.545277 -10.000000 8.342194
v 37.887638 -10.000000 8.838192
v 38.101353 -10.000000 9.401711
v 35.975342 -10.000000 7.518228
v 33.174000 -10.000000 10.000000
v 33.246647 -10.000000 9.401711
v 33.460361 -10.000000 8.838192
v 33.802723 -10.000000 8.342194
v 34.253838 -10.000000 7.942540
v 34.787487 -10.000000 7.662459
v 35.372658 -10.000000 7.518228
v 38.174000 -8.000000 10.000000
v 38.101353 -8.000000 10.598289
v 37.887638 -8.000000 11.161808
v 37.545277 -8.000000 11.657806
v 37.094162 -8.000000 12.057460
v 36.560513 -8.000000 12.337541
v 35.975342 -8.000000 12.481772
v 35.372658 -8.000000 12.481772
v 34.787487 -8.000000 12.337541
v 34.253838 -8.000000 12.057460
v 33.802723 -8.000000 11.657806
v 33.460361 -8.000000 11.161808
v 33.246647 -8.000000 10.598289
v 33.174000 -8.000000 10.000000
v 33.246647 -8.000000 9.401711
v 33.460361 -8.000000 8.838192
v 33.802723 -8.000000 8.342194
v 34.253838 -8.000000 7.942540
v 34.787487 -8.000000 7.662459
v 35.372658 -8.000000 7.518228
v 35.975342 -8.000000 7.518228
v 36.560513 -8.000000 7.662459
v 37.094162 -8.000000 7.942540
v 37.545277 -8.000000 8.342194
v 37.887638 -8.000000 8.838192
v 38.101353 -8.000000 9.401711
v 33.802723 -8.000000 11.657806
v 34.787487 -8.000000 12.337541
v 34.253838 -8.000000 12.057460
v 33.460361 -8.000000 11.161808
v 33.246647 -8.000000 10.598289
v 33.174000 -8.000000 10.000000
v 38.101353 -8.000000 10.598289
v 35.372658 -8.000000 12.481772
v 36.560513 -8.000000 12.337541
v 35.975342 -8.000000 12.481772
v 37.094162 -8.000000 12.057460
v 37.887638 -8.000000 11.161808
v 37.545277 -8.000000 11.657806
vn 0.000000 1.000000 0.000000
vn 0.000000 1.000000 -0.000000
vn 0.000000 0.000000 -1.000000
vn 0.000000 0.000000 -1.000000
vn 0.000000 0.000000 -1.000000
vn 0.000000 0.000000 -1.000000
vn 0.000000 0.000000 -1.000000
vn 0.000000 0.000000 -1.000000
vn 0.000000 -0.000000 -1.000000
vn 0.000000 0.000000 -1.000000
vn 0.000000 0.000000 -1.000000
vn 0.000000 -0.000000 -1.000000
vn 0.000000 -0.000000 -1.000000
vn 0.000000 0.000000 -1.000000
vn 0.000000 0.000000 -1.000000
vn 0.000000 0.000000 -1.000000
vn 0.000000 -0.000000 -1.000000
vn 0.000000 -0.000000 -1.000000
vn 0.000000 0.000000 -1.000000
vn 0.000000 -0.000000 -1.000000
vn -0.000000 -0.000000 -1.000000
vn 0.000000 0.000000 -1.000000
vn 0.000000 0.000000 -1.000000
vn 0.000000 0.000000 -1.000000
vn 0.000000 0.000000 -1.000000
vn 0.000000 -0.000000 -1.000000
vn -0.000000 -0.000000 -1.000000
vn 0.000000 0.000000 -1.000000
vn 0.000000 0.000000 -1.000000
vn 0.000000 0.000000 -1.000000
vn 0.000000 0.000000 -1.000000
vn -0.000000 -0.000000 -1.000000
vn -0.111965 0.993712 0.000000
vn -0.111965 0.993712 0.000000
vn -0.330278 0.943884 0.000000
vn -0.330278 0.943884 0.000000
vn -0.532034 0.846723 0.000000
vn -0.532034 0.846723 0.000000
vn -0.707107 0.707107 0.000000
vn -0.846724 0.532033 0.000000
vn -0.707107 0.707107 0.000000
vn -0.846724 0.532033 0.000000
vn -0.943883 0.330280 0.000000
vn -0.993712 0.111965 0.000000
vn -0.943883 0.330280 0.000000
vn -0.993712 0.111965 0.000000
vn 0.111965 0.993712 0.000000
vn 0.111965 0.993712 0.000000
vn 0.330278 0.943884 0.000000
vn 0.330278 0.943884 0.000000
vn 0.532034 0.846723 0.000000
vn 0.532034 0.846723 0.000000
vn 0.707105 0.707109 0.000000
vn 0.846725 0.532030 -0.000000
vn 0.707105 0.707109 0.000000
vn 0.846725 0.532030 0.000000
vn 0.943883 0.330280 0.000000
vn 0.993712 0.111965 -0.000000
vn 0.943883 0.330280 0.000000
vn 0.993712 0.111965 0.000000
vn 0.000000 0.000000 1.000000
vn 0.000000 0.000000 1.000000
vn 0.000000 0.000000 1.000000
vn 0.000000 0.000000 1.000000
vn 0.000000 0.000000 1.000000
vn 0.000000 0.000000 1.000000
vn 0.000000 0.000000 1.000000
vn 0.000000 0.000000 1.000000
vn 0.000000 0.000000 1.000000
vn 0.000000 0.000000 1.000000
vn 0.000000 0.000000 1.000000
vn 0.000000 0.000000 1.000000
vn 0.000000 0.000000 1.000000
vn 0.000000 0.000000 1.000000
vn 0.000000 0.000000 1.000000
vn 0.000000 0.000000 1.000000
vn 0.000000 0.000000 1.000000
vn 0.000000 0.000000 1.000000
vn 0.000000 0.000000 1.000000
vn 0.000000 0.000000 1.000000
vn 0.000000 0.000000 1.000000
vn 0.000000 0.000000 1.000000
vn 0.000000 0.000000 1.000000
vn 0.000000 0.000000 1.000000
vn 0.000000 0.000000 1.000000
vn 0.000000 0.000000 1.000000
vn 0.000000 0.000000 1.000000
vn 0.000000 0.000000 1.000000
vn 0.000000 0.000000 1.000000
vn 0.000000 0.000000 1.000000
vn -1.000000 0.000000 0.000000
vn -1.000000 0.000000 0.000000
vn 1.000000 0.000000 0.000000
vn 1.000000 0.000000 0.000000
vn -0.993712 -0.111965 -0.000000
vn -0.993712 -0.111965 0.000000
vn -0.943883 -0.330280 -0.000000
vn -0.943883 -0.330280 0.000000
vn -0.846724 -0.532033 -0.000000
vn -0.846724 -0.532033 0.000000
vn -0.707107 -0.707107 -0.000000
vn -0.532034 -0.846723 -0.000000
vn -0.707107 -0.707107 0.000000
vn -0.532034 -0.846723 -0.000000
vn -0.330278 -0.943884 -0.000000
vn -0.111965 -0.993712 -0.000000
vn -0.330278 -0.943884 0.000000
vn -0.111965 -0.993712 -0.000000
vn 0.993712 -0.111965 0.000000
vn 0.993712 -0.111965 0.000000
vn 0.943883 -0.330280 0.000000
vn 0.943883 -0.330280 0.000000
vn 0.846725 -0.532030 0.000000
vn 0.846725 -0.532030 0.000000
vn 0.707105 -0.707109 0.000000
vn 0.532034 -0.846723 0.000000
vn 0.707105 -0.707109 0.000000
vn 0.532034 -0.846723 0.000000
vn 0.330278 -0.943884 0.000000
vn 0.111965 -0.993712 0.000000
vn 0.330278 -0.943884 0.000000
vn 0.111965 -0.993712 0.000000
vn 0.000000 -1.000000 0.000000
vn 0.000000 -1.000000 0.000000
vn 0.000000 -1.000000 0.000000
vn 0.000000 -1.000000 0.000000
vn 0.000000 -1.000000 0.000000
vn 0.000000 -1.000000 0.000000
vn 0.000000 -1.000000 0.000000
vn 0.000000 -1.000000 0.000000
vn 0.000000 -1.000000 0.000000
vn 0.000000 -1.000000 0.000000
vn 0.000000 -1.000000 0.000000
vn 0.000000 -1.000000 0.000000
vn 0.000000 -1.000000 0.000000
vn 0.000000 -1.000000 0.000000
vn 0.000000 -1.000000 0.000000
vn 0.000000 -1.000000 0.000000
vn 0.000000 -1.000000 0.000000
vn 0.000000 -1.000000 0.000000
vn 0.000000 -1.000000 0.000000
vn 0.000000 -1.000000 0.000000
vn 0.000000 -1.000000 0.000000
vn 0.000000 -1.000000 0.000000
vn 0.000000 -1.000000 0.000000
vn 0.000000 -1.000000 0.000000
vn 0.000000 -1.000000 0.000000
vn 0.000000 -1.000000 0.000000
vn 0.000000 -1.000000 0.000000
vn 0.000000 -1.000000 0.000000
vn 0.000000 -1.000000 0.000000
vn 0.000000 -1.000000 0.000000
vn -0.992709 0.000000 -0.120539
vn -0.992709 0.000000 -0.120539
vn -0.935016 0.000000 -0.354605
vn -0.935016 0.000000 -0.354605
vn -0.822985 0.000000 -0.568063
vn -0.822985 0.000000 -0.568063
vn -0.663123 0.000000 -0.748510
vn -0.663123 0.000000 -0.748510
vn -0.464723 0.000000 -0.885456
vn -0.464723 0.000000 -0.885456
vn -0.239316 0.000000 -0.970942
vn -0.239316 0.000000 -0.970942
vn -0.000000 0.000000 -1.000000
vn 0.000000 0.000000 -1.000000
vn 0.239316 0.000000 -0.970942
vn 0.464723 0.000000 -0.885456
vn 0.239316 0.000000 -0.970942
vn 0.464723 0.000000 -0.885456
vn 0.663123 0.000000 -0.748510
vn 0.663123 0.000000 -0.748510
vn 0.822985 0.000000 -0.568063
vn 0.822985 0.000000 -0.568063
vn 0.935016 0.000000 -0.354605
vn 0.935016 0.000000 -0.354605
vn 0.992709 0.000000 -0.120539
vn 0.992709 0.000000 -0.120539
vn 0.992709 0.000000 0.120539
vn 0.992709 -0.000000 0.120539
vn 0.935016 0.000000 0.354605
vn 0.935016 -0.000000 0.354605
vn 0.822985 0.000000 0.568063
vn 0.822985 -0.000000 0.568063
vn 0.663123 0.000000 0.748510
vn 0.663123 -0.000000 0.748510
vn 0.464723 0.000000 0.885456
vn 0.464723 -0.000000 0.885456
vn 0.239316 0.000000 0.970942
vn 0.239316 -0.000000 0.970942
vn -0.000000 0.000000 1.000000
vn 0.000000 0.000000 1.000000
vn -0.239316 0.000000 0.970942
vn -0.239316 0.000000 0.970942
vn -0.464723 0.000000 0.885456
vn -0.464723 0.000000 0.885456
vn -0.663123 0.000000 0.748510
vn -0.663123 0.000000 0.748510
vn -0.822985 0.000000 0.568063
vn -0.822985 0.000000 0.568063
vn -0.935016 0.000000 0.354605
vn -0.935016 0.000000 0.354605
vn -0.992709 0.000000 0.120539
vn -0.992709 0.000000 0.120539
vn 0.000000 -1.000000 0.000000
vn 0.000000 -1.000000 0.000000
vn 0.000000 -1.000000 0.000000
vn 0.000000 -1.000000 0.000000
vn -0.000000 -1.000000 0.000000
vn -0.000000 -1.000000 0.000000
vn -0.000000 -1.000000 0.000000
vn 0.000000 -1.000000 0.000000
vn 0.000000 -1.000000 0.000000
vn 0.000000 -1.000000 0.000000
vn 0.000000 -1.000000 0.000000
vn 0.000000 -1.000000 0.000000
vn 0.000000 -1.000000 0.000000
vn -0.000000 -1.000000 0.000000
vn -0.000000 -1.000000 0.000000
vn 0.000000 -1.000000 0.000000
vn 0.000000 -1.000000 0.000000
vn 0.000000 -1.000000 0.000000
vn -0.000000 -1.000000 -0.000000
vn 0.000000 -1.000000 0.000000
vn -0.000000 -1.000000 0.000000
vn 0.000000 -1.000000 0.000000
vn -0.000000 -1.000000 0.000000
vn 0.000000 -1.000000 0.000000
f 1//1 2//1 3//1
f 4//2 1//2 3//2
f 5//3 6//3 7//3
f 7//4 8//4 9//4
f 7//5 10//5 8//5
f 11//6 12//6 6//6
f 6//7 12//7 7//7
f 7//8 12//8 10//8
f 13//9 14//9 15//9
f 16//10 17//10 18//10
f 19//11 17//11 16//11
f 14//12 20//12 15//12
f 20//13 21//13 15//13
f 19//14 22//14 17//14
f 19//15 23//15 22//15
f 19//16 24//16 23//16
f 25//17 26//17 21//17
f 21//18 26//18 15//18
f 19//19 27//19 24//19
f 26//20 1//20 15//20
f 4//21 28//21 1//21
f 15//22 28//22 12//22
f 10//23 28//23 19//23
f 12//24 28//24 10//24
f 19//25 28//25 27//25
f 1//26 28//26 15//26
f 29//27 30//27 4//27
f 31//28 32//28 33//28
f 28//29 32//29 31//29
f 4//30 32//30 28//30
f 4//31 34//31 32//31
f 30//32 34//32 4//32
f 35//33 1//33 26//33
f 35//34 2//34 1//34
f 36//35 26//35 25//35
f 36//36 35//36 26//36
f 37//37 25//37 21//37
f 37//38 36//38 25//38
f 38//39 21//39 20//39
f 38//40 20//40 14//40
f 38//41 37//41 21//41
f 39//42 38//42 14//42
f 40//43 14//43 13//43
f 40//44 13//44 15//44
f 40//45 39//45 14//45
f 41//46 40//46 15//46
f 4//47 42//47 29//47
f 3//48 42//48 4//48
f 29//49 43//49 30//49
f 42//50 43//50 29//50
f 30//51 44//51 34//51
f 43//52 44//52 30//52
f 34//53 45//53 32//53
f 32//54 45//54 33//54
f 44//55 45//55 34//55
f 45//56 46//56 33//56
f 33//57 47//57 31//57
f 31//58 47//58 28//58
f 46//59 47//59 33//59
f 47//60 48//60 28//60
f 49//61 50//61 51//61
f 52//62 51//62 53//62
f 54//63 51//63 52//63
f 55//64 56//64 49//64
f 55//65 49//65 51//65
f 55//66 51//66 54//66
f 39//67 40//67 41//67
f 57//68 58//68 59//68
f 57//69 60//69 58//69
f 38//70 39//70 41//70
f 37//71 38//71 41//71
f 61//72 60//72 57//72
f 62//73 60//73 61//73
f 63//74 60//74 62//74
f 35//75 36//75 37//75
f 35//76 37//76 41//76
f 64//77 60//77 63//77
f 2//78 35//78 41//78
f 48//79 3//79 2//79
f 48//80 41//80 55//80
f 48//81 54//81 60//81
f 48//82 55//82 54//82
f 48//83 60//83 64//83
f 48//84 2//84 41//84
f 43//85 42//85 3//85
f 45//86 47//86 46//86
f 45//87 48//87 47//87
f 45//88 3//88 48//88
f 44//89 3//89 45//89
f 44//90 43//90 3//90
f 15//91 12//91 55//91
f 15//92 55//92 41//92
f 27//93 28//93 48//93
f 27//94 48//94 64//94
f 56//95 12//95 11//95
f 56//96 55//96 12//96
f 49//97 11//97 6//97
f 49//98 56//98 11//98
f 50//99 6//99 5//99
f 50//100 49//100 6//100
f 51//101 5//101 7//101
f 51//102 7//102 9//102
f 51//103 50//103 5//103
f 53//104 51//104 9//104
f 52//105 9//105 8//105
f 52//106 8//106 10//106
f 52//107 53//107 9//107
f 54//108 52//108 10//108
f 27//109 63//109 24//109
f 64//110 63//110 27//110
f 24//111 62//111 23//111
f 63//112 62//112 24//112
f 23//113 61//113 22//113
f 62//114 61//114 23//114
f 22//115 57//115 17//115
f 17//116 57//116 18//116
f 61//117 57//117 22//117
f 57//118 59//118 18//118
f 18//119 58//119 16//119
f 16//120 58//120 19//120
f 59//121 58//121 18//121
f 58//122 60//122 19//122
f 65//123 66//123 60//123
f 67//124 60//124 66//124
f 68//125 65//125 60//125
f 69//126 60//126 67//126
f 70//127 68//127 60//127
f 71//128 60//128 69//128
f 72//129 70//129 60//129
f 54//130 72//130 60//130
f 73//131 72//131 54//131
f 74//132 73//132 54//132
f 75//133 74//133 54//133
f 76//134 75//134 54//134
f 77//135 76//135 54//135
f 19//136 78//136 79//136
f 19//137 80//137 78//137
f 19//138 81//138 80//138
f 19//139 82//139 81//139
f 19//140 71//140 82//140
f 19//141 60//141 71//141
f 83//142 19//142 79//142
f 84//143 77//143 54//143
f 10//144 85//144 84//144
f 10//145 86//145 85//145
f 10//146 87//146 86//146
f 10//147 88//147 87//147
f 10//148 89//148 88//148
f 10//149 90//149 89//149
f 10//150 83//150 90//150
f 10//151 19//151 83//151
f 10//152 84//152 54//152
f 71//153 69//153 91//153
f 91//154 69//154 92//154
f 92//155 67//155 93//155
f 69//156 67//156 92//156
f 93//157 66//157 94//157
f 67//158 66//158 93//158
f 94//159 65//159 95//159
f 66//160 65//160 94//160
f 95//161 68//161 96//161
f 65//162 68//162 95//162
f 96//163 70//163 97//163
f 68//164 70//164 96//164
f 97//165 72//165 98//165
f 70//166 72//166 97//166
f 98//167 73//167 99//167
f 99//168 73//168 100//168
f 72//169 73//169 98//169
f 73//170 74//170 100//170
f 100//171 75//171 101//171
f 74//172 75//172 100//172
f 101//173 76//173 102//173
f 75//174 76//174 101//174
f 76//175 77//175 102//175
f 102//176 77//176 103//176
f 77//177 84//177 103//177
f 103//178 84//178 104//178
f 104//179 85//179 105//179
f 84//180 85//180 104//180
f 105//181 86//181 106//181
f 85//182 86//182 105//182
f 106//183 87//183 107//183
f 86//184 87//184 106//184
f 107//185 88//185 108//185
f 87//186 88//186 107//186
f 108//187 89//187 109//187
f 88//188 89//188 108//188
f 109//189 90//189 110//189
f 89//190 90//190 109//190
f 110//191 83//191 111//191
f 90//192 83//192 110//192
f 111//193 79//193 112//193
f 83//194 79//194 111//194
f 112//195 78//195 113//195
f 79//196 78//196 112//196
f 113//197 80//197 114//197
f 78//198 80//198 113//198
f 114//199 81//199 115//199
f 80//200 81//200 114//200
f 115//201 82//201 116//201
f 81//202 82//202 115//202
f 116//203 71//203 91//203
f 82//204 71//204 116//204
f 108//205 109//205 107//205
f 107//206 110//206 106//206
f 109//207 110//207 107//207
f 111//208 112//208 110//208
f 113//209 114//209 112//209
f 112//210 115//210 110//210
f 114//211 115//211 112//211
f 117//212 118//212 119//212
f 120//213 118//213 117//213
f 121//214 118//214 120//214
f 122//215 118//215 121//215
f 105//216 118//216 122//216
f 106//217 118//217 105//217
f 116//218 123//218 115//218
f 91//219 123//219 116//219
f 124//220 125//220 126//220
f 118//221 127//221 124//221
f 124//222 127//222 125//222
f 128//223 129//223 123//223
f 110//224 129//224 106//224
f 123//225 129//225 115//225
f 106//226 129//226 118//226
f 115//227 129//227 110//227
f 118//228 129//228 127//228
